<?xml version="1.0" encoding="UTF-8"?>
<svg version="1.1" xmlns="http://www.w3.org/2000/svg" width="512" height="512">
<path d="M0 0 C1.530802 -0.01073296 1.530802 -0.01073296 3.0925293 -0.02168274 C4.21153625 -0.02437164 5.33054321 -0.02706055 6.48345947 -0.02983093 C7.66258911 -0.03640213 8.84171875 -0.04297333 10.05657959 -0.04974365 C13.96742098 -0.06949057 17.87824896 -0.08114452 21.78912354 -0.09111023 C23.13708771 -0.0951588 24.48505168 -0.09927576 25.83301544 -0.10346031 C32.16709826 -0.12250762 38.50116947 -0.13673904 44.83527541 -0.14507228 C52.1387976 -0.15484035 59.44201636 -0.18115018 66.74543166 -0.22157317 C72.39566352 -0.25176922 78.04580858 -0.26654448 83.69611955 -0.26985329 C87.06836051 -0.27220003 90.44027717 -0.28111046 93.81243134 -0.30631447 C97.57802034 -0.3306332 101.34281615 -0.32975356 105.10845947 -0.32279968 C106.77482452 -0.34201477 106.77482452 -0.34201477 108.47485352 -0.36161804 C114.89313202 -0.31842484 118.85851191 0.27562335 124.05474854 4.14717102 C127.77592012 8.94552386 129.18561736 12.45991285 129.15240479 18.47138977 C129.14918213 19.49941711 129.14595947 20.52744446 129.14263916 21.58662415 C129.13426025 22.65847961 129.12588135 23.73033508 129.11724854 24.83467102 C129.11273682 25.91812805 129.1082251 27.00158508 129.10357666 28.11787415 C129.09178597 30.79436187 129.07532917 33.47073879 129.05474854 36.14717102 C129.65311523 36.12622375 130.25148193 36.10527649 130.86798096 36.08369446 C150.00278403 35.50301667 164.46468434 37.2833627 179.24224854 50.70967102 C191.48488214 63.73321335 194.5204759 78.83130344 194.45880127 96.19966125 C194.46451767 97.67113763 194.4714868 99.14260959 194.479599 100.61407471 C194.49739212 104.5723164 194.49639008 108.5303348 194.49065661 112.48860431 C194.48754876 115.80169369 194.49367389 119.11474117 194.49969536 122.42782456 C194.51368939 130.24015259 194.51221832 138.05237111 194.50079346 145.86470032 C194.48927875 153.91633609 194.5034555 161.96764007 194.53018993 170.01923221 C194.55233665 176.94945504 194.55898778 183.87957359 194.55311352 190.80982929 C194.54974491 194.94193911 194.5521543 199.07383554 194.56936455 203.20591545 C194.58481855 207.08442714 194.58089592 210.9624446 194.5620594 214.84093666 C194.55837118 216.26273377 194.56148889 217.68456743 194.57194519 219.10633087 C194.58513643 221.04820572 194.571211 222.99020816 194.55595398 224.93206787 C194.5557447 226.01802466 194.55553541 227.10398146 194.55531979 228.22284603 C193.9263338 231.89736675 192.7404745 233.59111311 190.05474854 236.14717102 C188.73474854 236.14717102 187.41474854 236.14717102 186.05474854 236.14717102 C186.05474854 242.41717102 186.05474854 248.68717102 186.05474854 255.14717102 C188.03474854 255.80717102 190.01474854 256.46717102 192.05474854 257.14717102 C194.57348236 260.92527176 194.33641762 263.91005532 194.31544495 268.28570557 C194.31927049 269.12509739 194.32309604 269.96448921 194.32703751 270.82931715 C194.33738722 273.65269799 194.33337152 276.47587621 194.32940674 279.29927063 C194.33375238 281.31962778 194.33893503 283.33998327 194.34489441 285.3603363 C194.35831823 290.85874139 194.35885884 296.35707788 194.35633111 301.85549617 C194.3552627 306.44740782 194.36014194 311.03930553 194.36493653 315.6312142 C194.37604551 326.47223706 194.3764627 337.31322529 194.37042236 348.1542511 C194.36439386 359.32457638 194.37666183 370.49477534 194.39799243 381.66507906 C194.41563897 391.26016031 194.42160459 400.85520149 194.41835469 410.45029837 C194.416545 416.17841716 194.41914575 421.90644604 194.43306923 427.63455009 C194.44569089 433.02965292 194.44366245 438.42456019 194.43065834 443.81966019 C194.42830164 445.79323074 194.4309945 447.76681523 194.43928146 449.7403698 C194.51289391 468.64459185 191.98042251 483.62346767 178.46881104 497.85810852 C171.50155146 504.46460385 164.23410637 508.41975799 155.05474854 511.14717102 C154.50120162 511.32412097 153.94765471 511.50107092 153.37733364 511.68338299 C150.07475676 512.34286179 146.80169216 512.29520225 143.44807434 512.29434204 C142.67795405 512.29801873 141.90783376 512.30169542 141.11437649 512.30548352 C138.53142408 512.31650439 135.94851193 512.32036155 133.36553955 512.32417297 C131.5141436 512.33043904 129.66274891 512.33708597 127.81135559 512.34408569 C121.72713088 512.3651189 115.64290595 512.37549031 109.55865479 512.38545227 C107.46138941 512.3895007 105.36412416 512.39361765 103.26685905 512.39780235 C93.40878846 512.41685575 83.55072535 512.43108408 73.69263989 512.43941432 C62.33055007 512.44917483 50.96865568 512.47546277 39.60663468 512.51591522 C30.81491452 512.5461368 22.02325017 512.56088909 13.23147911 512.56419533 C7.98563237 512.56653975 2.73999436 512.57542023 -2.50579643 512.60065651 C-7.44788237 512.62404678 -12.38962379 512.62812663 -17.33175087 512.61789513 C-19.13720729 512.61740224 -20.94268129 512.623649 -22.74808502 512.63745117 C-40.00966008 512.76193751 -53.96274774 509.5504137 -67.13275146 497.58467102 C-80.75114698 483.09761242 -82.41937326 466.45852232 -82.37884521 447.52217102 C-82.38341418 445.64318149 -82.38872186 443.76419362 -82.39472961 441.88520813 C-82.40361114 437.97197111 -82.40128959 434.0589388 -82.39129639 430.14570618 C-82.37973686 425.1308153 -82.40014935 420.11662131 -82.42921352 415.1018219 C-82.44753603 411.23279855 -82.44729228 407.36394413 -82.441576 403.49488831 C-82.44142271 401.64490268 -82.44747372 399.79490567 -82.45986748 397.94496155 C-82.47472344 395.36738146 -82.46414585 392.79111577 -82.44696045 390.21357727 C-82.45662842 389.45199814 -82.46629639 388.69041901 -82.47625732 387.90576172 C-82.42817169 384.466568 -82.18021221 382.47746816 -80.16389465 379.64302063 C-77.94525146 378.14717102 -77.94525146 378.14717102 -73.94525146 378.14717102 C-73.94525146 371.54717102 -73.94525146 364.94717102 -73.94525146 358.14717102 C-75.59525146 357.81717102 -77.24525146 357.48717102 -78.94525146 357.14717102 C-81.010157 355.10600573 -81.83730238 353.78647553 -82.32129896 350.92011309 C-82.32178601 350.1018654 -82.32227307 349.28361772 -82.32277489 348.44057465 C-82.33450975 347.01850354 -82.33450975 347.01850354 -82.34648168 345.56770372 C-82.33978952 344.52920259 -82.33309735 343.49070146 -82.32620239 342.42073059 C-82.33088236 341.31505344 -82.33556234 340.20937629 -82.34038413 339.07019377 C-82.3523849 335.35159152 -82.34285657 331.63335437 -82.33343506 327.91474915 C-82.33749869 325.25384947 -82.34273069 322.59297524 -82.34936523 319.93208313 C-82.36271969 313.44480349 -82.35981622 306.95762787 -82.35112731 300.47034413 C-82.34435323 295.19402688 -82.34343287 289.9177388 -82.34669876 284.64141846 C-82.34715846 283.89052683 -82.34761816 283.13963521 -82.34809179 282.3659893 C-82.34905098 280.8404802 -82.35002362 279.31497111 -82.35100956 277.78946203 C-82.35956968 263.474638 -82.34972204 249.15987154 -82.33360846 234.84505695 C-82.32022658 222.57789416 -82.32251455 210.31081662 -82.33636475 198.0436554 C-82.35244738 183.79259446 -82.35872262 169.54158416 -82.34952796 155.29051542 C-82.34857235 153.76816019 -82.34762923 152.24580495 -82.34669876 150.72344971 C-82.34623593 149.97448021 -82.34577311 149.22551071 -82.34529626 148.45384517 C-82.34271277 143.19153826 -82.34706396 137.92926359 -82.35413742 132.66696167 C-82.36258343 126.24225086 -82.36020843 119.8176499 -82.34429519 113.39295155 C-82.33645051 110.11853475 -82.33489009 106.8443368 -82.34324265 103.56991577 C-82.35148451 100.00959069 -82.34110376 96.44977363 -82.32620239 92.88948059 C-82.33289456 91.86882523 -82.33958672 90.84816987 -82.34648168 89.79658556 C-82.22140275 74.30554614 -77.0013436 61.66239388 -66.36322021 50.43623352 C-57.27791934 41.83528633 -46.34586507 35.97523761 -33.64447021 36.04951477 C-32.66800537 36.05273743 -31.69154053 36.05596008 -30.68548584 36.0592804 C-29.6780835 36.0676593 -28.67068115 36.07603821 -27.63275146 36.08467102 C-26.60601318 36.08918274 -25.5792749 36.09369446 -24.52142334 36.0983429 C-21.99597264 36.11008918 -19.47064242 36.12651538 -16.94525146 36.14717102 C-16.97667236 35.1649054 -16.97667236 35.1649054 -17.00872803 34.16279602 C-17.09255529 31.15774774 -17.14412041 28.15294638 -17.19525146 25.14717102 C-17.22876709 24.11721008 -17.26228271 23.08724915 -17.29681396 22.02607727 C-17.37973964 15.51641194 -16.78910482 10.53932481 -12.94525146 5.14717102 C-8.79717759 1.20144221 -5.64419501 0.0271683 0 0 Z " fill="#020403" transform="translate(199.94525146484375,-0.1471710205078125)"/>
<path d="M0 0 C1.530802 -0.01073296 1.530802 -0.01073296 3.0925293 -0.02168274 C4.21153625 -0.02437164 5.33054321 -0.02706055 6.48345947 -0.02983093 C7.66258911 -0.03640213 8.84171875 -0.04297333 10.05657959 -0.04974365 C13.96742098 -0.06949057 17.87824896 -0.08114452 21.78912354 -0.09111023 C23.13708771 -0.0951588 24.48505168 -0.09927576 25.83301544 -0.10346031 C32.16709826 -0.12250762 38.50116947 -0.13673904 44.83527541 -0.14507228 C52.1387976 -0.15484035 59.44201636 -0.18115018 66.74543166 -0.22157317 C72.39566352 -0.25176922 78.04580858 -0.26654448 83.69611955 -0.26985329 C87.06836051 -0.27220003 90.44027717 -0.28111046 93.81243134 -0.30631447 C97.57802034 -0.3306332 101.34281615 -0.32975356 105.10845947 -0.32279968 C106.77482452 -0.34201477 106.77482452 -0.34201477 108.47485352 -0.36161804 C114.89313202 -0.31842484 118.85851191 0.27562335 124.05474854 4.14717102 C127.77592012 8.94552386 129.18561736 12.45991285 129.15240479 18.47138977 C129.14918213 19.49941711 129.14595947 20.52744446 129.14263916 21.58662415 C129.13426025 22.65847961 129.12588135 23.73033508 129.11724854 24.83467102 C129.11273682 25.91812805 129.1082251 27.00158508 129.10357666 28.11787415 C129.09178597 30.79436187 129.07532917 33.47073879 129.05474854 36.14717102 C129.65311523 36.12622375 130.25148193 36.10527649 130.86798096 36.08369446 C150.00278403 35.50301667 164.46468434 37.2833627 179.24224854 50.70967102 C191.48488214 63.73321335 194.5204759 78.83130344 194.45880127 96.19966125 C194.46451767 97.67113763 194.4714868 99.14260959 194.479599 100.61407471 C194.49739212 104.5723164 194.49639008 108.5303348 194.49065661 112.48860431 C194.48754876 115.80169369 194.49367389 119.11474117 194.49969536 122.42782456 C194.51368939 130.24015259 194.51221832 138.05237111 194.50079346 145.86470032 C194.48927875 153.91633609 194.5034555 161.96764007 194.53018993 170.01923221 C194.55233665 176.94945504 194.55898778 183.87957359 194.55311352 190.80982929 C194.54974491 194.94193911 194.5521543 199.07383554 194.56936455 203.20591545 C194.58481855 207.08442714 194.58089592 210.9624446 194.5620594 214.84093666 C194.55837118 216.26273377 194.56148889 217.68456743 194.57194519 219.10633087 C194.58513643 221.04820572 194.571211 222.99020816 194.55595398 224.93206787 C194.5557447 226.01802466 194.55553541 227.10398146 194.55531979 228.22284603 C193.93086541 231.87089323 192.65455927 233.55407173 190.05474854 236.14717102 C186.11185399 236.90219338 184.59090992 236.50461195 181.24224854 234.27217102 C178.74240152 231.8437482 178.09616185 231.03905363 177.93563652 227.58195877 C177.9382757 226.48845989 177.94091488 225.39496101 177.94363403 224.26832581 C177.94396133 223.01527145 177.94428864 221.7622171 177.94462585 220.47119141 C177.94988616 219.0744475 177.95518217 217.67770373 177.96051025 216.28096008 C177.96238885 214.81571509 177.96373408 213.35046934 177.96458435 211.88522339 C177.96687174 208.72315529 177.97160043 205.56110301 177.97777939 202.39904022 C177.98618289 197.38787175 177.98074865 192.37677997 177.97177124 187.36561584 C177.97030023 186.51943546 177.96882923 185.67325507 177.96731365 184.80143285 C177.96424257 183.07048535 177.96112253 181.33953793 177.95795465 179.6085906 C177.93679545 167.9415145 177.92294201 156.27468616 177.95513916 144.60762024 C177.97674887 136.74060601 177.97339706 128.87403135 177.94173062 121.00704551 C177.92595271 116.84801903 177.92247695 112.68983238 177.94948959 108.53084564 C177.9747476 104.60698019 177.96671279 100.68451177 177.93461037 96.76070976 C177.92858187 95.33141205 177.93415789 93.90200322 177.95310402 92.47281837 C178.09635703 80.85037031 175.43898007 71.8095363 168.06547356 62.68567276 C158.76234538 53.53379773 146.8831988 51.39499789 134.29742432 51.48432922 C132.99003799 51.47396133 131.68265167 51.46359344 130.33564758 51.45291138 C126.79245309 51.42614937 123.24997075 51.43048349 119.70672083 51.44261193 C116.73671539 51.44979964 113.76683703 51.44120729 110.7968415 51.43270653 C103.79121991 51.41284896 96.78594046 51.41822216 89.78033447 51.44038391 C82.56978039 51.46280716 75.3601189 51.44505639 68.14964879 51.40733463 C61.9343977 51.3760702 55.71942248 51.36819176 49.50410259 51.37928838 C45.80219631 51.38575781 42.10080612 51.38385639 38.39896011 51.35996437 C34.27731427 51.33470788 30.15733148 51.35836341 26.03570557 51.38667297 C24.21056679 51.36609833 24.21056679 51.36609833 22.34855652 51.34510803 C15.91988015 51.43339406 11.94565672 51.89235884 7.33906364 56.58293438 C5.44478726 58.89007575 3.78138475 61.21295155 2.24224854 63.77217102 C1.39726807 65.15275696 1.39726807 65.15275696 0.53521729 66.56123352 C-0.69845507 68.71609129 -1.83481376 70.92629561 -2.94525146 73.14717102 C5.96474854 73.14717102 14.87474854 73.14717102 24.05474854 73.14717102 C24.05474854 73.47717102 24.05474854 73.80717102 24.05474854 74.14717102 C23.35619247 74.14859604 22.65763641 74.15002106 21.93791199 74.15148926 C15.33222853 74.16937029 8.72716899 74.21113347 2.12180233 74.27926159 C-1.27360304 74.31345205 -4.66856233 74.33862894 -8.06414795 74.34272766 C-11.97413894 74.34785204 -15.88318834 74.39304228 -19.79290771 74.44013977 C-21.00358414 74.43620712 -22.21426056 74.43227448 -23.46162415 74.42822266 C-29.39304434 74.53036708 -33.81921852 74.76632983 -38.5834198 78.49234009 C-42.23027841 82.92382351 -43.32043539 87.07102855 -43.3255682 92.71962547 C-43.33400814 94.03291151 -43.34244808 95.34619756 -43.35114378 96.69928014 C-43.34534896 98.14995966 -43.33926796 99.60063806 -43.33293152 101.05131531 C-43.33710508 102.59759617 -43.34258272 104.14387397 -43.34925133 105.69014609 C-43.36372191 109.93679628 -43.35945619 114.18325265 -43.35208452 118.42991352 C-43.34735911 123.01079958 -43.35985717 127.59164332 -43.37010193 132.17251587 C-43.38730784 141.14606024 -43.38812619 150.11953465 -43.38288902 159.09309123 C-43.37884927 166.38646101 -43.38028858 173.67981008 -43.38563728 180.97317886 C-43.38675992 182.52963548 -43.38675992 182.52963548 -43.38790523 184.11753566 C-43.38943669 186.22543561 -43.39097504 188.33333556 -43.3925202 190.4412355 C-43.40625184 210.21397874 -43.40080298 229.98668242 -43.38933498 249.75942476 C-43.37940289 267.85025243 -43.39234171 285.94097782 -43.41626918 304.03178971 C-43.44064958 322.60491276 -43.45027059 341.17798815 -43.44361645 359.75112689 C-43.44012175 370.17953186 -43.4423728 380.60785818 -43.45986748 391.03625107 C-43.47457624 399.91418325 -43.47524229 408.79198138 -43.45779657 417.66991089 C-43.44927309 422.19952367 -43.44716984 426.72889684 -43.46244812 431.25849724 C-43.47626521 435.40624817 -43.47157062 439.55355356 -43.45220888 443.70127852 C-43.44843937 445.20055733 -43.45139825 446.69987157 -43.46182054 448.1991189 C-43.51356636 456.21360659 -43.50352064 462.38396211 -38.94525146 469.14717102 C-33.88982556 473.17087736 -30.31325934 474.27366532 -23.95697021 474.07685852 C-22.77554443 474.06912415 -21.59411865 474.06138977 -20.37689209 474.05342102 C-17.89188173 474.03268019 -15.40687622 473.97311019 -12.92376709 473.87373352 C-9.2964833 473.8895129 -6.39739747 474.01671176 -2.94525146 475.14717102 C-0.0171317 478.49412784 1.41768298 482.05672438 3.05474854 486.14717102 C4.56654264 488.41718177 6.15902392 490.15422976 8.05474854 492.14717102 C8.66788406 492.84967484 9.28101959 493.55217865 9.91273499 494.27597046 C14.9420485 497.27113713 20.01981871 496.69442951 25.76446533 496.64888 C27.05611099 496.65428299 28.34775665 496.65968597 29.67854309 496.66525269 C33.21616701 496.67920058 36.75330411 496.66803956 40.29090095 496.65154147 C44.001804 496.63766297 47.71267958 496.64415479 51.42359924 496.64767456 C57.66034758 496.65037617 63.89690344 496.63691125 70.13360596 496.61372375 C77.32439156 496.58717253 84.51485421 496.58534849 91.70567197 496.59711212 C98.63991623 496.60793128 105.57404468 496.60166675 112.5082798 496.58755684 C115.45022155 496.58182689 118.39207772 496.58185614 121.33402061 496.58662224 C125.45554213 496.59232657 129.57659101 496.57297592 133.69805908 496.55122375 C135.51184555 496.55797623 135.51184555 496.55797623 137.36227417 496.56486511 C149.33235253 496.46031714 158.91624342 493.77691853 167.80865479 485.51826477 C174.91180809 477.84543501 177.21088547 469.08457402 177.17932129 458.87924194 C177.18073144 458.03814029 177.18214159 457.19703863 177.18359447 456.33044904 C177.18724894 453.50770225 177.18391031 450.68500564 177.1807251 447.86225891 C177.1821198 445.84025025 177.18401907 443.81824189 177.18638611 441.79623413 C177.19088398 437.43972603 177.19273921 433.08322736 177.19284821 428.726717 C177.19398767 421.84018689 177.2068189 414.95371049 177.22241211 408.06719971 C177.22498496 406.9054622 177.22755782 405.7437247 177.23020864 404.54678303 C177.23547514 402.17120421 177.24076062 399.79562543 177.24606466 397.42004669 C177.28119566 381.38580175 177.30772356 365.35162365 177.30523682 349.31733704 C177.30364984 338.5033844 177.31964475 327.68961483 177.35594344 316.87572092 C177.37442911 311.15169331 177.38372331 305.42797146 177.37146759 299.70392036 C177.36005544 294.32181759 177.37167722 288.94026298 177.40110207 283.55823326 C177.40775807 281.58173235 177.40584958 279.60518151 177.394804 277.62870026 C177.38098486 274.93250158 177.3977648 272.23816705 177.42224121 269.54208374 C177.41088583 268.75784108 177.39953045 267.97359841 177.38783097 267.16559082 C177.4588587 263.14904327 177.88728255 261.35531458 180.43803024 258.18498898 C183.20587977 256.02947476 184.55751667 255.14717102 188.05474854 255.14717102 C192.65176346 257.34120087 192.65176346 257.34120087 194.05474854 260.14717102 C194.15702533 262.82835153 194.19812642 265.48381403 194.19519043 268.16545105 C194.19964711 269.42325715 194.19964711 269.42325715 194.20419383 270.70647347 C194.21290603 273.53290734 194.21439124 276.35929898 194.21588135 279.18574524 C194.22050799 281.20595389 194.22553244 283.22616166 194.23092651 285.24636841 C194.24407323 290.748946 194.25050068 296.25151138 194.25493717 301.75410223 C194.25786615 305.19318272 194.26197077 308.63225985 194.26644135 312.07133865 C194.28012645 322.83443781 194.28978636 333.59752933 194.29364324 344.36063659 C194.29811716 356.77771589 194.31562988 369.19468473 194.34464383 381.61173046 C194.36629296 391.21103193 194.37634935 400.81030242 194.37768435 410.40962803 C194.37873069 416.14112344 194.38460124 421.87251517 194.40250397 427.60398483 C194.41903892 433.00316703 194.42111383 438.40216824 194.41236496 443.80136681 C194.4115973 445.77655333 194.41590124 447.75174979 194.42582321 449.72691154 C194.5152055 468.63944751 191.98676156 483.6167894 178.46881104 497.85810852 C171.50155146 504.46460385 164.23410637 508.41975799 155.05474854 511.14717102 C154.50120162 511.32412097 153.94765471 511.50107092 153.37733364 511.68338299 C150.07475676 512.34286179 146.80169216 512.29520225 143.44807434 512.29434204 C142.67795405 512.29801873 141.90783376 512.30169542 141.11437649 512.30548352 C138.53142408 512.31650439 135.94851193 512.32036155 133.36553955 512.32417297 C131.5141436 512.33043904 129.66274891 512.33708597 127.81135559 512.34408569 C121.72713088 512.3651189 115.64290595 512.37549031 109.55865479 512.38545227 C107.46138941 512.3895007 105.36412416 512.39361765 103.26685905 512.39780235 C93.40878846 512.41685575 83.55072535 512.43108408 73.69263989 512.43941432 C62.33055007 512.44917483 50.96865568 512.47546277 39.60663468 512.51591522 C30.81491452 512.5461368 22.02325017 512.56088909 13.23147911 512.56419533 C7.98563237 512.56653975 2.73999436 512.57542023 -2.50579643 512.60065651 C-7.44788237 512.62404678 -12.38962379 512.62812663 -17.33175087 512.61789513 C-19.13720729 512.61740224 -20.94268129 512.623649 -22.74808502 512.63745117 C-40.00966008 512.76193751 -53.96274774 509.5504137 -67.13275146 497.58467102 C-80.75114698 483.09761242 -82.41937326 466.45852232 -82.37884521 447.52217102 C-82.38341418 445.64318149 -82.38872186 443.76419362 -82.39472961 441.88520813 C-82.40361114 437.97197111 -82.40128959 434.0589388 -82.39129639 430.14570618 C-82.37973686 425.1308153 -82.40014935 420.11662131 -82.42921352 415.1018219 C-82.44753603 411.23279855 -82.44729228 407.36394413 -82.441576 403.49488831 C-82.44142271 401.64490268 -82.44747372 399.79490567 -82.45986748 397.94496155 C-82.47472344 395.36738146 -82.46414585 392.79111577 -82.44696045 390.21357727 C-82.45662842 389.45199814 -82.46629639 388.69041901 -82.47625732 387.90576172 C-82.42817169 384.466568 -82.18021221 382.47746816 -80.16389465 379.64302063 C-77.94525146 378.14717102 -77.94525146 378.14717102 -73.94525146 378.14717102 C-73.94525146 371.54717102 -73.94525146 364.94717102 -73.94525146 358.14717102 C-75.59525146 357.81717102 -77.24525146 357.48717102 -78.94525146 357.14717102 C-81.010157 355.10600573 -81.83730238 353.78647553 -82.32129896 350.92011309 C-82.32178601 350.1018654 -82.32227307 349.28361772 -82.32277489 348.44057465 C-82.33450975 347.01850354 -82.33450975 347.01850354 -82.34648168 345.56770372 C-82.33978952 344.52920259 -82.33309735 343.49070146 -82.32620239 342.42073059 C-82.33088236 341.31505344 -82.33556234 340.20937629 -82.34038413 339.07019377 C-82.3523849 335.35159152 -82.34285657 331.63335437 -82.33343506 327.91474915 C-82.33749869 325.25384947 -82.34273069 322.59297524 -82.34936523 319.93208313 C-82.36271969 313.44480349 -82.35981622 306.95762787 -82.35112731 300.47034413 C-82.34435323 295.19402688 -82.34343287 289.9177388 -82.34669876 284.64141846 C-82.34715846 283.89052683 -82.34761816 283.13963521 -82.34809179 282.3659893 C-82.34905098 280.8404802 -82.35002362 279.31497111 -82.35100956 277.78946203 C-82.35956968 263.474638 -82.34972204 249.15987154 -82.33360846 234.84505695 C-82.32022658 222.57789416 -82.32251455 210.31081662 -82.33636475 198.0436554 C-82.35244738 183.79259446 -82.35872262 169.54158416 -82.34952796 155.29051542 C-82.34857235 153.76816019 -82.34762923 152.24580495 -82.34669876 150.72344971 C-82.34623593 149.97448021 -82.34577311 149.22551071 -82.34529626 148.45384517 C-82.34271277 143.19153826 -82.34706396 137.92926359 -82.35413742 132.66696167 C-82.36258343 126.24225086 -82.36020843 119.8176499 -82.34429519 113.39295155 C-82.33645051 110.11853475 -82.33489009 106.8443368 -82.34324265 103.56991577 C-82.35148451 100.00959069 -82.34110376 96.44977363 -82.32620239 92.88948059 C-82.33289456 91.86882523 -82.33958672 90.84816987 -82.34648168 89.79658556 C-82.22140275 74.30554614 -77.0013436 61.66239388 -66.36322021 50.43623352 C-57.27791934 41.83528633 -46.34586507 35.97523761 -33.64447021 36.04951477 C-32.66800537 36.05273743 -31.69154053 36.05596008 -30.68548584 36.0592804 C-29.6780835 36.0676593 -28.67068115 36.07603821 -27.63275146 36.08467102 C-26.60601318 36.08918274 -25.5792749 36.09369446 -24.52142334 36.0983429 C-21.99597264 36.11008918 -19.47064242 36.12651538 -16.94525146 36.14717102 C-16.97667236 35.1649054 -16.97667236 35.1649054 -17.00872803 34.16279602 C-17.09255529 31.15774774 -17.14412041 28.15294638 -17.19525146 25.14717102 C-17.22876709 24.11721008 -17.26228271 23.08724915 -17.29681396 22.02607727 C-17.37973964 15.51641194 -16.78910482 10.53932481 -12.94525146 5.14717102 C-8.79717759 1.20144221 -5.64419501 0.0271683 0 0 Z " fill="#E7E7E7" transform="translate(199.94525146484375,-0.1471710205078125)"/>
<path d="M0 0 C1.29672638 -0.0087616 2.59345276 -0.01752319 3.92947388 -0.02655029 C7.47763789 -0.04929552 11.02507276 -0.04052366 14.5732491 -0.02465487 C18.3001083 -0.01195197 22.02690713 -0.02374985 25.75376892 -0.03158569 C32.01906462 -0.04067748 38.28406552 -0.02871525 44.54931641 -0.00488281 C51.7634978 0.02224476 58.97697072 0.01357409 66.19113451 -0.01401484 C72.40548105 -0.03681833 78.61961606 -0.03984906 84.83399099 -0.02682149 C88.53611822 -0.01907752 92.23791445 -0.01784239 95.94001961 -0.03450394 C100.08021961 -0.05183484 104.21923129 -0.02771159 108.359375 0 C109.56555984 -0.01012115 110.77174469 -0.02024231 112.01448059 -0.03067017 C123.89785114 0.1156433 134.34726781 3.51259611 142.9223423 11.9645853 C151.08698148 21.873402 153.16569453 31.41066018 152.93969727 44.01831055 C152.93939882 45.49993136 152.94226636 46.98155559 152.94801331 48.46316528 C152.95381892 51.62219934 152.93815679 54.78008805 152.90504837 57.93895149 C152.85322432 62.93616963 152.85342564 67.9326053 152.86044312 72.93003845 C152.86710008 82.62346289 152.82205288 92.31630211 152.77120209 102.00956726 C152.70873334 114.38033621 152.66964894 126.75100629 152.67778528 139.12193865 C152.67933372 144.08851032 152.65524538 149.05409565 152.61090493 154.0204612 C152.58808866 157.10399922 152.58570683 160.1873131 152.58868217 163.27092361 C152.58574978 164.69921909 152.57420339 166.12752701 152.55337334 167.5556736 C152.52604944 169.50605041 152.53241227 171.4568122 152.54043579 173.40736389 C152.53410944 174.49809739 152.52778309 175.58883089 152.52126503 176.71261692 C153.33551997 180.62117348 155.12231459 182.11997464 158.13256836 184.64697266 C158.79256836 184.97697266 159.45256836 185.30697266 160.13256836 185.64697266 C160.13256836 192.24697266 160.13256836 198.84697266 160.13256836 205.64697266 C158.15256836 206.63697266 156.17256836 207.62697266 154.13256836 208.64697266 C152.55699305 211.79812327 152.99358352 215.17431986 153.00126648 218.63401794 C152.99915077 219.46917736 152.99703505 220.30433677 152.99485523 221.16480404 C152.98883585 223.97975538 152.98985677 226.79466213 152.99072266 229.60961914 C152.98769231 231.62159807 152.9841712 233.63357631 152.98019409 235.64555359 C152.97229295 239.98789484 152.96715551 244.33022783 152.96390343 248.672575 C152.95799976 255.54379166 152.94146385 262.41495634 152.92256165 269.28614807 C152.91622374 271.63786599 152.90989812 273.98958394 152.90358448 276.34130192 C152.90041867 277.5193216 152.89725286 278.69734129 152.89399111 279.91105855 C152.85191448 295.91213188 152.81895833 311.9131817 152.80664062 327.91430664 C152.798252 338.70045214 152.77572796 349.48646965 152.73728496 360.27255112 C152.7175447 365.97998988 152.70511288 371.68723738 152.71011925 377.39471245 C152.71477653 382.77017903 152.70090094 388.14528386 152.67310715 393.52067757 C152.66621251 395.48820432 152.66605011 397.45576862 152.67330742 399.42329407 C152.71862668 413.09656183 152.10526622 425.21094149 142.13256836 435.64697266 C134.13594108 442.89938827 126.40522018 446.72276203 115.49797058 446.81433105 C114.3751619 446.82582184 113.25235321 446.83731262 112.09552002 446.84915161 C110.8730658 446.85655365 109.65061157 446.86395569 108.39111328 446.87158203 C107.09625504 446.88297211 105.80139679 446.89436218 104.46730042 446.90609741 C100.18258601 446.94253382 95.89784303 446.96785423 91.61303711 446.99072266 C90.88277258 446.99466852 90.15250805 446.99861439 89.4001143 447.00267982 C82.50747357 447.03908313 75.61482229 447.07050716 68.72211742 447.09178925 C59.92234706 447.11936776 51.12338214 447.17016927 42.32394713 447.25226355 C36.12675314 447.30811411 29.92977738 447.33703319 23.73234063 447.34626245 C20.03509825 447.35250858 16.33880252 447.37052708 12.64183617 447.41764832 C8.51479348 447.46960493 4.38956852 447.46586393 0.26220703 447.45751953 C-0.9541745 447.48111542 -2.17055603 447.5047113 -3.42379761 447.52902222 C-10.46747422 447.46011011 -14.35234094 446.53039113 -19.35662365 441.43773651 C-21.38002689 439.03939244 -23.17704863 436.64452205 -24.80493164 433.95947266 C-25.37083008 433.04810547 -25.93672852 432.13673828 -26.51977539 431.19775391 C-27.71550589 428.93453066 -28.31030762 427.11330147 -28.86743164 424.64697266 C-28.13359033 424.6455061 -27.39974901 424.64403954 -26.64367008 424.64252853 C-8.76497559 424.60543244 9.11352397 424.54638061 26.99206448 424.46306992 C35.63810463 424.42330715 44.28405413 424.39090066 52.93017578 424.37597656 C60.46856337 424.36294569 68.00675126 424.33594452 75.54502636 424.29235959 C79.53433804 424.26977689 83.5234037 424.25406005 87.51278496 424.25508881 C91.27301502 424.25583732 95.03270193 424.2378106 98.79279137 424.20580482 C100.81994229 424.19331559 102.84718458 424.2003549 104.87435913 424.20811462 C111.95306303 424.12765396 118.12205072 423.70095696 124.13256836 419.64697266 C128.23294892 414.62400647 129.25649491 410.80992828 129.26958275 404.44366169 C129.27465729 403.13634879 129.27973183 401.8290359 129.28496015 400.48210746 C129.28556185 399.02260232 129.28606092 397.56309713 129.28646851 396.10359192 C129.29048264 394.55990303 129.29492078 393.0162152 129.29974806 391.47252864 C129.31172486 387.21916217 129.31736457 382.96580705 129.32192922 378.71242702 C129.32788108 374.12945426 129.33949192 369.54649509 129.35021973 364.96353149 C129.37475264 353.89012551 129.38937186 342.81671502 129.40227979 331.74329022 C129.40599097 328.61654707 129.40996426 325.48980437 129.41403246 322.36306167 C129.43926738 302.95314237 129.46132401 283.54322238 129.4737606 264.13329029 C129.47669038 259.63646759 129.47965203 255.13964491 129.48266602 250.64282227 C129.48341207 249.52513671 129.48415812 248.40745116 129.48492678 247.25589635 C129.49758347 229.14546974 129.53081032 211.03514123 129.57246785 192.9247605 C129.61487087 174.33818226 129.63845372 155.75165428 129.64368117 137.1650278 C129.64709705 126.72648103 129.65887323 116.2880876 129.69178391 105.84958839 C129.71976307 96.96060167 129.73079309 88.07179972 129.71958844 79.18277238 C129.71439641 74.64704094 129.71732387 70.11169658 129.74205399 65.57602119 C129.76451133 61.42253829 129.76383431 57.26972129 129.74485011 53.11622699 C129.74204515 51.61482925 129.74767633 50.11338669 129.76266305 48.61206112 C129.87460141 37.19837466 129.87460141 37.19837466 124.13256836 27.64697266 C119.32893618 24.19383892 114.82593523 24.22195811 109.12963867 24.2746582 C108.24440018 24.27100754 107.35916168 24.26735687 106.44709778 24.26359558 C103.53476506 24.25551983 100.62299374 24.26907113 97.71069336 24.28369141 C95.68381755 24.28421019 93.65694123 24.2836918 91.63006592 24.28218079 C87.39010065 24.28227036 83.1503261 24.29267391 78.91040039 24.31079102 C73.46709874 24.33353561 68.02407422 24.33401029 62.58073807 24.32727337 C58.39955161 24.32393859 54.21842875 24.33055324 50.03725433 24.3404026 C48.02932823 24.34425902 46.02139506 24.345401 44.01346588 24.34381676 C41.21481221 24.3434474 38.41651954 24.35602776 35.61791992 24.37231445 C34.78361954 24.36983704 33.94931915 24.36735962 33.08973694 24.36480713 C28.63972616 24.22165136 28.63972616 24.22165136 25.13256836 26.64697266 C24.66043163 30.70793223 24.66043163 30.70793223 25.13256836 34.64697266 C27.65017469 37.30347178 29.14719793 37.64852208 32.83378601 38.03897095 C34.34687783 38.06230714 35.86027467 38.06931723 37.37353516 38.06347656 C38.20156647 38.07206192 39.02959778 38.08064728 39.88272095 38.0894928 C42.61582945 38.11455964 45.34857417 38.1189316 48.08178711 38.12353516 C49.97940687 38.13784218 51.87701621 38.15359866 53.77461243 38.17074585 C58.76695694 38.2126097 63.75923685 38.23760228 68.75170898 38.25823975 C76.75390604 38.2940548 84.75594399 38.35488465 92.75797462 38.41672897 C95.55940838 38.43588215 98.3607995 38.44756606 101.16227722 38.4581604 C102.86811416 38.46836668 104.57395021 38.4787241 106.27978516 38.48925781 C107.06471848 38.49030014 107.84965179 38.49134247 108.65837097 38.49241638 C114.01914069 38.53354498 114.01914069 38.53354498 115.13256836 39.64697266 C115.13256836 59.77697266 115.13256836 79.90697266 115.13256836 100.64697266 C59.03256836 100.64697266 2.93256836 100.64697266 -54.86743164 100.64697266 C-54.86743164 39.64697266 -54.86743164 39.64697266 -53.86743164 38.64697266 C-52.26231694 38.53980943 -50.65259231 38.50074694 -49.04394531 38.48925781 C-48.01585251 38.47899567 -46.9877597 38.46873352 -45.92851257 38.4581604 C-44.80878555 38.45085907 -43.68905853 38.44355774 -42.53540039 38.43603516 C-40.18708615 38.40796514 -37.83877894 38.37930067 -35.49047852 38.35009766 C-31.77067266 38.3088129 -28.0509981 38.2719448 -24.33105469 38.24560547 C-20.75305654 38.21804402 -17.17566578 38.1721669 -13.59790039 38.12353516 C-12.48424606 38.12028229 -11.37059174 38.11702942 -10.22319031 38.11367798 C-9.18564102 38.09711151 -8.14809174 38.08054504 -7.07910156 38.06347656 C-5.71128792 38.05134628 -5.71128792 38.05134628 -4.31584167 38.03897095 C-1.40003447 37.57214087 -0.00954894 36.6480637 2.13256836 34.64697266 C2.75980044 32.7127178 2.75980044 32.7127178 2.63256836 30.64697266 C2.64288086 29.96634766 2.65319336 29.28572266 2.66381836 28.58447266 C1.89226924 25.77058763 0.61470927 25.13066032 -1.86743164 23.64697266 C-4.86100024 23.14444121 -4.86100024 23.14444121 -8.16430664 23.13525391 C-9.36958008 23.09980469 -10.57485352 23.06435547 -11.81665039 23.02783203 C-13.0709082 23.00527344 -14.32516602 22.98271484 -15.61743164 22.95947266 C-16.8871582 22.9253125 -18.15688477 22.89115234 -19.46508789 22.85595703 C-22.59911438 22.77348265 -25.73286119 22.70432782 -28.86743164 22.64697266 C-27.46051878 18.19084969 -25.8914901 14.8638585 -23.11743164 11.08447266 C-22.46258789 10.17568359 -21.80774414 9.26689453 -21.13305664 8.33056641 C-14.43185436 0.39310784 -10.26476451 -0.08513204 0 0 Z " fill="#F8F7F8" transform="translate(225.867431640625,50.35302734375)"/>
<path d="M0 0 C56.1 0 112.2 0 170 0 C170 20.79 170 41.58 170 63 C161.26402344 63.05607422 161.26402344 63.05607422 152.3515625 63.11328125 C148.66924081 63.14354545 144.98696838 63.17468305 141.3046875 63.20898438 C135.4557538 63.26338485 129.60691756 63.31449121 123.7578125 63.34643555 C119.04386513 63.37238219 114.3302435 63.41272245 109.61649704 63.46318626 C107.81514909 63.4799137 106.01374473 63.49139124 104.21232986 63.49761391 C101.69540233 63.50719153 99.17931929 63.53517278 96.66259766 63.56762695 C95.91237839 63.56619186 95.16215912 63.56475677 94.38920593 63.5632782 C92.10228634 63.57019742 92.10228634 63.57019742 89 64 C86.67250655 67.49124017 86.49700684 68.89222251 87 73 C88.48592121 75.30878649 88.48592121 75.30878649 91 77 C93.70231829 77.40298519 96.00409635 77.56466321 98.70605469 77.54589844 C99.47717087 77.55623611 100.24828705 77.56657379 101.04277039 77.57722473 C103.58601795 77.60667111 106.12847031 77.60815224 108.671875 77.609375 C110.43737304 77.62435547 112.20285706 77.64108234 113.96832275 77.65948486 C118.6109074 77.70318582 123.25330299 77.7231635 127.89605713 77.73822021 C132.63524568 77.75778144 137.37422977 77.79975254 142.11328125 77.83984375 C151.40879114 77.91517554 160.70425534 77.96544901 170 78 C170.04629055 85.7884635 170.08185242 93.57689492 170.10362434 101.36546135 C170.11407249 104.98180873 170.12825032 108.59806216 170.15087891 112.21435547 C170.1725708 115.70268811 170.18456085 119.19093024 170.18975449 122.6793251 C170.19526169 124.66139971 170.21088034 126.64343779 170.22659302 128.62545776 C170.22674408 129.82655182 170.22689514 131.02764587 170.22705078 132.26513672 C170.231492 133.32658905 170.23593323 134.38804138 170.24050903 135.48165894 C170 138 170 138 168 140 C165.16700745 140.25168228 165.16700745 140.25168228 161.47094727 140.25396729 C160.79277986 140.25708727 160.11461245 140.26020725 159.41589451 140.26342177 C157.13264458 140.27142943 154.84965838 140.26506752 152.56640625 140.25878906 C150.93390751 140.2614977 149.30140999 140.26505792 147.66891479 140.26940918 C143.22686154 140.27855059 138.78490086 140.27498174 134.34284592 140.26865101 C129.70195001 140.26360006 125.06106222 140.26827993 120.42016602 140.27142334 C112.62547375 140.27506563 104.83081934 140.270257 97.03613281 140.26074219 C88.0145327 140.24985713 78.99302298 140.25338252 69.97142506 140.264395 C62.23637777 140.27346039 54.50135776 140.27475682 46.76630688 140.26951766 C42.1418071 140.26639383 37.51734986 140.26599989 32.89285278 140.27259064 C28.54594805 140.27835262 24.19916027 140.27438836 19.85226822 140.26280212 C18.25345174 140.26014937 16.65462547 140.26093106 15.05581284 140.26532745 C12.88009162 140.27076026 10.70474953 140.26397681 8.52905273 140.25396729 C7.30935287 140.25321323 6.08965302 140.25245918 4.83299255 140.25168228 C2 140 2 140 0 138 C-0.24050903 135.48165894 -0.24050903 135.48165894 -0.22705078 132.26513672 C-0.22689972 131.06404266 -0.22674866 129.86294861 -0.22659302 128.62545776 C-0.21627045 127.32335358 -0.20594788 126.02124939 -0.1953125 124.6796875 C-0.19158276 123.33733327 -0.18873561 121.99497633 -0.18673706 120.65261841 C-0.17909744 117.117986 -0.1594463 113.58351772 -0.1373291 110.0489502 C-0.11687765 106.4428123 -0.10773685 102.83664791 -0.09765625 99.23046875 C-0.0762006 92.15357865 -0.04206079 85.07680003 0 78 C1.11087227 77.99786247 1.11087227 77.99786247 2.2441864 77.99568176 C9.23307383 77.97783152 16.22145981 77.93615822 23.21002483 77.86790943 C26.80278004 77.83365872 30.39511093 77.80853262 33.98803711 77.80444336 C37.45734108 77.80015599 40.92568823 77.77165984 44.39469337 77.72656822 C46.35822554 77.7073107 48.32195081 77.71294643 50.28556824 77.71894836 C57.37039234 77.86768364 57.37039234 77.86768364 63.35473633 74.6550293 C65.29009096 72.06881583 65.29009096 72.06881583 64.9375 68.8125 C64.20031442 65.90217203 64.20031442 65.90217203 62 64 C59.28965362 63.66767316 59.28965362 63.66767316 56.08154297 63.68115234 C54.82301514 63.66109131 53.5644873 63.64103027 52.26782227 63.62036133 C50.92594625 63.60862764 49.58406796 63.59715099 48.2421875 63.5859375 C46.41699585 63.55947144 46.41699585 63.55947144 44.55493164 63.5324707 C39.99509063 63.4692459 35.43502491 63.42316847 30.875 63.375 C20.68625 63.25125 10.4975 63.1275 0 63 C0 42.21 0 21.42 0 0 Z " fill="#74DA9D" transform="translate(171,320)"/>
<path d="M0 0 C1.530802 -0.01073296 1.530802 -0.01073296 3.0925293 -0.02168274 C4.21153625 -0.02437164 5.33054321 -0.02706055 6.48345947 -0.02983093 C7.66258911 -0.03640213 8.84171875 -0.04297333 10.05657959 -0.04974365 C13.96742098 -0.06949057 17.87824896 -0.08114452 21.78912354 -0.09111023 C23.13708771 -0.0951588 24.48505168 -0.09927576 25.83301544 -0.10346031 C32.16709826 -0.12250762 38.50116947 -0.13673904 44.83527541 -0.14507228 C52.1387976 -0.15484035 59.44201636 -0.18115018 66.74543166 -0.22157317 C72.39566352 -0.25176922 78.04580858 -0.26654448 83.69611955 -0.26985329 C87.06836051 -0.27220003 90.44027717 -0.28111046 93.81243134 -0.30631447 C97.57802034 -0.3306332 101.34281615 -0.32975356 105.10845947 -0.32279968 C106.77482452 -0.34201477 106.77482452 -0.34201477 108.47485352 -0.36161804 C114.89313202 -0.31842484 118.85851191 0.27562335 124.05474854 4.14717102 C127.77592012 8.94552386 129.18561736 12.45991285 129.15240479 18.47138977 C129.14918213 19.49941711 129.14595947 20.52744446 129.14263916 21.58662415 C129.13426025 22.65847961 129.12588135 23.73033508 129.11724854 24.83467102 C129.11273682 25.91812805 129.1082251 27.00158508 129.10357666 28.11787415 C129.09178597 30.79436187 129.07532917 33.47073879 129.05474854 36.14717102 C129.65311523 36.12622375 130.25148193 36.10527649 130.86798096 36.08369446 C150.00278403 35.50301667 164.46468434 37.2833627 179.24224854 50.70967102 C191.48488214 63.73321335 194.5204759 78.83130344 194.45880127 96.19966125 C194.46451767 97.67113763 194.4714868 99.14260959 194.479599 100.61407471 C194.49739212 104.5723164 194.49639008 108.5303348 194.49065661 112.48860431 C194.48754876 115.80169369 194.49367389 119.11474117 194.49969536 122.42782456 C194.51368939 130.24015259 194.51221832 138.05237111 194.50079346 145.86470032 C194.48927875 153.91633609 194.5034555 161.96764007 194.53018993 170.01923221 C194.55233665 176.94945504 194.55898778 183.87957359 194.55311352 190.80982929 C194.54974491 194.94193911 194.5521543 199.07383554 194.56936455 203.20591545 C194.58481855 207.08442714 194.58089592 210.9624446 194.5620594 214.84093666 C194.55837118 216.26273377 194.56148889 217.68456743 194.57194519 219.10633087 C194.58513643 221.04820572 194.571211 222.99020816 194.55595398 224.93206787 C194.5557447 226.01802466 194.55553541 227.10398146 194.55531979 228.22284603 C193.93086541 231.87089323 192.65455927 233.55407173 190.05474854 236.14717102 C186.11185399 236.90219338 184.59090992 236.50461195 181.24224854 234.27217102 C178.74240152 231.8437482 178.09616185 231.03905363 177.93563652 227.58195877 C177.9382757 226.48845989 177.94091488 225.39496101 177.94363403 224.26832581 C177.94396133 223.01527145 177.94428864 221.7622171 177.94462585 220.47119141 C177.94988616 219.0744475 177.95518217 217.67770373 177.96051025 216.28096008 C177.96238885 214.81571509 177.96373408 213.35046934 177.96458435 211.88522339 C177.96687174 208.72315529 177.97160043 205.56110301 177.97777939 202.39904022 C177.98618289 197.38787175 177.98074865 192.37677997 177.97177124 187.36561584 C177.97030023 186.51943546 177.96882923 185.67325507 177.96731365 184.80143285 C177.96424257 183.07048535 177.96112253 181.33953793 177.95795465 179.6085906 C177.93679545 167.9415145 177.92294201 156.27468616 177.95513916 144.60762024 C177.97674887 136.74060601 177.97339706 128.87403135 177.94173062 121.00704551 C177.92595271 116.84801903 177.92247695 112.68983238 177.94948959 108.53084564 C177.9747476 104.60698019 177.96671279 100.68451177 177.93461037 96.76070976 C177.92858187 95.33141205 177.93415789 93.90200322 177.95310402 92.47281837 C178.09635703 80.85037031 175.43898007 71.8095363 168.06547356 62.68567276 C157.28405783 52.07954465 143.94735113 51.41248837 129.75518799 51.5160675 C127.94685161 51.51091867 126.13852027 51.50363017 124.3302002 51.49438477 C119.45629515 51.47598926 114.58294243 51.48873232 109.70906091 51.50847507 C104.59016884 51.52495383 99.47130923 51.51603625 94.35240173 51.51095581 C85.76245375 51.50644635 77.17272434 51.5222364 68.58282471 51.55024719 C58.66981291 51.58232445 48.75719449 51.58226768 38.84415466 51.56503242 C29.27971704 51.54914009 19.71542283 51.55591634 10.15099144 51.57296944 C6.09260397 51.57981889 2.03433218 51.57882928 -2.02405357 51.57142448 C-6.80544984 51.56373326 -11.58640105 51.57598 -16.36772156 51.60327339 C-18.11636853 51.61012746 -19.86505731 51.61028736 -21.61370277 51.60305786 C-35.21616507 51.55332243 -45.8452642 53.29871601 -55.94525146 63.14717102 C-62.97750548 71.82233154 -65.3963473 79.31470738 -65.33052063 90.32617188 C-65.33575633 91.44414038 -65.34099202 92.56210889 -65.34638637 93.71395522 C-65.36034244 97.45572 -65.35304761 101.19713959 -65.34588623 104.93891907 C-65.35162881 107.6230952 -65.35856504 110.30724298 -65.36703491 112.9914093 C-65.3829924 118.7687918 -65.38828761 124.54610421 -65.38650703 130.32350731 C-65.38412146 138.68095007 -65.40012446 147.03828097 -65.42095958 155.39569447 C-65.45446696 168.96168956 -65.47614157 182.52767462 -65.48895264 196.09370422 C-65.48972213 196.9051343 -65.49049162 197.71656438 -65.49128442 198.55258325 C-65.49438693 201.84068176 -65.49746974 205.12878028 -65.50052446 208.41687883 C-65.50906021 217.47517205 -65.51996007 226.5334618 -65.53192139 235.5917511 C-65.53298941 236.40310021 -65.53405742 237.21444933 -65.53515781 238.05038478 C-65.55323909 251.57010981 -65.57922269 265.08981092 -65.61005253 278.60951263 C-65.6286185 286.9483643 -65.63952301 295.28716231 -65.64057445 303.62603495 C-65.64167647 309.33541107 -65.64961114 315.04475034 -65.66295809 320.7541109 C-65.67038847 324.04979313 -65.67336717 327.34537821 -65.66983986 330.64106941 C-65.66645682 334.21050426 -65.67518094 337.77970895 -65.68696594 341.34912109 C-65.68298485 342.39492377 -65.67900375 343.44072646 -65.67490202 344.51822013 C-65.68051742 345.47283442 -65.68613281 346.42744871 -65.69191837 347.41099072 C-65.69289653 348.64698443 -65.69289653 348.64698443 -65.69389445 349.90794772 C-65.97467973 352.40933379 -66.633634 354.00966539 -67.94525146 356.14717102 C-71.15451801 358.43950427 -74.08198433 358.71056414 -77.94525146 358.14717102 C-80.4538271 355.99547925 -81.77094138 354.21342348 -82.31073654 350.91150367 C-82.46058726 348.03401244 -82.47318125 345.18182886 -82.44645691 342.30047607 C-82.45199131 341.1939445 -82.4575257 340.08741292 -82.46322781 338.94735008 C-82.47686339 335.2317476 -82.46184823 331.51681344 -82.44696045 327.80122375 C-82.45074272 325.14016877 -82.45608936 322.47915873 -82.46333313 319.81811523 C-82.4772721 313.33428014 -82.46970311 306.85063972 -82.45465755 300.36681389 C-82.43779052 292.80977078 -82.44100893 285.25277608 -82.44475163 277.69571996 C-82.45063215 264.20317934 -82.43645499 250.71073198 -82.4118042 237.21821594 C-82.38791623 224.14168292 -82.38078671 211.06527467 -82.39129639 197.98872375 C-82.40272574 183.74241139 -82.4046082 169.49615678 -82.39019829 155.24984509 C-82.38867252 153.72806713 -82.38715217 152.20628916 -82.38563728 150.68451118 C-82.38487947 149.93583668 -82.38412165 149.18716217 -82.38334088 148.41580055 C-82.378611 143.15599041 -82.38044051 137.89620614 -82.38470268 132.63639641 C-82.38964825 126.21536224 -82.38356225 119.7944457 -82.36380839 113.37343835 C-82.35398698 110.10104498 -82.35040148 106.82886503 -82.3567009 103.55645752 C-82.36268936 99.99836677 -82.35007945 96.44079555 -82.33293152 92.88275146 C-82.33894156 91.86277822 -82.34495161 90.84280498 -82.35114378 89.79192346 C-82.21613517 74.30273355 -77.00095999 61.66198906 -66.36322021 50.43623352 C-57.27791934 41.83528633 -46.34586507 35.97523761 -33.64447021 36.04951477 C-32.66800537 36.05273743 -31.69154053 36.05596008 -30.68548584 36.0592804 C-29.6780835 36.0676593 -28.67068115 36.07603821 -27.63275146 36.08467102 C-26.60601318 36.08918274 -25.5792749 36.09369446 -24.52142334 36.0983429 C-21.99597264 36.11008918 -19.47064242 36.12651538 -16.94525146 36.14717102 C-16.97667236 35.1649054 -16.97667236 35.1649054 -17.00872803 34.16279602 C-17.09255529 31.15774774 -17.14412041 28.15294638 -17.19525146 25.14717102 C-17.22876709 24.11721008 -17.26228271 23.08724915 -17.29681396 22.02607727 C-17.37973964 15.51641194 -16.78910482 10.53932481 -12.94525146 5.14717102 C-8.79717759 1.20144221 -5.64419501 0.0271683 0 0 Z " fill="#030303" transform="translate(199.94525146484375,-0.1471710205078125)"/>
<path d="M0 0 C0.495 0.99 0.495 0.99 1 2 C7.27 2 13.54 2 20 2 C20.33 1.34 20.66 0.68 21 0 C21.4021875 1.670625 21.4021875 1.670625 21.8125 3.375 C22.65809019 7.21840951 22.65809019 7.21840951 26 9 C28.74162579 9.2080501 31.38446612 9.30091322 34.12744141 9.30297852 C35.36926933 9.31563751 35.36926933 9.31563751 36.63618469 9.32855225 C39.3746497 9.35435887 42.11300697 9.36647538 44.8515625 9.37890625 C46.75060893 9.39507506 48.64964701 9.4122544 50.54867554 9.43040466 C55.54923655 9.47612479 60.54980856 9.5109168 65.55047607 9.54260254 C73.56256492 9.59445454 81.57453141 9.65944531 89.58646774 9.73081779 C92.39232034 9.75372872 95.19815719 9.76994811 98.00405884 9.78553772 C99.71315689 9.79893833 101.42225329 9.8125526 103.13134766 9.82641602 C104.3111042 9.83033607 104.3111042 9.83033607 105.51469421 9.83433533 C110.8863632 9.8863632 110.8863632 9.8863632 112 11 C112 31.13 112 51.26 112 72 C55.9 72 -0.2 72 -58 72 C-58 11 -58 11 -57 10 C-55.3948853 9.89283677 -53.78516066 9.85377428 -52.17651367 9.84228516 C-51.14842087 9.83202301 -50.12032806 9.82176086 -49.06108093 9.81118774 C-47.94135391 9.80388641 -46.82162689 9.79658508 -45.66796875 9.7890625 C-43.3196545 9.76099249 -40.9713473 9.73232801 -38.62304688 9.703125 C-34.90324102 9.66184024 -31.18356646 9.62497215 -27.46362305 9.59863281 C-23.8856249 9.57107137 -20.30823414 9.52519424 -16.73046875 9.4765625 C-15.61681442 9.47330963 -14.5031601 9.47005676 -13.35575867 9.46670532 C-11.79943474 9.44185562 -11.79943474 9.44185562 -10.21166992 9.41650391 C-8.84385628 9.40437363 -8.84385628 9.40437363 -7.44841003 9.39199829 C-4.50288383 8.92041011 -3.12858536 8.069274 -1 6 C-0.19053578 2.89802603 -0.19053578 2.89802603 0 0 Z " fill="#74DA9D" transform="translate(229,79)"/>
<path d="M0 0 C56.1 0 112.2 0 170 0 C170 20.46 170 40.92 170 62 C113.9 62 57.8 62 0 62 C0 41.54 0 21.08 0 0 Z " fill="#75DB9E" transform="translate(171,243)"/>
<path d="M0 0 C56.1 0 112.2 0 170 0 C170 20.46 170 40.92 170 62 C113.9 62 57.8 62 0 62 C0 41.54 0 21.08 0 0 Z " fill="#75DB9E" transform="translate(171,166)"/>
<path d="M0 0 C2.51873383 3.77810074 2.28166908 6.76288429 2.26069641 11.13853455 C2.26452196 11.97792637 2.26834751 12.81731819 2.27228898 13.68214613 C2.28263869 16.50552697 2.27862298 19.32870519 2.2746582 22.15209961 C2.27900385 24.17245676 2.2841865 26.19281225 2.29014587 28.21316528 C2.3035697 33.71157037 2.3041103 39.20990686 2.30158257 44.70832515 C2.30051417 49.3002368 2.3053934 53.89213451 2.310188 58.48404318 C2.32129698 69.32506604 2.32171417 80.16605427 2.31567383 91.00708008 C2.30964532 102.17740536 2.3219133 113.34760431 2.3432439 124.51790804 C2.36089043 134.11298929 2.36685605 143.70803047 2.36360615 153.30312735 C2.36179647 159.03124613 2.36439722 164.75927502 2.37832069 170.48737907 C2.39094236 175.8824819 2.38891391 181.27738917 2.37590981 186.67248917 C2.37355311 188.64605972 2.37624596 190.61964421 2.38453293 192.59319878 C2.45814537 211.49742083 -0.07432603 226.47629665 -13.5859375 240.7109375 C-20.55319708 247.31743283 -27.82064217 251.27258697 -37 254 C-37.55354692 254.17694995 -38.10709383 254.3538999 -38.67741489 254.53621197 C-41.97999177 255.19569076 -45.25305638 255.14803122 -48.60667419 255.14717102 C-49.37679449 255.15084771 -50.14691478 255.1545244 -50.94037205 255.1583125 C-53.52332445 255.16933337 -56.1062366 255.17319053 -58.68920898 255.17700195 C-60.54060493 255.18326802 -62.39199962 255.18991495 -64.24339294 255.19691467 C-70.32761765 255.21794788 -76.41184258 255.22831929 -82.49609375 255.23828125 C-84.59335913 255.24232968 -86.69062437 255.24644663 -88.78788948 255.25063133 C-98.64596007 255.26968473 -108.50402318 255.28391306 -118.36210865 255.2922433 C-129.72419847 255.30200381 -141.08609286 255.32829175 -152.44811386 255.36874419 C-161.23983401 255.39896578 -170.03149836 255.41371807 -178.82326943 255.41702431 C-184.06911617 255.41936873 -189.31475417 255.42824921 -194.56054497 255.45348549 C-199.50263091 255.47687575 -204.44437232 255.48095561 -209.3864994 255.47072411 C-211.19195582 255.47023122 -212.99742983 255.47647798 -214.80283356 255.49028015 C-232.06440861 255.61476649 -246.01749628 252.40324268 -259.1875 240.4375 C-272.80589551 225.9504414 -274.4741218 209.3113513 -274.43359375 190.375 C-274.43816271 188.49601046 -274.4434704 186.6170226 -274.44947815 184.73803711 C-274.45835968 180.82480009 -274.45603813 176.91176778 -274.44604492 172.99853516 C-274.4344854 167.98364428 -274.45489789 162.96945029 -274.48396206 157.95465088 C-274.50228457 154.08562753 -274.50204082 150.21677311 -274.49632454 146.34771729 C-274.49617125 144.49773166 -274.50222225 142.64773465 -274.51461601 140.79779053 C-274.52947198 138.22021044 -274.51889439 135.64394475 -274.50170898 133.06640625 C-274.51137695 132.30482712 -274.52104492 131.54324799 -274.53100586 130.7585907 C-274.48241281 127.28310553 -274.25584681 125.34421463 -272.15614319 122.51928711 C-269.24841837 120.47041166 -267.4895267 120.56380916 -264 121 C-261.52582132 121.82472623 -260.38727106 122.43880879 -258.90658569 124.5844574 C-257.62502512 127.99909784 -257.72470367 131.30184826 -257.74462891 134.89868164 C-257.74100845 135.69114288 -257.737388 136.48360413 -257.73365784 137.30007935 C-257.72677111 139.01936251 -257.72425705 140.73866751 -257.72560501 142.45796394 C-257.72657224 145.18765562 -257.713602 147.9169556 -257.69662476 150.64659119 C-257.65043098 158.40718496 -257.62577732 166.16774027 -257.61914062 173.9284668 C-257.61409859 178.67949166 -257.58970706 183.43011086 -257.55381393 188.18099785 C-257.54407229 189.98329662 -257.54165292 191.78565162 -257.54698563 193.58796883 C-257.58433072 206.83894889 -256.84596275 219.00613653 -247 229 C-235.49194317 238.89533607 -223.85632119 239.44424212 -209.31640625 239.38818359 C-207.5380725 239.39225448 -205.75974128 239.39759925 -203.98141479 239.40411377 C-199.17563998 239.41773171 -194.37005946 239.41251162 -189.56428146 239.40297651 C-184.52144621 239.39535121 -179.47862696 239.40243347 -174.43579102 239.40713501 C-165.96920808 239.41258422 -157.50270379 239.40542288 -149.03613281 239.39111328 C-139.26468254 239.3747884 -129.4934201 239.3800775 -119.72197437 239.3965925 C-111.31402644 239.41023117 -102.90613486 239.41211539 -94.49817944 239.40427649 C-89.48452363 239.39961306 -84.47095596 239.39893842 -79.45730591 239.40888596 C-74.74251694 239.41758805 -70.02796882 239.41147472 -65.31320572 239.39420319 C-63.58874027 239.39025562 -61.86425436 239.39134255 -60.13979721 239.39799118 C-46.23409926 239.4466384 -34.83951351 238.20952591 -24.24609375 228.37109375 C-17.14294044 220.69826399 -14.84386307 211.937403 -14.87542725 201.73207092 C-14.8740171 200.89096927 -14.87260695 200.04986761 -14.87115407 199.18327802 C-14.8674996 196.36053123 -14.87083822 193.53783462 -14.87402344 190.71508789 C-14.87262874 188.69307923 -14.87072947 186.67107087 -14.86836243 184.64906311 C-14.86386456 180.29255501 -14.86200932 175.93605633 -14.86190033 171.57954597 C-14.86076086 164.69301587 -14.84792964 157.80653947 -14.83233643 150.92002869 C-14.82976357 149.75829118 -14.82719072 148.59655368 -14.8245399 147.39961201 C-14.81927339 145.02403319 -14.81398791 142.64845441 -14.80868387 140.27287567 C-14.77355288 124.23863073 -14.74702497 108.20445263 -14.74951172 92.17016602 C-14.7510987 81.35621338 -14.73510378 70.54244381 -14.69880509 59.7285499 C-14.68031942 54.00452229 -14.67102523 48.28080044 -14.68328094 42.55674934 C-14.6946931 37.17464657 -14.68307132 31.79309196 -14.65364647 26.41106224 C-14.64699047 24.43456133 -14.64889896 22.45801049 -14.65994453 20.48152924 C-14.67376368 17.78533056 -14.65698374 15.09099603 -14.63250732 12.39491272 C-14.6438627 11.61067006 -14.65521808 10.82642739 -14.66691756 10.0184198 C-14.59628058 6.02396842 -14.16290582 4.2051659 -11.64796829 1.03781796 C-7.19139065 -2.39186584 -5.0441315 -2.14643894 0 0 Z " fill="#040404" transform="translate(392,257)"/>
<path d="M0 0 C0.94231476 -0.00281982 1.88462952 -0.00563965 2.85549927 -0.00854492 C4.41867386 -0.00550858 4.41867386 -0.00550858 6.01342773 -0.00241089 C7.10436737 -0.00416321 8.19530701 -0.00591553 9.31930542 -0.00772095 C12.9452267 -0.01214199 16.57109966 -0.00920058 20.19702148 -0.00582886 C22.70426442 -0.00650182 25.21150729 -0.00747179 27.71875 -0.00872803 C32.981369 -0.01020534 38.2439753 -0.00814396 43.5065918 -0.00338745 C49.5988035 0.00205513 55.69098174 0.00029246 61.78319263 -0.00521386 C67.63353167 -0.01029079 73.48385793 -0.0097634 79.334198 -0.00683212 C81.82860316 -0.0061626 84.32300916 -0.00699214 86.81741333 -0.00931168 C90.29683735 -0.01183672 93.77619611 -0.0079997 97.25561523 -0.00241089 C98.29773163 -0.00443512 99.33984802 -0.00645935 100.4135437 -0.00854492 C101.82701584 -0.00431519 101.82701584 -0.00431519 103.26904297 0 C104.09274887 0.00037703 104.91645477 0.00075405 105.76512146 0.0011425 C107.63452148 0.12698364 107.63452148 0.12698364 108.63452148 1.12698364 C108.63452148 7.72698364 108.63452148 14.32698364 108.63452148 21.12698364 C71.01452148 21.12698364 33.39452148 21.12698364 -5.36547852 21.12698364 C-5.36547852 0.00245588 -5.36547852 0.00245588 0 0 Z " fill="#E7E7E7" transform="translate(204.365478515625,14.873016357421875)"/>
<path d="M0 0 C7.59 0 15.18 0 23 0 C23 20.13 23 40.26 23 61 C71.51 61 120.02 61 170 61 C170 61.33 170 61.66 170 62 C113.9 62 57.8 62 0 62 C0 41.54 0 21.08 0 0 Z " fill="#66C490" transform="translate(171,243)"/>
<path d="M0 0 C7.59 0 15.18 0 23 0 C23 20.13 23 40.26 23 61 C71.51 61 120.02 61 170 61 C170 61.33 170 61.66 170 62 C113.9 62 57.8 62 0 62 C0 41.54 0 21.08 0 0 Z " fill="#66C490" transform="translate(171,166)"/>
<path d="M0 0 C7.26 0 14.52 0 22 0 C22 20.13 22 40.26 22 61 C70.51 61 119.02 61 169 61 C169 61.33 169 61.66 169 62 C112.9 62 56.8 62 -1 62 C-1 1 -1 1 0 0 Z " fill="#66C490" transform="translate(172,89)"/>
<path d="M0 0 C7.59 0 15.18 0 23 0 C23 20.13 23 40.26 23 61 C70.85 61 118.7 61 168 61 C168 61.33 168 61.66 168 62 C146.3908397 62.04666682 124.78168768 62.0819627 103.17248726 62.10362434 C93.13955122 62.11394838 83.10664644 62.12803018 73.07373047 62.15087891 C64.33170262 62.17077835 55.58969741 62.18370823 46.84764755 62.18817699 C42.21639764 62.19079023 37.58521251 62.19695573 32.95398331 62.21146011 C28.5989163 62.22498966 24.24394101 62.22923207 19.88885498 62.22621536 C18.28680804 62.22676761 16.68475817 62.23077253 15.08272934 62.23841095 C12.9025422 62.24829999 10.72270552 62.24599129 8.54251099 62.24050903 C7.32021349 62.24235262 6.09791599 62.24419621 4.83857918 62.24609566 C2 62 2 62 0 60 C-0.24050903 57.48165894 -0.24050903 57.48165894 -0.22705078 54.26513672 C-0.22689972 53.06404266 -0.22674866 51.86294861 -0.22659302 50.62545776 C-0.21627045 49.32335358 -0.20594788 48.02124939 -0.1953125 46.6796875 C-0.19158276 45.33733327 -0.18873561 43.99497633 -0.18673706 42.65261841 C-0.17909744 39.117986 -0.1594463 35.58351772 -0.1373291 32.0489502 C-0.11687765 28.4428123 -0.10773685 24.83664791 -0.09765625 21.23046875 C-0.07620058 14.15357224 -0.04101586 7.07681409 0 0 Z " fill="#66C490" transform="translate(171,398)"/>
<path d="M0 0 C7.59 0 15.18 0 23 0 C23 20.46 23 40.92 23 62 C35.21 62 47.42 62 60 62 C60 62.33 60 62.66 60 63 C40.2 63 20.4 63 0 63 C0 42.21 0 21.42 0 0 Z " fill="#69CA95" transform="translate(171,320)"/>
<path d="M0 0 C1.47583955 0.0001591 2.95168467 0.00585225 4.42749023 0.01586914 C5.20293686 0.01728409 5.97838348 0.01869904 6.77732849 0.02015686 C9.26361893 0.02577194 11.74982059 0.03832693 14.23608398 0.05102539 C15.91772331 0.05603845 17.59936405 0.06060169 19.28100586 0.06469727 C23.41192728 0.07489707 27.5426558 0.09446934 31.67358398 0.11352539 C31.67358398 7.04352539 31.67358398 13.97352539 31.67358398 21.11352539 C19.79358398 21.11352539 7.91358398 21.11352539 -4.32641602 21.11352539 C-4.34704102 17.83415039 -4.36766602 14.55477539 -4.38891602 11.17602539 C-4.39802002 10.14098877 -4.40712402 9.10595215 -4.41650391 8.03955078 C-4.42025024 6.82513306 -4.42025024 6.82513306 -4.42407227 5.58618164 C-4.42930908 4.75352783 -4.4345459 3.92087402 -4.43994141 3.06298828 C-4.2423834 -0.32948631 -3.49307176 0.11921309 0 0 Z " fill="#DBDADC" transform="translate(203.326416015625,14.886474609375)"/>
</svg>
