<?xml version="1.0" encoding="UTF-8"?>
<svg version="1.1" xmlns="http://www.w3.org/2000/svg" width="512" height="512">
<path d="M0 0 C1.08470078 -0.00953201 2.16940155 -0.01906403 3.28697205 -0.02888489 C4.45369949 -0.02797348 5.62042694 -0.02706207 6.82250977 -0.02612305 C8.02577408 -0.03040817 9.22903839 -0.0346933 10.46876526 -0.03910828 C13.01318737 -0.04485078 15.55762589 -0.04535244 18.10205078 -0.04101562 C21.99548341 -0.03785675 25.88815553 -0.06131337 29.78149414 -0.08666992 C32.25349839 -0.08894301 34.72550468 -0.08964637 37.19750977 -0.08862305 C38.36221298 -0.09783279 39.5269162 -0.10704254 40.72691345 -0.11653137 C41.81476639 -0.11030258 42.90261932 -0.10407379 44.0234375 -0.09765625 C44.97733871 -0.09828568 45.93123993 -0.0989151 46.91404724 -0.0995636 C50.12063776 0.35115386 51.99702603 1.33702896 54.57641602 3.2746582 C55.64649165 6.48488509 55.7050028 8.78292507 55.71063709 12.15838432 C55.71509494 13.39439601 55.71955278 14.63040769 55.72414571 15.90387428 C55.72405641 17.28291123 55.72386655 18.66194818 55.72358704 20.04098511 C55.72688565 21.50019114 55.73061121 22.95939625 55.73472852 24.4186002 C55.7447566 28.4383276 55.74846659 32.45804006 55.75111783 36.4777782 C55.75501837 40.80915637 55.76459675 45.14052269 55.77333069 49.47189331 C55.79310009 59.93571455 55.803161 70.39953678 55.81205848 80.86337203 C55.81643979 85.78792458 55.82180693 90.71247605 55.82704735 95.63702774 C55.84405858 112.00121525 55.85855426 128.36540209 55.86579609 144.72959709 C55.86770605 148.97687659 55.86962638 153.22415607 55.87158203 157.47143555 C55.87206577 158.52710512 55.87254951 159.58277469 55.87304791 160.67043425 C55.88135391 177.78379465 55.90670089 194.89708527 55.93916271 212.01041518 C55.9721999 229.56979841 55.99024174 247.12914613 55.99344033 264.68856061 C55.99560831 274.55186675 56.0043992 284.4150711 56.0299015 294.27834702 C56.05156275 302.67553093 56.05968148 311.07258832 56.04993472 319.469797 C56.04537696 323.75600019 56.04736156 328.04194206 56.06669617 332.32810974 C56.08423553 336.25006446 56.08340595 340.17156544 56.06779888 344.09352435 C56.0654087 345.51411191 56.06981892 346.93473012 56.08162753 348.35527061 C56.09666437 350.28320805 56.08472901 352.21129979 56.07140064 354.1392498 C56.07237745 355.21109296 56.07335426 356.28293611 56.07436067 357.38725936 C55.45045086 361.00508408 54.13800591 362.68869567 51.57641602 365.2746582 C48.92041016 365.89611816 48.92041016 365.89611816 45.86157227 365.88989258 C44.71358154 365.899198 43.56559082 365.90850342 42.3828125 365.91809082 C41.14732666 365.90169556 39.91184082 365.88530029 38.63891602 365.8684082 C37.36669189 365.86844849 36.09446777 365.86848877 34.78369141 365.86853027 C32.09297801 365.863167 29.40443383 365.84821437 26.71411133 365.81665039 C23.27059693 365.77697153 19.82817534 365.77260562 16.38447571 365.78011322 C13.09419716 365.78392561 9.80412555 365.7630982 6.51391602 365.7434082 C5.27843018 365.74320679 4.04294434 365.74300537 2.77001953 365.74279785 C1.62202881 365.72688599 0.47403809 365.71097412 -0.70874023 365.69458008 C-1.71815674 365.68616089 -2.72757324 365.6777417 -3.76757812 365.66906738 C-6.84379566 365.21225799 -8.20935153 364.43167248 -10.42358398 362.2746582 C-11.49305657 359.06624044 -11.54999567 356.77699251 -11.55221844 353.40375614 C-11.55544288 352.17061115 -11.55866733 350.93746616 -11.56198949 349.66695315 C-11.56051822 348.29115734 -11.55895049 346.91536164 -11.55729675 345.53956604 C-11.55916398 344.08377252 -11.56146432 342.62797949 -11.56416208 341.17218727 C-11.5702974 337.16192651 -11.57014445 333.15168654 -11.5689677 329.14142215 C-11.56876413 324.82029132 -11.57427822 320.49916725 -11.57902527 316.17803955 C-11.58734169 307.70877197 -11.59008055 299.23951134 -11.59063765 290.77024002 C-11.5911123 283.88866972 -11.59316453 277.00710172 -11.59633827 270.12553215 C-11.60514727 250.62937056 -11.60975722 231.13321447 -11.6090078 211.63705087 C-11.60896784 210.58538854 -11.60892789 209.5337262 -11.60888672 208.45019531 C-11.60884584 207.39725404 -11.60880496 206.34431278 -11.60876284 205.2594642 C-11.60835622 188.1874846 -11.61792916 171.11552705 -11.63202509 154.04355384 C-11.64637335 136.52824576 -11.65329614 119.01294845 -11.65243131 101.49763435 C-11.65209882 91.65842791 -11.65486861 81.81924457 -11.66560936 71.98004341 C-11.67469397 63.60408128 -11.67690644 55.22815273 -11.67009994 46.85218782 C-11.66682448 42.57631029 -11.66681483 38.30049726 -11.67545319 34.02462578 C-11.68327399 30.11331926 -11.6819324 26.20212889 -11.67316905 22.29082536 C-11.67162426 20.87295233 -11.67348674 19.45507083 -11.67902913 18.03720779 C-11.68604658 16.1152839 -11.6796253 14.1933248 -11.67247295 12.27140141 C-11.67269032 11.20221629 -11.67290769 10.13303118 -11.67313164 9.03144652 C-11.42047498 6.24031256 -10.93068725 4.61526837 -9.42358398 2.2746582 C-6.33907773 0.14552696 -3.68860487 0.01783102 0 0 Z " fill="#66D4F1" transform="translate(332.423583984375,63.725341796875)"/>
<path d="M0 0 C1.104646 -0.01260864 2.20929199 -0.02521729 3.34741211 -0.03820801 C5.12257202 -0.02606262 5.12257202 -0.02606262 6.93359375 -0.01367188 C8.15763916 -0.01749878 9.38168457 -0.02132568 10.64282227 -0.02526855 C13.22836124 -0.02798809 15.81392771 -0.02062414 18.39941406 -0.00390625 C22.35674384 0.0175005 26.31225794 -0.00370894 30.26953125 -0.02929688 C32.78255609 -0.02665361 35.2955798 -0.02152866 37.80859375 -0.01367188 C38.99203369 -0.0217688 40.17547363 -0.02986572 41.39477539 -0.03820801 C43.05174438 -0.01929504 43.05174438 -0.01929504 44.7421875 0 C45.7108374 0.00318237 46.6794873 0.00636475 47.67749023 0.00964355 C51.41772064 0.71494124 52.79881783 1.67176106 55.37109375 4.51757812 C56.13613835 7.99869037 56.04078885 11.44230524 55.99928284 14.99414062 C56.00637722 16.07279388 56.01347161 17.15144714 56.02078098 18.26278687 C56.03843181 21.88974265 56.02021894 25.51563686 56.00219727 29.14257812 C56.00733333 31.73763519 56.01461224 34.33268878 56.02388 36.92773438 C56.04227388 43.25197909 56.03373286 49.57591516 56.01579178 55.9001503 C56.00177476 61.03925 55.99787103 66.17826583 56.00123405 71.31738281 C56.0017115 72.04838133 56.00218894 72.77937984 56.00268085 73.53252983 C56.00370716 75.01746879 56.00476252 76.50240773 56.00584661 77.98734665 C56.0144172 91.12248562 55.99772712 104.25747544 55.96801758 117.39257812 C55.93917926 130.14264186 55.93209613 142.89249072 55.94750977 155.64257812 C55.96426502 169.521487 55.96831306 183.4002938 55.95079941 197.27920532 C55.94895499 198.75872802 55.94712026 200.23825072 55.94529533 201.71777344 C55.94438324 202.44575575 55.94347115 203.17373806 55.94253143 203.92378044 C55.93692181 209.05760288 55.94023715 214.19137556 55.94684029 219.32519531 C55.9553723 226.23303232 55.94243629 233.14055355 55.91499138 240.04833984 C55.90808732 242.588044 55.90803104 245.12777706 55.91520691 247.66748047 C55.92385414 251.12567567 55.9080245 254.58290174 55.88575745 258.04101562 C55.89399821 259.05384613 55.90223898 260.06667664 55.91072947 261.11019897 C55.82997317 267.87258799 55.82997317 267.87258799 53.50492764 271.14061737 C50.73750752 272.92643065 48.9422516 273.02479652 45.65625 273.03515625 C43.93426392 273.05406921 43.93426392 273.05406921 42.17749023 273.07336426 C40.94200439 273.06526733 39.70651855 273.05717041 38.43359375 273.04882812 C37.16136963 273.05265503 35.88914551 273.05648193 34.57836914 273.0604248 C31.88795548 273.06314739 29.19899504 273.05777626 26.50878906 273.0390625 C23.0651463 273.01627174 19.62275048 273.02939781 16.17915344 273.05335236 C12.88892247 273.07130365 9.598841 273.05872533 6.30859375 273.04882812 C5.07310791 273.05692505 3.83762207 273.06502197 2.56469727 273.07336426 C1.41670654 273.06075562 0.26871582 273.04814697 -0.9140625 273.03515625 C-1.923479 273.03197388 -2.93289551 273.0287915 -3.97290039 273.0255127 C-7.58573821 272.33459358 -8.48275304 271.53416065 -10.62890625 268.51757812 C-11.24198386 265.03206035 -11.17230091 261.57219192 -11.14356995 258.04101562 C-11.15051547 256.96236237 -11.157461 255.88370911 -11.164617 254.77236938 C-11.18296348 251.14556407 -11.17260103 247.51940723 -11.16235352 243.89257812 C-11.16940804 241.29752104 -11.17815108 238.70246807 -11.1884613 236.10742188 C-11.21011917 229.7832316 -11.20996998 223.45922114 -11.20183576 217.13500595 C-11.1955398 211.99591076 -11.19666906 206.85686807 -11.20310783 201.71777344 C-11.20400949 200.98677492 -11.20491114 200.25577641 -11.20584012 199.50262642 C-11.20769129 198.01768747 -11.20955385 196.53274853 -11.21142768 195.0478096 C-11.22801219 181.11854409 -11.21928124 167.18937983 -11.2024421 153.26012039 C-11.18774259 140.51099813 -11.20237582 127.76211148 -11.23121227 115.01301956 C-11.26059009 101.92730426 -11.27158341 88.84169777 -11.26203007 75.75595093 C-11.26100749 74.27642824 -11.26001289 72.79690554 -11.25904655 71.31738281 C-11.25857016 70.5894005 -11.25809377 69.86141819 -11.25760295 69.11137581 C-11.25543678 63.97752899 -11.26525355 58.84378495 -11.27981758 53.70996094 C-11.29914074 46.80209107 -11.29228841 39.89466736 -11.26761818 32.98681641 C-11.26259165 30.44710512 -11.26614736 27.90736069 -11.27876663 25.36767578 C-11.29459527 21.90931883 -11.27984076 18.4524271 -11.25709534 14.99414062 C-11.26893107 13.98131012 -11.28076679 12.96847961 -11.29296118 11.92495728 C-11.20201179 5.15162889 -11.20201179 5.15162889 -8.25799465 1.89453888 C-5.26009765 0.32441803 -3.37327559 0.01108246 0 0 Z " fill="#E65260" transform="translate(84.62890625,156.482421875)"/>
<path d="M0 0 C3.77514705 1.18847222 4.49503773 1.69647231 6.375 5.0625 C6.71557617 8.08691406 6.71557617 8.08691406 6.66796875 11.578125 C6.6534668 13.45371094 6.6534668 13.45371094 6.63867188 15.3671875 C6.61353516 16.66914062 6.58839844 17.97109375 6.5625 19.3125 C6.54219727 21.28863281 6.54219727 21.28863281 6.52148438 23.3046875 C6.48612551 26.55770321 6.43677033 29.809896 6.375 33.0625 C7.55578125 33.01609375 8.7365625 32.9696875 9.953125 32.921875 C11.51039134 32.88435051 13.06768508 32.84795107 14.625 32.8125 C15.40230469 32.77898437 16.17960937 32.74546875 16.98046875 32.7109375 C22.74486123 32.61240088 22.74486123 32.61240088 25.890625 34.859375 C28.06442352 38.08574965 27.91767635 40.26376556 27.375 44.0625 C26.055 45.3825 24.735 46.7025 23.375 48.0625 C17.765 48.0625 12.155 48.0625 6.375 48.0625 C6.375 65.5525 6.375 83.0425 6.375 101.0625 C11.655 101.0625 16.935 101.0625 22.375 101.0625 C26.375 103.0625 26.375 103.0625 27.375 105.0625 C27.6875 108.4375 27.6875 108.4375 27.375 112.0625 C26.055 113.3825 24.735 114.7025 23.375 116.0625 C17.765 116.0625 12.155 116.0625 6.375 116.0625 C6.375 133.5525 6.375 151.0425 6.375 169.0625 C11.655 169.0625 16.935 169.0625 22.375 169.0625 C27.375 173.0625 27.375 173.0625 27.96875 175.09765625 C27.76091445 179.59210004 27.67324379 180.76425621 24.375 184.0625 C18.435 184.0625 12.495 184.0625 6.375 184.0625 C6.375 201.8825 6.375 219.7025 6.375 238.0625 C12.315 238.0625 18.255 238.0625 24.375 238.0625 C27.375 241.0625 27.375 241.0625 27.7734375 243 C27.76570313 243.680625 27.75796875 244.36125 27.75 245.0625 C27.76160156 246.0834375 27.76160156 246.0834375 27.7734375 247.125 C27.375 249.0625 27.375 249.0625 24.375 252.0625 C18.435 252.0625 12.495 252.0625 6.375 252.0625 C6.375 269.8825 6.375 287.7025 6.375 306.0625 C12.315 306.0625 18.255 306.0625 24.375 306.0625 C27.67324379 309.36074379 27.76091445 310.53289996 27.96875 315.02734375 C27.375 317.0625 27.375 317.0625 22.375 321.0625 C17.095 321.0625 11.815 321.0625 6.375 321.0625 C6.375 338.5525 6.375 356.0425 6.375 374.0625 C11.985 374.0625 17.595 374.0625 23.375 374.0625 C27.375 378.0625 27.375 378.0625 27.8125 381.625 C27.375 385.0625 27.375 385.0625 26 386.9375 C22.21574822 389.55736662 18.68928243 389.17446154 14.25 389.125 C11.65125 389.104375 9.0525 389.08375 6.375 389.0625 C6.375 398.9625 6.375 408.8625 6.375 419.0625 C8.51103353 419.05881283 10.64706705 419.05512566 12.84782887 419.05132675 C63.50768374 418.96449898 114.16753228 418.89877524 164.82744618 418.85823868 C171.05740891 418.85323562 177.28737149 418.84805835 183.51733398 418.84277344 C184.75765218 418.8417242 185.99797038 418.84067495 187.27587398 418.83959392 C207.38153551 418.82216981 227.48715147 418.79062111 247.59278593 418.75388882 C268.20987382 418.71653515 288.82693778 418.69427597 309.44405812 418.68614602 C322.17471439 418.68064666 334.9052419 418.66325284 347.63585856 418.63083413 C356.35557321 418.60975501 365.07522092 418.60328492 373.79495922 418.60849449 C378.83225713 418.61106659 383.86932941 418.60701447 388.9065876 418.5856781 C393.5125678 418.56631005 398.1181692 418.56516605 402.7241663 418.57890442 C404.39581781 418.58060406 406.06749232 418.57544747 407.73909811 418.56296727 C410.00141941 418.54705065 412.26235048 418.55548009 414.52464771 418.57030869 C415.78418005 418.5687898 417.04371238 418.56727092 418.34141237 418.56570601 C421.375 419.0625 421.375 419.0625 423.27189702 420.87451196 C424.92468414 424.15279016 424.89061433 426.45319967 424.375 430.0625 C421.65552323 432.92005885 419.97948181 433.97144939 416.05388451 434.56274599 C414.77655764 434.56285333 413.49923077 434.56296066 412.18319702 434.56307125 C411.10804962 434.5713425 411.10804962 434.5713425 410.01118207 434.57978085 C407.60264661 434.59340669 405.19513772 434.57846306 402.78662109 434.56370544 C401.0451989 434.56759722 399.30377988 434.57323667 397.56236839 434.58047634 C392.77174145 434.59526675 387.98144199 434.5850285 383.19082546 434.57073963 C378.02647197 434.55965408 372.86216532 434.57156442 367.69781494 434.58058167 C357.57875909 434.59453263 347.45982782 434.58694424 337.34077787 434.57190608 C325.56300949 434.55506744 313.78527234 434.55825353 302.00749564 434.56200016 C280.99650833 434.56788215 259.98558091 434.5536939 238.97460938 434.52905273 C218.57484696 434.50513099 198.17516455 434.49804805 177.77539062 434.50854492 C155.57491388 434.51994785 133.37447417 434.52189192 111.17399788 434.50744683 C108.80783209 434.50592095 106.44166629 434.50440059 104.07550049 434.50288582 C102.91122445 434.502128 101.74694842 434.50137019 100.5473913 434.50058941 C92.33275642 434.49584175 84.11813805 434.49770144 75.90350342 434.50195122 C65.89606758 434.50687207 55.88870748 434.50091948 45.88128901 434.48105692 C40.77287625 434.47116849 35.66457894 434.46609652 30.55615997 434.47394943 C25.88307514 434.48098628 21.21022367 434.47424852 16.53716969 434.4563458 C14.84343696 434.45228831 13.14968309 434.45332286 11.45595813 434.45986467 C9.15929161 434.46797847 6.86341836 434.45774777 4.56680298 434.44281673 C3.28947611 434.4417876 2.01214924 434.44075848 0.69611549 434.43969816 C-2.88227479 434.03327982 -4.77398543 433.22298464 -7.625 431.0625 C-9.31696504 427.67856992 -8.74486549 423.83772209 -8.72265625 420.1171875 C-8.7212413 419.2321756 -8.71982635 418.3471637 -8.71836853 417.43533325 C-8.7127614 414.60268809 -8.70020771 411.77012136 -8.6875 408.9375 C-8.68248592 407.01953239 -8.67792285 405.10156354 -8.67382812 403.18359375 C-8.66278966 398.47653218 -8.64552025 393.7695294 -8.625 389.0625 C-9.80578125 389.10890625 -10.9865625 389.1553125 -12.203125 389.203125 C-13.76039134 389.24064949 -15.31768508 389.27704893 -16.875 389.3125 C-17.65230469 389.34601563 -18.42960937 389.37953125 -19.23046875 389.4140625 C-25.02518645 389.5131175 -25.02518645 389.5131175 -28.13867188 387.17407227 C-30.66093625 383.59078308 -30.17166739 381.36750567 -29.625 377.0625 C-25.625 374.0625 -25.625 374.0625 -8.625 374.0625 C-8.625 356.5725 -8.625 339.0825 -8.625 321.0625 C-13.905 321.0625 -19.185 321.0625 -24.625 321.0625 C-29.625 317.0625 -29.625 317.0625 -30.21875 315.02734375 C-30.01091445 310.53289996 -29.92324379 309.36074379 -26.625 306.0625 C-20.685 306.0625 -14.745 306.0625 -8.625 306.0625 C-8.625 288.2425 -8.625 270.4225 -8.625 252.0625 C-14.565 252.0625 -20.505 252.0625 -26.625 252.0625 C-29.625 249.0625 -29.625 249.0625 -30.0234375 247.125 C-30.01570313 246.444375 -30.00796875 245.76375 -30 245.0625 C-30.00773437 244.381875 -30.01546875 243.70125 -30.0234375 243 C-29.625 241.0625 -29.625 241.0625 -26.625 238.0625 C-20.685 238.0625 -14.745 238.0625 -8.625 238.0625 C-8.625 220.2425 -8.625 202.4225 -8.625 184.0625 C-14.565 184.0625 -20.505 184.0625 -26.625 184.0625 C-29.92324379 180.76425621 -30.01091445 179.59210004 -30.21875 175.09765625 C-29.625 173.0625 -29.625 173.0625 -24.625 169.0625 C-19.345 169.0625 -14.065 169.0625 -8.625 169.0625 C-8.625 151.5725 -8.625 134.0825 -8.625 116.0625 C-14.235 116.0625 -19.845 116.0625 -25.625 116.0625 C-26.945 115.0725 -28.265 114.0825 -29.625 113.0625 C-30.30841709 107.68059045 -30.30841709 107.68059045 -29.625 105.0625 C-28.305 103.7425 -26.985 102.4225 -25.625 101.0625 C-20.015 101.0625 -14.405 101.0625 -8.625 101.0625 C-8.625 83.5725 -8.625 66.0825 -8.625 48.0625 C-14.235 48.0625 -19.845 48.0625 -25.625 48.0625 C-29.625 44.0625 -29.625 44.0625 -30.125 40.5625 C-29.625 37.0625 -29.625 37.0625 -28.140625 34.859375 C-24.45480348 32.22664535 -21.28246444 32.62246007 -16.875 32.8125 C-16.08222656 32.83054688 -15.28945313 32.84859375 -14.47265625 32.8671875 C-12.52291652 32.91416918 -10.57380122 32.98590956 -8.625 33.0625 C-8.65118408 32.24048096 -8.67736816 31.41846191 -8.7043457 30.5715332 C-8.8084144 26.83955062 -8.87336128 23.1078734 -8.9375 19.375 C-8.97939453 18.08142578 -9.02128906 16.78785156 -9.06445312 15.45507812 C-9.08056641 14.20791016 -9.09667969 12.96074219 -9.11328125 11.67578125 C-9.13946533 10.52891846 -9.16564941 9.38205566 -9.19262695 8.20043945 C-8.21871757 2.81650083 -5.45667127 0.09408054 0 0 Z " fill="#000000" transform="translate(37.625,38.9375)"/>
<path d="M0 0 C1.00454224 -0.00630432 2.00908447 -0.01260864 3.04406738 -0.019104 C4.65517395 -0.01303131 4.65517395 -0.01303131 6.29882812 -0.00683594 C7.9684259 -0.00970612 7.9684259 -0.00970612 9.67175293 -0.01263428 C12.02189358 -0.0139935 14.3720418 -0.01031542 16.72216797 -0.00195312 C20.31690353 0.00874984 23.91113934 -0.00185759 27.50585938 -0.01464844 C29.79101673 -0.0133268 32.07617377 -0.01076431 34.36132812 -0.00683594 C35.43539917 -0.0108844 36.50947021 -0.01493286 37.61608887 -0.019104 C38.6206311 -0.01279968 39.62517334 -0.00649536 40.66015625 0 C41.97989441 0.00238678 41.97989441 0.00238678 43.32629395 0.00482178 C46.21323782 0.29765424 48.2694578 0.88627647 50.83007812 2.25878906 C53.42632638 5.90207855 53.11519465 9.89279063 53.09750366 14.18504333 C53.10203478 14.98939302 53.10656589 15.79374271 53.11123431 16.62246662 C53.12390655 19.32087905 53.12225613 22.01909038 53.12060547 24.7175293 C53.12658889 26.65087138 53.13339401 28.58421107 53.14096069 30.51754761 C53.1586453 35.77162388 53.16331707 41.02563503 53.16459227 46.27973819 C53.16649022 50.66359366 53.17384644 55.04743391 53.18093646 59.43128353 C53.19722683 69.77198656 53.20210476 80.11265476 53.20068359 90.45336914 C53.1994815 101.12685708 53.22059544 111.80014302 53.25217092 122.47357982 C53.2783034 131.63290817 53.28905219 140.79217041 53.28777277 149.95153576 C53.28726231 155.42403038 53.29299203 160.89634548 53.31412888 166.36880302 C53.33346062 171.51442846 53.33367045 176.65970214 53.31909561 181.80533981 C53.31700022 183.69477793 53.32175169 185.58423778 53.33381653 187.47363853 C53.34921179 190.05135894 53.33999941 192.62785778 53.32455444 195.20555115 C53.33484157 195.95477528 53.3451287 196.7039994 53.35572755 197.47592729 C53.30769272 201.09889711 52.91220049 203.12844872 50.96280098 206.22243404 C48.25137462 208.81134365 46.91686873 208.89087987 43.20703125 208.90576172 C42.07906128 208.92152252 40.95109131 208.93728333 39.78894043 208.95352173 C38.57532837 208.94340057 37.36171631 208.93327942 36.11132812 208.92285156 C34.86130005 208.92763519 33.61127197 208.93241882 32.32336426 208.93734741 C29.67970218 208.9407509 27.03835126 208.93404023 24.39501953 208.91064453 C21.01165663 208.88215391 17.63027656 208.8985619 14.24698639 208.92850685 C11.01419639 208.95094778 7.78164403 208.93522296 4.54882812 208.92285156 C3.33521606 208.93297272 2.121604 208.94309387 0.87121582 208.95352173 C-0.25675415 208.93776093 -1.38472412 208.92200012 -2.546875 208.90576172 C-3.53852661 208.90178375 -4.53017822 208.89780579 -5.55187988 208.89370728 C-9.27280684 207.99132133 -10.14495716 206.47270754 -12.16992188 203.25878906 C-12.55109776 200.44028431 -12.70301939 198.01838031 -12.66439819 195.20555115 C-12.66922702 194.39964147 -12.67405586 193.5937318 -12.67903101 192.76340061 C-12.69029425 190.06548779 -12.67298907 187.36852443 -12.65576172 184.6706543 C-12.65790776 182.73554223 -12.66178573 180.80043142 -12.66726685 178.86532593 C-12.67696292 173.61126186 -12.66165392 168.35753743 -12.64136076 163.10351443 C-12.62379918 157.60808111 -12.62731465 152.11265842 -12.62808228 146.61720276 C-12.62620908 137.38935662 -12.6088418 128.161642 -12.58154297 118.93383789 C-12.5500827 108.25979186 -12.53954709 97.58588984 -12.54101408 86.9118008 C-12.54223413 76.64900043 -12.5320285 66.38624703 -12.51543045 56.12346077 C-12.50836326 51.75313005 -12.50470374 47.38281594 -12.50364304 43.01247978 C-12.50163617 37.86854519 -12.48944291 32.72473184 -12.46931076 27.58083725 C-12.46346195 25.690991 -12.46100979 23.80113081 -12.46216583 21.91127586 C-12.46314525 19.33573552 -12.45185584 16.76053622 -12.43734741 14.18504333 C-12.44044462 13.43358849 -12.44354182 12.68213364 -12.44673288 11.90790743 C-12.41243318 8.23210579 -12.34604613 5.3125227 -10.16992188 2.25878906 C-6.74550917 0.42327698 -3.84839494 0.00695992 0 0 Z " fill="#030201" transform="translate(169.169921875,220.7412109375)"/>
<path d="M0 0 C1.08470078 -0.00953201 2.16940155 -0.01906403 3.28697205 -0.02888489 C4.45369949 -0.02797348 5.62042694 -0.02706207 6.82250977 -0.02612305 C8.02577408 -0.03040817 9.22903839 -0.0346933 10.46876526 -0.03910828 C13.01318737 -0.04485078 15.55762589 -0.04535244 18.10205078 -0.04101562 C21.99548341 -0.03785675 25.88815553 -0.06131337 29.78149414 -0.08666992 C32.25349839 -0.08894301 34.72550468 -0.08964637 37.19750977 -0.08862305 C38.36221298 -0.09783279 39.5269162 -0.10704254 40.72691345 -0.11653137 C41.81476639 -0.11030258 42.90261932 -0.10407379 44.0234375 -0.09765625 C44.97733871 -0.09828568 45.93123993 -0.0989151 46.91404724 -0.0995636 C50.12063776 0.35115386 51.99702603 1.33702896 54.57641602 3.2746582 C55.64649165 6.48488509 55.7050028 8.78292507 55.71063709 12.15838432 C55.71509494 13.39439601 55.71955278 14.63040769 55.72414571 15.90387428 C55.72405641 17.28291123 55.72386655 18.66194818 55.72358704 20.04098511 C55.72688565 21.50019114 55.73061121 22.95939625 55.73472852 24.4186002 C55.7447566 28.4383276 55.74846659 32.45804006 55.75111783 36.4777782 C55.75501837 40.80915637 55.76459675 45.14052269 55.77333069 49.47189331 C55.79310009 59.93571455 55.803161 70.39953678 55.81205848 80.86337203 C55.81643979 85.78792458 55.82180693 90.71247605 55.82704735 95.63702774 C55.84405858 112.00121525 55.85855426 128.36540209 55.86579609 144.72959709 C55.86770605 148.97687659 55.86962638 153.22415607 55.87158203 157.47143555 C55.87206577 158.52710512 55.87254951 159.58277469 55.87304791 160.67043425 C55.88135391 177.78379465 55.90670089 194.89708527 55.93916271 212.01041518 C55.9721999 229.56979841 55.99024174 247.12914613 55.99344033 264.68856061 C55.99560831 274.55186675 56.0043992 284.4150711 56.0299015 294.27834702 C56.05156275 302.67553093 56.05968148 311.07258832 56.04993472 319.469797 C56.04537696 323.75600019 56.04736156 328.04194206 56.06669617 332.32810974 C56.08423553 336.25006446 56.08340595 340.17156544 56.06779888 344.09352435 C56.0654087 345.51411191 56.06981892 346.93473012 56.08162753 348.35527061 C56.09666437 350.28320805 56.08472901 352.21129979 56.07140064 354.1392498 C56.07237745 355.21109296 56.07335426 356.28293611 56.07436067 357.38725936 C55.45045086 361.00508408 54.13800591 362.68869567 51.57641602 365.2746582 C48.92041016 365.89611816 48.92041016 365.89611816 45.86157227 365.88989258 C44.71358154 365.899198 43.56559082 365.90850342 42.3828125 365.91809082 C41.14732666 365.90169556 39.91184082 365.88530029 38.63891602 365.8684082 C37.36669189 365.86844849 36.09446777 365.86848877 34.78369141 365.86853027 C32.09297801 365.863167 29.40443383 365.84821437 26.71411133 365.81665039 C23.27059693 365.77697153 19.82817534 365.77260562 16.38447571 365.78011322 C13.09419716 365.78392561 9.80412555 365.7630982 6.51391602 365.7434082 C5.27843018 365.74320679 4.04294434 365.74300537 2.77001953 365.74279785 C1.62202881 365.72688599 0.47403809 365.71097412 -0.70874023 365.69458008 C-1.71815674 365.68616089 -2.72757324 365.6777417 -3.76757812 365.66906738 C-6.84379566 365.21225799 -8.20935153 364.43167248 -10.42358398 362.2746582 C-11.49305657 359.06624044 -11.54999567 356.77699251 -11.55221844 353.40375614 C-11.55544288 352.17061115 -11.55866733 350.93746616 -11.56198949 349.66695315 C-11.56051822 348.29115734 -11.55895049 346.91536164 -11.55729675 345.53956604 C-11.55916398 344.08377252 -11.56146432 342.62797949 -11.56416208 341.17218727 C-11.5702974 337.16192651 -11.57014445 333.15168654 -11.5689677 329.14142215 C-11.56876413 324.82029132 -11.57427822 320.49916725 -11.57902527 316.17803955 C-11.58734169 307.70877197 -11.59008055 299.23951134 -11.59063765 290.77024002 C-11.5911123 283.88866972 -11.59316453 277.00710172 -11.59633827 270.12553215 C-11.60514727 250.62937056 -11.60975722 231.13321447 -11.6090078 211.63705087 C-11.60896784 210.58538854 -11.60892789 209.5337262 -11.60888672 208.45019531 C-11.60884584 207.39725404 -11.60880496 206.34431278 -11.60876284 205.2594642 C-11.60835622 188.1874846 -11.61792916 171.11552705 -11.63202509 154.04355384 C-11.64637335 136.52824576 -11.65329614 119.01294845 -11.65243131 101.49763435 C-11.65209882 91.65842791 -11.65486861 81.81924457 -11.66560936 71.98004341 C-11.67469397 63.60408128 -11.67690644 55.22815273 -11.67009994 46.85218782 C-11.66682448 42.57631029 -11.66681483 38.30049726 -11.67545319 34.02462578 C-11.68327399 30.11331926 -11.6819324 26.20212889 -11.67316905 22.29082536 C-11.67162426 20.87295233 -11.67348674 19.45507083 -11.67902913 18.03720779 C-11.68604658 16.1152839 -11.6796253 14.1933248 -11.67247295 12.27140141 C-11.67269032 11.20221629 -11.67290769 10.13303118 -11.67313164 9.03144652 C-11.42047498 6.24031256 -10.93068725 4.61526837 -9.42358398 2.2746582 C-6.33907773 0.14552696 -3.68860487 0.01783102 0 0 Z M3.57641602 15.2746582 C3.57641602 125.8246582 3.57641602 236.3746582 3.57641602 350.2746582 C15.78641602 350.2746582 27.99641602 350.2746582 40.57641602 350.2746582 C40.57641602 239.7246582 40.57641602 129.1746582 40.57641602 15.2746582 C28.36641602 15.2746582 16.15641602 15.2746582 3.57641602 15.2746582 Z " fill="#010202" transform="translate(332.423583984375,63.725341796875)"/>
<path d="M0 0 C2.3355128 3.29195229 2.11878686 5.92699145 1.74047852 9.8503418 C1.63043488 11.00666107 1.52039124 12.16298035 1.40701294 13.3543396 C0.7343523 19.3794361 -0.02848579 25.38767792 -0.84765625 31.39453125 C-1.02590766 32.72112319 -1.20383404 34.04775885 -1.38145447 35.37443542 C-1.84347228 38.81885002 -2.30981846 42.26266421 -2.77716064 45.70635986 C-3.25581951 49.2394254 -3.73025539 52.77305787 -4.20507812 56.30664062 C-5.1326551 63.2049783 -6.06481945 70.1026891 -7 77 C3.52639051 82.60255588 14.03807038 88.11797423 24.91015625 93.02539062 C26.05291016 93.55229492 26.05291016 93.55229492 27.21875 94.08984375 C27.87810547 94.38753662 28.53746094 94.68522949 29.21679688 94.99194336 C31.22591936 96.12771372 32.55126929 97.20032606 34 99 C34.5778662 102.89342475 34.85423038 105.44044542 32.94677734 108.92285156 C31.44678151 110.91693298 29.8562977 112.76995255 28.1875 114.625 C26.98189804 116.03284892 25.77749002 117.44172105 24.57421875 118.8515625 C23.66615479 119.89812012 23.66615479 119.89812012 22.73974609 120.96582031 C20.22808572 123.90255259 17.86216582 126.9427692 15.5 130 C11.02124823 135.74257826 6.440368 141.39701386 1.8359375 147.0390625 C-1.65530083 151.32451618 -5.09818888 155.64329453 -8.5 160 C-12.97811606 165.73513109 -17.54993716 171.38855842 -22.15307617 177.02368164 C-25.2853354 180.86567715 -28.37556052 184.7351743 -31.41894531 188.64794922 C-33.19419547 190.92765904 -34.98539137 193.19441071 -36.78173828 195.45751953 C-37.93697026 196.92019601 -39.0763901 198.3953205 -40.21484375 199.87109375 C-45.02459999 205.78866333 -45.02459999 205.78866333 -49.75 206.8125 C-53.51681286 205.87079678 -54.90207399 205.27276458 -57 202 C-57.72264869 195.35572356 -55.57150226 189.74406644 -53.45703125 183.50390625 C-53.09155685 182.39756332 -52.72608246 181.2912204 -52.34953308 180.15135193 C-51.18024718 176.61841778 -49.99683198 173.0904154 -48.8125 169.5625 C-48.03482393 167.2249363 -47.25812159 164.88704841 -46.48242188 162.54882812 C-45.35265176 159.14356949 -44.22266603 155.73839175 -43.08987427 152.33413696 C-37.68957035 138.9045855 -37.68957035 138.9045855 -35 125 C-36.16047852 124.56655273 -37.32095703 124.13310547 -38.51660156 123.68652344 C-42.8295342 122.07232709 -47.13695407 120.44384374 -51.44287109 118.81103516 C-53.30565973 118.10694058 -55.16991215 117.40670588 -57.03564453 116.71044922 C-59.72043645 115.70776454 -62.39962167 114.69122064 -65.078125 113.671875 C-65.91055725 113.36441345 -66.7429895 113.0569519 -67.60064697 112.74017334 C-75.60743967 109.66254496 -75.60743967 109.66254496 -78 106 C-79.0699563 100.29036383 -77.23186526 97.06711991 -74.14031982 92.49363708 C-73.57581116 91.69393997 -73.01130249 90.89424286 -72.4296875 90.0703125 C-71.55343719 88.78744102 -71.55343719 88.78744102 -70.65948486 87.47865295 C-68.74593644 84.68373916 -66.81054933 81.90471127 -64.875 79.125 C-63.54365368 77.1878108 -62.21407796 75.24940361 -60.88623047 73.30981445 C-58.20409095 69.39372463 -55.51536037 65.48229293 -52.82226562 61.57373047 C-47.96432036 54.50808262 -43.21190522 47.37399531 -38.47659302 40.22583008 C-36.27638824 36.90771322 -34.06549473 33.59673618 -31.85546875 30.28515625 C-29.46259949 26.69887407 -27.07184759 23.11130089 -24.69384766 19.51513672 C-22.61755789 16.37886817 -20.5291657 13.25102595 -18.4375 10.125 C-17.55312256 8.77764771 -17.55312256 8.77764771 -16.65087891 7.40307617 C-11.97353345 0.45606574 -8.69400178 -3.7728687 0 0 Z " fill="#010100" transform="translate(470,193)"/>
<path d="M0 0 C1.14799072 -0.01260864 2.29598145 -0.02521729 3.47875977 -0.03820801 C4.71424561 -0.03011108 5.94973145 -0.02201416 7.22265625 -0.01367188 C8.49488037 -0.01749878 9.76710449 -0.02132568 11.07788086 -0.02526855 C13.76829452 -0.02799114 16.45725496 -0.02262001 19.14746094 -0.00390625 C22.5911037 0.01888451 26.03349952 0.00575844 29.47709656 -0.01819611 C32.76732753 -0.0361474 36.057409 -0.02356908 39.34765625 -0.01367188 C40.58314209 -0.0217688 41.81862793 -0.02986572 43.09155273 -0.03820801 C44.81353882 -0.01929504 44.81353882 -0.01929504 46.5703125 0 C47.579729 0.00318237 48.58914551 0.00636475 49.62915039 0.00964355 C53.07513116 0.66865293 54.10134397 1.80563489 56.28515625 4.51757812 C56.78852081 7.10694122 56.78852081 7.10694122 56.79309082 10.09680176 C56.80437012 11.23243057 56.81564941 12.36805939 56.82727051 13.5381012 C56.81917358 14.77978561 56.81107666 16.02147003 56.80273438 17.30078125 C56.80974365 18.61167221 56.81675293 19.92256317 56.82397461 21.2731781 C56.84220676 24.86622093 56.83514126 28.45880424 56.82245827 32.05185509 C56.81232987 35.8122926 56.82172349 39.57269082 56.82800293 43.33312988 C56.83527983 49.64810245 56.82569063 55.96288788 56.80664062 62.27783203 C56.78487163 69.57840296 56.79192298 76.87852706 56.81394625 84.17908716 C56.83209914 90.44758252 56.83465917 96.71594338 56.82419157 102.98445654 C56.81795596 106.72820198 56.81712265 110.47173741 56.83033752 114.21546936 C56.84403956 118.38870703 56.8250483 122.56117462 56.80273438 126.734375 C56.8108313 127.97605942 56.81892822 129.21774384 56.82727051 130.49705505 C56.81035156 132.20049828 56.81035156 132.20049828 56.79309082 133.93835449 C56.79158272 134.92500847 56.79007462 135.91166245 56.78852081 136.92821503 C56.14220618 140.25292913 54.91288811 141.44538403 52.28515625 143.51757812 C49.62915039 144.0255127 49.62915039 144.0255127 46.5703125 144.03515625 C44.84832642 144.05406921 44.84832642 144.05406921 43.09155273 144.07336426 C41.23832397 144.06121887 41.23832397 144.06121887 39.34765625 144.04882812 C38.07543213 144.05265503 36.80320801 144.05648193 35.49243164 144.0604248 C32.80201798 144.06314739 30.11305754 144.05777626 27.42285156 144.0390625 C23.9792088 144.01627174 20.53681298 144.02939781 17.09321594 144.05335236 C13.80298497 144.07130365 10.5129035 144.05872533 7.22265625 144.04882812 C5.98717041 144.05692505 4.75168457 144.06502197 3.47875977 144.07336426 C2.33076904 144.06075562 1.18277832 144.04814697 0 144.03515625 C-1.0094165 144.03197388 -2.01883301 144.0287915 -3.05883789 144.0255127 C-6.50481866 143.36650332 -7.53103147 142.22952136 -9.71484375 139.51757812 C-10.21820831 136.92821503 -10.21820831 136.92821503 -10.22277832 133.93835449 C-10.23405762 132.80272568 -10.24533691 131.66709686 -10.25695801 130.49705505 C-10.24886108 129.25537064 -10.24076416 128.01368622 -10.23242188 126.734375 C-10.23943115 125.42348404 -10.24644043 124.11259308 -10.25366211 122.76197815 C-10.27189426 119.16893532 -10.26482876 115.57635201 -10.25214577 111.98330116 C-10.24201737 108.22286365 -10.25141099 104.46246543 -10.25769043 100.70202637 C-10.26496733 94.3870538 -10.25537813 88.07226837 -10.23632812 81.75732422 C-10.21455913 74.45675329 -10.22161048 67.15662919 -10.24363375 59.85606909 C-10.26178664 53.58757373 -10.26434667 47.31921287 -10.25387907 41.05069971 C-10.24764346 37.30695427 -10.24681015 33.56341884 -10.26002502 29.81968689 C-10.27372706 25.64644922 -10.2547358 21.47398163 -10.23242188 17.30078125 C-10.2405188 16.05909683 -10.24861572 14.81741241 -10.25695801 13.5381012 C-10.24567871 12.40247238 -10.23439941 11.26684357 -10.22277832 10.09680176 C-10.22127022 9.11014778 -10.21976212 8.1234938 -10.21820831 7.10694122 C-9.10006032 1.35506404 -5.37941327 0.0169596 0 0 Z " fill="#000000" transform="translate(248.71484375,285.482421875)"/>
<path d="M0 0 C1.104646 -0.01260864 2.20929199 -0.02521729 3.34741211 -0.03820801 C5.12257202 -0.02606262 5.12257202 -0.02606262 6.93359375 -0.01367188 C8.15763916 -0.01749878 9.38168457 -0.02132568 10.64282227 -0.02526855 C13.22836124 -0.02798809 15.81392771 -0.02062414 18.39941406 -0.00390625 C22.35674384 0.0175005 26.31225794 -0.00370894 30.26953125 -0.02929688 C32.78255609 -0.02665361 35.2955798 -0.02152866 37.80859375 -0.01367188 C38.99203369 -0.0217688 40.17547363 -0.02986572 41.39477539 -0.03820801 C43.05174438 -0.01929504 43.05174438 -0.01929504 44.7421875 0 C45.7108374 0.00318237 46.6794873 0.00636475 47.67749023 0.00964355 C51.41772064 0.71494124 52.79881783 1.67176106 55.37109375 4.51757812 C56.13613835 7.99869037 56.04078885 11.44230524 55.99928284 14.99414062 C56.00637722 16.07279388 56.01347161 17.15144714 56.02078098 18.26278687 C56.03843181 21.88974265 56.02021894 25.51563686 56.00219727 29.14257812 C56.00733333 31.73763519 56.01461224 34.33268878 56.02388 36.92773438 C56.04227388 43.25197909 56.03373286 49.57591516 56.01579178 55.9001503 C56.00177476 61.03925 55.99787103 66.17826583 56.00123405 71.31738281 C56.0017115 72.04838133 56.00218894 72.77937984 56.00268085 73.53252983 C56.00370716 75.01746879 56.00476252 76.50240773 56.00584661 77.98734665 C56.0144172 91.12248562 55.99772712 104.25747544 55.96801758 117.39257812 C55.93917926 130.14264186 55.93209613 142.89249072 55.94750977 155.64257812 C55.96426502 169.521487 55.96831306 183.4002938 55.95079941 197.27920532 C55.94895499 198.75872802 55.94712026 200.23825072 55.94529533 201.71777344 C55.94438324 202.44575575 55.94347115 203.17373806 55.94253143 203.92378044 C55.93692181 209.05760288 55.94023715 214.19137556 55.94684029 219.32519531 C55.9553723 226.23303232 55.94243629 233.14055355 55.91499138 240.04833984 C55.90808732 242.588044 55.90803104 245.12777706 55.91520691 247.66748047 C55.92385414 251.12567567 55.9080245 254.58290174 55.88575745 258.04101562 C55.89399821 259.05384613 55.90223898 260.06667664 55.91072947 261.11019897 C55.82997317 267.87258799 55.82997317 267.87258799 53.50492764 271.14061737 C50.73750752 272.92643065 48.9422516 273.02479652 45.65625 273.03515625 C43.93426392 273.05406921 43.93426392 273.05406921 42.17749023 273.07336426 C40.94200439 273.06526733 39.70651855 273.05717041 38.43359375 273.04882812 C37.16136963 273.05265503 35.88914551 273.05648193 34.57836914 273.0604248 C31.88795548 273.06314739 29.19899504 273.05777626 26.50878906 273.0390625 C23.0651463 273.01627174 19.62275048 273.02939781 16.17915344 273.05335236 C12.88892247 273.07130365 9.598841 273.05872533 6.30859375 273.04882812 C5.07310791 273.05692505 3.83762207 273.06502197 2.56469727 273.07336426 C1.41670654 273.06075562 0.26871582 273.04814697 -0.9140625 273.03515625 C-1.923479 273.03197388 -2.93289551 273.0287915 -3.97290039 273.0255127 C-7.58573821 272.33459358 -8.48275304 271.53416065 -10.62890625 268.51757812 C-11.24198386 265.03206035 -11.17230091 261.57219192 -11.14356995 258.04101562 C-11.15051547 256.96236237 -11.157461 255.88370911 -11.164617 254.77236938 C-11.18296348 251.14556407 -11.17260103 247.51940723 -11.16235352 243.89257812 C-11.16940804 241.29752104 -11.17815108 238.70246807 -11.1884613 236.10742188 C-11.21011917 229.7832316 -11.20996998 223.45922114 -11.20183576 217.13500595 C-11.1955398 211.99591076 -11.19666906 206.85686807 -11.20310783 201.71777344 C-11.20400949 200.98677492 -11.20491114 200.25577641 -11.20584012 199.50262642 C-11.20769129 198.01768747 -11.20955385 196.53274853 -11.21142768 195.0478096 C-11.22801219 181.11854409 -11.21928124 167.18937983 -11.2024421 153.26012039 C-11.18774259 140.51099813 -11.20237582 127.76211148 -11.23121227 115.01301956 C-11.26059009 101.92730426 -11.27158341 88.84169777 -11.26203007 75.75595093 C-11.26100749 74.27642824 -11.26001289 72.79690554 -11.25904655 71.31738281 C-11.25857016 70.5894005 -11.25809377 69.86141819 -11.25760295 69.11137581 C-11.25543678 63.97752899 -11.26525355 58.84378495 -11.27981758 53.70996094 C-11.29914074 46.80209107 -11.29228841 39.89466736 -11.26761818 32.98681641 C-11.26259165 30.44710512 -11.26614736 27.90736069 -11.27876663 25.36767578 C-11.29459527 21.90931883 -11.27984076 18.4524271 -11.25709534 14.99414062 C-11.26893107 13.98131012 -11.28076679 12.96847961 -11.29296118 11.92495728 C-11.20201179 5.15162889 -11.20201179 5.15162889 -8.25799465 1.89453888 C-5.26009765 0.32441803 -3.37327559 0.01108246 0 0 Z M3.37109375 15.51757812 C3.37109375 95.70757812 3.37109375 175.89757812 3.37109375 258.51757812 C15.91109375 258.51757812 28.45109375 258.51757812 41.37109375 258.51757812 C41.37109375 178.32757813 41.37109375 98.13757813 41.37109375 15.51757812 C28.83109375 15.51757812 16.29109375 15.51757812 3.37109375 15.51757812 Z " fill="#000000" transform="translate(84.62890625,156.482421875)"/>
<path d="M0 0 C11.55 0 23.1 0 35 0 C35 59.07 35 118.14 35 179 C23.45 179 11.9 179 0 179 C0 119.93 0 60.86 0 0 Z " fill="#FCCC55" transform="translate(172,236)"/>
<path d="M0 0 C12.54 0 25.08 0 38 0 C38 37.95 38 75.9 38 115 C25.46 115 12.92 115 0 115 C0 77.05 0 39.1 0 0 Z " fill="#C1E490" transform="translate(253,300)"/>
<path d="M0 0 C1.14294143 3.96750599 0.78582193 7.3903032 0.2578125 11.43359375 C0.16998505 12.14854507 0.08215759 12.8634964 -0.0083313 13.60011292 C-0.19501842 15.10924087 -0.38519048 16.61794126 -0.57861328 18.1262207 C-0.87341036 20.42510371 -1.15838354 22.72503126 -1.44140625 25.02539062 C-1.62442803 26.49486302 -1.80800358 27.96426657 -1.9921875 29.43359375 C-2.07765839 30.11707382 -2.16312927 30.80055389 -2.25119019 31.50474548 C-2.70551919 35.03847968 -3.28586812 38.51075011 -4 42 C-4.50007794 45.54213985 -4.50007794 45.54213985 -4 49 C-0.40200415 52.46016598 3.74510017 54.50518292 8.234375 56.56640625 C9.62638504 57.22313149 11.01830967 57.88003778 12.41015625 58.53710938 C14.59003245 59.55647417 16.77141724 60.57243068 18.95458984 61.5847168 C21.07288895 62.56992259 23.18504485 63.56742669 25.296875 64.56640625 C25.9541156 64.86648087 26.6113562 65.16655548 27.28851318 65.47572327 C28.89781012 66.24032566 30.45499777 67.11263224 32 68 C32.33 68.99 32.66 69.98 33 71 C31.53765948 73.20585121 30.0596988 75.16091305 28.375 77.1875 C27.87935547 77.80044922 27.38371094 78.41339844 26.87304688 79.04492188 C25.2581757 81.03786999 23.62943035 83.01894566 22 85 C20.91825538 86.32860095 19.83752382 87.65802738 18.7578125 88.98828125 C17.12313799 91.00203919 15.48768155 93.01510039 13.84814453 95.02490234 C9.80787191 99.98140182 5.84341397 104.99259068 1.90698242 110.03173828 C-2.31230088 115.42334886 -6.63825761 120.7228302 -11 126 C-12.38399176 121.84802471 -10.86239768 119.02478634 -9.4375 115.078125 C-8.88249446 113.47927703 -8.32781739 111.88031501 -7.7734375 110.28125 C-6.889884 107.76689797 -6.00156822 105.25439786 -5.10644531 102.74414062 C-4.24523062 100.31821067 -3.40299059 97.88629889 -2.5625 95.453125 C-2.29171631 94.71120911 -2.02093262 93.96929321 -1.74194336 93.20489502 C-0.12840004 88.49757052 0.49610962 84.92186715 -1 80 C-2.98370925 78.26292595 -2.98370925 78.26292595 -5.68359375 77.390625 C-6.67987793 76.99681641 -7.67616211 76.60300781 -8.70263672 76.19726562 C-9.7907666 75.80216797 -10.87889648 75.40707031 -12 75 C-13.12293457 74.56880859 -14.24586914 74.13761719 -15.40283203 73.69335938 C-18.94484735 72.3461805 -22.50021964 71.04256017 -26.0625 69.75 C-28.470387 68.87070828 -30.87795645 67.99054631 -33.28515625 67.109375 C-34.86115601 66.53654785 -34.86115601 66.53654785 -36.46899414 65.95214844 C-39 65 -39 65 -41 64 C-40.37665572 60.83311813 -39.3019895 58.64745583 -37.5065918 55.97607422 C-36.98481857 55.19360321 -36.46304535 54.4111322 -35.92546082 53.60494995 C-35.35580093 52.76336334 -34.78614105 51.92177673 -34.19921875 51.0546875 C-33.60760452 50.17080353 -33.0159903 49.28691956 -32.40644836 48.37625122 C-30.50551986 45.5388431 -28.59669628 42.70684992 -26.6875 39.875 C-25.44412772 38.02249354 -24.20128378 36.16963235 -22.95898438 34.31640625 C-20.50834853 30.66194716 -18.05484341 27.00944124 -15.59912109 23.35839844 C-10.37563963 15.58813172 -5.18729262 7.79445219 0 0 Z " fill="#F1B643" transform="translate(452,229)"/>
<path d="M0 0 C0.84175781 -0.00257813 1.68351562 -0.00515625 2.55078125 -0.0078125 C7.31081758 0.0671487 10.66072332 0.39201412 14.5 3.5 C15.92041821 6.34083641 15.81452272 8.35477278 15.5 11.5 C14.16796875 13.6640625 14.16796875 13.6640625 11.5 15.5 C7.82663339 16.10355599 4.21465676 16.05759158 0.5 16 C-0.49773437 16.01546875 -1.49546875 16.0309375 -2.5234375 16.046875 C-9.77073462 16.0080155 -9.77073462 16.0080155 -13.15234375 13.65234375 C-15.03770117 10.64123669 -15.1410111 8.98994933 -14.5 5.5 C-10.32362007 -0.22256485 -6.56747943 -0.22126271 0 0 Z " fill="#000000" transform="translate(303.5,156.5)"/>
<path d="M0 0 C0.84175781 -0.00257813 1.68351562 -0.00515625 2.55078125 -0.0078125 C7.26222478 0.06638346 10.77286518 0.30637156 14.5 3.5 C15.46328895 7.03205948 15.88250933 9.38189582 14.6875 12.875 C13.5 14.5 13.5 14.5 11.5 15.5 C7.88144197 15.79338566 4.25406781 15.77791549 0.625 15.8125 C-0.88513672 15.85600586 -0.88513672 15.85600586 -2.42578125 15.90039062 C-9.82728584 15.96428143 -9.82728584 15.96428143 -13.16015625 13.6640625 C-15.02993606 10.64406829 -15.14113596 8.99062912 -14.5 5.5 C-10.32362007 -0.22256485 -6.56747943 -0.22126271 0 0 Z " fill="#000000" transform="translate(193.5,156.5)"/>
<path d="M0 0 C1.26263672 -0.0299707 1.26263672 -0.0299707 2.55078125 -0.06054688 C6.65877594 -0.05731223 8.95820843 0.11713027 12.55859375 2.24609375 C14.5 4.4375 14.5 4.4375 15.0625 7.9375 C14.5 11.4375 14.5 11.4375 13.15234375 13.62109375 C8.89150268 16.53904824 4.53990605 16.05534781 -0.5 16 C-1.49773437 16.02384766 -2.49546875 16.04769531 -3.5234375 16.07226562 C-10.77908414 16.05767652 -10.77908414 16.05767652 -14.18359375 13.12890625 C-16.00408431 9.40689439 -15.7338054 7.35664657 -14.5 3.4375 C-10.09669527 -0.320568 -5.4987741 -0.04631433 0 0 Z " fill="#000000" transform="translate(267.5,156.5625)"/>
<path d="M0 0 C1.26263672 -0.0299707 1.26263672 -0.0299707 2.55078125 -0.06054688 C6.65877594 -0.05731223 8.95820843 0.11713027 12.55859375 2.24609375 C14.5 4.4375 14.5 4.4375 15.0625 7.9375 C14.5 11.4375 14.5 11.4375 13.15234375 13.62109375 C8.89150268 16.53904824 4.53990605 16.05534781 -0.5 16 C-1.49773437 16.02384766 -2.49546875 16.04769531 -3.5234375 16.07226562 C-10.77908414 16.05767652 -10.77908414 16.05767652 -14.18359375 13.12890625 C-16.00408431 9.40689439 -15.7338054 7.35664657 -14.5 3.4375 C-10.09669527 -0.320568 -5.4987741 -0.04631433 0 0 Z " fill="#000000" transform="translate(157.5,156.5625)"/>
<path d="M0 0 C0.85013672 0.00128906 1.70027344 0.00257813 2.57617188 0.00390625 C9.96548148 0.10822592 9.96548148 0.10822592 13.4375 2.375 C14.875 5.6875 14.875 5.6875 15.4375 9.375 C14.32243049 11.81753321 13.32393445 13.48856555 11.4375 15.375 C7.65325935 15.65506266 3.85587268 15.60680637 0.0625 15.625 C-1.53851563 15.6559375 -1.53851563 15.6559375 -3.171875 15.6875 C-4.70714844 15.69523438 -4.70714844 15.69523438 -6.2734375 15.703125 C-7.21493652 15.7124707 -8.15643555 15.72181641 -9.12646484 15.73144531 C-11.5625 15.375 -11.5625 15.375 -13.36181641 14.10058594 C-15.04340898 11.68385225 -15.02312632 9.28895577 -15.15625 6.41015625 C-13.07780324 -0.71399351 -6.04430891 -0.17493049 0 0 Z " fill="#000000" transform="translate(230.5625,156.625)"/>
</svg>
