<?xml version="1.0" encoding="UTF-8"?>
<svg version="1.1" xmlns="http://www.w3.org/2000/svg" width="512" height="512">
<path d="M0 0 C1.60790405 -0.00717545 1.60790405 -0.00717545 3.24829102 -0.01449585 C5.50050333 -0.01787786 7.75276589 -0.00879549 10.00488281 0.01220703 C13.42886049 0.03899491 16.84956034 0.01239874 20.2734375 -0.01953125 C22.47396548 -0.01622685 24.67449145 -0.00982001 26.875 0 C28.39105835 -0.01518173 28.39105835 -0.01518173 29.93774414 -0.03067017 C37.9465547 0.09972713 44.56229621 2.15432034 50.58520508 7.60922241 C58.93681348 16.32267499 59.60713354 26.48512245 59.5 38.0390625 C59.49548828 38.96589844 59.49097656 39.89273438 59.48632812 40.84765625 C59.47461574 43.11985959 59.45821372 45.39192638 59.4375 47.6640625 C60.0975 47.3340625 60.7575 47.0040625 61.4375 46.6640625 C62.86372037 46.55457765 64.29479437 46.50506018 65.72509766 46.48706055 C66.61427887 46.47422531 67.50346008 46.46139008 68.41958618 46.44816589 C69.87091446 46.43708549 69.87091446 46.43708549 71.3515625 46.42578125 C72.35399994 46.4177095 73.35643738 46.40963776 74.38925171 46.40132141 C76.52282985 46.3874611 78.65643035 46.3767477 80.79003906 46.36889648 C82.94668184 46.35747291 85.10329855 46.33717761 87.25976562 46.30737305 C105.50170125 46.05526476 120.93348602 46.96995522 136.4375 57.6640625 C137.03949219 58.06367187 137.64148438 58.46328125 138.26171875 58.875 C148.28188474 66.29150081 153.90897289 79.48476262 156.00669861 91.37467957 C156.81850186 97.5732012 156.76687289 103.7932335 156.7734375 110.03515625 C156.77987974 111.4895897 156.78660912 112.94402189 156.79360962 114.39845276 C156.80549248 117.42313651 156.80929892 120.44770671 156.80810547 123.47241211 C156.80790072 127.34506457 156.835401 131.21699598 156.86964989 135.08947659 C156.89187066 138.08264014 156.89594481 141.07562722 156.89488602 144.06886482 C156.89724161 145.49741201 156.90606295 146.92596408 156.92155075 148.35442924 C156.94114489 150.34483239 156.93286713 152.33545095 156.92333984 154.32592773 C156.92618988 155.45634995 156.92903992 156.58677216 156.93197632 157.75144958 C156.32268548 161.34035424 155.36616027 162.54786758 152.4375 164.6640625 C151.1175 164.6640625 149.7975 164.6640625 148.4375 164.6640625 C148.4375 170.9340625 148.4375 177.2040625 148.4375 183.6640625 C150.0875 183.9940625 151.7375 184.3240625 153.4375 184.6640625 C156.20993525 187.09246184 156.43464947 188.6398869 156.86987305 192.33105469 C156.9111222 193.79067244 156.9366939 195.25079073 156.94921875 196.7109375 C156.97614555 197.86774017 156.97614555 197.86774017 157.00361633 199.0479126 C157.05765769 201.50324082 157.0915942 203.95837536 157.125 206.4140625 C157.15817864 208.08205816 157.19266882 209.75002829 157.22851562 211.41796875 C157.31338022 215.4998601 157.38022026 219.58169464 157.4375 223.6640625 C158.41299805 223.2628418 159.38849609 222.86162109 160.39355469 222.44824219 C167.40217926 219.58877359 174.33858195 216.78754623 181.6875 214.9140625 C182.4705249 214.71143799 183.2535498 214.50881348 184.06030273 214.30004883 C192.75212949 212.16972459 201.52107054 211.23376671 210.4375 210.6640625 C211.34371094 210.60347656 212.24992187 210.54289063 213.18359375 210.48046875 C215.62814754 210.4084455 217.99629794 210.50085269 220.4375 210.6640625 C221.08058105 210.70515137 221.72366211 210.74624023 222.38623047 210.78857422 C256.09609644 213.12652858 291.08914842 227.52889355 313.84765625 253.25830078 C338.49808525 282.33338104 350.98562735 318.89769297 348.04321289 357.01586914 C344.50335358 392.85273059 326.80337175 425.69358221 299.01171875 448.5390625 C280.57454379 463.04273523 256.95637996 474.33952204 233.4375 476.6640625 C232.4475 476.77234375 231.4575 476.880625 230.4375 476.9921875 C204.8268757 479.47485006 179.92472725 475.01979451 156.4375 464.6640625 C156.32664062 465.83066406 156.21578125 466.99726563 156.1015625 468.19921875 C154.74817356 478.91551273 149.68658242 488.79407366 142.4375 496.6640625 C141.86644531 497.34855469 141.29539062 498.03304688 140.70703125 498.73828125 C134.66531699 505.50139422 125.42598562 511.00903663 116.4375 512.6640625 C113.7289338 512.76431793 111.04592211 512.81188261 108.33729553 512.81123352 C107.51408906 512.81491021 106.69088259 512.8185869 105.84273046 512.822375 C103.08012455 512.83340102 100.31755626 512.83725391 97.55493164 512.84106445 C95.57545859 512.84733011 93.59598671 512.853977 91.61651611 512.86097717 C85.11023782 512.88201445 78.6039593 512.89238184 72.09765625 512.90234375 C69.85551885 512.90639196 67.61338158 512.9105089 65.37124443 512.91469383 C54.83293925 512.93374774 44.29464106 512.94797623 33.75632197 512.9563058 C21.60695081 512.96606796 9.45776234 512.99236007 -2.69154447 513.03280669 C-12.09047819 513.06301853 -21.4893597 513.07777964 -30.88834101 513.08108681 C-36.49747579 513.08343224 -42.10641545 513.09232619 -47.71549797 513.11754799 C-52.99902015 513.14092121 -58.28222005 513.1450248 -63.56578064 513.13478661 C-65.49701577 513.13429332 -67.42826725 513.1405521 -69.3594532 513.15434265 C-82.32720521 513.24170571 -94.44241799 512.80911888 -105.5625 505.1640625 C-106.8309375 504.31328125 -106.8309375 504.31328125 -108.125 503.4453125 C-120.92567442 494.0909735 -126.63368658 481.5988019 -129.13659704 466.13739049 C-129.89630933 459.94177739 -129.84120056 453.74927382 -129.82319641 447.51655579 C-129.82622292 446.01688564 -129.83011489 444.51721704 -129.83478898 443.01755112 C-129.84501364 438.92728389 -129.84290136 434.83710486 -129.83860838 430.74683058 C-129.836131 426.32335266 -129.84516793 421.89989541 -129.85264587 417.47642517 C-129.86536755 408.82154081 -129.86718967 400.16668751 -129.86484561 391.51179538 C-129.8630592 384.47227341 -129.86481902 377.43276083 -129.86907005 370.39323997 C-129.86966524 369.38954265 -129.87026043 368.38584533 -129.87087366 367.35173294 C-129.87208547 365.31238077 -129.87329961 363.27302861 -129.87451603 361.23367646 C-129.88538215 342.12590767 -129.88323367 323.01815654 -129.87713119 303.91038676 C-129.87196475 286.45652401 -129.88321193 269.00271712 -129.90222941 251.54886542 C-129.92163488 233.60041119 -129.92985894 215.65198335 -129.92610615 197.70351857 C-129.92419798 187.63766243 -129.92664404 177.57185379 -129.94082069 167.50600624 C-129.95277016 158.9351868 -129.95409968 150.36444411 -129.94203053 141.79362354 C-129.93616635 137.42693464 -129.93497363 133.06038586 -129.94703293 128.69370651 C-129.9579754 124.68457378 -129.95469048 120.67569676 -129.94077124 116.66657557 C-129.93814706 115.22787963 -129.94041778 113.7891631 -129.94850711 112.35048751 C-129.98867964 104.66299964 -129.53109643 97.23001336 -128.25004864 89.65812969 C-128.13693055 88.97256478 -128.02381246 88.28699988 -127.90726655 87.58066027 C-125.60903102 75.21516474 -118.87956189 64.3106095 -108.5625 57.1015625 C-97.50102896 49.52128577 -86.26486227 46.49582113 -72.953125 46.53125 C-72.14566833 46.53029327 -71.33821167 46.52933655 -70.50628662 46.52835083 C-68.80529705 46.52767367 -67.10430484 46.52949543 -65.40332031 46.53369141 C-62.83392351 46.53901809 -60.26470374 46.53374507 -57.6953125 46.52734375 C-49.26818723 46.52427845 -40.94044462 46.62568935 -32.5625 47.6640625 C-32.58570312 46.49230469 -32.60890625 45.32054687 -32.6328125 44.11328125 C-32.96573359 20.61856428 -32.96573359 20.61856428 -25.5625 10.6640625 C-25.005625 9.7771875 -24.44875 8.8903125 -23.875 7.9765625 C-17.12580538 1.22736788 -9.18727377 -0.0920009 0 0 Z " fill="#020201" transform="translate(146.5625,-0.6640625)"/>
<path d="M0 0 C1.68332062 -0.00271508 3.36664006 -0.0062789 5.04995728 -0.01062012 C9.59351942 -0.01968702 14.13699006 -0.01622295 18.68055367 -0.00986195 C23.45591733 -0.00476979 28.23127358 -0.00950252 33.00663757 -0.01263428 C41.0267374 -0.01626565 49.04680032 -0.01149772 57.06689453 -0.00195312 C66.30827339 0.00891867 75.54956389 0.00541176 84.79094058 -0.00560594 C92.75395562 -0.01471582 100.71694424 -0.01594573 108.67996281 -0.0107286 C113.42320048 -0.00762774 118.1663968 -0.00714705 122.90963173 -0.01380157 C127.3740624 -0.01962809 131.83838056 -0.01548228 136.30279922 -0.00401306 C137.93044664 -0.00139412 139.55810372 -0.0020835 141.18574715 -0.00653839 C157.51796366 -0.04707855 173.86560517 0.32685696 187.0534668 11.20800781 C190.57103652 14.74579346 192.96685979 18.7691174 195.0925293 23.25878906 C195.60340088 24.31493408 196.11427246 25.3710791 196.640625 26.45922852 C198.79898768 32.30836656 198.55866239 38.42242346 198.59671974 44.57569122 C198.61232745 46.81266805 198.648608 49.04846655 198.69059753 51.28509521 C198.80698476 57.63767823 198.89256278 63.9903654 198.95019531 70.34375 C198.98700987 74.24399118 199.05248147 78.14289849 199.13571739 82.0424118 C199.16149794 83.52381134 199.17617692 85.00544795 199.1794529 86.48706818 C199.18455375 88.55595402 199.22594052 90.62121955 199.27539062 92.68945312 C199.28854813 93.86445374 199.30170563 95.03945435 199.31526184 96.25006104 C199.83696219 99.55392282 199.83696219 99.55392282 203.09507751 101.53594971 C204.0842366 102.10448669 205.07339569 102.67302368 206.0925293 103.25878906 C206.86889648 105.39355469 206.86889648 105.39355469 206.8894043 107.66503906 C206.89713867 108.49132812 206.90487305 109.31761719 206.9128418 110.16894531 C206.87803711 111.45091797 206.87803711 111.45091797 206.8425293 112.75878906 C206.86573242 113.6134375 206.88893555 114.46808594 206.9128418 115.34863281 C206.90510742 116.17492187 206.89737305 117.00121094 206.8894043 117.85253906 C206.88263672 118.60212891 206.87586914 119.35171875 206.86889648 120.12402344 C206.0925293 122.25878906 206.0925293 122.25878906 203.07763672 123.88476562 C199.96215783 125.86738264 199.96215783 125.86738264 199.568573 128.36865234 C199.41733148 131.14515067 199.44607588 133.87010235 199.53393555 136.64941406 C199.53988341 138.74186173 199.5457399 140.83430966 199.55151367 142.92675781 C199.59737112 146.21623256 199.65496119 149.50525028 199.71826172 152.79443359 C199.76917215 155.9757383 199.77790267 159.15525526 199.78393555 162.33691406 C199.83355186 163.79825775 199.83355186 163.79825775 199.88417053 165.28912354 C199.88328479 171.81483318 198.43636568 175.05824546 193.83865356 179.70812988 C191.7929189 181.5248604 189.74476371 183.08779853 187.4050293 184.50878906 C164.52460771 199.92442971 151.76667985 226.77778563 145.4050293 252.82128906 C145.19015869 253.69615967 144.97528809 254.57103027 144.75390625 255.47241211 C143.5210157 260.7278484 142.72843341 265.85811732 142.32763672 271.24291992 C142.0925293 273.25878906 142.0925293 273.25878906 141.0925293 275.25878906 C139.87073975 275.28384521 138.6489502 275.30890137 137.39013672 275.3347168 C114.61710069 275.80514333 91.85048105 276.27944452 69.0925293 277.25878906 C68.7625293 279.23878906 68.4325293 281.21878906 68.0925293 283.25878906 C60.5025293 283.25878906 52.9125293 283.25878906 45.0925293 283.25878906 C45.0925293 281.60878906 45.0925293 279.95878906 45.0925293 278.25878906 C41.65649018 277.21895052 38.47113933 277.10763218 34.89038086 277.06591797 C33.63517639 277.04985504 32.37997192 277.03379211 31.08673096 277.01724243 C29.71887901 277.00575344 28.35101943 276.99514516 26.9831543 276.98535156 C26.2907238 276.98002789 25.5982933 276.97470421 24.88488007 276.96921921 C21.2187562 276.94253824 17.55266578 276.92314849 13.88647461 276.90869141 C10.86403044 276.89536522 7.84226352 276.86753156 4.82006836 276.82666016 C1.1584286 276.77715364 -2.50259833 276.75254902 -6.16455841 276.74546432 C-7.55355785 276.73878274 -8.94254526 276.72364164 -10.33135223 276.69957352 C-18.41493528 276.56748963 -24.69354264 276.6626861 -30.9074707 282.25878906 C-34.1991783 285.86904901 -35.03045045 289.04114505 -35.0479126 293.8556366 C-35.05362274 294.79899872 -35.05933289 295.74236084 -35.06521606 296.71430969 C-35.06633392 297.74758896 -35.06745178 298.78086823 -35.06860352 299.84545898 C-35.07356842 300.9352002 -35.07853333 302.02494141 -35.08364868 303.14770508 C-35.09828193 306.76156237 -35.10507494 310.37537573 -35.1105957 313.98925781 C-35.11634704 316.49929302 -35.12210477 319.00932822 -35.12786865 321.5193634 C-35.13703816 326.11408866 -35.14333655 330.70880132 -35.1463654 335.30353469 C-35.15083993 342.05346339 -35.16835978 348.80318897 -35.197366 355.55305594 C-35.22165064 361.40871773 -35.22931288 367.26431218 -35.23104095 373.12001991 C-35.2340649 375.60585955 -35.24208468 378.09169838 -35.25522614 380.57750511 C-35.27232052 384.06020763 -35.27039756 387.54241878 -35.26391602 391.02514648 C-35.2731308 392.0483046 -35.28234558 393.07146271 -35.2918396 394.12562561 C-35.2511201 401.12621273 -34.7092389 407.3812974 -29.5949707 412.63378906 C-24.29496594 415.83844311 -19.36744644 416.55352895 -13.2678833 416.5262146 C-12.51843878 416.53074571 -11.76899425 416.53527683 -10.99683928 416.53994524 C-8.49595769 416.55256348 -5.99529459 416.55097055 -3.49438477 416.54931641 C-1.69693727 416.55530333 0.10050766 416.56210925 1.89794922 416.56967163 C6.77415669 416.58732364 11.65029394 416.59202672 16.52653027 416.5933032 C19.57565984 416.59472598 22.62477164 416.59899802 25.67389679 416.60429764 C36.31898632 416.62279632 46.96402579 416.63096858 57.60913086 416.62939453 C67.51912567 416.62819366 77.42890249 416.64928584 87.33884215 416.68088186 C95.85710602 416.70706924 104.37529881 416.71776077 112.89360261 416.71648371 C117.97666988 416.71597474 123.05954345 416.72162195 128.1425705 416.74283981 C132.92628405 416.76226327 137.70961997 416.76231861 142.49334717 416.74780655 C144.24361983 416.74572234 145.99391639 416.7503961 147.74414825 416.76252747 C160.99297989 417.06314213 160.99297989 417.06314213 173.0925293 412.25878906 C176.65654663 408.05410585 178.16556979 403.19887623 178.3737793 397.76660156 C178.41116211 396.89648438 178.44854492 396.02636719 178.48706055 395.12988281 C178.52186523 394.22367187 178.55666992 393.31746094 178.5925293 392.38378906 C179.01164882 381.56429632 179.01164882 381.56429632 180.0925293 377.25878906 C196.65372721 387.3811849 196.65372721 387.3811849 199.0925293 392.25878906 C200.35824945 403.83701608 196.90052318 413.88208299 189.9284668 423.07519531 C182.36107773 432.07555805 172.76034585 436.18340283 161.0925293 437.25878906 C158.53922222 437.34849627 155.98404442 437.39335982 153.4291687 437.39923096 C152.70125535 437.40220208 151.973342 437.4051732 151.22337067 437.40823436 C148.8071863 437.41684048 146.39105194 437.41842269 143.97485352 437.41992188 C142.23286332 437.42455581 140.49087414 437.42958124 138.74888611 437.43496704 C134.03162849 437.44803815 129.31438506 437.45452571 124.59711218 437.4589777 C121.64409669 437.46191717 118.691085 437.46602361 115.73807144 437.47048187 C106.48175605 437.48414327 97.22544945 437.4938164 87.96912467 437.49768376 C77.31573354 437.50216041 66.66247098 437.51969577 56.00911891 437.54868436 C47.75317816 437.57036282 39.49727341 437.58039134 31.24130452 437.58172488 C26.32025199 437.58276856 21.39932053 437.58858258 16.47829819 437.60654449 C11.84398437 437.62313202 7.20988126 437.62512935 2.57554817 437.61640549 C0.88500589 437.61564078 -0.80554822 437.61990209 -2.49606133 437.62986374 C-16.07249979 437.7051041 -29.29568727 437.15779195 -40.9074707 429.25878906 C-41.7943457 428.68128906 -42.6812207 428.10378906 -43.5949707 427.50878906 C-52.44742163 418.89559357 -55.63523492 408.21748108 -56.00229883 396.13820004 C-56.04242727 392.26105206 -56.05058259 388.38452097 -56.0479126 384.50723267 C-56.05049914 383.00190225 -56.0535131 381.49657251 -56.056916 379.99124372 C-56.06495484 375.86704674 -56.06677382 371.7428672 -56.06751347 367.61866331 C-56.06936939 363.16594193 -56.07691926 358.71322949 -56.08364868 354.26051331 C-56.09720878 344.53128828 -56.10325265 334.80206739 -56.10765934 325.07283449 C-56.11042481 318.99613006 -56.11466264 312.91942721 -56.11916351 306.84272385 C-56.13135147 290.01167971 -56.14165281 273.18063684 -56.1450386 256.34958839 C-56.14525817 255.27320687 -56.14547774 254.19682536 -56.14570396 253.08782621 C-56.14592223 252.00890959 -56.14614051 250.92999297 -56.1463654 249.81838191 C-56.14680887 247.63217648 -56.14725543 245.44597105 -56.14770508 243.25976562 C-56.14792651 242.17533835 -56.14814794 241.09091107 -56.14837608 239.97362237 C-56.15232562 222.39514878 -56.16978651 204.81671661 -56.1930646 187.23825903 C-56.21678136 169.18261769 -56.22924055 151.12699714 -56.23040652 133.07133996 C-56.23132292 122.9368968 -56.2370667 112.80250765 -56.25522614 102.66807938 C-56.27063125 94.04060754 -56.27574502 85.41320644 -56.26748803 76.78572346 C-56.26358346 72.3854967 -56.26450187 67.98541237 -56.27854538 63.58520317 C-56.29129515 59.55346118 -56.29007742 55.52196849 -56.27795467 51.49022679 C-56.27599958 50.03538272 -56.2790674 48.58052092 -56.28779903 47.12570174 C-56.36287113 33.76689074 -54.22308989 22.50490367 -45.1262207 12.25097656 C-32.5034927 0.30077095 -16.38082542 -0.04465133 0 0 Z " fill="#D9EBFD" transform="translate(88.907470703125,60.7412109375)"/>
<path d="M0 0 C0.71783661 0.00143005 1.43567322 0.00286011 2.17526245 0.0043335 C14.62883455 0.06544727 26.09302614 1.54751956 37.9375 5.5 C38.66694824 5.73525391 39.39639648 5.97050781 40.14794922 6.21289062 C70.68250801 16.23236619 93.88467772 37.23757376 108.375 65.6875 C111.66030451 72.42481383 114.14115907 79.21050058 115.9375 86.5 C116.23527344 87.6034375 116.53304687 88.706875 116.83984375 89.84375 C123.778277 119.77173856 118.80640486 152.20227964 102.96875 178.42578125 C99.91076411 183.05392528 96.58402708 187.32369446 92.9375 191.5 C92.19242188 192.35464844 91.44734375 193.20929688 90.6796875 194.08984375 C88.46213137 196.58929261 86.21172861 199.05210303 83.9375 201.5 C83.35226562 202.139375 82.76703125 202.77875 82.1640625 203.4375 C62.40720362 224.21466615 31.45156517 234.08602129 3.47387695 234.95336914 C-24.26309893 235.33958788 -49.66112739 226.21268075 -71.0625 208.5 C-72.07183594 207.70980469 -73.08117187 206.91960937 -74.12109375 206.10546875 C-96.83607165 188.0369669 -111.47961442 159.52928412 -114.85742188 130.76049805 C-116.79653393 109.38640462 -113.70915315 89.10726859 -105.0625 69.5 C-104.76859375 68.82984863 -104.4746875 68.15969727 -104.171875 67.46923828 C-91.73045322 39.6803211 -68.40648024 18.73887011 -40.49609375 7 C-27.23045981 2.01982905 -14.1554327 -0.09164752 0 0 Z " fill="#FBE357" transform="translate(359.0625,226.5)"/>
<path d="M0 0 C1.69143243 -0.00107488 3.38286449 -0.0030166 5.07429504 -0.00575256 C9.6381889 -0.01057049 14.20198389 -0.00298392 18.7658658 0.00720048 C23.55691178 0.01603072 28.34795511 0.01422258 33.13900757 0.01383972 C41.18009073 0.01477409 49.22113598 0.02342788 57.26220703 0.03710938 C66.5434275 0.05284311 75.82460653 0.05810695 85.10583937 0.05737382 C95.01262105 0.05669711 104.91938688 0.06364385 114.82616377 0.07282043 C117.6704219 0.07494607 120.51467746 0.07566082 123.35893631 0.07605934 C127.83563679 0.0770678 132.31230283 0.08320534 136.78899193 0.09322548 C138.42680208 0.09613264 140.06461619 0.09737949 141.70242882 0.09679794 C149.53303096 0.09507043 157.24214449 0.13857245 165.01318359 1.24291992 C165.01318359 1.57291992 165.01318359 1.90291992 165.01318359 2.24291992 C164.361802 2.2425429 163.7104204 2.24216587 163.03929996 2.24177742 C147.16337524 2.23464917 131.28789879 2.26065785 115.41211033 2.32319832 C107.73454774 2.35265036 100.05726113 2.3710341 92.37963867 2.36303711 C85.68498111 2.35609241 78.99075096 2.37024558 72.29619831 2.409356 C68.75386501 2.42932398 65.21220214 2.43898253 61.66983223 2.42334366 C57.70779794 2.40624845 53.74685521 2.43627303 49.78491211 2.4699707 C48.62037506 2.45774979 47.45583801 2.44552887 46.25601196 2.43293762 C38.61912211 2.54974397 33.78023812 4.15185035 28.01318359 9.24291992 C25.92956213 11.50149166 25.92956213 11.50149166 24.70068359 13.93041992 C24.27142578 14.67678711 23.84216797 15.4231543 23.39990234 16.19213867 C19.61999707 24.50793027 17.41773804 31.70086785 17.45623779 40.86686707 C17.44465299 41.87673607 17.43306818 42.88660507 17.42113233 43.92707616 C17.38737927 47.27882837 17.38140118 50.63002576 17.37548828 53.98193359 C17.35687473 56.39733206 17.33653516 58.81271774 17.31460571 61.22808838 C17.27140292 66.41169007 17.24011001 71.59521537 17.21987152 76.77895164 C17.19058991 84.2735663 17.1394871 91.76790998 17.08320895 99.26236478 C16.99246794 111.42418677 16.91915835 123.586048 16.85693359 135.74804688 C16.79648233 147.55605956 16.72774532 159.36397652 16.64794922 171.171875 C16.64056457 172.26526094 16.64056457 172.26526094 16.63303074 173.38073548 C16.60827998 177.03785688 16.58336722 180.69497716 16.55837393 184.35209692 C16.35153039 214.64890891 16.17411102 244.94582718 16.01318359 275.24291992 C23.27318359 275.24291992 30.53318359 275.24291992 38.01318359 275.24291992 C38.01318359 275.57291992 38.01318359 275.90291992 38.01318359 276.24291992 C36.89351196 276.24505745 36.89351196 276.24505745 35.7512207 276.24723816 C28.68964052 276.26512569 21.62869009 276.30690816 14.56744385 276.37501049 C10.93778346 276.40918803 7.3085398 276.43437587 3.67871094 276.43847656 C0.17049786 276.44277969 -3.33677664 276.47140555 -6.84469604 276.5163517 C-8.8230493 276.53551319 -10.8015924 276.52998891 -12.7800293 276.52397156 C-20.11864544 276.64206583 -25.36911013 277.27246439 -30.98681641 282.24291992 C-34.278524 285.85317987 -35.10979616 289.02527591 -35.1272583 293.83976746 C-35.13296844 294.78312958 -35.13867859 295.7264917 -35.14456177 296.69844055 C-35.14567963 297.73171982 -35.14679749 298.76499908 -35.14794922 299.82958984 C-35.15291412 300.91933105 -35.15787903 302.00907227 -35.16299438 303.13183594 C-35.17762763 306.74569323 -35.18442065 310.35950659 -35.18994141 313.97338867 C-35.19569274 316.48342388 -35.20145047 318.99345908 -35.20721436 321.50349426 C-35.21638387 326.09821952 -35.22268225 330.69293218 -35.22571111 335.28766555 C-35.23018564 342.03759425 -35.24770548 348.78731983 -35.2767117 355.5371868 C-35.30099635 361.39284859 -35.30865859 367.24844304 -35.31038666 373.10415077 C-35.3134106 375.5899904 -35.32143039 378.07582924 -35.33457184 380.56163597 C-35.35166622 384.04433849 -35.34974326 387.52654964 -35.34326172 391.00927734 C-35.3524765 392.03243546 -35.36169128 393.05559357 -35.3711853 394.10975647 C-35.33046581 401.11034359 -34.78858461 407.36542826 -29.67431641 412.61791992 C-24.37431164 415.82257397 -19.44679215 416.5376598 -13.347229 416.51034546 C-12.59778448 416.51487657 -11.84833995 416.51940768 -11.07618499 416.5240761 C-8.57530339 416.53669434 -6.07464029 416.53510141 -3.57373047 416.53344727 C-1.77628297 416.53943419 0.02116196 416.54624011 1.81860352 416.55380249 C6.69481098 416.5714545 11.57094823 416.57615758 16.44718456 416.57743406 C19.49631414 416.57885684 22.54542593 416.58312888 25.59455109 416.5884285 C36.23964061 416.60692718 46.88468009 416.61509944 57.52978516 416.61352539 C67.43977996 416.61232452 77.34955679 416.6334167 87.25949645 416.66501272 C95.77776032 416.6912001 104.29595311 416.70189163 112.81425691 416.70061457 C117.89732418 416.7001056 122.98019775 416.70575281 128.06322479 416.72697067 C132.84693835 416.74639413 137.63027427 416.74644947 142.41400146 416.73193741 C144.16427413 416.7298532 145.91457069 416.73452696 147.66480255 416.74665833 C160.91363418 417.04727299 160.91363418 417.04727299 173.01318359 412.24291992 C176.57720093 408.03823671 178.08622409 403.18300709 178.29443359 397.75073242 C178.33181641 396.88061523 178.36919922 396.01049805 178.40771484 395.11401367 C178.44251953 394.20780273 178.47732422 393.3015918 178.51318359 392.36791992 C178.93230311 381.54842717 178.93230311 381.54842717 180.01318359 377.24291992 C196.57438151 387.36531576 196.57438151 387.36531576 199.01318359 392.24291992 C200.27890375 403.82114694 196.82117748 413.86621385 189.84912109 423.05932617 C182.28173203 432.05968891 172.68100014 436.16753369 161.01318359 437.24291992 C158.45987652 437.33262713 155.90469871 437.37749068 153.349823 437.38336182 C152.62190965 437.38633294 151.8939963 437.38930406 151.14402497 437.39236522 C148.7278406 437.40097134 146.31170624 437.40255354 143.89550781 437.40405273 C142.15351762 437.40868667 140.41152843 437.4137121 138.66954041 437.4190979 C133.95228278 437.43216901 129.23503936 437.43865657 124.51776648 437.44310856 C121.56475099 437.44604803 118.6117393 437.45015447 115.65872574 437.45461273 C106.40241035 437.46827413 97.14610374 437.47794725 87.88977897 437.48181462 C77.23638784 437.48629127 66.58312527 437.50382663 55.92977321 437.53281522 C47.67383245 437.55449368 39.41792771 437.56452219 31.16195881 437.56585574 C26.24090628 437.56689942 21.31997483 437.57271344 16.39895248 437.59067535 C11.76463867 437.60726288 7.13053556 437.60926021 2.49620247 437.60053635 C0.80566019 437.59977164 -0.88489393 437.60403295 -2.57540703 437.6139946 C-16.1518455 437.68923496 -29.37503298 437.14192281 -40.98681641 429.24291992 C-41.87369141 428.66541992 -42.76056641 428.08791992 -43.67431641 427.49291992 C-52.52676733 418.87972443 -55.71458062 408.20161194 -56.08164454 396.1223309 C-56.12177297 392.24518292 -56.1299283 388.36865183 -56.1272583 384.49136353 C-56.12984484 382.98603311 -56.13285881 381.48070337 -56.1362617 379.97537458 C-56.14430054 375.8511776 -56.14611952 371.72699806 -56.14685917 367.60279417 C-56.14871509 363.15007279 -56.15626496 358.69736035 -56.16299438 354.24464417 C-56.17655449 344.51541914 -56.18259836 334.78619825 -56.18700504 325.05696535 C-56.18977052 318.98026092 -56.19400834 312.90355807 -56.19850922 306.82685471 C-56.21069718 289.99581057 -56.22099851 273.1647677 -56.22438431 256.33371925 C-56.22460387 255.25733773 -56.22482344 254.18095622 -56.22504966 253.07195707 C-56.22526794 251.99304045 -56.22548622 250.91412383 -56.22571111 249.80251276 C-56.22615457 247.61630734 -56.22660113 245.43010191 -56.22705078 243.24389648 C-56.22727221 242.15946921 -56.22749364 241.07504193 -56.22772178 239.95775323 C-56.23167132 222.37927964 -56.24913222 204.80084747 -56.2724103 187.22238989 C-56.29612707 169.16674855 -56.30858625 151.11112799 -56.30975223 133.05547082 C-56.31066862 122.92102766 -56.3164124 112.78663851 -56.33457184 102.65221024 C-56.34997695 94.0247384 -56.35509072 85.3973373 -56.34683374 76.76985432 C-56.34292916 72.36962756 -56.34384758 67.96954323 -56.35789108 63.56933403 C-56.37064085 59.53759204 -56.36942312 55.50609935 -56.35730037 51.47435765 C-56.35534528 50.01951358 -56.35841311 48.56465178 -56.36714473 47.1098326 C-56.44221683 33.7510216 -54.30243559 22.48903453 -45.20556641 12.23510742 C-32.55775506 0.26115488 -16.40951297 -0.06091643 0 0 Z " fill="#B2D7F9" transform="translate(88.98681640625,60.757080078125)"/>
<path d="M0 0 C1.52602822 0.01509794 3.05207116 0.02877717 4.578125 0.04101562 C8.26073044 0.07356191 11.94276556 0.12505125 15.625 0.1875 C15.625 1.1775 15.625 2.1675 15.625 3.1875 C14.5834375 3.69796875 13.541875 4.2084375 12.46875 4.734375 C-16.99831716 19.53205033 -40.38493383 41.87460385 -52.125 73.0625 C-52.89611225 75.43072949 -53.64601209 77.80596654 -54.375 80.1875 C-54.76816406 81.32960938 -55.16132813 82.47171875 -55.56640625 83.6484375 C-64.72494391 114.60238012 -57.89439251 149.70057268 -43.11010742 177.61401367 C-29.10209893 202.98985839 -7.05336099 221.18611402 19.625 232.1875 C19.625 232.5175 19.625 232.8475 19.625 233.1875 C-10.97476349 237.69072213 -40.32107381 231.45157121 -65.65625 213.578125 C-67.94564509 211.83619395 -70.15884512 210.02168347 -72.375 208.1875 C-73.38433594 207.39730469 -74.39367187 206.60710937 -75.43359375 205.79296875 C-98.14857165 187.7244669 -112.79211442 159.21678412 -116.16992188 130.44799805 C-118.10903393 109.07390462 -115.02165315 88.79476859 -106.375 69.1875 C-106.08109375 68.51734863 -105.7871875 67.84719727 -105.484375 67.15673828 C-93.04295322 39.3678211 -69.71898024 18.42637011 -41.80859375 6.6875 C-27.82885907 1.43924206 -14.80341971 -0.25888075 0 0 Z " fill="#FCD300" transform="translate(360.375,226.8125)"/>
<path d="M0 0 C10.94996562 5.63408487 18.15952977 21.07553335 24.8125 30.9375 C25.63732773 32.15695822 26.46236498 33.37627476 27.28759766 34.59545898 C28.99968785 37.1252556 30.71088742 39.6556509 32.42138672 42.18652344 C36.16481523 47.72418976 39.91726206 53.25573362 43.67047119 58.78677368 C44.86807546 60.55229179 46.06473576 62.3184466 47.26123047 64.0847168 C50.7992857 69.30492282 54.3484537 74.51652909 57.94140625 79.69921875 C58.53775879 80.561521 59.13411133 81.42382324 59.74853516 82.31225586 C60.82571866 83.86699384 61.90700584 85.41890218 62.99365234 86.96704102 C71.9468266 99.89889783 71.9468266 99.89889783 70.61328125 108.66796875 C69.2821146 113.72979353 66.41771467 117.29236843 62 120 C58.9669677 121.01101077 56.92396662 121.13047324 53.7510376 121.14044189 C52.11926575 121.14900711 52.11926575 121.14900711 50.45452881 121.15774536 C49.26071594 121.15886322 48.06690308 121.15998108 46.83691406 121.16113281 C45.57975586 121.16609772 44.32259766 121.17106262 43.02734375 121.17617798 C39.57674874 121.18929455 36.12617318 121.19574572 32.67555714 121.20018864 C30.51846112 121.20312114 28.36137039 121.20722634 26.20427704 121.21169281 C19.45158483 121.22536707 12.69890475 121.23503353 5.94619966 121.2388947 C-1.84174652 121.24337254 -9.62951692 121.26090786 -17.41740966 121.2898953 C-23.44131253 121.31153634 -29.46516605 121.32160031 -35.48910737 121.32293582 C-39.08484547 121.32398231 -42.68041834 121.32985642 -46.27611542 121.34775543 C-50.29063008 121.36735025 -54.30477869 121.36293753 -58.31933594 121.35644531 C-60.09790985 121.37026749 -60.09790985 121.37026749 -61.91241455 121.3843689 C-69.22865041 121.34729836 -74.90074368 121.09925632 -80.3125 115.6875 C-83.48644812 110.63269374 -84.58473474 106.34491924 -83.71484375 100.4609375 C-82.23611269 95.37022401 -79.02664027 91.2868428 -76 87 C-75.2037032 85.83992973 -74.40952749 84.6784014 -73.6171875 83.515625 C-71.79522063 80.84672549 -69.96349594 78.18488382 -68.125 75.52734375 C-64.72978069 70.61531888 -61.36291548 65.68417952 -58 60.75 C-57.38108887 59.84217773 -56.76217773 58.93435547 -56.12451172 57.99902344 C-52.45410348 52.61182621 -48.79088725 47.21979425 -45.1328125 41.82421875 C-44.71715027 41.21121918 -44.30148804 40.5982196 -43.87322998 39.96664429 C-41.84291844 36.97222246 -39.81335538 33.97729834 -37.78515625 30.98144531 C-35.90932754 28.2119791 -34.02945505 25.44529095 -32.14569092 22.68121338 C-31.35983538 21.52803078 -30.57475994 20.37431629 -29.79034424 19.22015381 C-28.58772622 17.4529157 -27.38042405 15.68896715 -26.171875 13.92578125 C-25.46385742 12.88977783 -24.75583984 11.85377441 -24.02636719 10.78637695 C-17.37549578 1.64102812 -11.55284054 -1.72188834 0 0 Z " fill="#010000" transform="translate(424,71)"/>
<path d="M0 0 C1.67807116 -0.00463636 3.35614128 -0.0096621 5.03421021 -0.01504517 C9.56480063 -0.02808116 14.09537631 -0.03459526 18.62598252 -0.03905582 C21.45866672 -0.04199718 24.29134697 -0.04610366 27.12402916 -0.05056 C35.99428341 -0.0642036 44.86452853 -0.07388898 53.73479253 -0.07776189 C63.9632019 -0.08225333 74.19147836 -0.09986453 84.41984731 -0.12876248 C92.3393849 -0.15036001 100.25888499 -0.16046492 108.17845172 -0.16180301 C112.90412856 -0.16285121 117.62967992 -0.16876393 122.3553257 -0.18662262 C126.79347564 -0.20307282 131.23140522 -0.20527376 135.66957474 -0.19648361 C137.29778444 -0.19571195 138.92600589 -0.20007294 140.55418587 -0.20994186 C142.77672874 -0.22262438 144.99848635 -0.2168057 147.22102356 -0.20635986 C148.46443921 -0.20782642 149.70785486 -0.20929298 150.98894978 -0.21080399 C154.53041215 0.19350852 156.40091416 1.06107072 159.24682617 3.16113281 C162.08125076 6.78613667 161.5526493 11.29126583 161.54760742 15.68847656 C161.55189255 16.51440811 161.55617767 17.34033966 161.56059265 18.19129944 C161.56632683 19.93538498 161.56684293 21.67949443 161.5625 23.42358398 C161.55934132 26.08586605 161.58280523 28.74703503 161.6081543 31.40917969 C161.61042758 33.10644391 161.61113065 34.80371112 161.61010742 36.50097656 C161.61931717 37.29382553 161.62852692 38.0866745 161.63801575 38.90354919 C161.60036261 43.42220015 161.31066657 46.57589823 158.24682617 50.16113281 C154.62072381 51.51135281 150.89968101 51.28989893 147.07312012 51.29484558 C146.34973591 51.29711114 145.62635171 51.29937669 144.88104677 51.3017109 C142.45673305 51.30804188 140.03247537 51.30722213 137.6081543 51.30639648 C135.87023344 51.30938848 134.13231324 51.31279111 132.39439392 51.3165741 C127.67343484 51.32541278 122.95249388 51.32775212 118.23152733 51.32838988 C114.29245642 51.32933906 110.35338975 51.33301735 106.41432047 51.33656198 C97.12362358 51.34470556 87.83293638 51.34714625 78.54223633 51.34643555 C68.95146837 51.34583433 59.36075658 51.35639511 49.77000284 51.37217921 C41.53977649 51.3852426 33.30956852 51.39061997 25.07933187 51.38998014 C20.1619224 51.38972485 15.24456286 51.39259287 10.3271637 51.40315819 C5.70445725 51.4128193 1.08184871 51.41293205 -3.54086113 51.40564156 C-5.23882121 51.40459333 -6.93678732 51.40697265 -8.63473701 51.41300201 C-10.94976338 51.42069123 -13.26444902 51.41609773 -15.57946777 51.40837097 C-16.87584419 51.40891574 -18.17222061 51.40946051 -19.50788116 51.41002178 C-22.5621795 51.17578061 -24.29171881 50.94842292 -26.75317383 49.16113281 C-28.02323873 45.35093811 -27.89610865 41.77101586 -27.88598633 37.80175781 C-27.88694305 36.97915466 -27.88789978 36.15655151 -27.8888855 35.309021 C-27.88956599 33.56734135 -27.88772083 31.82565915 -27.88354492 30.08398438 C-27.87822212 27.4351623 -27.88348017 24.78651192 -27.88989258 22.13769531 C-27.88923124 20.44238244 -27.88794893 18.74706968 -27.88598633 17.05175781 C-27.88801056 16.26609436 -27.89003479 15.48043091 -27.89212036 14.67095947 C-27.87278252 10.06632833 -27.5118757 5.70430292 -26.75317383 1.16113281 C-17.8272147 0.0548416 -8.97644482 0.00581369 0 0 Z " fill="#29B859" transform="translate(93.753173828125,413.8388671875)"/>
<path d="M0 0 C3.48579191 1.98927391 6.19581306 4.39162612 8 8 C8.97268806 24.0867641 7.17027693 40.44305389 3 56 C3.60473145 55.98428955 4.20946289 55.9685791 4.83251953 55.95239258 C7.59658296 55.8896812 10.36049621 55.85089589 13.125 55.8125 C14.07632813 55.78736328 15.02765625 55.76222656 16.0078125 55.73632812 C23.15022108 55.66192804 27.41128868 56.69267035 32.875 61.5625 C35.51325187 64.9862508 35.55965982 68.22772882 35.56640625 72.4375 C34.30135544 78.16076433 29.95793413 82.32924947 26.0625 86.5 C25.59231445 87.0062793 25.12212891 87.51255859 24.63769531 88.03417969 C23.09571191 89.6931481 21.54800632 91.34665177 20 93 C17.74808503 95.41488684 15.49870016 97.83211966 13.25 100.25 C12.69272217 100.8486084 12.13544434 101.4472168 11.5612793 102.06396484 C8.24009444 105.63909635 4.98574077 109.25909238 1.796875 112.953125 C-1.01922919 116.16103499 -3.91901441 119.29206199 -6.80859375 122.43359375 C-9.76464102 125.64880133 -12.70431965 128.87753024 -15.625 132.125 C-16.70394531 133.32382812 -16.70394531 133.32382812 -17.8046875 134.546875 C-19.33744627 136.25963747 -20.86292784 137.97892798 -22.3828125 139.703125 C-23.16398437 140.58484375 -23.94515625 141.4665625 -24.75 142.375 C-25.44609375 143.16648437 -26.1421875 143.95796875 -26.859375 144.7734375 C-32.55173806 150.69432608 -32.55173806 150.69432608 -36.68359375 151.56640625 C-45.03726728 151.55455707 -45.03726728 151.55455707 -48.5625 148.75 C-53.96478678 142.65511235 -53.58288555 136.62713871 -53.21728516 128.81884766 C-51.39567373 105.18702118 -51.39567373 105.18702118 -48 95 C-48.66008057 95.0314209 -49.32016113 95.0628418 -50.00024414 95.09521484 C-53.02064076 95.22072269 -56.04048798 95.29821567 -59.0625 95.375 C-60.10083984 95.42527344 -61.13917969 95.47554688 -62.20898438 95.52734375 C-67.45458028 95.62725986 -71.02999806 95.59406652 -75.15625 92.12890625 C-78.6861524 88.59954525 -79.74427808 85.6621925 -80.5 80.75 C-79.44320469 72.8240352 -73.70856663 67.49181038 -68.13671875 62.1640625 C-65.73857559 59.73523013 -63.63240102 57.16458372 -61.5 54.5 C-58.17298022 50.35551659 -54.69330643 46.58079407 -50.88671875 42.87890625 C-48.4461204 40.4484139 -46.21868798 37.86709765 -43.97265625 35.2578125 C-41.56798403 32.5055342 -39.1000459 29.81377089 -36.625 27.125 C-29.8386656 19.74577504 -23.07934517 12.34816379 -16.60546875 4.69140625 C-11.62282034 -0.55795326 -7.07740184 -1.26774335 0 0 Z " fill="#070402" transform="translate(384,268)"/>
<path d="M0 0 C1.9451 2.91765 2.45276317 4.62537285 3 8 C3.91057159 8.0154612 3.91057159 8.0154612 4.83953857 8.03123474 C11.26582024 8.14100275 17.69200817 8.25541995 24.11816406 8.37231445 C26.50356041 8.41512844 28.88897704 8.4568301 31.27441406 8.49731445 C45.86804713 8.74586035 60.42814112 9.15146721 75 10 C76.11320766 13.79197131 77.18477883 17.53039971 77.859375 21.42578125 C79.60021628 30.99454028 81.75420194 40.10680804 85.06933594 49.26293945 C86.32443886 52.75647078 87 55.23634581 87 59 C29.25 59 -28.5 59 -88 59 C-88 43.16 -88 27.32 -88 11 C-83.92603882 8.96301941 -82.18835552 8.73426027 -77.76269531 8.68115234 C-76.50169006 8.66128265 -75.24068481 8.64141296 -73.94146729 8.62094116 C-72.57035497 8.6090657 -71.1992408 8.59740279 -69.828125 8.5859375 C-68.42135487 8.56722131 -67.01459591 8.54764755 -65.60784912 8.5272522 C-61.91227817 8.47597239 -58.21667083 8.43632466 -54.52093506 8.39910889 C-50.74693839 8.35904307 -46.97309251 8.30796252 -43.19921875 8.2578125 C-35.7995827 8.16110244 -28.39987357 8.07668213 -21 8 C-21 6.35 -21 4.7 -21 3 C-14.07 3 -7.14 3 0 3 C0 2.01 0 1.02 0 0 Z " fill="#29B759" transform="translate(155,341)"/>
<path d="M0 0 C2.4777832 0.38500977 2.4777832 0.38500977 4.87231445 3.24438477 C5.69576331 4.53024477 6.50075302 5.82804915 7.2902832 7.13500977 C8.16907136 8.52050134 9.04797906 9.9059171 9.92700195 11.29125977 C10.35803223 11.98477539 10.7890625 12.67829102 11.2331543 13.39282227 C12.97137271 16.17506279 14.78229299 18.90606981 16.6027832 21.63500977 C17.24989258 22.60696289 17.89700195 23.57891602 18.5637207 24.58032227 C20.3979568 27.26803965 22.29468676 29.89277219 24.2277832 32.51000977 C28.65225083 38.54026873 32.77508818 44.75358982 36.8996582 50.99047852 C39.23437119 54.52027778 41.5860278 58.03801919 43.95089722 61.54763794 C45.59536973 63.98845866 47.23624996 66.43168545 48.87701416 68.875 C49.68953775 70.08308417 50.50360804 71.29012961 51.3192749 72.49609375 C52.47279633 74.20229124 53.62037662 75.91234958 54.7668457 77.62329102 C55.76772217 79.10889526 55.76772217 79.10889526 56.78881836 80.62451172 C58.4777832 83.38500977 58.4777832 83.38500977 60.4777832 88.38500977 C20.5477832 88.38500977 -19.3822168 88.38500977 -60.5222168 88.38500977 C-59.14754688 84.94833498 -58.18412867 82.63007406 -56.20507812 79.70629883 C-55.74413254 79.02017517 -55.28318695 78.33405151 -54.80827332 77.62713623 C-54.30781998 76.89239075 -53.80736664 76.15764526 -53.29174805 75.40063477 C-52.76337845 74.61674377 -52.23500885 73.83285278 -51.69062805 73.02520752 C-50.55606122 71.34279714 -49.41947598 69.66174648 -48.28106689 67.98193359 C-46.53622566 65.40569371 -44.79835458 62.82489764 -43.06274414 60.24243164 C-38.17049204 52.96489923 -33.26647997 45.69535691 -28.35229492 38.43261719 C-27.07942637 36.55091816 -25.80663891 34.66916427 -24.53393555 32.78735352 C-23.61075027 31.42256111 -23.61075027 31.42256111 -22.66891479 30.03019714 C-19.23421804 24.9448615 -15.83547498 19.83880146 -12.47924805 14.70141602 C-11.78935791 13.65566406 -11.09946777 12.60991211 -10.38867188 11.5324707 C-9.18558561 9.70510147 -7.99554152 7.86904539 -6.82177734 6.02270508 C-6.31042236 5.25152344 -5.79906738 4.4803418 -5.2722168 3.68579102 C-4.64573242 2.71379761 -4.64573242 2.71379761 -4.0065918 1.72216797 C-2.5222168 0.38500977 -2.5222168 0.38500977 0 0 Z " fill="#02A15D" transform="translate(417.522216796875,87.614990234375)"/>
<path d="M0 0 C16.56119792 10.12239583 16.56119792 10.12239583 19 15 C20.26572016 26.57822702 16.80799388 36.62329393 9.8359375 45.81640625 C2.93348721 54.02591628 -5.8606545 58.54744118 -16.5890522 59.79834175 C-21.40396153 60.2010739 -26.22735191 60.1833093 -31.05639648 60.20874023 C-32.83599762 60.22341591 -32.83599762 60.22341591 -34.65155029 60.23838806 C-38.55804375 60.26818224 -42.46453509 60.28999902 -46.37109375 60.30859375 C-47.03831113 60.31189107 -47.70552851 60.31518839 -48.3929646 60.31858563 C-54.69607931 60.34933509 -60.99919942 60.37600907 -67.30236721 60.39300442 C-75.33207918 60.41492074 -83.36112383 60.45696875 -91.39056915 60.52644199 C-97.05621303 60.57378386 -102.72167735 60.59795061 -108.38751274 60.6052013 C-111.76328394 60.61013844 -115.13829896 60.62503346 -118.51385307 60.6649456 C-122.2811676 60.70386829 -126.04674101 60.704893 -129.81420898 60.69702148 C-130.91942398 60.71702209 -132.02463898 60.73702271 -133.16334534 60.75762939 C-142.14961781 60.67353081 -147.39454531 57.65902757 -153.62890625 51.33203125 C-154.26699219 50.50058594 -154.90507812 49.66914063 -155.5625 48.8125 C-156.22378906 47.97332031 -156.88507813 47.13414062 -157.56640625 46.26953125 C-159 44 -159 44 -159 41 C-157.94976969 40.99780016 -157.94976969 40.99780016 -156.8783226 40.99555588 C-139.7997055 40.9584174 -122.72130378 40.89930985 -105.64284897 40.81609726 C-97.38364103 40.77637872 -89.12452737 40.7439499 -80.86523438 40.72900391 C-73.66191772 40.71594996 -66.45880917 40.68889052 -59.25560975 40.64538693 C-55.4456114 40.6228557 -51.63586891 40.60708426 -47.82579803 40.60811615 C-44.23052587 40.60886775 -40.63581747 40.59071958 -37.04069138 40.55883217 C-35.11073467 40.54641607 -33.18068285 40.55335809 -31.2507019 40.56114197 C-22.12778174 40.4533633 -13.30979217 39.27544205 -5.875 33.625 C-1.72911084 27.82075517 -1.64383405 21.81697918 -1.4375 14.9375 C-1.07204705 4.26160852 -1.07204705 4.26160852 0 0 Z " fill="#D5E7F9" transform="translate(269,438)"/>
<path d="M0 0 C-0.13995514 3.20861774 -0.28802257 6.41681288 -0.4375 9.625 C-0.47681641 10.52863281 -0.51613281 11.43226563 -0.55664062 12.36328125 C-0.77644427 16.99606568 -1.21942691 21.42444554 -2 26 C-2.82862297 37.48719766 -2.82862297 37.48719766 1 48 C4.16690213 50.11126809 5.42327029 50.33483112 9.10546875 50.6328125 C10.08837891 50.71660156 11.07128906 50.80039062 12.08398438 50.88671875 C13.10814453 50.96535156 14.13230469 51.04398437 15.1875 51.125 C16.22326172 51.21136719 17.25902344 51.29773438 18.32617188 51.38671875 C20.88358608 51.59885449 23.44138541 51.80296419 26 52 C23.39030012 56.94437285 20.7777187 60.54398206 16.6875 64.4375 C12.90244919 68.1033317 9.29776229 71.83290808 5.875 75.83984375 C3.4706538 78.60985094 0.98617026 81.30372496 -1.5 84 C-4.5391316 87.30005166 -7.5615668 90.60950015 -10.5 94 C-13.52153732 97.47513372 -16.59236361 100.90295002 -19.6875 104.3125 C-20.1515625 104.82876953 -20.615625 105.34503906 -21.09375 105.87695312 C-23.55048976 108.57087093 -25.99049984 110.93493315 -29 113 C-29.19315986 106.4432958 -29.15162666 100.15931745 -28 93.6875 C-27.14209517 88.61413477 -26.74892077 83.69644967 -26.6875 78.5625 C-26.67074219 77.26441406 -26.65398437 75.96632813 -26.63671875 74.62890625 C-27.03407103 70.65965609 -27.76867834 68.30080045 -30 65 C-34.41522015 62.18033742 -40.20390773 62.31545813 -45.3125 61.875 C-46.24384766 61.78863281 -47.17519531 61.70226562 -48.13476562 61.61328125 C-50.42264973 61.40209195 -52.71093346 61.19788734 -55 61 C-51.77560037 56.62190992 -48.55087339 52.32713035 -44.875 48.3125 C-44.111875 47.47589844 -43.34875 46.63929688 -42.5625 45.77734375 C-39.14716202 42.07565883 -35.72876911 38.37680516 -32.30664062 34.68139648 C-29.06874787 31.17868888 -25.89414277 27.63127726 -22.7734375 24.0234375 C-19.71246636 20.53096382 -16.56379039 17.11785248 -13.43359375 13.6875 C-10.73885193 10.71160534 -8.09428737 7.69656914 -5.47265625 4.65625 C-1.33254717 0 -1.33254717 0 0 0 Z " fill="#F7783F" transform="translate(376,287)"/>
<path d="M0 0 C2.84466534 2.70278002 5.10253907 5.41628677 7.2578125 8.69140625 C7.8751123 9.62364014 8.49241211 10.55587402 9.12841797 11.51635742 C9.78729004 12.52158447 10.44616211 13.52681152 11.125 14.5625 C12.5465091 16.71638736 13.96839954 18.87002309 15.390625 21.0234375 C15.94464493 21.86436195 15.94464493 21.86436195 16.50985718 22.72227478 C19.31016057 26.96956019 22.14156579 31.19513727 24.984375 35.4140625 C26.21410861 37.24297808 27.44349006 39.07212993 28.67279053 40.90133667 C29.47004641 42.08584674 30.26873826 43.26939165 31.06890869 44.45193481 C32.19345964 46.11480206 33.31169729 47.78193346 34.4296875 49.44921875 C35.07147949 50.40143311 35.71327148 51.35364746 36.37451172 52.3347168 C38 55 38 55 40 60 C13.93 60 -12.14 60 -39 60 C-39 51.00233973 -39 51.00233973 -36.32421875 47.40625 C-35.74897461 46.6117041 -35.17373047 45.8171582 -34.58105469 44.99853516 C-33.95618164 44.17401855 -33.33130859 43.34950195 -32.6875 42.5 C-31.39377912 40.72711111 -30.10081929 38.95366662 -28.80859375 37.1796875 C-27.83962158 35.86822754 -27.83962158 35.86822754 -26.85107422 34.53027344 C-24.23294062 30.95148993 -21.73928138 27.29394083 -19.25 23.625 C-17.93891202 21.71590568 -16.62462925 19.80904103 -15.31005859 17.90234375 C-14.4125339 16.59904289 -13.51712982 15.29427983 -12.62353516 13.98828125 C-11.27864675 12.02759798 -9.92212626 10.07548242 -8.5625 8.125 C-8.1612793 7.53541504 -7.76005859 6.94583008 -7.34667969 6.33837891 C-5.21916449 3.31255954 -3.53116985 1.2708994 0 0 Z " fill="#29B859" transform="translate(438,116)"/>
<path d="M0 0 C4.41375 0.020625 8.8275 0.04125 13.375 0.0625 C13.375 16.8925 13.375 33.7225 13.375 51.0625 C5.08375 51.124375 5.08375 51.124375 -3.375 51.1875 C-5.98293457 51.21481201 -5.98293457 51.21481201 -8.64355469 51.24267578 C-10.02799165 51.24851929 -11.41243206 51.25361518 -12.796875 51.2578125 C-13.51053223 51.26804443 -14.22418945 51.27827637 -14.95947266 51.28881836 C-21.64172554 51.29115972 -21.64172554 51.29115972 -24.625 49.0625 C-25.8950649 45.2523053 -25.76793482 41.67238304 -25.7578125 37.703125 C-25.75876923 36.88052185 -25.75972595 36.0579187 -25.76071167 35.21038818 C-25.76139216 33.46870853 -25.759547 31.72702634 -25.75537109 29.98535156 C-25.75004829 27.33652949 -25.75530634 24.6878791 -25.76171875 22.0390625 C-25.76105741 20.34374963 -25.7597751 18.64843686 -25.7578125 16.953125 C-25.75983673 16.16746155 -25.76186096 15.3817981 -25.76394653 14.57232666 C-25.74460869 9.96769552 -25.38370187 5.6056701 -24.625 1.0625 C-16.40767638 -0.00093246 -8.27551837 -0.05496259 0 0 Z " fill="#02A15E" transform="translate(91.625,413.9375)"/>
<path d="M0 0 C0.66435059 0.00201416 1.32870117 0.00402832 2.01318359 0.00610352 C4.48281814 0.01652748 6.95235387 0.04445005 9.421875 0.0703125 C14.949375 0.1115625 20.476875 0.1528125 26.171875 0.1953125 C26.171875 16.6953125 26.171875 33.1953125 26.171875 50.1953125 C13.631875 50.1953125 1.091875 50.1953125 -11.828125 50.1953125 C-11.828125 34.3553125 -11.828125 18.5153125 -11.828125 2.1953125 C-7.56051841 0.0615092 -4.61052763 -0.06610262 0 0 Z " fill="#02A15E" transform="translate(78.828125,349.8046875)"/>
<path d="M0 0 C2.51014004 -0.09464937 5.01888028 -0.15511376 7.53027344 -0.20507812 C8.68837524 -0.24967163 8.68837524 -0.24967163 9.86987305 -0.29516602 C15.36867353 -0.35164629 20.10253696 0.59628953 24.46777344 4.10742188 C29.46777344 11.10742188 29.46777344 11.10742188 29.46777344 33.10742188 C9.99777344 33.10742188 -9.47222656 33.10742188 -29.53222656 33.10742188 C-29.53222656 12.10742188 -29.53222656 12.10742188 -26.53222656 6.10742188 C-18.91492161 -0.76673137 -9.75815875 0.41395968 0 0 Z " fill="#6B5DB4" transform="translate(160.5322265625,13.892578125)"/>
<path d="M0 0 C4.67319121 2.09487882 8.00057804 5.23287612 10 10 C10.47956654 13.8095248 10.37755083 17.54339557 10.25 21.375 C10.1675 24.88125 10.085 28.3875 10 32 C0.1 32 -9.8 32 -20 32 C-20.061875 28.535 -20.12375 25.07 -20.1875 21.5 C-20.21481201 20.42427734 -20.24212402 19.34855469 -20.27026367 18.24023438 C-20.32285866 12.10980777 -19.72103177 7.53086179 -17 2 C-11.90959794 -1.39360137 -5.94124053 -0.54694965 0 0 Z " fill="#8277BF" transform="translate(180,15)"/>
</svg>
