<?xml version="1.0" encoding="UTF-8"?>
<svg version="1.1" xmlns="http://www.w3.org/2000/svg" width="512" height="512">
<path d="M0 0 C4.29131835 1.70354793 7.29321698 5.04362657 10.5 8.27050781 C12.93344548 10.67816242 15.45708348 12.98676007 17.96875 15.31225586 C24.08623528 20.9861665 30.0613067 26.7687108 35.921875 32.70703125 C37.84881671 34.60589366 39.81952627 36.38042084 41.87890625 38.1328125 C45.63775513 41.3427017 49.09383032 44.80821372 52.56640625 48.3203125 C56.55154189 52.35065031 60.5749449 56.21052182 64.90234375 59.875 C68.52705564 63.13331502 71.91755577 66.63114724 75.32421875 70.11523438 C78.74303737 73.58851947 82.27440219 76.75710201 86.06640625 79.8203125 C86.08098877 78.96800049 86.09557129 78.11568848 86.1105957 77.23754883 C86.1718391 74.05960075 86.24602654 70.88228704 86.32885742 67.70483398 C86.36200431 66.33255292 86.39006796 64.96013888 86.4128418 63.58764648 C86.44657391 61.60893484 86.50042115 59.63059874 86.5546875 57.65234375 C86.58087158 56.46358643 86.60705566 55.2748291 86.6340332 54.05004883 C87.10827803 50.50753906 87.87415159 48.62504018 90.06640625 45.8203125 C92.87276327 44.11682163 94.97040179 43.56901986 98.23423767 43.55961609 C99.05709763 43.55253128 99.87995758 43.54544647 100.72775269 43.53814697 C101.62188873 43.54062439 102.51602478 43.54310181 103.43725586 43.5456543 C104.38565842 43.54054337 105.33406097 43.53543243 106.311203 43.53016663 C109.44711614 43.51626344 112.5828097 43.51722793 115.71875 43.51953125 C117.89823997 43.51564479 120.07772918 43.51131023 122.25721741 43.50654602 C126.82604426 43.49908229 131.39479384 43.49937627 135.96362305 43.50463867 C141.81925754 43.51043422 147.67457583 43.49350081 153.53015804 43.470294 C158.03143667 43.45556447 162.532639 43.45468389 167.03393745 43.45780373 C169.19290353 43.45729015 171.35187384 43.45204557 173.51081657 43.44199181 C176.52947433 43.42965973 179.54751429 43.43639986 182.56616211 43.44799805 C183.90432983 43.43653244 183.90432983 43.43653244 185.26953125 43.42483521 C190.03083075 43.46528338 193.19450343 43.7313769 197.06640625 46.8203125 C200.6673371 51.65394548 199.39924378 58.74783479 199.38208008 64.51928711 C199.37892147 66.74708035 199.40238965 68.97354278 199.42773438 71.20117188 C199.43000779 72.62499833 199.43071067 74.04882834 199.4296875 75.47265625 C199.43415894 77.40612915 199.43415894 77.40612915 199.4387207 79.37866211 C199.03730884 83.08928707 198.48084062 84.98299807 196.06640625 87.8203125 C194.41640625 88.1503125 192.76640625 88.4803125 191.06640625 88.8203125 C191.06640625 95.4203125 191.06640625 102.0203125 191.06640625 108.8203125 C192.71640625 109.1503125 194.36640625 109.4803125 196.06640625 109.8203125 C199.37025212 113.70340408 199.38794556 116.9606631 199.22900391 121.92700195 C199.19353611 123.37095552 199.15810701 124.81491003 199.12271118 126.25886536 C199.09844685 127.01969736 199.07418251 127.78052937 199.04918289 128.56441689 C198.9310783 132.63651416 198.90180298 136.7097727 198.85546875 140.78320312 C198.79035404 145.94820343 198.70066082 151.10930702 198.52148438 156.27172852 C196.98022206 176.42855507 196.98022206 176.42855507 203.7487793 194.5480957 C207.16872393 198.07497374 210.8920754 200.87153648 215.04490662 203.47779846 C218.00125753 205.44116394 220.21383095 207.79006339 222.62890625 210.3828125 C225.27663074 213.06601738 227.94329412 215.63087767 230.81640625 218.0703125 C236.72708049 223.12103208 242.11303262 228.76063286 247.55541992 234.30541992 C248.81955151 235.57281958 250.12764677 236.79616585 251.4453125 238.0078125 C253.06640625 239.8203125 253.06640625 239.8203125 253.75390625 243.6328125 C253.54969046 247.09171752 252.65039736 248.78067024 250.25390625 251.2578125 C248.8835821 252.47466034 247.48477817 253.65982638 246.06640625 254.8203125 C245.2671875 255.48546875 244.46796875 256.150625 243.64453125 256.8359375 C241.83521933 258.32406979 240.01701515 259.80143743 238.19140625 261.26953125 C233.92797594 264.71764973 229.79857733 268.32429841 225.66186523 271.92260742 C221.56507695 275.46604217 219.03297887 277.45164993 213.4296875 277.44140625 C208.28254978 276.08868741 204.67631689 271.53281386 201.06640625 267.8203125 C200.07640625 266.8303125 199.08640625 265.8403125 198.06640625 264.8203125 C197.73640625 319.2703125 197.40640625 373.7203125 197.06640625 429.8203125 C213.89640625 429.8203125 230.72640625 429.8203125 248.06640625 429.8203125 C253.06640625 432.8203125 253.06640625 432.8203125 254.06640625 433.8203125 C254.18172501 435.94601562 254.22611057 438.07558715 254.2434082 440.2043457 C254.253265 441.20442154 254.253265 441.20442154 254.26332092 442.22470093 C254.28309746 444.44016623 254.29472674 446.65556358 254.3046875 448.87109375 C254.30876303 449.62643087 254.31283855 450.381768 254.31703758 451.15999413 C254.33791802 455.15866195 254.3522105 459.15729526 254.36157227 463.15600586 C254.37263435 467.28896385 254.40702561 471.42138304 254.44674397 475.55415058 C254.47287953 478.72917183 254.48126139 481.90406422 254.48485374 485.07918358 C254.48972856 486.60263898 254.50136809 488.12608828 254.51989174 489.64943886 C254.54421748 491.78275904 254.54333114 493.91467955 254.53637695 496.0480957 C254.54224319 497.26197464 254.54810944 498.47585358 254.55415344 499.72651672 C253.94434693 503.59453859 253.20143445 504.50747779 250.06640625 506.8203125 C247.15570144 507.21222304 244.62423611 507.35787191 241.7142334 507.32367706 C240.85987607 507.32949083 240.00551874 507.33530459 239.1252718 507.34129453 C236.2427376 507.35597222 233.36104458 507.34197316 230.47851562 507.32824707 C228.39901034 507.33285291 226.3195083 507.33920368 224.24001312 507.34715605 C218.51029181 507.36391597 212.78083562 507.35557275 207.05111313 507.34321117 C200.87788815 507.33419021 194.70470994 507.3481157 188.53149414 507.35913086 C177.1320194 507.37592136 165.73265322 507.37442151 154.33318114 507.36348499 C143.80308496 507.35343185 133.27301992 507.35079171 122.74291992 507.35557556 C122.0450566 507.3558811 121.34719328 507.35618664 120.62818259 507.35650144 C117.79549135 507.35774675 114.96280013 507.35902034 112.13010892 507.3603405 C85.54482685 507.37258282 58.95959888 507.36147264 32.37432516 507.33995291 C8.7430107 507.32096977 -14.88821755 507.32266826 -38.51953125 507.34179688 C-65.05547153 507.36320476 -91.59136399 507.37171468 -118.12731171 507.35934782 C-120.95491027 507.35806491 -123.78250884 507.35681355 -126.61010742 507.35557556 C-127.30635957 507.35525925 -128.00261172 507.35494294 -128.71996242 507.35461705 C-139.24471786 507.35006275 -149.76943879 507.35539645 -160.29418945 507.36549377 C-172.25856685 507.37691487 -184.22284238 507.3737194 -196.18721581 507.3523708 C-202.29600177 507.34183121 -208.4046124 507.33778802 -214.51339722 507.35096741 C-220.09938009 507.36283694 -225.68502418 507.35641889 -231.27097607 507.3350572 C-233.29782874 507.33056798 -235.32470971 507.33290893 -237.35154438 507.34256035 C-240.09525026 507.35462889 -242.8377778 507.34234711 -245.5814209 507.32367706 C-246.77682889 507.33772406 -246.77682889 507.33772406 -247.99638653 507.35205483 C-251.52284967 507.30370606 -253.54931248 507.10403756 -256.42427921 504.98137331 C-258.54405492 501.94624438 -258.43479604 499.76292729 -258.43530273 496.07983398 C-258.44070572 495.41107239 -258.4461087 494.74231079 -258.45167542 494.05328369 C-258.46415481 491.84887052 -258.44768079 489.64576538 -258.4296875 487.44140625 C-258.42984249 485.90731233 -258.43133148 484.37321802 -258.43409729 482.83912659 C-258.43548085 479.62703095 -258.42292959 476.41538208 -258.40014648 473.20336914 C-258.37173752 469.08498632 -258.37450598 464.96734438 -258.3872366 460.84890652 C-258.39418869 457.68245609 -258.38641037 454.51617715 -258.37397957 451.34974861 C-258.36946215 449.83109253 -258.36913081 448.31241806 -258.37304497 446.7937603 C-258.37595333 444.67258777 -258.35947114 442.55243959 -258.33764648 440.43139648 C-258.3322435 439.22434555 -258.32684052 438.01729462 -258.3212738 436.77366638 C-257.93359375 433.8203125 -257.93359375 433.8203125 -256.59584045 431.96961975 C-253.43315476 429.78288201 -250.62778171 429.6976108 -246.91137695 429.70678711 C-245.8905452 429.70686264 -244.86971344 429.70693817 -243.81794739 429.70701599 C-242.7178685 429.71217728 -241.61778961 429.71733856 -240.484375 429.72265625 C-238.79274483 429.72477867 -238.79274483 429.72477867 -237.06694031 429.72694397 C-233.45996463 429.7325478 -229.85305071 429.74510097 -226.24609375 429.7578125 C-223.80273527 429.76282701 -221.35937582 429.76739 -218.91601562 429.77148438 C-212.92185388 429.78251847 -206.92772823 429.79926035 -200.93359375 429.8203125 C-200.93803497 428.77905716 -200.9424762 427.73780182 -200.947052 426.66499329 C-200.98759999 416.85089591 -201.01757909 407.03681554 -201.03721809 397.22265339 C-201.04765411 392.17712728 -201.06181007 387.13166882 -201.08447266 382.08618164 C-201.1062074 377.21677676 -201.11816375 372.34743694 -201.12334824 367.47798729 C-201.12704285 365.62045454 -201.13425746 363.76292535 -201.14505386 361.9054203 C-201.15957711 359.30316098 -201.16157134 356.7011703 -201.16064453 354.09887695 C-201.16783508 353.3313913 -201.17502563 352.56390564 -201.18243408 351.77316284 C-201.15348414 344.25842693 -201.15348414 344.25842693 -198.93359375 340.8203125 C-196.95359375 340.1603125 -194.97359375 339.5003125 -192.93359375 338.8203125 C-192.93359375 332.5503125 -192.93359375 326.2803125 -192.93359375 319.8203125 C-194.58359375 319.1603125 -196.23359375 318.5003125 -197.93359375 317.8203125 C-202.0741564 313.31298673 -201.40930484 307.60310342 -201.4453125 301.83203125 C-201.4632637 300.77369583 -201.4812149 299.71536041 -201.49971008 298.62495422 C-201.55378866 295.25261388 -201.58770165 291.8804149 -201.62109375 288.5078125 C-201.65426891 286.2180793 -201.68875875 283.92836475 -201.72460938 281.63867188 C-201.80951373 276.03267885 -201.87787408 270.42666747 -201.93359375 264.8203125 C-202.62066406 265.51898438 -203.30773437 266.21765625 -204.015625 266.9375 C-204.91667969 267.84757812 -205.81773437 268.75765625 -206.74609375 269.6953125 C-208.08607422 271.05269531 -208.08607422 271.05269531 -209.453125 272.4375 C-212.47580917 275.34118086 -214.28809201 276.69351751 -218.43359375 277.5078125 C-224.40740845 277.32316732 -228.14288448 273.07038911 -232.35498047 269.24121094 C-234.62752383 267.19571103 -236.962548 265.22641872 -239.29370117 263.24829102 C-256.88583334 248.29791657 -256.88583334 248.29791657 -257.30859375 244.0703125 C-257.45703125 242.0234375 -257.45703125 242.0234375 -256.93359375 239.8203125 C-255.32436192 238.01669821 -253.70649359 236.45150631 -251.93359375 234.8203125 C-250.54655546 233.43258654 -249.16558563 232.03878186 -247.7890625 230.640625 C-246.23313476 229.07545935 -244.67714355 227.5103568 -243.12109375 225.9453125 C-242.35216797 225.16800781 -241.58324219 224.39070312 -240.79101562 223.58984375 C-236.59145792 219.37256639 -232.31012794 215.34428889 -227.7980957 211.46435547 C-224.87204464 208.88428112 -222.15865596 206.10928606 -219.43359375 203.3203125 C-216.04579715 199.88993254 -212.68137286 196.49746775 -208.99609375 193.3828125 C-205.09089419 190.07458613 -201.53078207 186.45517757 -197.93359375 182.8203125 C-193.76712681 178.61020621 -189.58073973 174.5479004 -185.0546875 170.72265625 C-181.45621914 167.49530065 -178.10835845 164.01406277 -174.71069336 160.57788086 C-171.2930356 157.13643085 -167.79081166 153.89422599 -164.08984375 150.7578125 C-161.08744692 148.06000665 -158.27098558 145.18987431 -155.43359375 142.3203125 C-151.44582544 138.2873314 -147.4186447 134.42628788 -143.08984375 130.7578125 C-140.08744692 128.06000665 -137.27098558 125.18987431 -134.43359375 122.3203125 C-130.44582544 118.2873314 -126.4186447 114.42628788 -122.08984375 110.7578125 C-119.08744692 108.06000665 -116.27098558 105.18987431 -113.43359375 102.3203125 C-109.44582544 98.2873314 -105.4186447 94.42628788 -101.08984375 90.7578125 C-98.08744692 88.06000665 -95.27098558 85.18987431 -92.43359375 82.3203125 C-88.44582544 78.2873314 -84.4186447 74.42628788 -80.08984375 70.7578125 C-77.08744692 68.06000665 -74.27098558 65.18987431 -71.43359375 62.3203125 C-67.44582544 58.2873314 -63.4186447 54.42628788 -59.08984375 50.7578125 C-56.08744692 48.06000665 -53.27098558 45.18987431 -50.43359375 42.3203125 C-46.44582544 38.2873314 -42.4186447 34.42628788 -38.08984375 30.7578125 C-35.0874316 28.05999288 -32.27118795 25.18969484 -29.43359375 22.3203125 C-25.35686361 18.20235048 -21.27389464 14.17365232 -16.82421875 10.453125 C-15.41028175 9.23199759 -14.05386762 7.94370597 -12.73046875 6.625 C-5.2867884 -0.64144986 -5.2867884 -0.64144986 0 0 Z " fill="#010101" transform="translate(257.93359375,2.1796875)"/>
<path d="M0 0 C4.09894293 1.61029901 6.76201502 4.57821401 9.75 7.6875 C13.03156782 11.04021292 16.28283364 14.35042703 19.875 17.375 C23.79832332 20.70736249 27.38208667 24.34415311 31 28 C36.34465086 33.41495001 36.34465086 33.41495001 42 38.5 C46.55937735 42.35188776 50.67246864 46.64812208 54.8671875 50.88671875 C57.82940843 53.86800977 60.78707598 56.78563316 64 59.5 C68.55937735 63.35188776 72.67246864 67.64812208 76.8671875 71.88671875 C79.82940843 74.86800977 82.78707598 77.78563316 86 80.5 C90.55937735 84.35188776 94.67246864 88.64812208 98.8671875 92.88671875 C101.82940843 95.86800977 104.78707598 98.78563316 108 101.5 C112.55937735 105.35188776 116.67246864 109.64812208 120.8671875 113.88671875 C123.82940843 116.86800977 126.78707598 119.78563316 130 122.5 C134.55937735 126.35188776 138.67246864 130.64812208 142.8671875 134.88671875 C145.82940843 137.86800977 148.78707598 140.78563316 152 143.5 C156.55307423 147.34656271 160.66089483 151.63619467 164.84960938 155.86914062 C168.49131581 159.53446894 172.17751306 163.07189763 176.15625 166.375 C176.7646875 166.91125 177.373125 167.4475 178 168 C178.48417188 168.39608133 178.96834377 168.79216266 179.46718752 169.20024645 C182.5914119 171.96718111 183.87873999 173.4067659 184.73828697 177.61188316 C184.7632591 178.97666465 184.75567217 180.34229586 184.7215271 181.70687866 C184.72665365 182.46337885 184.7317802 183.21987903 184.7370621 183.99930346 C184.74691486 186.52433979 184.71400135 189.04696297 184.68115234 191.57177734 C184.67945925 193.38544661 184.68041118 195.19911999 184.68380737 197.01278687 C184.68552805 201.92999125 184.65026633 206.84631647 184.60836363 211.76331663 C184.57084167 216.90422826 184.5673301 222.04516031 184.56021118 227.18618774 C184.54156667 236.91849001 184.49233485 246.65038762 184.43211424 256.38251173 C184.36503695 267.46339854 184.33205701 278.54430473 184.30194163 289.62534404 C184.23923558 312.41712032 184.13370805 335.20853748 184 358 C183.13693835 358.00238835 182.27387671 358.00477671 181.38466167 358.00723743 C160.40369289 358.06632234 139.42283961 358.14183045 118.44199657 358.23571491 C108.29589563 358.28071855 98.14983016 358.3201226 88.00366211 358.34643555 C79.16230859 358.36937871 70.32106687 358.40273526 61.47980195 358.44870156 C56.7965527 358.47268362 52.11341451 358.49137966 47.43010521 358.49761391 C43.02486219 358.50364232 38.61990351 358.52356029 34.21476555 358.55427551 C32.59542563 358.56309189 30.9760486 358.56677092 29.35668564 358.56500816 C27.15035621 358.56336432 24.94490285 358.57997678 22.73869324 358.60127258 C21.50256885 358.60588155 20.26644445 358.61049051 18.99286175 358.61523914 C16.02151206 358.75556502 16.02151206 358.75556502 14.10375214 360.36712646 C12.47903909 362.77070136 12.59944263 364.69049801 12.56762695 367.57299805 C12.53793571 369.28443245 12.53793571 369.28443245 12.50764465 371.03044128 C12.50125473 372.26176285 12.49486481 373.49308441 12.48828125 374.76171875 C12.47033005 376.02264847 12.45237885 377.28357819 12.43388367 378.5827179 C12.38884576 381.93155514 12.35657259 385.2800242 12.33044434 388.62902832 C12.30064234 392.04774286 12.2541109 395.4662251 12.20898438 398.88476562 C12.12388292 405.58975783 12.05714822 412.29471362 12 419 C4.74 419 -2.52 419 -10 419 C-10.00586624 416.32565353 -10.01173248 413.65130707 -10.01777649 410.8959198 C-10.07436053 385.74689759 -10.14739735 360.59796197 -10.23571491 335.44903088 C-10.28072634 322.51835633 -10.3201286 309.58770966 -10.34643555 296.65698242 C-10.36937239 285.38970844 -10.40272187 274.12252228 -10.44870156 262.85531789 C-10.47269208 256.88657111 -10.49138259 250.9179116 -10.49761391 244.94911766 C-10.50363846 239.33572041 -10.52354252 233.72254665 -10.55427551 228.10923195 C-10.5630981 226.04482191 -10.56676966 223.98038272 -10.56500816 221.91595459 C-10.56336663 219.10538516 -10.57995833 216.29550621 -10.60127258 213.48503113 C-10.59642501 212.66110672 -10.59157743 211.83718231 -10.58658296 210.98829049 C-10.52924669 206.84452875 -10.52924669 206.84452875 -12.37265652 203.29129225 C-14.70586113 201.43990127 -16.39733874 201.6280254 -19.35180664 201.63250732 C-20.46226349 201.62693817 -21.57272034 201.62136902 -22.71682739 201.6156311 C-23.93562592 201.62484589 -25.15442444 201.63406067 -26.41015625 201.64355469 C-27.69324677 201.64151031 -28.97633728 201.63946594 -30.29830933 201.63735962 C-33.81899493 201.632222 -37.33938865 201.6457681 -40.86002731 201.66288662 C-44.54217572 201.67791362 -48.2243202 201.67674839 -51.90649414 201.67755127 C-58.09038277 201.68124483 -64.27416047 201.69621625 -70.45800781 201.71875 C-78.39770401 201.74762288 -86.33731084 201.7579732 -94.27705383 201.7624321 C-101.09956329 201.76641169 -107.92205328 201.77891384 -114.7445488 201.79277897 C-116.93924668 201.79687826 -119.13394388 201.79980375 -121.3286438 201.80257416 C-125.4157457 201.80837585 -129.50276835 201.82305229 -133.58984375 201.83886719 C-134.80864227 201.83998505 -136.0274408 201.84110291 -137.28317261 201.84225464 C-138.94885788 201.85081985 -138.94885788 201.85081985 -140.64819336 201.85955811 C-141.61494492 201.86253277 -142.58169647 201.86550743 -143.57774353 201.86857224 C-146.14271646 201.90070278 -146.14271646 201.90070278 -149 203 C-150.48651002 206.9981033 -150.15312957 211.28063416 -150.15821838 215.49139404 C-150.16315636 216.35644129 -150.16809434 217.22148854 -150.17318195 218.11274934 C-150.18856065 221.01624501 -150.19691861 223.91971856 -150.20532227 226.82324219 C-150.21490049 228.90262548 -150.22491054 230.98200682 -150.23532104 233.06138611 C-150.26238214 238.71178303 -150.28338521 244.36218831 -150.30332303 250.01261425 C-150.32517512 255.91567195 -150.35256762 261.81870384 -150.37937927 267.72174072 C-150.42931665 278.90241427 -150.47425162 290.08310214 -150.51740164 301.26380372 C-150.56676507 313.99160367 -150.62168652 326.71937771 -150.67708123 339.44715261 C-150.79091733 365.63141092 -150.89775284 391.81569406 -151 418 C-153.64 418 -156.28 418 -159 418 C-159.00364563 417.31983826 -159.00729126 416.63967651 -159.01104736 415.93890381 C-159.05282558 408.86598419 -159.12213871 401.79371632 -159.20751953 394.72119141 C-159.23576253 392.0809582 -159.25696038 389.44063992 -159.27099609 386.80029297 C-159.29237856 383.0070428 -159.33900791 379.21481921 -159.390625 375.421875 C-159.39185364 374.23946228 -159.39308228 373.05704956 -159.39434814 371.83880615 C-159.42392609 370.1875473 -159.42392609 370.1875473 -159.45410156 368.50292969 C-159.46298401 367.53474304 -159.47186646 366.5665564 -159.48101807 365.56903076 C-160.18960252 362.0614419 -161.01422036 360.99866217 -164 359 C-167.07987813 358.38518092 -170.1158755 358.30386776 -173.25 358.25 C-174.09046875 358.22035156 -174.9309375 358.19070313 -175.796875 358.16015625 C-177.8640715 358.08968364 -179.93204033 358.04255061 -182 358 C-182.00586624 356.91671921 -182.01173248 355.83343842 -182.01777649 354.71733093 C-182.07493262 344.51983026 -182.14765675 334.3225443 -182.23571491 324.12526226 C-182.28048627 318.88243324 -182.31972739 313.63968314 -182.34643555 308.39672852 C-182.37240113 303.33914463 -182.41275538 298.28186338 -182.46318626 293.22446632 C-182.47990074 291.29276093 -182.4913864 289.36100313 -182.49761391 287.42923546 C-182.50720534 284.72813388 -182.53520437 282.02781463 -182.56762695 279.3269043 C-182.56619186 278.52417587 -182.56475677 277.72144745 -182.5632782 276.89439392 C-182.60979447 272.74700728 -182.60979447 272.74700728 -184.27702332 269.04206848 C-186.26242633 267.7257651 -186.26242633 267.7257651 -190 267 C-190 260.07 -190 253.14 -190 246 C-187.525 245.01 -187.525 245.01 -185 244 C-182.71000828 242.14627821 -182.71000828 242.14627821 -182.80227661 239.25869751 C-182.83658279 237.50763199 -182.83658279 237.50763199 -182.87158203 235.72119141 C-182.8907204 234.38530599 -182.90976927 233.04941928 -182.92874146 231.71353149 C-182.94239872 231.00352619 -182.95605598 230.29352089 -182.97012711 229.56200027 C-183.0344749 225.78767879 -183.03920101 222.01306206 -183.0546875 218.23828125 C-183.07816971 213.4405606 -183.11852951 208.64485909 -183.22265625 203.84814453 C-183.30533147 199.96754805 -183.32803881 196.09042355 -183.31283188 192.20902634 C-183.31775624 190.73943485 -183.34387116 189.26973703 -183.39282608 187.80095291 C-183.59647798 181.42719425 -183.62529395 175.58363356 -179.37591553 170.4586792 C-176.46066652 167.36485656 -173.30225164 164.67230356 -170 162 C-168.70629944 160.87733948 -167.41398235 159.75307459 -166.125 158.625 C-165.50882813 158.10164062 -164.89265625 157.57828125 -164.2578125 157.0390625 C-161.05226512 154.14408718 -158.03762556 151.06947485 -155 148 C-150.8549215 143.8115516 -146.69083635 139.77329278 -142.1875 135.96875 C-139.00179249 133.10161324 -136.01415242 130.04568121 -133 127 C-128.85491669 122.81155808 -124.69083641 118.77329283 -120.1875 114.96875 C-117.00179249 112.10161324 -114.01415242 109.04568121 -111 106 C-106.85491669 101.81155808 -102.69083641 97.77329283 -98.1875 93.96875 C-95.00179249 91.10161324 -92.01415242 88.04568121 -89 85 C-84.85491669 80.81155808 -80.69083641 76.77329283 -76.1875 72.96875 C-73.00179249 70.10161324 -70.01415242 67.04568121 -67 64 C-62.85491669 59.81155808 -58.69083641 55.77329283 -54.1875 51.96875 C-51.00179249 49.10161324 -48.01415242 46.04568121 -45 43 C-40.85491669 38.81155808 -36.69083641 34.77329283 -32.1875 30.96875 C-28.3508727 27.51578543 -24.77569637 23.79440268 -21.14599609 20.12646484 C-17.49528757 16.45212077 -13.77576456 12.94523581 -9.8203125 9.59765625 C-6.37714974 6.57565288 -3.19946046 3.27604329 0 0 Z " fill="#E4E5EA" transform="translate(255,75)"/>
<path d="M0 0 C36.3 0 72.6 0 110 0 C110 66.99 110 133.98 110 203 C73.7 203 37.4 203 0 203 C0 136.01 0 69.02 0 0 Z " fill="#C87422" transform="translate(120,291)"/>
<path d="M0 0 C1.24356766 -0.00983414 2.48713531 -0.01966827 3.76838684 -0.02980042 C5.14381683 -0.02042864 6.51924408 -0.01064933 7.89466858 -0.00050354 C9.34526087 -0.00428717 10.79584954 -0.00978758 12.24642944 -0.01687622 C16.18457273 -0.03084384 20.12227974 -0.01965162 24.06039882 -0.00316501 C28.18204388 0.01068307 32.30366355 0.00422559 36.42532349 0.0007019 C43.34811942 -0.00200072 50.27074202 0.01147876 57.1934967 0.03465271 C65.19494011 0.06125234 73.19609351 0.06301311 81.19756597 0.05126435 C88.89588372 0.04048052 96.59409665 0.04667904 104.29240608 0.06081963 C107.56782575 0.06657526 110.84316861 0.06650005 114.1185894 0.06175423 C117.97725093 0.05697774 121.83559545 0.0671137 125.6941967 0.08870888 C127.10952689 0.09426819 128.52488759 0.09474987 129.94021988 0.08975601 C131.87380921 0.08378975 133.80742931 0.0981602 135.7409668 0.11352539 C136.82256545 0.11595529 137.9041641 0.11838518 139.01853848 0.12088871 C142.37273979 0.55844198 144.25657803 1.45415261 146.93397522 3.50120544 C147.94457853 6.53301539 148.069256 8.59126871 148.08787537 11.7636261 C148.09647583 12.85436432 148.10507629 13.94510254 148.11393738 15.06889343 C148.1203273 16.86432587 148.1203273 16.86432587 148.12684631 18.69602966 C148.13911255 20.58658585 148.13911255 20.58658585 148.15162659 22.51533508 C148.17781269 26.69549937 148.19314815 30.87567352 148.20741272 35.05589294 C148.2127733 36.49553051 148.21815081 37.93516801 148.22354507 39.37480545 C148.24516643 45.36260295 148.26390384 51.35039778 148.27516747 57.33822441 C148.29141344 65.91779487 148.32461475 74.49691297 148.38156831 83.0763129 C148.42025936 89.11037195 148.43979897 95.14430995 148.44508803 101.1784898 C148.44874196 104.78212591 148.46076681 108.38527918 148.49319077 111.98878098 C148.52884441 116.00865891 148.52490282 120.02756302 148.51747131 124.04759216 C148.53387665 125.24049866 148.55028198 126.43340515 148.56718445 127.66246033 C148.55470673 129.30702713 148.55470673 129.30702713 148.54197693 130.9848175 C148.54694215 132.41005643 148.54694215 132.41005643 148.55200768 133.86408806 C147.66239205 137.66003892 145.99123493 139.14831405 142.93397522 141.50120544 C140.0029211 142.12761784 140.0029211 142.12761784 136.70300293 142.12939453 C135.44820129 142.14204849 134.19339966 142.15470245 132.90057373 142.16773987 C131.51774183 142.15642463 130.13491405 142.14459719 128.75209045 142.13230896 C127.28987256 142.13744927 125.82766086 142.14473141 124.36546326 142.1539917 C120.40050755 142.17249851 116.43622468 142.15957288 112.47129703 142.1399014 C108.32115829 142.12351048 104.17106202 142.13232826 100.02090454 142.13742065 C93.05277258 142.14194063 86.08490914 142.12607664 79.11683655 142.09812927 C71.0601899 142.06606509 63.00402721 142.06609818 54.94734615 142.08334404 C47.19613922 142.0992049 39.44510976 142.09247927 31.6939106 142.07540703 C28.39531291 142.06853358 25.09685735 142.0695719 21.79826164 142.07695198 C17.9148774 142.08461054 14.03204435 142.0725035 10.14875412 142.04510307 C8.72333347 142.038214 7.2978614 142.03812693 5.87244225 142.0453186 C3.92761072 142.0540006 1.98271433 142.03563452 0.03796387 142.01586914 C-1.0506321 142.01306222 -2.13922808 142.0102553 -3.26081181 142.00736332 C-6.81078376 141.36682505 -7.98119599 140.42179032 -10.06602478 137.50120544 C-10.56938934 134.94307709 -10.56938934 134.94307709 -10.57395935 131.99790955 C-10.58523865 130.87910904 -10.59651794 129.76030853 -10.60813904 128.60760498 C-10.60004211 127.38462204 -10.59194519 126.1616391 -10.58360291 124.90159607 C-10.59061218 123.61021225 -10.59762146 122.31882843 -10.60484314 120.98831177 C-10.62307401 117.44898393 -10.61601034 113.91012263 -10.6033268 110.37078667 C-10.59319773 106.6664034 -10.60259221 102.96206001 -10.60887146 99.25767517 C-10.61614817 93.03685842 -10.60655968 86.81623163 -10.58750916 80.59544373 C-10.56574018 73.40393363 -10.57279155 66.21287714 -10.59481478 59.02137804 C-10.61296824 52.84629958 -10.61552742 46.67135765 -10.6050601 40.49626112 C-10.5988248 36.8084059 -10.59799032 33.12076388 -10.61120605 29.43292236 C-10.62490914 25.32194668 -10.60591595 21.21175265 -10.58360291 17.10081482 C-10.59169983 15.87783188 -10.59979675 14.65484894 -10.60813904 13.39480591 C-10.59685974 12.2760054 -10.58558044 11.1572049 -10.57395935 10.00450134 C-10.57245125 9.03259605 -10.57094315 8.06069077 -10.56938934 7.0593338 C-9.38795946 1.05523752 -5.58973724 0.00108196 0 0 Z " fill="#010100" transform="translate(277.06602478027344,275.49879455566406)"/>
<path d="M0 0 C3.99700701 1.75162954 6.50820005 4.64245063 9.46875 7.7890625 C10.72209091 9.08384152 11.97728119 10.37683308 13.234375 11.66796875 C13.83056641 12.2830127 14.42675781 12.89805664 15.04101562 13.53173828 C16.85539307 15.36531259 18.74359352 17.06793751 20.71875 18.7265625 C25.02528545 22.36627956 28.91812986 26.40057045 32.87915039 30.40649414 C35.72282686 33.26996706 38.57508927 36.05290934 41.65625 38.6640625 C45.98043706 42.3286278 49.89707291 46.37927116 53.87890625 50.40625 C56.72266577 53.26980367 59.57500084 56.0528344 62.65625 58.6640625 C66.98043706 62.3286278 70.89707291 66.37927116 74.87890625 70.40625 C77.72266577 73.26980367 80.57500084 76.0528344 83.65625 78.6640625 C87.98043706 82.3286278 91.89707291 86.37927116 95.87890625 90.40625 C98.72266577 93.26980367 101.57500084 96.0528344 104.65625 98.6640625 C108.98043706 102.3286278 112.89707291 106.37927116 116.87890625 110.40625 C119.72266577 113.26980367 122.57500084 116.0528344 125.65625 118.6640625 C129.98043706 122.3286278 133.89707291 126.37927116 137.87890625 130.40625 C140.72266577 133.26980367 143.57500084 136.0528344 146.65625 138.6640625 C150.98043706 142.3286278 154.89707291 146.37927116 158.87890625 150.40625 C161.72266577 153.26980367 164.57500084 156.0528344 167.65625 158.6640625 C171.98043706 162.3286278 175.89707291 166.37927116 179.87890625 170.40625 C182.72266577 173.26980367 185.57500084 176.0528344 188.65625 178.6640625 C192.98043706 182.3286278 196.89707291 186.37927116 200.87890625 190.40625 C203.72266577 193.26980367 206.57500084 196.0528344 209.65625 198.6640625 C213.9709992 202.32062962 217.88514935 206.35794127 221.8503418 210.38427734 C225.51525618 214.08635251 229.28289185 217.54938983 233.36328125 220.796875 C234.65625 222.1640625 234.65625 222.1640625 234.65625 225.1640625 C233.43457031 226.57446289 233.43457031 226.57446289 231.734375 228.01171875 C231.12078125 228.53443359 230.5071875 229.05714844 229.875 229.59570312 C229.2253125 230.13388672 228.575625 230.67207031 227.90625 231.2265625 C226.95492187 232.03963867 226.95492187 232.03963867 225.984375 232.86914062 C222.97884246 235.40192795 220.23794069 237.49721384 216.65625 239.1640625 C210.90742983 234.14195549 205.39565008 228.96586653 200.03125 223.5390625 C196.70311502 220.17270056 193.40282378 216.84378125 189.78125 213.7890625 C185.67466216 210.31156897 181.9397303 206.48436051 178.15625 202.6640625 C173.83296563 198.29874839 169.50948164 194.05792285 164.80859375 190.09765625 C160.97666767 186.65518182 157.41123084 182.93739848 153.78881836 179.27709961 C150.82668018 176.29588932 147.86908566 173.3783547 144.65625 170.6640625 C140.09687265 166.81217474 135.98378136 162.51594042 131.7890625 158.27734375 C128.82684157 155.29605273 125.86917402 152.37842934 122.65625 149.6640625 C118.09687265 145.81217474 113.98378136 141.51594042 109.7890625 137.27734375 C106.82684157 134.29605273 103.86917402 131.37842934 100.65625 128.6640625 C96.09687265 124.81217474 91.98378136 120.51594042 87.7890625 116.27734375 C84.82684157 113.29605273 81.86917402 110.37842934 78.65625 107.6640625 C74.09687265 103.81217474 69.98378136 99.51594042 65.7890625 95.27734375 C62.82684157 92.29605273 59.86917402 89.37842934 56.65625 86.6640625 C52.09687265 82.81217474 47.98378136 78.51594042 43.7890625 74.27734375 C40.82684157 71.29605273 37.86917402 68.37842934 34.65625 65.6640625 C30.76907245 62.38006768 27.23293823 58.77773481 23.65625 55.1640625 C19.33799883 50.80534197 15.0268691 46.50799639 10.3203125 42.5625 C9.20208748 41.62277099 8.11301804 40.64732966 7.0546875 39.640625 C4.71113505 37.4653276 2.89089391 36.22527396 -0.21875 35.4140625 C-5.13994629 36.59514961 -7.76537306 39.69647122 -11.34375 43.1640625 C-12.49484999 44.23191755 -13.64872484 45.29678574 -14.8046875 46.359375 C-21.67713618 52.69126419 -28.376269 59.15077528 -34.9453125 65.796875 C-36.95905978 67.78438453 -39.00017893 69.6479959 -41.15625 71.4765625 C-45.09776525 74.83294559 -48.70512762 78.48724437 -52.34375 82.1640625 C-56.48882609 86.35251414 -60.65291368 90.39076975 -65.15625 94.1953125 C-68.34195751 97.06244926 -71.32959758 100.11838129 -74.34375 103.1640625 C-78.48883331 107.35250442 -82.65291359 111.39076967 -87.15625 115.1953125 C-90.34195751 118.06244926 -93.32959758 121.11838129 -96.34375 124.1640625 C-100.48883331 128.35250442 -104.65291359 132.39076967 -109.15625 136.1953125 C-112.34195751 139.06244926 -115.32959758 142.11838129 -118.34375 145.1640625 C-122.48883331 149.35250442 -126.65291359 153.39076967 -131.15625 157.1953125 C-134.34195751 160.06244926 -137.32959758 163.11838129 -140.34375 166.1640625 C-144.48883331 170.35250442 -148.65291359 174.39076967 -153.15625 178.1953125 C-156.34195768 181.06244942 -159.32959545 184.11838326 -162.34375 187.1640625 C-169.62479289 194.52117741 -169.62479289 194.52117741 -173.28125 197.6015625 C-177.36996151 201.05444846 -181.08109698 204.86483448 -184.84375 208.6640625 C-189.16098889 213.02326726 -193.4727675 217.26580455 -198.17578125 221.2109375 C-202.09950692 224.74582549 -205.7518947 228.57174619 -209.42211914 232.36743164 C-209.99953857 232.95645264 -210.57695801 233.54547363 -211.171875 234.15234375 C-211.6865332 234.68384033 -212.20119141 235.21533691 -212.73144531 235.76293945 C-214.48819575 237.28958857 -216.22878656 238.21118263 -218.34375 239.1640625 C-220.40868703 237.43773887 -222.47071303 235.70812485 -224.53125 233.9765625 C-225.10939453 233.49380859 -225.68753906 233.01105469 -226.28320312 232.51367188 C-229.81185562 229.5432243 -233.13071853 226.47390848 -236.34375 223.1640625 C-232.91894169 219.64293146 -229.46487553 216.21928396 -225.71875 213.0390625 C-221.9043052 209.75893682 -218.37811844 206.23881218 -214.84375 202.6640625 C-210.85599816 198.63105957 -206.82880077 194.77003773 -202.5 191.1015625 C-199.49760317 188.40375665 -196.68114183 185.53362431 -193.84375 182.6640625 C-189.85598169 178.6310814 -185.82880095 174.77003788 -181.5 171.1015625 C-178.49760317 168.40375665 -175.68114183 165.53362431 -172.84375 162.6640625 C-168.85598169 158.6310814 -164.82880095 154.77003788 -160.5 151.1015625 C-157.49760317 148.40375665 -154.68114183 145.53362431 -151.84375 142.6640625 C-147.85598169 138.6310814 -143.82880095 134.77003788 -139.5 131.1015625 C-136.49760317 128.40375665 -133.68114183 125.53362431 -130.84375 122.6640625 C-126.85598169 118.6310814 -122.82880095 114.77003788 -118.5 111.1015625 C-115.49760317 108.40375665 -112.68114183 105.53362431 -109.84375 102.6640625 C-105.85598169 98.6310814 -101.82880095 94.77003788 -97.5 91.1015625 C-94.49760317 88.40375665 -91.68114183 85.53362431 -88.84375 82.6640625 C-84.85598169 78.6310814 -80.82880095 74.77003788 -76.5 71.1015625 C-73.49760317 68.40375665 -70.68114183 65.53362431 -67.84375 62.6640625 C-63.85598169 58.6310814 -59.82880095 54.77003788 -55.5 51.1015625 C-52.49760317 48.40375665 -49.68114183 45.53362431 -46.84375 42.6640625 C-42.85598169 38.6310814 -38.82880095 34.77003788 -34.5 31.1015625 C-30.89520215 27.86246878 -27.53630024 24.37590106 -24.12988281 20.93066406 C-20.63015575 17.40647763 -17.05645214 14.05725499 -13.24609375 10.8671875 C-10.11411586 8.06319908 -7.32951507 4.91240832 -4.51953125 1.7890625 C-2.34375 0.1640625 -2.34375 0.1640625 0 0 Z " fill="#E74655" transform="translate(256.34375,21.8359375)"/>
<path d="M0 0 C70.95 0 141.9 0 215 0 C215 15.18 215 30.36 215 46 C144.05 46 73.1 46 0 46 C0 30.82 0 15.64 0 0 Z " fill="#83BF0C" transform="translate(282,448)"/>
<path d="M0 0 C42.24 0 84.48 0 128 0 C128 24.09 128 48.18 128 73 C85.76 73 43.52 73 0 73 C0 48.91 0 24.82 0 0 Z " fill="#9ED6EF" transform="translate(282,329)"/>
<path d="M0 0 C26.4 0 52.8 0 80 0 C80.495 11.88 80.495 11.88 81 24 C81.495 25.485 81.495 25.485 82 27 C83.98 27.66 85.96 28.32 88 29 C88 35.6 88 42.2 88 49 C86.02 49.99 84.04 50.98 82 52 C80.66669971 54.66660057 80.83840541 56.74888743 80.79467773 59.73486328 C80.77473251 60.93595734 80.75478729 62.13705139 80.73423767 63.37454224 C80.71752518 64.67664642 80.70081268 65.97875061 80.68359375 67.3203125 C80.66302375 68.66267538 80.64202727 70.00503179 80.62062073 71.34738159 C80.56540469 74.88188438 80.51599342 78.41644557 80.46777344 81.9510498 C80.41755496 85.55726322 80.36187071 89.16339172 80.30664062 92.76953125 C80.19906483 99.84628049 80.09761858 106.92310584 80 114 C78.89523466 113.06314357 77.79192384 112.1245718 76.68920898 111.18530273 C76.0746434 110.66282455 75.46007782 110.14034637 74.82688904 109.60203552 C72.10607173 107.21609643 69.5877743 104.65182264 67.0625 102.0625 C63.82017481 98.77604107 60.58738078 95.5496871 57.0625 92.5625 C53.34042307 89.39990018 49.93133928 85.97029304 46.5 82.5 C43.08929676 79.05062117 39.70378516 75.63880098 36 72.5 C31.67738918 68.83677049 27.76206323 64.7877758 23.78173828 60.76220703 C20.89555379 57.85589222 17.99540509 55.03312285 14.875 52.375 C9.67538244 47.84630084 4.8757122 42.8757122 0 38 C0 25.46 0 12.92 0 0 Z " fill="#9DB0B6" transform="translate(361,62)"/>
<path d="M0 0 C12.21519754 -0.62433232 21.68848912 3.05953219 30.953125 11.0078125 C39.35198777 19.23350285 44.07950831 28.16278688 44.38452148 40.02001953 C44.41790328 53.28461099 41.371965 63.46998701 31.953125 73.2578125 C29.40731282 75.46903222 26.76508152 77.40120018 23.953125 79.2578125 C23.169375 79.8146875 22.385625 80.3715625 21.578125 80.9453125 C11.18979914 86.13947543 -0.14160695 87.02181917 -11.296875 83.6953125 C-22.79178641 79.3330625 -31.93892796 71.45375512 -37.22265625 60.3125 C-37.49464844 59.63445312 -37.76664063 58.95640625 -38.046875 58.2578125 C-38.40523437 57.38125 -38.76359375 56.5046875 -39.1328125 55.6015625 C-40.30975225 51.29617608 -40.37683521 47.32469077 -40.359375 42.8828125 C-40.37548828 42.07070312 -40.39160156 41.25859375 -40.40820312 40.421875 C-40.41663349 29.90078553 -35.84367145 20.55953489 -28.8203125 12.796875 C-20.24486475 4.60255826 -11.69779022 0.98981302 0 0 Z " fill="#020203" transform="translate(254.046875,143.7421875)"/>
<path d="M0 0 C21.78 0 43.56 0 66 0 C66 15.18 66 30.36 66 46 C44.22 46 22.44 46 0 46 C0 30.82 0 15.64 0 0 Z " fill="#83BE0C" transform="translate(15,448)"/>
<path d="M0 0 C42.24 0 84.48 0 128 0 C128 7.59 128 15.18 128 23 C85.76 23 43.52 23 0 23 C0 15.41 0 7.82 0 0 Z " fill="#C77322" transform="translate(282,291)"/>
<path d="M0 0 C7.59240283 4.35410961 12.74716699 9.30400098 15.5625 17.75 C16.27854963 26.11956374 15.81507949 33.37702128 11.5625 40.75 C9.125 43.625 9.125 43.625 6.5625 45.75 C5.82 46.45125 5.0775 47.1525 4.3125 47.875 C-2.14814738 52.27998685 -9.69474011 54.01678182 -17.4375 52.75 C-26.8439267 49.41798588 -32.89447188 43.5390121 -37.4375 34.75 C-39.63772722 28.17699416 -39.73276328 19.50771749 -36.6875 13.25 C-35.96809531 12.06422262 -35.22068445 10.8946542 -34.4375 9.75 C-33.90125 8.88375 -33.365 8.0175 -32.8125 7.125 C-23.99940043 -1.68809957 -11.61068414 -5.68330785 0 0 Z " fill="#40363F" transform="translate(267.4375,161.25)"/>
<path d="M0 0 C1.08861328 -0.01095703 2.17722656 -0.02191406 3.29882812 -0.03320312 C11.27353795 0.04040958 11.27353795 0.04040958 14.24780273 2.37915039 C15.9375 4.5625 15.9375 4.5625 16.4375 8.0625 C15.85131408 12.16580143 15.14641385 13.05949331 11.9375 15.5625 C9.25195312 16.08007812 9.25195312 16.08007812 6.21875 16.09375 C5.12175781 16.09890625 4.02476562 16.1040625 2.89453125 16.109375 C1.75371094 16.09390625 0.61289063 16.0784375 -0.5625 16.0625 C-2.27373047 16.08570313 -2.27373047 16.08570313 -4.01953125 16.109375 C-5.11652344 16.10421875 -6.21351563 16.0990625 -7.34375 16.09375 C-8.84518555 16.08698242 -8.84518555 16.08698242 -10.37695312 16.08007812 C-13.77159648 15.42583777 -14.95931425 14.2582014 -17.0625 11.5625 C-17.79827965 7.72009516 -17.46414022 6.16143718 -15.28125 2.90625 C-10.40391385 -0.64520836 -5.87816918 -0.12922891 0 0 Z " fill="#040200" transform="translate(204.0625,383.4375)"/>
</svg>
