<?xml version="1.0" encoding="UTF-8"?>
<svg version="1.1" xmlns="http://www.w3.org/2000/svg" width="512" height="512">
<path d="M0 0 C0.84840958 -0.01283524 1.69681915 -0.02567047 2.57093811 -0.03889465 C3.48653 -0.04628159 4.40212189 -0.05366852 5.34545898 -0.0612793 C6.29412338 -0.06935104 7.24278778 -0.07742279 8.22019958 -0.08573914 C10.23174211 -0.09957513 12.24330807 -0.11029945 14.25488281 -0.11816406 C16.30020077 -0.12965007 18.34548956 -0.15004786 20.390625 -0.1796875 C23.35494238 -0.22264862 26.31836773 -0.23857591 29.28295898 -0.2487793 C30.18438126 -0.26628738 31.08580353 -0.28379547 32.01454163 -0.30183411 C39.69954515 -0.27600567 45.9894661 1.85157379 52.52905273 5.86450195 C60.19426019 13.74263184 63.02081598 21.34856581 62.95483398 32.2355957 C62.92969727 33.8772168 62.92969727 33.8772168 62.90405273 35.55200195 C62.8950293 36.66961914 62.88600586 37.78723633 62.87670898 38.9387207 C62.8532362 41.68503657 62.82040001 44.43090667 62.77905273 47.17700195 C63.71627167 47.1670092 63.71627167 47.1670092 64.67242432 47.15681458 C71.22712004 47.0899914 77.78171761 47.04500803 84.33666992 47.01220703 C86.77681413 46.99720218 89.21693175 46.97679181 91.65698242 46.95068359 C95.18211466 46.91393344 98.70688761 46.89719193 102.23217773 46.8840332 C103.84542938 46.86080742 103.84542938 46.86080742 105.49127197 46.83711243 C121.21183302 46.83368783 134.05771305 51.87732981 145.48999023 62.69262695 C154.58396637 72.56253962 159.82882467 84.6335721 159.97192383 98.01513672 C159.98010132 98.68243805 159.98827881 99.34973938 159.9967041 100.03726196 C160.02138631 102.23096852 160.0380226 104.42461151 160.05249023 106.6184082 C160.05781391 107.37007704 160.06313759 108.12174587 160.06862259 108.89619255 C160.0952694 112.86893567 160.11467786 116.84164817 160.12915039 120.81445312 C160.14252705 124.09989023 160.17045859 127.38471172 160.21118164 130.66992188 C160.26043142 134.64391324 160.28526001 138.61734361 160.29237747 142.59162712 C160.29909472 144.10394365 160.31432937 145.61624739 160.33826828 147.12838936 C160.36984719 149.24234861 160.36997054 151.35412912 160.36254883 153.46826172 C160.37063568 154.67007584 160.37872253 155.87188995 160.38705444 157.11012268 C159.77905273 160.17700195 159.77905273 160.17700195 157.36758423 162.59629822 C154.77905273 164.17700195 154.77905273 164.17700195 152.77905273 164.17700195 C152.77905273 170.44700195 152.77905273 176.71700195 152.77905273 183.17700195 C154.42905273 183.83700195 156.07905273 184.49700195 157.77905273 185.17700195 C159.77905273 187.17700195 159.77905273 187.17700195 160.00610352 190.89233398 C160.00578625 192.48986247 159.99445255 194.08741223 159.97436523 195.68481445 C159.97012039 196.94574417 159.97012039 196.94574417 159.96578979 198.23214722 C159.95457703 200.92224241 159.92947076 203.61200705 159.90405273 206.30200195 C159.89402434 208.12361173 159.88489824 209.94522672 159.87670898 211.7668457 C159.85463415 216.23702553 159.82009707 220.70695766 159.77905273 225.17700195 C160.72151855 224.76925537 161.66398437 224.36150879 162.63500977 223.94140625 C163.89392895 223.39876867 165.15288261 222.85621108 166.41186523 222.3137207 C167.03037354 222.04587769 167.64888184 221.77803467 168.28613281 221.5020752 C199.28884634 208.16132832 235.90260515 207.5455491 267.40405273 219.92700195 C287.7992303 228.54407273 308.17851618 241.36752338 321.77905273 259.17700195 C322.5331543 260.14508789 323.28725586 261.11317383 324.06420898 262.1105957 C345.99676544 291.04747563 355.50210851 326.47347197 350.65405273 362.48950195 C348.17669874 379.13732082 343.16240935 394.57647099 334.77905273 409.17700195 C334.43503418 409.77706055 334.09101563 410.37711914 333.73657227 410.99536133 C315.37221295 442.39884383 285.62542947 463.4619726 250.77905273 472.92700195 C220.22543321 479.87661393 189.21335633 476.0518793 160.77905273 463.17700195 C160.55991211 464.20438477 160.34077148 465.23176758 160.11499023 466.2902832 C157.29923191 478.84798791 153.01893139 488.91668109 143.77905273 498.17700195 C143.25827148 498.70938477 142.73749023 499.24176758 142.20092773 499.7902832 C133.32522631 508.12741051 121.5138395 512.49447722 109.46321106 512.44442749 C108.65306996 512.4489586 107.84292885 512.45348972 107.00823802 512.45815814 C104.30784201 512.470765 101.60764865 512.46918416 98.90722656 512.4675293 C96.96509544 512.47351695 95.0229667 512.48032304 93.08084106 512.48788452 C87.81407613 512.50552967 82.54737621 512.51023934 77.28058457 512.51151609 C73.98636785 512.51293933 70.69216757 512.51721225 67.39795494 512.52251053 C55.89468718 512.54100737 44.39146573 512.54918176 32.88818359 512.54760742 C22.18353036 512.5464068 11.479079 512.56749455 0.77447683 512.59909475 C-8.43003158 512.62529349 -17.63447421 512.63597317 -26.8390196 512.6346966 C-32.33013688 512.63418794 -37.82107478 512.63981801 -43.31215477 512.6610527 C-48.48082256 512.68049514 -53.64914099 512.68051852 -58.8178215 512.66601944 C-60.70754701 512.66393754 -62.59729472 512.66859504 -64.48698235 512.68074036 C-82.20582117 512.78718358 -96.55730915 509.30260979 -109.79516602 496.8059082 C-122.28542121 483.26977012 -124.84985474 467.05707797 -124.72215271 449.2558136 C-124.72605717 447.72096357 -124.7317067 446.18611718 -124.73892361 444.65127915 C-124.75353159 440.48241079 -124.74358562 436.31392581 -124.72918689 432.14507043 C-124.71799682 427.63038716 -124.73004593 423.11575419 -124.73902893 418.60107422 C-124.75290808 409.77691994 -124.74544523 400.9529095 -124.73035335 392.12876216 C-124.71343126 381.84019384 -124.71671122 371.55166072 -124.72044743 361.26308277 C-124.72631603 342.90061998 -124.71219259 324.53822593 -124.6875 306.17578125 C-124.66357168 288.3795311 -124.65650113 270.58337273 -124.66699219 252.78710938 C-124.67841347 233.37827642 -124.68031731 213.96948584 -124.66589409 194.56065339 C-124.66436834 192.48940703 -124.66284799 190.41816066 -124.66133308 188.34691429 C-124.66057527 187.32797844 -124.65981746 186.30904259 -124.65903668 185.2592299 C-124.65430403 178.09619213 -124.65613797 170.93317335 -124.66039848 163.77013588 C-124.66533599 155.03716052 -124.65929221 146.30427174 -124.63950419 137.57131616 C-124.62966483 133.12004221 -124.6244907 128.66889981 -124.6323967 124.21761894 C-124.63949751 120.13606124 -124.63254708 116.05476798 -124.61479307 111.97324493 C-124.61077699 110.50378927 -124.61170016 109.03430916 -124.61831193 107.56486288 C-124.68558264 91.20266306 -121.70837459 75.24055758 -110.13110352 62.8605957 C-99.84190441 53.79179241 -87.90310182 47.02935681 -73.87988281 47.06347656 C-72.83918137 47.06355209 -71.79847992 47.06362762 -70.72624207 47.06370544 C-69.61461197 47.06886673 -68.50298187 47.07402802 -67.35766602 47.0793457 C-66.21054642 47.08076065 -65.06342682 47.0821756 -63.88154602 47.08363342 C-60.22381972 47.08922335 -56.56615501 47.10177406 -52.90844727 47.11450195 C-50.42602628 47.11951825 -47.94360432 47.12408093 -45.46118164 47.12817383 C-39.38108256 47.13918949 -33.30101931 47.15591765 -27.22094727 47.17700195 C-27.2327301 46.22692009 -27.2327301 46.22692009 -27.24475098 45.25764465 C-27.27610907 42.36229726 -27.29550165 39.46698574 -27.31469727 36.5715332 C-27.32726562 35.57512817 -27.33983398 34.57872314 -27.3527832 33.55212402 C-27.40756444 22.53424854 -25.09950695 15.12055777 -17.38110352 7.0559082 C-12.45628279 2.77229379 -6.56509179 0.0867688 0 0 Z " fill="#010101" transform="translate(142.220947265625,-0.177001953125)"/>
<path d="M0 0 C1.84715077 -0.00406956 3.69429911 -0.00941359 5.54144287 -0.01593018 C10.53941698 -0.02956481 15.53720454 -0.02432079 20.53518176 -0.01479292 C25.77688252 -0.0071752 31.01856775 -0.0142479 36.26026917 -0.01895142 C45.06237645 -0.0244033 53.86440812 -0.01723273 62.66650391 -0.00292969 C72.82703638 0.01339063 82.98738817 0.00811049 93.14791626 -0.0084089 C101.88705086 -0.02204598 110.62613124 -0.02393242 119.36527306 -0.0160929 C124.57791577 -0.01142794 129.7904737 -0.01075896 135.00311089 -0.02070236 C139.90584089 -0.02940192 144.8083392 -0.02329566 149.71104431 -0.00601959 C151.50484903 -0.00207047 153.29867342 -0.00316166 155.09247017 -0.00980759 C169.40505543 -0.05792458 181.64682464 1.27907627 192.79516602 11.16943359 C200.03279391 18.81437388 203.87358914 28.32225946 203.9609375 38.76147461 C203.97442734 40.05283829 203.98791718 41.34420197 204.0018158 42.67469788 C204.00687574 43.36190477 204.01193569 44.04911167 204.01714897 44.75714302 C204.03360911 46.91328962 204.05684613 49.06926542 204.08204651 51.22532654 C204.15270283 57.35366268 204.21303817 63.48206587 204.26416016 69.6105957 C204.29593523 73.36301067 204.33719834 77.11522385 204.38435555 80.86747551 C204.4003745 82.29678668 204.41269658 83.72614422 204.42126274 85.15551949 C204.43340481 87.15184928 204.45858672 89.14808696 204.484375 91.14428711 C204.4998362 92.84827415 204.4998362 92.84827415 204.51560974 94.58668518 C204.58515641 97.59598026 204.58515641 97.59598026 206.78735352 100.38818359 C208.43735352 101.04818359 210.08735352 101.70818359 211.78735352 102.38818359 C211.78735352 108.65818359 211.78735352 114.92818359 211.78735352 121.38818359 C209.80735352 122.37818359 207.82735352 123.36818359 205.78735352 124.38818359 C204.59572055 126.77144952 204.70958386 128.10213335 204.78833008 130.75512695 C204.82135223 132.11310646 204.82135223 132.11310646 204.8550415 133.4985199 C204.87911072 134.48175735 204.90317993 135.46499481 204.92797852 136.47802734 C204.95948025 139.6571295 204.97938385 142.83618353 204.9987793 146.01538086 C205.02431187 148.20649573 205.07120547 150.39747502 205.14038086 152.58764648 C205.71425689 171.8241458 205.71425689 171.8241458 200.95605469 177.22485352 C197.83693315 180.10389854 194.43373538 182.23359168 190.78735352 184.38818359 C166.49014949 203.4415115 152.37898385 234.93599839 148.14672852 264.93505859 C148.01379395 265.8494873 147.88085938 266.76391602 147.74389648 267.70605469 C147.42079224 269.93285422 147.10202257 272.16017924 146.78735352 274.38818359 C145.91705002 274.39849106 145.04674652 274.40879852 144.15007019 274.41941833 C135.95404507 274.51733751 127.758093 274.61984405 119.56219006 274.72752285 C115.34845275 274.78272111 111.13470847 274.83613618 106.92089844 274.88549805 C102.85544588 274.93318725 98.79007762 274.98553176 94.72472572 275.04112434 C93.17259123 275.06152724 91.62043363 275.08024374 90.06825829 275.09725761 C87.89665747 275.12134738 85.72521564 275.15139558 83.55371094 275.18286133 C82.31683029 275.19840561 81.07994965 275.21394989 79.80558777 275.22996521 C76.73890988 275.25648059 76.73890988 275.25648059 73.78735352 276.38818359 C73.70603888 277.82474213 73.64801793 279.26263189 73.59985352 280.70068359 C73.56504883 281.50119141 73.53024414 282.30169922 73.49438477 283.12646484 C73.61569806 285.39611129 73.61569806 285.39611129 74.88276672 287.0025177 C77.7273764 289.07208923 80.06409879 288.78923158 83.55371094 288.82055664 C84.23689896 288.83074829 84.92008698 288.84093994 85.62397766 288.85144043 C87.88034212 288.88161538 90.13628239 288.89084279 92.39282227 288.89990234 C93.95796627 288.91674578 95.52309671 288.93489557 97.08821106 288.95429993 C101.20632695 289.00184286 105.32438789 289.03162423 109.44268799 289.05773926 C113.64557754 289.08752328 117.84827766 289.13406096 122.05102539 289.17919922 C130.29637513 289.2652811 138.54174203 289.33260442 146.78735352 289.38818359 C146.89805176 290.07659332 147.00875 290.76500305 147.12280273 291.47427368 C147.63194761 294.62593212 148.14710151 297.77658056 148.66235352 300.92724609 C148.83637695 302.01013916 149.01040039 303.09303223 149.18969727 304.20874023 C150.93723206 314.84362209 153.82789171 324.53344834 158.05297852 334.46240234 C158.78735352 336.38818359 158.78735352 336.38818359 158.78735352 338.38818359 C101.03735352 338.38818359 43.28735352 338.38818359 -16.21264648 338.38818359 C-16.21264648 291.38818359 -16.21264648 291.38818359 -14.21264648 289.38818359 C-11.63856506 289.11643982 -11.63856506 289.11643982 -8.34179688 289.08520508 C-7.11034439 289.06856308 -5.87889191 289.05192108 -4.61012268 289.03477478 C-3.2601831 289.02621222 -1.9102431 289.01771465 -0.56030273 289.00927734 C0.81971925 288.99310563 2.19972975 288.97592597 3.57972717 288.95777893 C7.21665133 288.91203846 10.8535908 288.87726581 14.49066162 288.84558105 C20.30900497 288.79376355 26.12717884 288.72851725 31.94531441 288.6573658 C33.97882227 288.63453973 36.01230878 288.61826193 38.04588318 288.60264587 C39.28048782 288.58915604 40.51509247 288.5756662 41.78710938 288.56176758 C42.87583847 288.55225571 43.96456757 288.54274384 45.08628845 288.53294373 C47.88595572 288.50254063 47.88595572 288.50254063 50.78735352 287.38818359 C50.89571804 285.95235358 50.97311518 284.51416339 51.03735352 283.07568359 C51.08375977 282.27517578 51.13016602 281.47466797 51.17797852 280.64990234 C50.99441647 278.27921122 50.99441647 278.27921122 49.15057373 276.77307129 C46.12620478 275.00073906 44.08305089 274.99493799 40.58520508 274.96826172 C39.33000061 274.95234985 38.07479614 274.93643799 36.78155518 274.92004395 C35.41369686 274.91877626 34.04583716 274.9186001 32.67797852 274.91943359 C31.26796161 274.91232775 29.85794759 274.90462814 28.44793701 274.8963623 C25.49230927 274.88292104 22.53694856 274.88134575 19.58129883 274.88720703 C15.81063333 274.89308666 12.04126281 274.86258477 8.27084732 274.82209015 C5.35725108 274.79611268 2.44396187 274.793345 -0.46973419 274.79698181 C-1.85869842 274.79529822 -3.24767801 274.78572943 -4.63652802 274.76783752 C-12.70678028 274.67535248 -19.0174615 274.79894052 -25.21264648 280.38818359 C-29.00629244 284.47364847 -30.3312757 287.49614379 -30.3598175 293.022995 C-30.36697281 293.97477127 -30.37412811 294.92654755 -30.38150024 295.90716553 C-30.38418915 296.94979553 -30.38687805 297.99242554 -30.38964844 299.06665039 C-30.39621964 300.16614517 -30.40279083 301.26563995 -30.40956116 302.39845276 C-30.42930547 306.04476996 -30.44095978 309.69104593 -30.45092773 313.33740234 C-30.45500326 314.58237803 -30.45907879 315.82735371 -30.46327782 317.11005592 C-30.48199212 323.0207303 -30.49655606 328.93139158 -30.50488979 334.8420884 C-30.51465199 341.65263625 -30.54094598 348.4628582 -30.58139068 355.27329129 C-30.61526492 361.18126487 -30.62704107 367.08915923 -30.63109398 372.99723244 C-30.63596322 375.505412 -30.6475867 378.013588 -30.66613197 380.52170372 C-30.69049783 384.03564692 -30.68956239 387.54874219 -30.68261719 391.06274414 C-30.70183228 392.61150742 -30.70183228 392.61150742 -30.72143555 394.19155884 C-30.67660396 400.4275705 -29.82458731 405.20008087 -26.21264648 410.38818359 C-20.96575673 415.37272886 -16.82443293 416.68672654 -9.69294739 416.65560913 C-8.93225549 416.66014024 -8.17156359 416.66467136 -7.38782042 416.66933978 C-4.83693585 416.68200746 -2.28626413 416.68036187 0.26464844 416.67871094 C2.09297969 416.68469485 3.9213084 416.69150008 5.74963379 416.69906616 C10.71886449 416.71675075 15.68802633 416.72142267 20.65728545 416.72269773 C23.76301462 416.72411889 26.86872625 416.7283879 29.97445107 416.73369217 C40.81289405 416.75220298 51.65128782 416.76036176 62.48974609 416.75878906 C72.58603364 416.75758848 82.68210712 416.77867181 92.77834052 416.81027639 C101.45026249 416.83645302 110.12211462 416.84715572 118.79407579 416.84587824 C123.97159584 416.84536887 129.14892584 416.85103801 134.32640648 416.87223434 C139.19955283 416.89163914 144.07232833 416.8917258 148.94548798 416.87720108 C150.73004258 416.87511443 152.51462052 416.87980529 154.29913521 416.891922 C167.14284802 417.21872643 167.14284802 417.21872643 178.78735352 412.38818359 C180.76974878 410.52693436 180.76974878 410.52693436 181.78735352 408.38818359 C182.15860352 407.72818359 182.52985352 407.06818359 182.91235352 406.38818359 C184.60095422 402.52852484 184.9476373 398.94056185 185.10375977 394.74755859 C185.16660156 393.14267578 185.16660156 393.14267578 185.23071289 391.50537109 C185.2700293 390.39419922 185.3093457 389.28302734 185.34985352 388.13818359 C185.41462891 386.44822266 185.41462891 386.44822266 185.48071289 384.72412109 C185.58667367 381.94559405 185.68874494 379.16697969 185.78735352 376.38818359 C186.30104492 376.77925293 186.81473633 377.17032227 187.34399414 377.57324219 C190.43418329 379.91100621 193.49779706 382.20149588 196.75610352 384.30224609 C203.31857577 388.73799123 203.31857577 388.73799123 204.56079102 393.11083984 C204.92560094 403.76048331 201.60141915 414.39537674 194.63110352 422.45849609 C194.02266602 423.09529297 193.41422852 423.73208984 192.78735352 424.38818359 C192.24079102 424.96310547 191.69422852 425.53802734 191.13110352 426.13037109 C183.37531604 433.48373564 173.44985279 435.54121205 163.07820129 435.52862549 C162.30919343 435.53159661 161.54018557 435.53456773 160.74787444 435.53762889 C158.1748414 435.54629018 155.60185504 435.54782196 153.02880859 435.54931641 C151.18224997 435.55394643 149.3356923 435.55897134 147.48913574 435.56436157 C142.47445786 435.57747057 137.45979336 435.58392771 132.44510102 435.58837223 C129.31004994 435.59130563 126.17500249 435.59541097 123.03995323 435.5998764 C113.22513878 435.61354795 103.41033266 435.62321605 93.59550935 435.62707829 C82.27701542 435.63155706 70.95864236 435.64909804 59.64018518 435.67807889 C50.88415939 435.69971806 42.12816755 435.70978379 33.37211531 435.71111941 C28.14598197 435.71216592 22.91996231 435.71804081 17.69385719 435.73593903 C12.77478995 435.75245812 7.85592139 435.75455658 2.93683624 435.74580002 C1.13657536 435.74503168 -0.66369637 435.74934549 -2.46393013 435.75925827 C-17.09107715 435.83504406 -27.95801424 434.55699374 -39.21264648 424.38818359 C-48.46273319 413.90812179 -49.65960725 403.60954574 -49.60032654 390.09877014 C-49.60450355 388.54720072 -49.60998308 386.99563435 -49.61664635 385.44407362 C-49.63107144 381.19666085 -49.62686546 376.94944262 -49.61947954 372.70201933 C-49.61474292 368.11501291 -49.62726205 363.52804827 -49.63749695 358.9410553 C-49.6546803 349.96123511 -49.65552596 340.98148491 -49.65028404 332.00165255 C-49.64624043 324.70217417 -49.64768818 317.40271645 -49.6530323 310.10323906 C-49.65378072 309.06380987 -49.65452915 308.02438068 -49.65530025 306.95345364 C-49.65683174 304.84177275 -49.65837009 302.73009187 -49.65991522 300.618411 C-49.67363845 280.82222615 -49.66820369 261.02608084 -49.65673 241.2298969 C-49.64679669 223.12444481 -49.65974032 205.0190949 -49.6836642 186.91365857 C-49.70805361 168.31557063 -49.71766352 149.71753028 -49.71101147 131.11942667 C-49.70751905 120.68094215 -49.70975293 110.24253622 -49.7272625 99.8040638 C-49.74198243 90.91857604 -49.74262255 82.03322222 -49.72519159 73.14773709 C-49.71667774 68.61583047 -49.71454148 64.08416315 -49.72984314 59.55226898 C-49.74368858 55.40021591 -49.73892907 51.2486072 -49.7196039 47.09657984 C-49.71584316 45.59802804 -49.71876807 44.09944066 -49.72921555 42.60092057 C-49.81224539 29.77533451 -47.65838163 21.05368406 -38.63842773 11.64990234 C-26.9810631 0.78095851 -15.20096375 -0.05624934 0 0 Z " fill="#DAECFE" transform="translate(83.212646484375,61.61181640625)"/>
<path d="M0 0 C1.04929687 0.495 2.09859375 0.99 3.1796875 1.5 C29.71912191 15.03895785 49.69380612 40.42781976 59.1953125 68.34375 C68.27428321 98.31316786 65.91942003 130.21747825 51.87988281 158.23535156 C47.45218278 166.46262709 42.10271154 173.92993105 36 181 C35.37222656 181.78375 34.74445313 182.5675 34.09765625 183.375 C23.37688097 196.21523757 9.25924932 205.45870499 -6 212 C-6.64791504 212.28456055 -7.29583008 212.56912109 -7.96337891 212.86230469 C-35.14440526 224.61662761 -67.46265574 224.42827429 -95.01904297 213.96606445 C-107.74746403 208.84814014 -118.71838143 202.1017607 -129 193 C-129.70382812 192.42765625 -130.40765625 191.8553125 -131.1328125 191.265625 C-146.81945202 178.34721599 -158.05050869 158.66450513 -164.25 139.5625 C-164.49645264 138.81202393 -164.74290527 138.06154785 -164.99682617 137.28833008 C-173.8107085 108.78107224 -170.11813228 78.38332881 -157 52 C-156.52820313 51.01902344 -156.05640625 50.03804688 -155.5703125 49.02734375 C-141.92339736 22.23467136 -116.32056916 2.1592034 -88.10546875 -7.375 C-57.99538017 -16.40470683 -28.06010092 -13.33227393 0 0 Z " fill="#FDE458" transform="translate(414,239)"/>
<path d="M0 0 C1.86337266 0.0008471 3.72674633 0.0003695 5.59011841 -0.00132751 C10.62876952 -0.00218564 15.66720489 0.01541053 20.70580602 0.03639436 C25.9788625 0.05519165 31.25192433 0.05691401 36.52500916 0.06047058 C46.50143494 0.06978208 56.4777617 0.09438376 66.45414394 0.12451905 C77.81567029 0.15809092 89.17720145 0.17455608 100.53876507 0.18960536 C123.90211891 0.22093409 147.26538495 0.27367719 170.62866211 0.34057617 C170.62866211 0.67057617 170.62866211 1.00057617 170.62866211 1.34057617 C169.96605125 1.33927735 169.3034404 1.33797853 168.62075043 1.33664036 C152.47812621 1.30740501 136.33603121 1.31684939 120.19347382 1.3690424 C112.38691789 1.3933558 104.58074961 1.4047048 96.77416992 1.38525391 C89.96779348 1.36832832 83.1619594 1.37601285 76.35565424 1.41292375 C72.75345329 1.43160784 69.15216898 1.43818874 65.54997253 1.41526985 C61.52272458 1.39010867 57.49764067 1.41990818 53.47045898 1.45410156 C52.28362518 1.43828537 51.09679138 1.42246918 49.87399292 1.40617371 C42.88602276 1.52025444 39.08654385 2.55594734 34.12136078 7.59101009 C28.8630671 13.75416442 25.82765796 20.6045404 23.62866211 28.34057617 C23.13366211 29.82557617 23.13366211 29.82557617 22.62866211 31.34057617 C22.53492426 32.72623339 22.49500552 34.11592553 22.48999691 35.50474072 C22.48452247 36.35717899 22.47904802 37.20961726 22.47340769 38.08788699 C22.47242958 39.0246489 22.47145147 39.96141081 22.47044373 40.92655945 C22.46550575 41.92142595 22.46056777 42.91629244 22.45548016 43.94130641 C22.44006629 47.29013353 22.431734 50.63894143 22.42333984 53.98779297 C22.41376438 56.38229543 22.4037545 58.7767962 22.39334106 61.17129517 C22.37186883 66.33431469 22.35343151 71.49733566 22.33773613 76.6603756 C22.31503794 84.12529391 22.28689504 91.59018387 22.25741685 99.05507813 C22.20974032 111.165938 22.1664763 123.27680947 22.12597656 135.38769531 C22.08662195 147.15332949 22.04519581 158.91895337 22.00097656 170.68457031 C21.99825229 171.40962207 21.99552802 172.13467382 21.99272119 172.88169684 C21.97904172 176.51901438 21.96532145 180.15633177 21.95158088 183.79364908 C21.83761514 213.97593678 21.73087934 244.15824627 21.62866211 274.34057617 C19.91936523 274.3467395 19.91936523 274.3467395 18.17553711 274.35302734 C13.9184136 274.3749183 9.66220132 274.42931003 5.40551758 274.49316406 C3.56869284 274.5162576 1.73173732 274.53071937 -0.10522461 274.53613281 C-2.75724987 274.54548613 -5.40724253 274.58661251 -8.05883789 274.63354492 C-8.870625 274.62961227 -9.68241211 274.62567963 -10.51879883 274.62162781 C-16.59239394 274.77454173 -20.62723363 276.55464741 -25.37133789 280.34057617 C-29.16498385 284.42604105 -30.4899671 287.44853636 -30.51850891 292.97538757 C-30.52566422 293.92716385 -30.53281952 294.87894012 -30.54019165 295.85955811 C-30.54288055 296.90218811 -30.54556946 297.94481812 -30.54833984 299.01904297 C-30.55491104 300.11853775 -30.56148224 301.21803253 -30.56825256 302.35084534 C-30.58799687 305.99716253 -30.59965118 309.64343851 -30.60961914 313.28979492 C-30.61369467 314.5347706 -30.6177702 315.77974628 -30.62196922 317.0624485 C-30.64068352 322.97312288 -30.65524747 328.88378416 -30.66358119 334.79448098 C-30.6733434 341.60502883 -30.69963739 348.41525078 -30.74008209 355.22568387 C-30.77395632 361.13365745 -30.78573248 367.04155181 -30.78978539 372.94962502 C-30.79465462 375.45780458 -30.80627811 377.96598057 -30.82482338 380.4740963 C-30.84918924 383.9880395 -30.8482538 387.50113477 -30.84130859 391.01513672 C-30.86052368 392.56389999 -30.86052368 392.56389999 -30.88012695 394.14395142 C-30.83529537 400.37996308 -29.98327872 405.15247345 -26.37133789 410.34057617 C-21.12444814 415.32512144 -16.98312433 416.63911912 -9.85163879 416.60800171 C-9.0909469 416.61253282 -8.330255 416.61706393 -7.54651183 416.62173235 C-4.99562725 416.63440004 -2.44495554 416.63275445 0.10595703 416.63110352 C1.93428828 416.63708743 3.762617 416.64389266 5.59094238 416.65145874 C10.56017308 416.66914333 15.52933492 416.67381525 20.49859405 416.67509031 C23.60432321 416.67651147 26.71003485 416.68078047 29.81575966 416.68608475 C40.65420265 416.70459556 51.49259642 416.71275434 62.33105469 416.71118164 C72.42734224 416.70998106 82.52341572 416.73106439 92.61964911 416.76266897 C101.29157108 416.7888456 109.96342322 416.7995483 118.63538438 416.79827082 C123.81290444 416.79776145 128.99023443 416.80343059 134.16771507 416.82462692 C139.04086142 416.84403172 143.91363692 416.84411838 148.78679657 416.82959366 C150.57135117 416.82750701 152.35592911 416.83219787 154.1404438 416.84431458 C166.98415661 417.17111901 166.98415661 417.17111901 178.62866211 412.34057617 C180.61105738 410.47932694 180.61105738 410.47932694 181.62866211 408.34057617 C181.99991211 407.68057617 182.37116211 407.02057617 182.75366211 406.34057617 C184.44226281 402.48091742 184.7889459 398.89295443 184.94506836 394.69995117 C185.00791016 393.09506836 185.00791016 393.09506836 185.07202148 391.45776367 C185.11133789 390.3465918 185.1506543 389.23541992 185.19116211 388.09057617 C185.2559375 386.40061523 185.2559375 386.40061523 185.32202148 384.67651367 C185.42798226 381.89798663 185.53005353 379.11937227 185.62866211 376.34057617 C186.14235352 376.73164551 186.65604492 377.12271484 187.18530273 377.52563477 C190.27549188 379.86339879 193.33910566 382.15388846 196.59741211 384.25463867 C203.15988436 388.69038381 203.15988436 388.69038381 204.40209961 393.06323242 C204.76690953 403.71287589 201.44272774 414.34776932 194.47241211 422.41088867 C193.86397461 423.04768555 193.25553711 423.68448242 192.62866211 424.34057617 C192.08209961 424.91549805 191.53553711 425.49041992 190.97241211 426.08276367 C183.21662463 433.43612822 173.29116139 435.49360463 162.91950989 435.48101807 C162.15050203 435.48398919 161.38149416 435.48696031 160.58918303 435.49002147 C158.01615 435.49868275 155.44316363 435.50021454 152.87011719 435.50170898 C151.02355856 435.50633901 149.1770009 435.51136392 147.33044434 435.51675415 C142.31576645 435.52986315 137.30110195 435.53632029 132.28640962 435.54076481 C129.15135853 435.54369821 126.01631108 435.54780355 122.88126183 435.55226898 C113.06644737 435.56594053 103.25164126 435.57560862 93.43681794 435.57947087 C82.11832401 435.58394964 70.79995096 435.60149062 59.48149377 435.63047147 C50.72546798 435.65211063 41.96947614 435.66217636 33.21342391 435.66351199 C27.98729057 435.6645585 22.76127091 435.67043339 17.53516579 435.6883316 C12.61609855 435.7048507 7.69722999 435.70694916 2.77814484 435.6981926 C0.97788395 435.69742425 -0.82238778 435.70173807 -2.62262154 435.71165085 C-17.24976856 435.78743664 -28.11670564 434.50938632 -39.37133789 424.34057617 C-48.6214246 413.86051437 -49.81829865 403.56193832 -49.75901794 390.05116272 C-49.76319495 388.4995933 -49.76867448 386.94802693 -49.77533776 385.3964662 C-49.78976285 381.14905343 -49.78555686 376.90183519 -49.77817094 372.65441191 C-49.77343432 368.06740549 -49.78595346 363.48044084 -49.79618835 358.89344788 C-49.8133717 349.91362769 -49.81421736 340.93387749 -49.80897545 331.95404512 C-49.80493184 324.65456675 -49.80637958 317.35510903 -49.81172371 310.05563164 C-49.81247213 309.01620245 -49.81322055 307.97677326 -49.81399165 306.90584622 C-49.81552315 304.79416533 -49.8170615 302.68248445 -49.81860662 300.57080358 C-49.83232986 280.77461873 -49.82689509 260.97847342 -49.81542141 241.18228947 C-49.8054881 223.07683738 -49.81843173 204.97148747 -49.8423556 186.86605114 C-49.86674502 168.2679632 -49.87635493 149.66992286 -49.86970288 131.07181925 C-49.86621045 120.63333473 -49.86844434 110.1949288 -49.8859539 99.75645638 C-49.90067383 90.87096861 -49.90131396 81.9856148 -49.88388299 73.10012967 C-49.87536915 68.56822304 -49.87323288 64.03655572 -49.88853455 59.50466156 C-49.90237999 55.35260849 -49.89762048 51.20099978 -49.87829531 47.04897242 C-49.87453456 45.55042062 -49.87745948 44.05183324 -49.88790696 42.55331314 C-49.97093679 29.72772709 -47.81707303 21.00607664 -38.79711914 11.60229492 C-27.08199071 0.67949402 -15.26978305 -0.09728827 0 0 Z " fill="#B4DAFD" transform="translate(83.371337890625,61.659423828125)"/>
<path d="M0 0 C1.28132813 0.00902344 2.56265625 0.01804688 3.8828125 0.02734375 C7.00541221 0.05064673 10.12760025 0.08335946 13.25 0.125 C13.58 0.785 13.91 1.445 14.25 2.125 C13.25742187 2.58648437 12.26484375 3.04796875 11.2421875 3.5234375 C-2.75375091 10.18148057 -14.52391796 18.4118848 -25.75 29.125 C-26.41128906 29.71152344 -27.07257813 30.29804688 -27.75390625 30.90234375 C-48.19057647 49.77013828 -60.65242371 80.88352806 -62.171875 108.2421875 C-63.23944144 141.37442581 -53.55099109 171.43192397 -32.75 197.125 C-31.89148438 198.21361328 -31.89148438 198.21361328 -31.015625 199.32421875 C-26.27289664 205.07195384 -20.62717961 209.58136522 -14.75 214.125 C-13.88375 214.80691406 -13.0175 215.48882812 -12.125 216.19140625 C-5.74649951 221.04172433 0.95549984 224.81649032 8.0625 228.4609375 C11.25 230.125 11.25 230.125 14.25 232.125 C-6.20643955 238.94381318 -34.23591535 231.00688778 -52.96386719 222.06835938 C-62.1225876 217.45784706 -70.06014924 211.93240887 -77.75 205.125 C-78.45382812 204.55265625 -79.15765625 203.9803125 -79.8828125 203.390625 C-95.56945202 190.47221599 -106.80050869 170.78950513 -113 151.6875 C-113.24645264 150.93702393 -113.49290527 150.18654785 -113.74682617 149.41333008 C-122.5607085 120.90607224 -118.86813228 90.50832881 -105.75 64.125 C-105.27820313 63.14402344 -104.80640625 62.16304688 -104.3203125 61.15234375 C-90.67339736 34.35967136 -65.07056916 14.2842034 -36.85546875 4.75 C-24.57078853 1.06595036 -12.79545337 -0.1736335 0 0 Z " fill="#FDD400" transform="translate(362.75,226.875)"/>
<path d="M0 0 C1.28685699 -0.00861557 2.57371399 -0.01723114 3.89956665 -0.02610779 C7.41829969 -0.0485561 10.93658196 -0.04567293 14.45535922 -0.03678632 C17.39765997 -0.0316657 20.33987682 -0.0389777 23.28216892 -0.04625839 C30.2257853 -0.06324307 37.16918184 -0.05970634 44.11279297 -0.04296875 C51.26572937 -0.02604905 58.41805543 -0.04188253 65.57092518 -0.07419163 C71.72231818 -0.10091996 77.87352156 -0.10815484 84.02496678 -0.09967655 C87.6945059 -0.09475664 91.36367792 -0.09691155 95.0331707 -0.11746407 C99.12666577 -0.13929508 103.21900986 -0.12038631 107.3125 -0.09765625 C108.52155502 -0.10934845 109.73061005 -0.12104065 110.9763031 -0.13308716 C118.07098141 -0.05293265 122.00433124 0.58156661 127.22094727 5.53344727 C129.94769586 10.28326739 130.88911842 14.09262504 130.22094727 19.53344727 C127.86237214 25.49224931 124.22016919 30.63488042 120.47094727 35.78344727 C119.38774537 37.29432743 118.30571495 38.80604814 117.22485352 40.31860352 C116.7042334 41.0457959 116.18361328 41.77298828 115.6472168 42.5222168 C113.18874559 45.98898944 110.85935404 49.53806572 108.51782227 53.08422852 C103.5081844 60.64250811 98.34519547 68.09969515 93.23071289 75.5871582 C91.23917656 78.50672337 89.25269899 81.42966382 87.26782227 84.35375977 C83.59932821 89.7564929 79.91504389 95.14819407 76.22094727 100.53344727 C75.7162793 101.27224121 75.21161133 102.01103516 74.69165039 102.7722168 C73.35666907 104.72020909 72.01018897 106.65956218 70.65844727 108.59594727 C69.9352832 109.63879883 69.21211914 110.68165039 68.46704102 111.75610352 C65.49453003 115.43167797 62.48233646 118.73756071 57.91235352 120.34594727 C52.55103558 120.81813674 48.95454478 120.4262013 44.22094727 117.53344727 C39.12201283 112.86623039 35.4449331 107.05255655 31.69360352 101.29907227 C28.58676262 96.53708715 25.36687953 91.85229519 22.15844727 87.15844727 C20.84462595 85.23398123 19.53082417 83.30950185 18.21704102 81.38500977 C17.55430176 80.41466797 16.8915625 79.44432617 16.20874023 78.44458008 C13.04362465 73.80925237 9.88237606 69.1712899 6.72094727 64.53344727 C2.86705648 58.88002502 -0.9877387 53.22722604 -4.84545898 47.57641602 C-5.51448242 46.59608398 -6.18350586 45.61575195 -6.87280273 44.60571289 C-8.14194247 42.74607064 -9.41144609 40.88667664 -10.68139648 39.02758789 C-11.83168804 37.3417717 -12.97926065 35.65409626 -14.1237793 33.96435547 C-15.23868726 32.32701939 -16.36594412 30.69803212 -17.50463867 29.07714844 C-18.04507812 28.29702393 -18.58551758 27.51689941 -19.14233398 26.71313477 C-19.62355713 26.02848145 -20.10478027 25.34382813 -20.60058594 24.63842773 C-23.13768098 20.10666195 -23.53625919 15.23244698 -22.14233398 10.26391602 C-17.63789027 0.01963263 -10.14814999 -0.05468312 0 0 Z " fill="#010000" transform="translate(363.779052734375,71.466552734375)"/>
<path d="M0 0 C23.93876942 -0.09335205 47.87751164 -0.16393439 71.81642628 -0.20724869 C82.93114613 -0.22789289 94.04575303 -0.25604896 105.16040039 -0.30175781 C114.84549126 -0.34156872 124.53050035 -0.36741928 134.21567076 -0.37635398 C139.3461368 -0.38157848 144.47636883 -0.39389642 149.60676003 -0.42292023 C154.43219795 -0.44999859 159.25730468 -0.4584604 164.08281136 -0.45243073 C165.85699511 -0.45353437 167.63118954 -0.46153329 169.40530777 -0.4768219 C171.82191158 -0.49663182 174.23725381 -0.49197299 176.65388489 -0.48101807 C177.36108085 -0.49266943 178.06827681 -0.5043208 178.79690295 -0.51632524 C182.01989305 -0.47664707 183.58748258 -0.40533075 185.93532276 1.90160656 C187.11298426 4.22268292 187.37969166 5.67111828 187.38818359 8.26196289 C187.39764008 9.09284927 187.40709656 9.92373566 187.4168396 10.77980042 C187.40773056 12.11276405 187.40773056 12.11276405 187.3984375 13.47265625 C187.40274277 14.85184486 187.40274277 14.85184486 187.40713501 16.25889587 C187.40917392 18.19970314 187.40365615 20.14053103 187.39111328 22.08129883 C187.37503883 25.05531597 187.39097724 28.02797788 187.41015625 31.00195312 C187.40817415 32.88802384 187.40433115 34.7740937 187.3984375 36.66015625 C187.40451019 37.55082291 187.41058289 38.44148956 187.4168396 39.35914612 C187.40265488 40.60074745 187.40265488 40.60074745 187.38818359 41.86743164 C187.38579681 42.59483047 187.38341003 43.32222931 187.38095093 44.07167053 C186.85954549 46.71096446 186.18570639 47.41104797 184 49 C181.49810726 49.29243869 179.24529895 49.40065354 176.74327087 49.3742218 C175.9989122 49.37819621 175.25455353 49.38217061 174.48763853 49.38626546 C171.98627668 49.39591201 169.4854771 49.38405647 166.98413086 49.37231445 C165.19385059 49.37474162 163.40357167 49.37846022 161.61329651 49.38337708 C156.74565442 49.39279926 151.87821294 49.38334986 147.0105865 49.37004495 C141.92393247 49.35874899 136.83728858 49.36283647 131.75062561 49.36479187 C123.20863558 49.36567535 114.66672483 49.35458243 106.12475586 49.33618164 C96.23801236 49.31500643 86.35138498 49.31150525 76.46462339 49.3177436 C66.96642133 49.32343073 57.46826031 49.31779973 47.97006416 49.30657005 C43.92184251 49.30191611 39.87364589 49.30105363 35.82542229 49.3031559 C31.06236553 49.30503432 26.2994276 49.2969694 21.53639793 49.2810955 C19.78439068 49.27683946 18.0323714 49.27601091 16.28036118 49.27878571 C13.89669056 49.28198918 11.51337914 49.27297255 9.12974548 49.26069641 C8.07932466 49.2663654 8.07932466 49.2663654 7.00768322 49.27214891 C2.22832926 49.22832926 2.22832926 49.22832926 0 47 C-0.24050903 44.97518921 -0.24050903 44.97518921 -0.22705078 42.45849609 C-0.22689972 41.51767181 -0.22674866 40.57684753 -0.22659302 39.60751343 C-0.21627045 38.58976837 -0.20594788 37.57202332 -0.1953125 36.5234375 C-0.1924826 35.48305328 -0.18965271 34.44266907 -0.18673706 33.37075806 C-0.17551704 30.03872306 -0.15040915 26.70695414 -0.125 23.375 C-0.11497256 21.11979554 -0.1058463 18.86458688 -0.09765625 16.609375 C-0.07557178 11.07282546 -0.04207639 5.53643173 0 0 Z " fill="#FE3480" transform="translate(67,415)"/>
<path d="M0 0 C4.39393635 2.08090193 7.0889367 4.5197189 9 9 C10.10330658 17.47879347 8.20798564 26.3418789 7.0625 34.75 C6.87768565 36.14706019 6.6934373 37.54419537 6.50976562 38.94140625 C5.75434356 44.64264419 4.97205403 50.33085556 4 56 C4.60473145 55.98428955 5.20946289 55.9685791 5.83251953 55.95239258 C8.59658296 55.8896812 11.36049621 55.85089589 14.125 55.8125 C15.07632813 55.78736328 16.02765625 55.76222656 17.0078125 55.73632812 C22.44195799 55.67972244 26.33222539 55.87828703 31 59 C35.04339954 63.48052382 36.57820928 66.53749599 36.4453125 72.52734375 C35.56555597 77.41230762 32.29033692 80.45374799 29 84 C28.47438477 84.57089355 27.94876953 85.14178711 27.40722656 85.72998047 C24.38966675 89.0036525 21.35018712 92.25554055 18.29296875 95.4921875 C15.36971253 98.59258602 12.54228799 101.75945903 9.76171875 104.98828125 C7.4252886 107.6562669 5.02583749 110.26514554 2.625 112.875 C-2.28799565 118.2163038 -7.15379254 123.59795513 -12 129 C-14.2414866 131.49140845 -16.48377187 133.98203821 -18.73046875 136.46875 C-20.30816014 138.22837826 -21.87234292 140.00017417 -23.42578125 141.78125 C-24.21339844 142.6784375 -25.00101562 143.575625 -25.8125 144.5 C-26.52019531 145.3146875 -27.22789062 146.129375 -27.95703125 146.96875 C-31.186062 150.17925858 -33.84215118 151.29547634 -38.375 151.375 C-42.951292 151.25457126 -45.5442703 150.12661259 -49 147 C-51.89499879 142.36257805 -52.37423132 138.7005422 -51.9375 133.375 C-51.86221069 132.25569092 -51.86221069 132.25569092 -51.78540039 131.11376953 C-50.84166421 119.01230656 -48.84373494 106.9900428 -47 95 C-47.95253662 95.0314209 -47.95253662 95.0314209 -48.92431641 95.06347656 C-51.82438076 95.14704581 -54.72419116 95.19878774 -57.625 95.25 C-58.62402344 95.28351563 -59.62304688 95.31703125 -60.65234375 95.3515625 C-66.80077057 95.43299862 -70.32508575 95.11240425 -75 91 C-77.89626035 87.70425546 -78.89660298 85.09600845 -79.3125 80.6875 C-78.75328834 74.08880242 -74.08233295 69.77619821 -69.6875 65.125 C-68.70112534 64.06575333 -67.71544697 63.00585783 -66.73046875 61.9453125 C-66.25786621 61.43774414 -65.78526367 60.93017578 -65.29833984 60.40722656 C-63.66321713 58.63497246 -62.07643504 56.82454225 -60.5 55 C-57.0932265 51.0691075 -53.56997215 47.24803427 -50.046875 43.421875 C-47.49444857 40.64505943 -44.97016712 37.85019283 -42.5 35 C-39.59914384 31.65499362 -36.62173401 28.38396744 -33.625 25.125 C-23.75609755 14.46746562 -23.75609755 14.46746562 -14.38671875 3.375 C-10.35080652 -0.62680593 -5.37423645 -0.89570607 0 0 Z " fill="#040201" transform="translate(383,268)"/>
<path d="M0 0 C0.33 0 0.66 0 1 0 C1.12117188 0.56589844 1.24234375 1.13179688 1.3671875 1.71484375 C1.53476563 2.44832031 1.70234375 3.18179687 1.875 3.9375 C2.03742188 4.66839844 2.19984375 5.39929688 2.3671875 6.15234375 C2.82961523 8.20700294 2.82961523 8.20700294 5 9 C7.21536729 9.12095041 9.43434004 9.17749172 11.65283203 9.20532227 C12.33587402 9.21522186 13.01891602 9.22512146 13.72265625 9.23532104 C15.98433953 9.26695309 18.24604382 9.29170011 20.5078125 9.31640625 C22.07437695 9.33697431 23.64093583 9.35797075 25.20748901 9.37937927 C29.33383682 9.43461522 33.46023483 9.48401775 37.58666992 9.53222656 C41.79610674 9.58243048 46.0054705 9.63812233 50.21484375 9.69335938 C58.47650076 9.80095958 66.73821882 9.90240039 75 10 C75.11069824 10.68840973 75.22139648 11.37681946 75.33544922 12.08609009 C75.8445941 15.23774853 76.35974799 18.38839697 76.875 21.5390625 C77.04902344 22.62195557 77.22304687 23.70484863 77.40234375 24.82055664 C79.14987854 35.4554385 82.04053819 45.14526475 86.265625 55.07421875 C87 57 87 57 87 59 C29.25 59 -28.5 59 -88 59 C-88 12 -88 12 -86 10 C-83.42591858 9.72825623 -83.42591858 9.72825623 -80.12915039 9.69702148 C-78.28197166 9.67205849 -78.28197166 9.67205849 -76.3974762 9.64659119 C-75.04753661 9.63802862 -73.69759662 9.62953106 -72.34765625 9.62109375 C-70.96763427 9.60492203 -69.58762376 9.58774238 -68.20762634 9.56959534 C-64.57070219 9.52385487 -60.93376272 9.48908221 -57.29669189 9.45739746 C-51.47834855 9.40557995 -45.66017467 9.34033366 -39.84203911 9.26918221 C-37.80853124 9.24635613 -35.77504473 9.23007834 -33.74147034 9.21446228 C-32.50686569 9.20097244 -31.27226105 9.1874826 -30.00024414 9.17358398 C-28.91151505 9.16407211 -27.82278595 9.15456024 -26.70106506 9.14476013 C-23.9013978 9.11435704 -23.9013978 9.11435704 -21 8 C-20.67 5.69 -20.34 3.38 -20 1 C-19.505 1.99 -19.505 1.99 -19 3 C-12.73 3 -6.46 3 0 3 C0 2.01 0 1.02 0 0 Z " fill="#FE5494" transform="translate(155,341)"/>
<path d="M0 0 C39.93 0 79.86 0 121 0 C119.63867069 2.72265862 118.37527559 5.06095861 116.70703125 7.5546875 C116.24965576 8.24014648 115.79228027 8.92560547 115.32104492 9.63183594 C114.57431519 10.74220215 114.57431519 10.74220215 113.8125 11.875 C113.28567627 12.66165039 112.75885254 13.44830078 112.21606445 14.25878906 C106.16959622 23.26907424 100.04731779 32.2278556 93.92333984 41.18554688 C91.40108699 44.87639872 88.88269871 48.56987454 86.36547852 52.26416016 C85.12913999 54.07732722 83.89136352 55.8895147 82.65209961 57.70068359 C79.3450882 62.53738906 76.06851139 67.39179691 72.828125 72.2734375 C71.80428711 73.80484375 71.80428711 73.80484375 70.75976562 75.3671875 C69.4427883 77.33817397 68.13387358 79.3145771 66.83398438 81.296875 C66.24423828 82.17601562 65.65449219 83.05515625 65.046875 83.9609375 C64.52963867 84.74259277 64.01240234 85.52424805 63.47949219 86.32958984 C62.99125977 86.8808252 62.50302734 87.43206055 62 88 C61.01 88 60.02 88 59 88 C57.33691406 86.05419922 57.33691406 86.05419922 55.515625 83.3046875 C54.8354834 82.28995361 54.1553418 81.27521973 53.45458984 80.22973633 C52.71963548 79.11155075 51.98477459 77.99330372 51.25 76.875 C50.48627795 75.72933506 49.72145335 74.58440438 48.95556641 73.44018555 C47.38763459 71.09592366 45.82444169 68.74860991 44.26464844 66.39892578 C41.01200076 61.50686791 37.69287796 56.660448 34.375 51.8125 C33.14687279 50.01189785 31.91900822 48.21111653 30.69140625 46.41015625 C28.18052644 42.72900205 25.66713009 39.04958016 23.15234375 35.37109375 C17.08934753 26.49875325 11.04184036 17.61650443 5.0625 8.6875 C4.29063354 7.53942871 4.29063354 7.53942871 3.50317383 6.36816406 C0 1.11796712 0 1.11796712 0 0 Z " fill="#FD0262" transform="translate(357,87)"/>
<path d="M0 0 C0.51369141 0.39106934 1.02738281 0.78213867 1.55664062 1.18505859 C4.64682977 3.52282262 7.71044355 5.81331229 10.96875 7.9140625 C17.53122226 12.34980764 17.53122226 12.34980764 18.7734375 16.72265625 C19.13824742 27.37229972 15.81406563 38.00719315 8.84375 46.0703125 C8.2353125 46.70710938 7.626875 47.34390625 7 48 C6.4534375 48.57492187 5.906875 49.14984375 5.34375 49.7421875 C-1.65346751 56.37634184 -10.95870271 59.08458429 -20.44477844 59.1673584 C-21.52551636 59.17884918 -22.60625427 59.19033997 -23.71974182 59.20217896 C-24.89544235 59.20958099 -26.07114288 59.21698303 -27.2824707 59.22460938 C-29.15160629 59.24169449 -29.15160629 59.24169449 -31.0585022 59.25912476 C-35.18091232 59.2941336 -39.30328993 59.32088048 -43.42578125 59.34375 C-44.1284927 59.34769587 -44.83120414 59.35164173 -45.55520988 59.35570717 C-52.18834531 59.3921101 -58.82149173 59.4235324 -65.45469379 59.44481659 C-73.92166351 59.47239348 -82.387796 59.52319312 -90.85441715 59.60529089 C-96.81806708 59.66115076 -102.78149023 59.69006184 -108.7453925 59.6992898 C-112.30292267 59.70553446 -115.85946869 59.72353924 -119.41671181 59.77067566 C-123.38783514 59.82265 -127.35786929 59.81888904 -131.3293457 59.81054688 C-132.49897354 59.83414276 -133.66860138 59.85773865 -134.87367249 59.88204956 C-141.81972202 59.81146772 -145.54728815 58.76793247 -150.46962261 53.7549057 C-150.97464715 53.17578682 -151.47967169 52.59666794 -152 52 C-152.763125 51.14792969 -153.52625 50.29585938 -154.3125 49.41796875 C-155.1478125 48.31388672 -155.1478125 48.31388672 -156 47.1875 C-156.5775 46.43855469 -157.155 45.68960938 -157.75 44.91796875 C-159 43 -159 43 -159 41 C-157.90696863 40.99780016 -157.90696863 40.99780016 -156.79185581 40.99555588 C-139.03833853 40.95845903 -121.28501754 40.8994062 -103.53165531 40.81609726 C-94.9461493 40.77633528 -86.36073457 40.74392839 -77.77514648 40.72900391 C-70.28949588 40.71597262 -62.80404638 40.68897041 -55.31850904 40.64538693 C-51.35714264 40.62280515 -47.39602395 40.60708733 -43.43458748 40.60811615 C-39.70062067 40.60886472 -35.96720076 40.59083583 -32.23337555 40.55883217 C-30.22053827 40.54634425 -28.20760899 40.55338182 -26.19474792 40.56114197 C-19.03670829 40.47921635 -13.15079956 39.89344188 -7 36 C-5.01760473 34.13875077 -5.01760473 34.13875077 -4 32 C-3.443125 31.01 -3.443125 31.01 -2.875 30 C-1.18639929 26.14034125 -0.83971621 22.55237826 -0.68359375 18.359375 C-0.64169922 17.28945313 -0.59980469 16.21953125 -0.55664062 15.1171875 C-0.51732422 14.00601562 -0.47800781 12.89484375 -0.4375 11.75 C-0.37272461 10.06003906 -0.37272461 10.06003906 -0.30664062 8.3359375 C-0.20067985 5.55741046 -0.09860858 2.77879609 0 0 Z " fill="#D9EBFD" transform="translate(269,438)"/>
<path d="M0 0 C0.33 0 0.66 0 1 0 C0.26955714 16.0505208 0.26955714 16.0505208 -1.0625 23.75 C-3.26476652 35.54863722 -3.26476652 35.54863722 -0.1875 46.6875 C3.18716967 50.25500794 5.31022165 51.24775335 10.10546875 51.4140625 C11.08837891 51.45273437 12.07128906 51.49140625 13.08398438 51.53125 C14.62022461 51.57765625 14.62022461 51.57765625 16.1875 51.625 C17.22326172 51.66367187 18.25902344 51.70234375 19.32617188 51.7421875 C21.88393622 51.83648296 24.44169287 51.92208202 27 52 C25.63389732 55.03726958 24.06926193 57.20915026 21.76953125 59.609375 C21.13080078 60.28226562 20.49207031 60.95515625 19.83398438 61.6484375 C19.16689453 62.34195313 18.49980469 63.03546875 17.8125 63.75 C13.31222089 68.46073992 8.89537313 73.21060107 4.62768555 78.13378906 C2.30025327 80.80228948 -0.09708002 83.39919249 -2.5 86 C-5.53968996 89.29952777 -8.56158059 92.60951607 -11.5 96 C-14.5591151 99.52058746 -17.67488194 102.98693299 -20.8125 106.4375 C-21.29332031 106.97052734 -21.77414062 107.50355469 -22.26953125 108.05273438 C-25.76774127 111.88387064 -25.76774127 111.88387064 -28 113 C-28.18582173 106.4575266 -27.44218365 100.27942702 -26.5 93.8125 C-23.69528852 79.6269702 -23.69528852 79.6269702 -26.71484375 66.2890625 C-31.76435687 61.23091773 -37.53529284 61.60489819 -44.3125 61.375 C-45.24384766 61.33632813 -46.17519531 61.29765625 -47.13476562 61.2578125 C-49.42298407 61.16393687 -51.71120295 61.07825491 -54 61 C-50.02397762 55.46972258 -45.76692747 50.420221 -41.0625 45.5 C-39.81680753 44.18184028 -38.57200403 42.86283986 -37.328125 41.54296875 C-36.74482422 40.92470215 -36.16152344 40.30643555 -35.56054688 39.66943359 C-33.22972432 37.17597855 -30.99551744 34.60618355 -28.76953125 32.01953125 C-26.39115503 29.3051372 -23.94487646 26.65430875 -21.5 24 C-17.86706407 20.05376389 -14.28443991 16.07178281 -10.765625 12.0234375 C-8.56619678 9.50285383 -6.35008394 6.99797159 -4.125 4.5 C-3.36445313 3.6440625 -2.60390625 2.788125 -1.8203125 1.90625 C-1.21960938 1.2771875 -0.61890625 0.648125 0 0 Z " fill="#FB7A41" transform="translate(375,287)"/>
<path d="M0 0 C26.07 0 52.14 0 79 0 C77.63867069 2.72265862 76.37527559 5.06095861 74.70703125 7.5546875 C74.02036377 8.58372192 74.02036377 8.58372192 73.31982422 9.63354492 C72.82240723 10.3732251 72.32499023 11.11290527 71.8125 11.875 C71.28930176 12.65657471 70.76610352 13.43814941 70.22705078 14.2434082 C65.34625698 21.51889057 60.40571962 28.75358349 55.46191406 35.98632812 C50.24838588 43.61839172 45.10197675 51.29301395 40 59 C36.25517265 57.75172422 35.74848317 56.51988374 33.62890625 53.25 C32.65256226 51.76089111 32.65256226 51.76089111 31.65649414 50.24169922 C30.96547607 49.17193848 30.27445801 48.10217773 29.5625 47 C28.11648715 44.79302228 26.66855775 42.58729913 25.21875 40.3828125 C24.50332031 39.29387695 23.78789062 38.20494141 23.05078125 37.08300781 C20.30369877 32.95322715 17.45142363 28.90625555 14.5625 24.875 C10.86378188 19.68519521 7.2352408 14.46110065 3.75 9.125 C3.36658447 8.54733887 2.98316895 7.96967773 2.58813477 7.37451172 C0.8433993 4.66556957 0 3.29368229 0 0 Z " fill="#FD3480" transform="translate(399,87)"/>
<path d="M0 0 C1.04368744 0.00444122 2.08737488 0.00888245 3.16268921 0.01345825 C4.93429916 0.01368484 4.93429916 0.01368484 6.74169922 0.01391602 C8.02192963 0.02423859 9.30216003 0.03456116 10.6211853 0.04519653 C12.58129044 0.04944138 12.58129044 0.04944138 14.58099365 0.05377197 C18.05644361 0.06141127 21.53172663 0.08106213 25.0071106 0.10317993 C28.55292502 0.12363208 32.0987664 0.13277233 35.6446228 0.14285278 C42.60302475 0.16430787 49.56131576 0.1984473 56.5196228 0.24050903 C56.5196228 0.57050903 56.5196228 0.90050903 56.5196228 1.24050903 C48.9296228 1.24050903 41.3396228 1.24050903 33.5196228 1.24050903 C33.5196228 17.08050903 33.5196228 32.92050903 33.5196228 49.24050903 C20.9796228 49.24050903 8.4396228 49.24050903 -4.4803772 49.24050903 C-4.52621778 42.58343708 -4.56606448 35.92690978 -4.59024048 29.26980591 C-4.60031579 27.00383654 -4.61397638 24.73788023 -4.6312561 22.47195435 C-4.6554373 19.22029403 -4.66684483 15.96880516 -4.6756897 12.71707153 C-4.68601227 11.69932648 -4.69633484 10.68158142 -4.70697021 9.63299561 C-4.70712128 8.69217133 -4.70727234 7.75134705 -4.70742798 6.78201294 C-4.7118692 5.95150421 -4.71631042 5.12099548 -4.72088623 4.26531982 C-4.33781227 1.04027553 -3.13842673 0.30431661 0 0 Z " fill="#FD3580" transform="translate(71.48037719726563,350.7594909667969)"/>
<path d="M0 0 C12.54 0 25.08 0 38 0 C38 16.17 38 32.34 38 49 C32.10125 49.04125 26.2025 49.0825 20.125 49.125 C17.33313232 49.15231201 17.33313232 49.15231201 14.48486328 49.18017578 C13.01334929 49.18601575 11.54183208 49.19111248 10.0703125 49.1953125 C9.30323975 49.20554443 8.53616699 49.21577637 7.74584961 49.22631836 C5.82908138 49.22695242 3.91281954 49.12297264 2 49 C0 47 0 47 -0.24050903 44.97518921 C-0.23606781 44.14468048 -0.23162659 43.31417175 -0.22705078 42.45849609 C-0.22689972 41.51767181 -0.22674866 40.57684753 -0.22659302 39.60751343 C-0.21627045 38.58976837 -0.20594788 37.57202332 -0.1953125 36.5234375 C-0.1924826 35.48305328 -0.18965271 34.44266907 -0.18673706 33.37075806 C-0.17551704 30.03872306 -0.15040915 26.70695414 -0.125 23.375 C-0.11497256 21.11979554 -0.1058463 18.86458688 -0.09765625 16.609375 C-0.07727096 11.07273099 -0.03812546 5.5366643 0 0 Z " fill="#FE0162" transform="translate(67,415)"/>
<path d="M0 0 C1.20416817 -0.01210762 1.20416817 -0.01210762 2.43266296 -0.02445984 C4.1314377 -0.03828325 5.83024 -0.0490132 7.52905273 -0.05688477 C10.11691383 -0.0740871 12.70349334 -0.11798567 15.29101562 -0.16210938 C16.94400105 -0.17223797 18.59699731 -0.18075356 20.25 -0.1875 C21.40342644 -0.21376213 21.40342644 -0.21376213 22.58015442 -0.24055481 C27.78846273 -0.2196999 30.67216713 0.83620245 34.82421875 4.23828125 C43.15464349 13.69443906 39.82421875 14.91827653 39.82421875 32.23828125 C20.35421875 32.23828125 0.88421875 32.23828125 -19.17578125 32.23828125 C-19.17578125 10.23828125 -19.17578125 10.23828125 -15.17578125 4.23828125 C-10.4812306 0.11276704 -6.01687813 0.05734828 0 0 Z " fill="#6D5FB7" transform="translate(150.17578125,14.76171875)"/>
<path d="M0 0 C5.45934153 0.60509943 7.97257069 2.99019004 11.484375 6.9765625 C13.88519834 10.35549905 14.29420615 12.04459155 14.26953125 16.140625 C14.26703369 16.98834473 14.26453613 17.83606445 14.26196289 18.70947266 C14.25285889 19.7876123 14.24375488 20.86575195 14.234375 21.9765625 C14.21375 25.4003125 14.193125 28.8240625 14.171875 32.3515625 C4.271875 32.3515625 -5.628125 32.3515625 -15.828125 32.3515625 C-15.89 29.0515625 -15.951875 25.7515625 -16.015625 22.3515625 C-16.04293701 21.32804687 -16.07024902 20.30453125 -16.09838867 19.25 C-16.15628284 12.8156547 -15.73540734 6.81044975 -11.40625 1.65991211 C-8.2423765 -0.9631074 -3.90698959 -0.09550419 0 0 Z " fill="#8378C0" transform="translate(175.828125,14.6484375)"/>
</svg>
