<?xml version="1.0" encoding="UTF-8"?>
<svg version="1.1" xmlns="http://www.w3.org/2000/svg" width="512" height="512">
<path d="M0 0 C1.1453421 -0.01182816 2.2906842 -0.02365631 3.47073364 -0.0358429 C7.25908545 -0.06875327 11.04671966 -0.07168672 14.83520508 -0.0715332 C17.47211501 -0.0818479 20.10902211 -0.09291097 22.7459259 -0.10469055 C28.27647442 -0.12568327 33.80682462 -0.12776474 39.33740234 -0.12109375 C45.71056748 -0.11386562 52.08262295 -0.14720092 58.45554751 -0.20015115 C64.60497677 -0.24938276 70.75388389 -0.25941746 76.9034977 -0.25470924 C79.51051775 -0.25757636 82.11755105 -0.27161276 84.72444725 -0.2971859 C88.37969218 -0.32926668 92.03224609 -0.31655587 95.6875 -0.29296875 C96.7564299 -0.3118515 97.8253598 -0.33073425 98.92668152 -0.35018921 C107.03545626 -0.22625473 111.48712991 2.50065397 117.66723633 7.56518555 C119.59279632 8.80678711 121.53046793 10.0301379 123.48754883 11.22143555 C124.50534424 11.84381104 125.52313965 12.46618652 126.57177734 13.10742188 C127.63452881 13.75348389 128.69728027 14.3995459 129.79223633 15.06518555 C132.09660921 16.47373019 134.39943951 17.88478982 136.70239258 19.2956543 C137.28280807 19.65084641 137.86322357 20.00603851 138.46122742 20.37199402 C148.24326853 26.3613862 157.96334126 32.4501886 167.66723633 38.56518555 C168.98328857 39.39252197 168.98328857 39.39252197 170.32592773 40.23657227 C172.73610756 41.75546122 175.14030737 43.28329151 177.54223633 44.81518555 C178.24421143 45.25709229 178.94618652 45.69899902 179.66943359 46.15429688 C182.71115976 48.10955467 184.63438919 49.51591483 186.66723633 52.56518555 C187.1192475 56.10593972 187.21542012 57.83934637 185.03363037 60.72821045 C181.97594251 63.10182041 180.27420175 63.05004127 176.42993164 63.01928711 C175.16892639 63.01898499 173.90792114 63.01868286 172.60870361 63.01837158 C171.23758307 62.9979466 169.866469 62.97708264 168.49536133 62.95581055 C167.08861089 62.94834672 165.68185002 62.94265445 164.27508545 62.93865967 C160.57915351 62.92341415 156.88385406 62.88414285 153.18817139 62.83984375 C149.41435298 62.79886698 145.640432 62.78064359 141.86645508 62.76049805 C134.46642768 62.71764654 127.06692075 62.6494096 119.66723633 62.56518555 C121.18998326 75.10968974 122.71943297 87.65335678 124.25742912 100.19600105 C124.97138248 106.02016432 125.68302983 111.84459002 126.3894043 117.66967773 C127.07126255 123.29188285 127.75918182 128.91331619 128.45129776 134.53426743 C128.71420104 136.67817726 128.97492463 138.82235554 129.23342514 140.96680069 C129.59604592 143.9718538 129.96642644 146.97585635 130.33862305 149.97973633 C130.44364136 150.86518631 130.54865967 151.75063629 130.65686035 152.66291809 C131.42833633 160.51154081 131.42833633 160.51154081 135.18505859 167.1574707 C135.77859131 167.55240723 136.37212402 167.94734375 136.98364258 168.35424805 C137.6565332 168.81444336 138.32942383 169.27463867 139.02270508 169.7487793 C139.75102539 170.22444336 140.4793457 170.70010742 141.22973633 171.19018555 C142.78340269 172.24445915 144.33678022 173.29915849 145.88989258 174.35424805 C146.68540527 174.88695312 147.48091797 175.4196582 148.30053711 175.96850586 C151.96531841 178.44092898 155.56403082 181.00426084 159.16723633 183.56518555 C160.58482975 184.56701893 162.00279971 185.56831973 163.42114258 186.5690918 C164.12255371 187.06425293 164.82396484 187.55941406 165.54663086 188.06958008 C167.6572325 189.55813012 169.76944071 191.04437309 171.88208008 192.5300293 C179.93007105 198.19343035 187.9420222 203.90218972 195.90136719 209.68969727 C199.74135059 212.47623389 203.60195811 215.22381374 207.51098633 217.9128418 C208.68274414 218.72301758 208.68274414 218.72301758 209.87817383 219.54956055 C211.36784018 220.57656602 212.86241579 221.59649874 214.36254883 222.6081543 C215.0302832 223.06963867 215.69801758 223.53112305 216.38598633 224.0065918 C216.9731543 224.40563721 217.56032227 224.80468262 218.1652832 225.21582031 C219.98400271 226.84977069 220.78648867 228.29201517 221.66723633 230.56518555 C221.53264334 233.86271368 221.39429521 235.80519206 219.07696533 238.22749329 C215.81181047 240.04005079 212.87154386 239.96207018 209.23657227 239.90576172 C208.12378906 239.90641884 208.12378906 239.90641884 206.98852539 239.90708923 C204.54261729 239.90500341 202.09739931 239.88168282 199.65161133 239.8581543 C197.9533933 239.85255759 196.25517041 239.84828784 194.5569458 239.84529114 C190.09178241 239.8338482 185.62691274 239.80438585 181.16186523 239.7711792 C176.60380018 239.74046639 172.04568758 239.72678322 167.48754883 239.71166992 C158.54731576 239.67951556 149.60730049 239.62832591 140.66723633 239.56518555 C140.7973696 240.17945152 140.92750288 240.7937175 141.06157959 241.4265976 C142.25807897 247.21502425 143.19405778 252.97316715 143.89480591 258.84057617 C144.00268712 259.71750594 144.11056833 260.59443571 144.22171867 261.49793911 C144.57845221 264.40533934 144.92973874 267.31337022 145.28100586 270.22143555 C145.53712906 272.31820088 145.79358733 274.41492531 146.050354 276.51161194 C146.74378128 282.18204011 147.43244983 287.85303697 148.12018061 293.52415848 C148.84092247 299.4612488 149.56584338 305.3978289 150.29025269 311.33447266 C151.50490565 321.29371559 152.71668735 331.2533044 153.92651367 341.21313477 C155.48102677 354.01046276 157.04022914 366.80721484 158.60092354 379.60379028 C159.94205658 390.60037224 161.28111968 401.59720609 162.61980963 412.59408569 C163.05077252 416.13362931 163.48200767 419.67313969 163.91327286 423.21264648 C164.58917309 428.76108488 165.26378722 434.30967822 165.93738556 439.85839653 C166.18530506 441.89911306 166.43363384 443.93977991 166.68239212 445.98039436 C167.02059032 448.75534991 167.35731416 451.53048033 167.69363403 454.30566406 C167.79343445 455.12178917 167.89323487 455.93791428 167.99605954 456.77877045 C168.66723633 462.33675664 168.66723633 462.33675664 168.66723633 464.56518555 C169.61566406 464.54423828 170.5640918 464.52329102 171.54125977 464.50170898 C175.06740057 464.43344995 178.59283732 464.38334626 182.11938477 464.34545898 C183.64423718 464.32536956 185.1690128 464.29809239 186.69360352 464.26342773 C188.88813231 464.21478759 191.08164102 464.19219159 193.27661133 464.17456055 C194.59628906 464.15361328 195.9159668 464.13266602 197.27563477 464.11108398 C200.66723633 464.56518555 200.66723633 464.56518555 203.09399414 466.37084961 C205.40907076 469.59988571 205.288969 471.69662667 204.66723633 475.56518555 C201.84828119 478.70435719 199.60846995 479.81169159 195.49121094 480.05102539 C193.85069639 480.06384314 192.2099027 480.05430046 190.56958008 480.02612305 C189.69829971 480.0252066 188.82701935 480.02429016 187.92933655 480.02334595 C186.09280936 480.01731966 184.25629155 480.00160286 182.41992188 479.97680664 C179.61071531 479.94026332 176.80282785 479.93578775 173.9934082 479.9362793 C172.20628744 479.92644868 170.4191756 479.91479191 168.63208008 479.90112305 C167.79345932 479.8988974 166.95483856 479.89667175 166.09080505 479.89437866 C165.30641556 479.88161896 164.52202606 479.86885925 163.71386719 479.85571289 C163.02723495 479.84808929 162.34060272 479.8404657 161.63316345 479.83261108 C159.28045356 479.51257139 157.68434284 478.80813665 155.66723633 477.56518555 C153.77378438 474.02870595 153.32903528 470.72007103 153.04223633 466.75268555 C152.93008789 465.28895508 152.93008789 465.28895508 152.81567383 463.7956543 C152.76668945 463.05959961 152.71770508 462.32354492 152.66723633 461.56518555 C151.82225586 461.30721191 150.97727539 461.04923828 150.10668945 460.78344727 C146.448671 459.48776923 143.06884468 457.86086043 139.63598633 456.07299805 C138.97243134 455.7314418 138.30887634 455.38988556 137.62521362 455.03797913 C135.4701332 453.92666337 133.31858651 452.80870318 131.16723633 451.69018555 C129.65768209 450.90924844 128.14807879 450.12840618 126.63842773 449.34765625 C117.89101837 444.81370769 109.21229208 440.17351762 100.59521484 435.39599609 C89.15664758 429.10686306 77.48640308 423.25007496 65.85424805 417.32958984 C65.02243515 416.90554871 64.19062225 416.48150757 63.33360291 416.0446167 C61.76264475 415.24407825 60.19088228 414.44511548 58.61817932 413.64801025 C57.90790085 413.28608582 57.19762238 412.92416138 56.46582031 412.55126953 C55.80178192 412.21594208 55.13774353 411.88061462 54.45358276 411.53512573 C52.66723633 410.56518555 52.66723633 410.56518555 50.02685547 408.67480469 C47.63900173 407.26210714 47.63900173 407.26210714 44.72583008 408.18676758 C41.65948488 409.5686789 38.68857354 411.02002558 35.72973633 412.61987305 C34.59890625 413.22847168 33.46807617 413.83707031 32.30297852 414.46411133 C31.09099404 415.12267316 29.87908168 415.78136773 28.66723633 416.44018555 C27.40604353 417.12138359 26.14464777 417.80220597 24.88305664 418.48266602 C21.14071923 420.50332746 17.40334978 422.53304452 13.66723633 424.56518555 C12.14646484 425.39179687 12.14646484 425.39179687 10.5949707 426.23510742 C6.08837864 428.68671849 1.5855102 431.14502433 -2.91479492 433.6081543 C-7.67913732 436.21345017 -12.4570105 438.79297377 -17.23925781 441.36523438 C-20.2493096 442.99136545 -23.24787763 444.6374396 -26.24682617 446.28393555 C-30.40366731 448.55596426 -34.60290382 450.69851328 -38.85620117 452.78393555 C-49.93290043 457.56739369 -49.93290043 457.56739369 -57.25854492 466.3894043 C-58.05536999 470.1160325 -58.05536999 470.1160325 -57.99682617 473.66674805 C-58.33276367 476.56518555 -58.33276367 476.56518555 -60.28735352 478.21704102 C-64.39634247 480.03601143 -67.94745497 480.03286068 -72.39526367 480.03393555 C-73.26417236 480.04154907 -74.13308105 480.0491626 -75.02832031 480.05700684 C-76.86056655 480.06778475 -78.6928741 480.07067034 -80.52514648 480.06616211 C-83.32404031 480.06518858 -86.12020201 480.10685856 -88.91870117 480.15112305 C-90.70254964 480.15632961 -92.48640761 480.15901825 -94.27026367 480.15893555 C-95.10372314 480.17533081 -95.93718262 480.19172607 -96.79589844 480.20861816 C-101.12069909 480.15730697 -102.83143112 479.95313683 -106.36401367 477.21948242 C-108.33276367 474.56518555 -108.33276367 474.56518555 -108.89526367 471.50268555 C-108.18805806 467.8095007 -107.3222877 466.82018867 -104.33276367 464.56518555 C-101.65103892 464.21559149 -99.39338409 464.09594781 -96.72338867 464.17456055 C-95.99657898 464.18022034 -95.26976929 464.18588013 -94.52093506 464.19171143 C-92.20753122 464.21404002 -89.89569647 464.26422507 -87.58276367 464.31518555 C-86.01117152 464.33525531 -84.43955499 464.35350526 -82.86791992 464.36987305 C-79.0222665 464.41389262 -75.17778078 464.4828918 -71.33276367 464.56518555 C-71.35298301 463.26794965 -71.37320234 461.97071375 -71.39403439 460.63416767 C-71.39097226 455.84738936 -70.95138442 451.20585999 -70.35243225 446.46147156 C-70.24696546 445.5908909 -70.14149866 444.72031024 -70.0328359 443.82334834 C-69.68101222 440.9302423 -69.32147778 438.03814957 -68.96191406 435.14599609 C-68.70692277 433.06257144 -68.45240321 430.979089 -68.19831848 428.89555359 C-67.5090254 423.25488381 -66.81296765 417.61506765 -66.11553884 411.97539878 C-65.38636282 406.0706964 -64.66297034 400.16528534 -63.93882751 394.25996399 C-62.72267647 384.34944743 -61.50234944 374.43945224 -60.27929688 364.52978516 C-58.86469072 353.06783507 -57.45562534 341.60521483 -56.04975134 330.14219064 C-54.55289221 317.93765264 -53.05220976 305.73358708 -51.55028987 293.52967095 C-51.11754562 290.01136114 -50.68549516 286.49296669 -50.25358772 282.97455406 C-49.57554645 277.45276745 -48.89493284 271.93130376 -48.21230888 266.41008186 C-47.96191321 264.38165187 -47.71236948 262.35311651 -47.46372986 260.32447052 C-47.12483433 257.56068152 -46.78286349 254.79729025 -46.44007874 252.03398132 C-46.34182692 251.22689073 -46.24357511 250.41980013 -46.14234596 249.58825225 C-45.71655406 246.17998905 -45.21143778 242.88446392 -44.33276367 239.56518555 C-45.74764069 239.5751783 -45.74764069 239.5751783 -47.19110107 239.58537292 C-56.07836903 239.64617594 -64.9655948 239.69115426 -73.85302353 239.72062206 C-78.42220475 239.73628105 -82.99121812 239.75752353 -87.56030273 239.79150391 C-91.96935934 239.82408911 -96.37825445 239.84203681 -100.78742218 239.84981728 C-102.46995842 239.8553623 -104.15248578 239.86619035 -105.83495331 239.88237572 C-108.19086337 239.90413917 -110.54610527 239.90715298 -112.90209961 239.90576172 C-113.59837463 239.91654755 -114.29464966 239.92733337 -115.01202393 239.93844604 C-118.00609129 239.91930185 -120.0939536 239.69092819 -122.76202393 238.28608704 C-124.89110872 235.95346306 -124.85916853 233.77303982 -124.96166992 230.69799805 C-123.10700031 224.40824894 -115.17186793 220.48733121 -110.08276367 217.00268555 C-108.27787168 215.75298083 -106.47318747 214.50297598 -104.66870117 213.25268555 C-103.76861328 212.63135742 -102.86852539 212.0100293 -101.94116211 211.36987305 C-98.18162377 208.76873982 -94.44212254 206.13979489 -90.70776367 203.50268555 C-90.02020996 203.01783691 -89.33265625 202.53298828 -88.62426758 202.03344727 C-83.53879292 198.43901428 -78.49586961 194.7880818 -73.45776367 191.12768555 C-66.3540795 185.96772598 -59.15316327 180.96621866 -51.8762207 176.05371094 C-47.45496449 173.06008173 -43.16560806 169.9637385 -38.96606445 166.66455078 C-37.33276367 165.56518555 -37.33276367 165.56518555 -35.33276367 165.56518555 C-35.21603302 164.35219788 -35.09930237 163.13921021 -34.97903442 161.88946533 C-33.80095491 149.79541691 -32.43713241 137.73410893 -30.94995117 125.67456055 C-30.72841538 123.86470853 -30.50707543 122.05483252 -30.28591919 120.24493408 C-29.71248681 115.5563203 -29.13645447 110.86802978 -28.55981445 106.17980957 C-27.96818691 101.36575843 -27.37910935 96.55139529 -26.78979492 91.73706055 C-25.63989772 82.34613452 -24.48724402 72.95554917 -23.33276367 63.56518555 C-24.11315002 63.56376053 -24.89353638 63.56233551 -25.6975708 63.56086731 C-33.05473548 63.5430322 -40.4111996 63.50140506 -47.76805496 63.43309498 C-51.5502845 63.39881417 -55.3321097 63.37371345 -59.11450195 63.36962891 C-62.76532972 63.36534804 -66.4152452 63.33690541 -70.06578827 63.29175377 C-71.45797154 63.27877155 -72.85026396 63.27447373 -74.24250031 63.27903175 C-76.19356472 63.28393134 -78.14462509 63.25499816 -80.09545898 63.22460938 C-81.76091766 63.21461662 -81.76091766 63.21461662 -83.46002197 63.204422 C-86.33276367 62.56518555 -86.33276367 62.56518555 -88.69915771 60.23490906 C-90.33276367 57.56518555 -90.33276367 57.56518555 -90.70776367 54.19018555 C-89.18191646 50.16749745 -88.37528272 49.57420624 -84.93041992 47.2565918 C-84.02614258 46.64783203 -83.12186523 46.03907227 -82.19018555 45.41186523 C-77.64565971 42.47485281 -73.03737179 39.65729805 -68.39526367 36.87768555 C-60.34980058 32.02128092 -52.35753962 27.09634725 -44.42822266 22.05273438 C-40.190779 19.36084372 -35.93787724 16.6978081 -31.66088867 14.0690918 C-30.71036621 13.48458252 -29.75984375 12.90007324 -28.78051758 12.29785156 C-26.94600334 11.17178794 -25.10982812 10.04842424 -23.27172852 8.92822266 C-22.43851074 8.41654541 -21.60529297 7.90486816 -20.74682617 7.37768555 C-20.01415527 6.93038086 -19.28148438 6.48307617 -18.52661133 6.0222168 C-16.24172758 4.62535681 -16.24172758 4.62535681 -14.40394592 2.50944519 C-9.75434766 -0.43405524 -5.39880263 -0.01693007 0 0 Z M-2.33276367 16.56518555 C-3.14936726 20.9747598 -3.65306873 25.42875929 -4.20776367 29.87768555 C-4.38823242 31.12743164 -4.56870117 32.37717773 -4.75463867 33.66479492 C-4.9015918 34.86555664 -5.04854492 36.06631836 -5.19995117 37.3034668 C-5.3454541 38.40730713 -5.49095703 39.51114746 -5.64086914 40.6484375 C-5.60881201 43.6807656 -5.60881201 43.6807656 -3.40054321 45.71612549 C0.83045192 48.26629704 4.20787392 48.12012755 9.05981445 48.06689453 C10.46800697 48.07499901 10.46800697 48.07499901 11.90464783 48.08326721 C15.00291626 48.09575813 18.10025614 48.0792607 21.19848633 48.0612793 C23.35412647 48.06143428 25.5097669 48.06292307 27.66540527 48.06568909 C32.18127778 48.06707325 36.69683275 48.05451186 41.21264648 48.03173828 C46.99991109 48.00335388 52.78664808 48.00609088 58.57395172 48.01882839 C63.02464297 48.02578479 67.47521237 48.01799668 71.92588806 48.00557137 C74.05972323 48.0010565 76.19357148 48.00072037 78.32740784 48.00463676 C81.3100972 48.00754853 84.29206059 47.99104316 87.2746582 47.96923828 C88.59644325 47.97599075 88.59644325 47.97599075 89.94493103 47.98287964 C94.69750701 47.92518003 97.75718456 47.57953206 101.66723633 44.56518555 C101.54888981 42.54395165 101.42201579 40.52321757 101.29223633 38.50268555 C101.18782227 36.8146582 101.18782227 36.8146582 101.08129883 35.0925293 C100.75791206 30.96907937 100.19725391 26.87940138 99.64135742 22.78222656 C99.50107368 21.73972118 99.50107368 21.73972118 99.35795593 20.67615509 C99.12856605 18.97238392 98.89801758 17.26876881 98.66723633 15.56518555 C85.64612993 15.54206455 72.62502838 15.52427171 59.60390568 15.51337337 C53.55835815 15.50814401 47.51282462 15.50104541 41.46728516 15.48974609 C35.63829345 15.4789191 29.80931524 15.47290911 23.98031425 15.4703083 C21.75106023 15.46845371 19.52180698 15.46483246 17.29255867 15.45945549 C14.18183899 15.45224755 11.07117584 15.4511945 7.96044922 15.45166016 C7.02897064 15.44806488 6.09749207 15.4444696 5.13778687 15.44076538 C1.08124386 15.03359744 1.08124386 15.03359744 -2.33276367 16.56518555 Z M114.66723633 24.56518555 C114.78390748 26.52403273 114.9111046 28.48225324 115.04223633 30.44018555 C115.1118457 31.53073242 115.18145508 32.6212793 115.25317383 33.74487305 C115.75708502 38.39416686 116.75009488 42.97947829 117.66723633 47.56518555 C128.88723633 47.56518555 140.10723633 47.56518555 151.66723633 47.56518555 C148.01959859 44.64707535 144.64496342 42.20458175 140.70239258 39.7800293 C140.14660019 39.43766739 139.5908078 39.09530548 139.01817322 38.74256897 C137.85018659 38.02418861 136.68118953 37.3074487 135.51123047 36.59228516 C133.73561307 35.50627989 131.96392484 34.4140779 130.19262695 33.32104492 C125.10322324 30.19551849 120.04602529 27.17710982 114.66723633 24.56518555 Z M-24.76635742 27.85424805 C-25.31832291 28.19515472 -25.87028839 28.5360614 -26.4389801 28.88729858 C-28.21737611 29.98617261 -29.9938926 31.08804171 -31.77026367 32.19018555 C-33.5094361 33.26703504 -35.24900583 34.3432371 -36.98892212 35.41888428 C-38.68851539 36.4697619 -40.38735211 37.52186278 -42.08618164 38.57397461 C-45.90306338 40.9149648 -49.75382926 43.19450385 -53.62207031 45.44946289 C-54.18659912 45.81765137 -54.75112793 46.18583984 -55.33276367 46.56518555 C-55.33276367 46.89518555 -55.33276367 47.22518555 -55.33276367 47.56518555 C-50.50895565 47.58983745 -45.68518401 47.60802247 -40.86132812 47.62011719 C-39.21906903 47.62515729 -37.57681444 47.63198933 -35.93457031 47.640625 C-33.57900888 47.6527048 -31.22350658 47.65841693 -28.86791992 47.6628418 C-27.76009911 47.67058372 -27.76009911 47.67058372 -26.62989807 47.67848206 C-24.86378279 47.67867805 -23.09779222 47.62713273 -21.33276367 47.56518555 C-19.29909148 45.53151336 -19.60476533 41.67511052 -19.27026367 38.87768555 C-19.17938477 38.1693457 -19.08850586 37.46100586 -18.99487305 36.73120117 C-18.4935828 32.6492663 -18.23540447 28.68672498 -18.33276367 24.56518555 C-20.52923242 24.56518555 -23.00721724 26.76445619 -24.76635742 27.85424805 Z M-7.33276367 62.56518555 C-9.6558071 73.50846156 -10.7014332 84.64995577 -11.95776367 95.75268555 C-12.1892023 97.77420798 -12.42097031 99.79569274 -12.65307617 101.81713867 C-13.2167734 106.73272775 -13.77600037 111.64880648 -14.33276367 116.56518555 C-6.84702321 112.60087306 0.36394159 108.34516235 7.47973633 103.75268555 C8.4280835 103.14392578 9.37643066 102.53516602 10.35351562 101.90795898 C12.2453866 100.69328179 14.13644247 99.47733395 16.02661133 98.26000977 C18.3997582 96.73686021 20.78062903 95.22727716 23.16723633 93.7253418 C23.82103271 93.31195557 24.4748291 92.89856934 25.1484375 92.47265625 C26.85790794 91.39218707 28.56914593 90.31451584 30.28051758 89.23706055 C32.75527636 87.78576667 32.75527636 87.78576667 33.66723633 85.56518555 C32.93722412 85.11715576 32.20721191 84.66912598 31.45507812 84.20751953 C28.69064389 82.51031293 25.92670884 80.81229689 23.16308594 79.11376953 C21.97740627 78.38526566 20.79154036 77.6570648 19.60546875 76.92919922 C18.45328068 76.2220749 17.30135356 75.51452523 16.14968872 74.80654907 C15.00220966 74.10117048 13.85415764 73.39672312 12.70553589 72.69320679 C8.05857823 69.83661134 3.5059746 66.8481523 -1.01708984 63.79980469 C-3.48366874 62.25154054 -3.48366874 62.25154054 -7.33276367 62.56518555 Z M25.66723633 62.56518555 C30.03062493 66.05589643 34.3958905 69.38027947 38.97973633 72.56518555 C39.7009668 73.10530273 40.42219727 73.64541992 41.1652832 74.2019043 C43.33290954 75.68327763 45.15552483 76.79413654 47.66723633 77.56518555 C50.80868467 76.94575036 53.06121762 75.36918198 55.66723633 73.56518555 C57.09194055 72.71353666 58.51905893 71.86591417 59.94848633 71.0222168 C61.3570791 70.14445482 62.76333123 69.26292571 64.16723633 68.37768555 C64.89426758 67.9271582 65.62129883 67.47663086 66.37036133 67.01245117 C68.15525963 65.89353466 69.9140976 64.7332355 71.66723633 63.56518555 C71.66723633 63.23518555 71.66723633 62.90518555 71.66723633 62.56518555 C56.48723633 62.56518555 41.30723633 62.56518555 25.66723633 62.56518555 Z M96.49926758 64.70581055 C95.69585937 65.19452637 94.89245117 65.68324219 94.06469727 66.18676758 C93.21166016 66.72414551 92.35862305 67.26152344 91.47973633 67.81518555 C90.16344238 68.62705322 90.16344238 68.62705322 88.82055664 69.45532227 C86.0938104 71.14468737 83.37994555 72.85339107 80.66723633 74.56518555 C79.80984863 75.09982422 78.95246094 75.63446289 78.0690918 76.18530273 C75.67859295 77.67685447 73.29607474 79.18012029 70.91723633 80.69018555 C70.18480713 81.15070313 69.45237793 81.6112207 68.69775391 82.08569336 C66.98444821 83.19094473 65.31965545 84.37082043 63.66723633 85.56518555 C63.66723633 86.22518555 63.66723633 86.88518555 63.66723633 87.56518555 C65.84824204 89.18354829 65.84824204 89.18354829 68.68676758 90.83862305 C69.7637793 91.4934668 70.84079102 92.14831055 71.95043945 92.82299805 C73.12679979 93.52884714 74.30323357 94.23457387 75.47973633 94.94018555 C77.26344764 96.01988424 79.04563662 97.10206092 80.8276062 98.18463135 C82.02906225 98.91452921 83.23099025 99.64365077 84.43338013 100.37200928 C90.70718498 104.17881812 96.89288687 108.12207343 103.05322266 112.10961914 C103.77147217 112.56933105 104.48972168 113.02904297 105.22973633 113.50268555 C105.84977539 113.90358398 106.46981445 114.30448242 107.10864258 114.7175293 C108.66436665 115.72444286 108.66436665 115.72444286 110.66723633 115.56518555 C108.76927064 98.21904036 106.78112334 80.88637117 104.66723633 63.56518555 C101.1217813 62.2733959 99.66494253 62.74961991 96.49926758 64.70581055 Z M43.06567383 98.3190918 C42.11200928 98.91915039 41.15834473 99.51920898 40.17578125 100.13745117 C39.14171143 100.79422852 38.1076416 101.45100586 37.04223633 102.12768555 C34.85873279 103.50413074 32.67513632 104.88042854 30.49145508 106.2565918 C29.3538907 106.97545419 28.21635835 107.69436727 27.07885742 108.41333008 C21.68474343 111.81952168 16.26807654 115.18967252 10.85473633 118.56518555 C8.04689219 120.31672297 5.24004649 122.06964142 2.43823242 123.83081055 C0.47388568 125.06030123 -1.49794363 126.27787371 -3.47485352 127.48706055 C-4.48370605 128.1109668 -5.49255859 128.73487305 -6.53198242 129.37768555 C-7.45197021 129.94100586 -8.37195801 130.50432617 -9.31982422 131.0847168 C-10.31622925 131.81754883 -10.31622925 131.81754883 -11.33276367 132.56518555 C-11.33276367 133.22518555 -11.33276367 133.88518555 -11.33276367 134.56518555 C-9.10244318 136.21642099 -9.10244318 136.21642099 -6.20776367 137.90893555 C-5.11794189 138.5740918 -4.02812012 139.23924805 -2.90527344 139.92456055 C-0.50133408 141.36954369 1.90886042 142.80383832 4.31982422 144.23706055 C5.53120274 144.96014442 6.74206241 145.68409825 7.95239258 146.40893555 C8.54947525 146.76608643 9.14655792 147.1232373 9.76173401 147.49121094 C12.94281241 149.42242244 15.89346446 151.43410162 18.72583008 153.84643555 C29.93159504 163.15421807 45.14527381 163.0050464 59.07206726 161.72535706 C70.71704676 160.23410753 79.69413602 153.63915493 88.87426758 146.65649414 C93.02739409 143.54673175 97.40171715 140.82316444 101.79223633 138.06518555 C104.08987471 136.57408742 106.37842017 135.06981121 108.66723633 133.56518555 C103.7899683 129.35632256 98.31909529 126.1282957 92.85473633 122.75268555 C90.70495987 121.41680738 88.55522144 120.08086802 86.40551758 118.74487305 C85.29901855 118.05876953 84.19251953 117.37266602 83.05249023 116.66577148 C77.54257507 113.24681071 72.04222925 109.81257635 66.54223633 106.37768555 C65.54216553 105.75466553 64.54209473 105.13164551 63.51171875 104.48974609 C55.76031071 99.65233139 55.76031071 99.65233139 52.11254883 97.1394043 C48.12427762 94.57187507 46.83599481 95.9333377 43.06567383 98.3190918 Z M-18.33276367 147.56518555 C-18.66276367 151.85518555 -18.99276367 156.14518555 -19.33276367 160.56518555 C-12.40276367 160.56518555 -5.47276367 160.56518555 1.66723633 160.56518555 C-2.50632485 157.21345846 -2.50632485 157.21345846 -6.84838867 154.20581055 C-7.76491211 153.61606445 -7.76491211 153.61606445 -8.69995117 153.0144043 C-9.3212793 152.61866211 -9.94260742 152.22291992 -10.58276367 151.81518555 C-11.21956055 151.40397461 -11.85635742 150.99276367 -12.51245117 150.5690918 C-15.22342901 148.48824328 -15.22342901 148.48824328 -18.33276367 147.56518555 Z M104.10473633 153.50268555 C103.20303711 154.06665039 102.30133789 154.63061523 101.37231445 155.21166992 C100.51959961 155.74985352 99.66688477 156.28803711 98.78833008 156.8425293 C97.99869873 157.34002686 97.20906738 157.83752441 96.39550781 158.35009766 C95.82517822 158.75107666 95.25484863 159.15205566 94.66723633 159.56518555 C94.66723633 159.89518555 94.66723633 160.22518555 94.66723633 160.56518555 C101.59723633 160.56518555 108.52723633 160.56518555 115.66723633 160.56518555 C115.17223633 154.13018555 115.17223633 154.13018555 114.66723633 147.56518555 C111.33653966 147.56518555 106.85309471 151.76449191 104.10473633 153.50268555 Z M-21.33276367 174.56518555 C-21.88902493 178.59894945 -22.44009902 182.63338826 -22.98681641 186.66845703 C-23.17264103 188.03485222 -23.3597693 189.4010709 -23.54833984 190.76708984 C-24.77815388 199.68406147 -25.75839623 208.57954731 -26.33276367 217.56518555 C-20.01264348 214.55873948 -14.20251566 211.05545847 -8.33276367 207.25268555 C-6.39587021 206.00825142 -4.45834616 204.76479834 -2.52026367 203.5222168 C-1.51479492 202.87720215 -0.50932617 202.2321875 0.52661133 201.56762695 C6.89338523 197.50821468 13.3099566 193.52802071 19.72192383 189.54052734 C24.41835588 186.61520064 29.08963448 183.67362464 33.66723633 180.56518555 C28.02117059 175.71630105 28.02117059 175.71630105 21.01220703 174.33813477 C20.07145828 174.33828583 19.13070953 174.33843689 18.16145325 174.33859253 C17.14886948 174.3489151 16.13628571 174.35923767 15.09301758 174.36987305 C14.05404831 174.37270294 13.01507904 174.37553284 11.94462585 174.37844849 C8.62287936 174.38965273 5.30140147 174.41475791 1.97973633 174.44018555 C-0.27091082 174.45021502 -2.52156219 174.45934093 -4.7722168 174.4675293 C-10.2924909 174.48959285 -15.81260809 174.52307283 -21.33276367 174.56518555 Z M62.66723633 179.56518555 C66.30006478 183.74636546 70.74670324 186.14076969 75.47973633 188.87768555 C83.35135404 193.50612102 91.04315226 198.35242296 98.66723633 203.37768555 C110.04324227 212.32463722 110.04324227 212.32463722 122.66723633 217.56518555 C122.23569606 208.27962952 121.32011303 199.10069914 120.16723633 189.87768555 C119.97133911 188.30083984 119.97133911 188.30083984 119.77148438 186.69213867 C119.24499039 182.57621612 118.70368601 178.5850112 117.66723633 174.56518555 C111.12041093 174.43789514 104.57390731 174.35062964 98.02612305 174.29052734 C95.80106684 174.26545948 93.57609235 174.23139611 91.35131836 174.18798828 C88.14391868 174.12699746 84.93761226 174.09889771 81.72973633 174.0769043 C80.74295898 174.05109787 79.75618164 174.02529144 78.73950195 173.998703 C72.04939497 173.99601624 67.92721746 175.4046702 62.66723633 179.56518555 Z M-46.39526367 190.87768555 C-51.93419821 195.07367859 -57.52669786 199.15378635 -63.27026367 203.06518555 C-63.91777588 203.50652832 -64.56528809 203.94787109 -65.23242188 204.40258789 C-66.56580209 205.31116716 -67.89921725 206.21969515 -69.23266602 207.12817383 C-73.03312057 209.72867087 -76.81111894 212.36063202 -80.58276367 215.00268555 C-81.29811279 215.49897461 -82.01346191 215.99526367 -82.75048828 216.5065918 C-83.42217041 216.97838867 -84.09385254 217.45018555 -84.78588867 217.9362793 C-85.3753125 218.3480542 -85.96473633 218.7598291 -86.57202148 219.18408203 C-88.63954853 220.80582364 -90.47471174 222.70713362 -92.33276367 224.56518555 C-75.83276367 224.56518555 -59.33276367 224.56518555 -42.33276367 224.56518555 C-41.67276367 219.80081055 -41.01276367 215.03643555 -40.33276367 210.12768555 C-40.12393555 208.64341064 -39.91510742 207.15913574 -39.69995117 205.62988281 C-38.78270314 198.87746313 -38.09127195 192.37978013 -38.33276367 185.56518555 C-40.91913416 185.56518555 -44.29682711 189.27330014 -46.39526367 190.87768555 Z M134.66723633 185.56518555 C135.27772582 198.70123524 137.02830256 211.45371542 138.66723633 224.56518555 C155.16723633 224.56518555 171.66723633 224.56518555 188.66723633 224.56518555 C185.43208711 221.33003633 183.01872028 218.92459508 179.40161133 216.4362793 C178.60231201 215.88214355 177.8030127 215.32800781 176.97949219 214.75708008 C175.71117554 213.88865479 175.71117554 213.88865479 174.41723633 213.00268555 C172.62144633 211.75950948 170.8258772 210.51601432 169.03051758 209.2722168 C168.13155762 208.65169434 167.23259766 208.03117187 166.30639648 207.3918457 C162.38960533 204.68088998 158.4952587 201.93865421 154.60473633 199.19018555 C153.9121875 198.70187256 153.21963867 198.21355957 152.50610352 197.71044922 C147.48477174 194.16303169 142.51334624 190.5535682 137.57348633 186.89331055 C135.9177034 185.46990963 135.9177034 185.46990963 134.66723633 185.56518555 Z M42.40551758 192.1003418 C41.54522949 192.65536377 40.68494141 193.21038574 39.79858398 193.78222656 C38.86836426 194.39122803 37.93814453 195.00022949 36.97973633 195.62768555 C34.99470728 196.90993931 33.00900531 198.19115182 31.02270508 199.47143555 C29.98549316 200.14174805 28.94828125 200.81206055 27.87963867 201.50268555 C22.5474735 204.92616414 17.17023221 208.27683508 11.79223633 211.62768555 C10.30590698 212.5549646 10.30590698 212.5549646 8.78955078 213.50097656 C7.84426514 214.09064209 6.89897949 214.68030762 5.92504883 215.2878418 C5.03333984 215.84487793 4.14163086 216.40191406 3.22290039 216.97583008 C1.55202939 218.0149369 -0.12295983 219.04745829 -1.80249023 220.07250977 C-3.66151368 221.21166125 -5.4998836 222.38442947 -7.33276367 223.56518555 C-7.33276367 223.89518555 -7.33276367 224.22518555 -7.33276367 224.56518555 C29.29723633 224.56518555 65.92723633 224.56518555 103.66723633 224.56518555 C99.36184939 221.12054782 99.36184939 221.12054782 94.86645508 218.0769043 C93.78883911 217.39917969 93.78883911 217.39917969 92.68945312 216.70776367 C91.91899658 216.22758789 91.14854004 215.74741211 90.35473633 215.25268555 C89.13620972 214.48794922 89.13620972 214.48794922 87.89306641 213.70776367 C85.15342518 211.98986229 82.41065596 210.27704608 79.66723633 208.56518555 C76.46181712 206.56379444 73.25642939 204.56235331 70.05126953 202.56054688 C67.95683442 201.25314459 65.86164651 199.94694731 63.765625 198.64208984 C62.31506714 197.73777222 62.31506714 197.73777222 60.83520508 196.81518555 C59.9307666 196.25186523 59.02632813 195.68854492 58.09448242 195.1081543 C56.07701311 193.82567531 54.11245352 192.49928528 52.15551758 191.12768555 C48.06859909 188.56133171 46.15542034 189.655625 42.40551758 192.1003418 Z M-7.33276367 239.56518555 C-4.42487398 242.47307524 -2.69563215 244.14235516 0.65942383 246.08862305 C1.43616455 246.545354 2.21290527 247.00208496 3.01318359 247.47265625 C3.847771 247.95694092 4.6823584 248.44122559 5.54223633 248.94018555 C14.98671763 254.50956068 24.25194823 260.32704846 33.48364258 266.2409668 C34.74845459 267.0446167 34.74845459 267.0446167 36.03881836 267.86450195 C37.90705912 269.07332279 39.75519598 270.31346466 41.58862305 271.57446289 C42.55171387 272.22495605 43.51480469 272.87544922 44.50708008 273.5456543 C45.37582764 274.14659912 46.2445752 274.74754395 47.13964844 275.36669922 C50.25642558 276.84455675 51.44578412 276.7005634 54.66723633 275.56518555 C57.08883602 274.27845007 57.08883602 274.27845007 59.48364258 272.6081543 C60.40298584 271.99593018 61.3223291 271.38370605 62.26953125 270.75292969 C63.24639893 270.09284912 64.2232666 269.43276855 65.22973633 268.75268555 C72.83770483 263.69338951 80.48860093 258.77623563 88.35473633 254.12768555 C99.24740627 247.71154619 99.24740627 247.71154619 109.66723633 240.56518555 C109.66723633 240.23518555 109.66723633 239.90518555 109.66723633 239.56518555 C71.05723633 239.56518555 32.44723633 239.56518555 -7.33276367 239.56518555 Z M-29.33276367 244.56518555 C-31.31991114 246.55233302 -31.03409159 250.27547498 -31.36425781 253.00317383 C-31.46193954 253.78211502 -31.55962128 254.56105621 -31.66026306 255.36360168 C-31.98384203 257.95371247 -32.30105951 260.54455738 -32.61791992 263.13549805 C-32.84043843 264.93337098 -33.06321506 266.73121199 -33.28623962 268.52902222 C-33.75385739 272.30668698 -34.21834218 276.08472068 -34.68066406 279.86303711 C-35.27224742 284.6957027 -35.87146318 289.52738451 -36.47306156 294.35881233 C-36.93512802 298.07657237 -37.39311079 301.79482684 -37.84988213 305.51324081 C-38.06911145 307.29390715 -38.28959431 309.07441963 -38.51136971 310.85477066 C-38.82193808 313.35296982 -39.12699635 315.85178397 -39.43066406 318.35083008 C-39.5226004 319.08150192 -39.61453674 319.81217377 -39.70925903 320.56498718 C-40.23416163 324.94290432 -40.4157878 329.1672658 -40.33276367 333.56518555 C-36.54474698 332.16752322 -33.25519634 330.41607125 -29.82495117 328.29174805 C-28.76542236 327.63787109 -27.70589355 326.98399414 -26.61425781 326.31030273 C-25.47866219 325.60375381 -24.34316636 324.89704446 -23.20776367 324.19018555 C-22.03269988 323.4624078 -20.8574868 322.73487104 -19.68212891 322.00756836 C-10.63527774 316.40265946 -1.62677682 310.73736825 7.35668945 305.03149414 C11.51854742 302.39031504 15.68701043 299.75959124 19.85473633 297.12768555 C20.62100342 296.64332031 21.38727051 296.15895508 22.17675781 295.65991211 C26.99782321 292.61368985 31.82835485 289.5830267 36.66723633 286.56518555 C34.3429828 284.04195221 31.88161525 282.31880117 28.96801758 280.51831055 C28.01781738 279.92808105 27.06761719 279.33785156 26.08862305 278.72973633 C25.06269043 278.09793457 24.03675781 277.46613281 22.97973633 276.81518555 C20.80130126 275.46370307 18.62291732 274.11213819 16.44458008 272.76049805 C15.32422363 272.06730469 14.20386719 271.37411133 13.04956055 270.65991211 C7.7053554 267.35016185 2.37330405 264.02104142 -2.95776367 260.69018555 C-4.45388184 259.75662231 -4.45388184 259.75662231 -5.98022461 258.80419922 C-12.70235825 254.6037068 -19.38080135 250.34246056 -26.01635742 246.0065918 C-28.01956112 244.47713141 -28.01956112 244.47713141 -29.33276367 244.56518555 Z M120.06567383 251.3190918 C119.11200928 251.91915039 118.15834473 252.51920898 117.17578125 253.13745117 C116.14171143 253.79422852 115.1076416 254.45100586 114.04223633 255.12768555 C111.85873279 256.50413074 109.67513632 257.88042854 107.49145508 259.2565918 C106.3538907 259.97545419 105.21635835 260.69436727 104.07885742 261.41333008 C98.68474343 264.81952168 93.26807654 268.18967252 87.85473633 271.56518555 C80.43446262 276.19396352 73.03864105 280.85893031 65.66723633 285.56518555 C68.51888035 287.89001242 71.34918202 290.10088598 74.46801758 292.0534668 C75.18538086 292.50463867 75.90274414 292.95581055 76.6418457 293.4206543 C77.79910156 294.14188477 77.79910156 294.14188477 78.97973633 294.87768555 C79.80151367 295.39331055 80.62329102 295.90893555 81.4699707 296.44018555 C84.20025954 298.15195264 86.93351638 299.85890397 89.66723633 301.56518555 C91.63994725 302.798171 93.61260234 304.03124578 95.58520508 305.2644043 C98.62826828 307.16647199 101.67168456 309.06796084 104.71630859 310.9675293 C109.57896999 314.00262641 114.43572244 317.04623942 119.27661133 320.1159668 C120.14672852 320.66768555 121.0168457 321.2194043 121.91333008 321.7878418 C123.5368216 322.81867027 125.15928301 323.85112359 126.78051758 324.88549805 C127.50110352 325.34311523 128.22168945 325.80073242 128.96411133 326.2722168 C129.58640625 326.66900635 130.20870117 327.0657959 130.84985352 327.47460938 C132.74496473 328.61182886 134.68642137 329.58671474 136.66723633 330.56518555 C136.02068563 320.99279882 135.01663608 311.4845708 133.85473633 301.96362305 C133.67904327 300.50967256 133.50350926 299.05570285 133.328125 297.60171509 C132.96352448 294.58459019 132.59688494 291.5677222 132.22875977 288.55102539 C131.75728659 284.68584851 131.29127485 280.8200351 130.82676697 276.95401573 C130.46698649 273.96494374 130.10425512 270.97623557 129.7406311 267.98762894 C129.56745747 266.56118738 129.39522817 265.13463084 129.22396851 263.70795822 C128.98542306 261.72429201 128.7424502 259.74115971 128.49926758 257.75805664 C128.36238525 256.63144623 128.22550293 255.50483582 128.08447266 254.34408569 C127.73708299 251.48828904 127.73708299 251.48828904 126.66723633 248.56518555 C123.8428065 248.56518555 122.44944419 249.81070831 120.06567383 251.3190918 Z M44.96801758 298.3190918 C44.01822021 298.91874756 43.06842285 299.51840332 42.08984375 300.13623047 C41.0635083 300.79341064 40.03717285 301.45059082 38.97973633 302.12768555 C36.79496594 303.51069624 34.61006648 304.89350304 32.42504883 306.27612305 C31.29249675 306.99574716 30.16000993 307.715474 29.02758789 308.43530273 C23.8206471 311.73560435 18.5867206 314.99229661 13.35473633 318.25268555 C3.8191764 324.20960865 -5.70313016 330.18699242 -15.19604492 336.21166992 C-17.32192859 337.55832201 -19.45211422 338.89796522 -21.58276367 340.23706055 C-22.87461211 341.05448168 -24.16628925 341.87217362 -25.45776367 342.69018555 C-26.5740918 343.39401367 -27.69041992 344.0978418 -28.84057617 344.82299805 C-31.41156347 346.32541991 -31.41156347 346.32541991 -32.33276367 348.56518555 C-30.89163208 349.30454346 -30.89163208 349.30454346 -29.42138672 350.05883789 C2.62001326 366.50084671 2.62001326 366.50084671 12.91723633 371.94018555 C13.6156665 372.30853516 14.31409668 372.67688477 15.03369141 373.05639648 C18.23250117 374.74522054 21.42892701 376.43839176 24.62231445 378.13745117 C27.80107081 379.82720087 30.98392363 381.50903848 34.16723633 383.19018555 C35.16658203 383.72434082 36.16592773 384.25849609 37.19555664 384.80883789 C38.12464844 385.29819824 39.05374023 385.78755859 40.01098633 386.29174805 C41.25138672 386.95037842 41.25138672 386.95037842 42.5168457 387.62231445 C44.73381634 388.76596581 44.73381634 388.76596581 47.66723633 388.56518555 C49.83889825 387.66542512 49.83889825 387.66542512 52.18286133 386.3972168 C53.09156982 385.92324463 54.00027832 385.44927246 54.93652344 384.9609375 C55.92015869 384.43846436 56.90379395 383.91599121 57.91723633 383.37768555 C58.94792236 382.83523193 59.9786084 382.29277832 61.04052734 381.73388672 C68.90033692 377.56985613 76.64513197 373.22172514 84.3605957 368.79736328 C90.2296801 365.45148779 96.1497296 362.2214385 102.12426758 359.0690918 C102.85149521 358.68519791 103.57872284 358.30130402 104.32798767 357.90577698 C107.94540208 355.99901661 111.56727181 354.10122614 115.19433594 352.21289062 C116.52389387 351.51531237 117.85340457 350.8176441 119.18286133 350.11987305 C120.10002678 349.64723778 120.10002678 349.64723778 121.03572083 349.16505432 C123.99874762 347.60451828 126.47546702 346.12355321 128.66723633 343.56518555 C118.48542717 336.57569279 108.04427564 330.05286562 97.51196289 323.60571289 C90.82611153 319.51219668 84.1637701 315.38695174 77.54223633 311.19018555 C76.41350098 310.47644775 76.41350098 310.47644775 75.26196289 309.74829102 C71.51717874 307.37845501 67.7802638 304.9969483 64.05004883 302.60424805 C62.58919008 301.6744368 61.12825599 300.74474392 59.66723633 299.81518555 C59.00191895 299.38415527 58.33660156 298.953125 57.65112305 298.5090332 C52.30228315 295.1187651 50.24540513 294.95881471 44.96801758 298.3190918 Z M138.66723633 355.56518555 C138.12647461 355.86062256 137.58571289 356.15605957 137.02856445 356.46044922 C134.40835662 357.89162519 131.78782628 359.32220938 129.16723633 360.75268555 C128.17908936 361.29223877 127.19094238 361.83179199 126.17285156 362.38769531 C121.01191633 365.2034522 115.84694513 368.01121502 110.67114258 370.79956055 C99.42741156 376.85934952 88.24454279 383.00740918 77.15185547 389.34033203 C72.70888853 391.87248311 68.27504314 394.34547795 63.66723633 396.56518555 C64.33327913 399.58587374 64.33327913 399.58587374 66.31518555 400.66503906 C67.02690918 401.00462646 67.73863281 401.34421387 68.47192383 401.6940918 C69.27283447 402.08387207 70.07374512 402.47365234 70.89892578 402.87524414 C71.77121826 403.2885498 72.64351074 403.70185547 73.54223633 404.12768555 C75.3881407 405.02567527 77.23317386 405.92545778 79.07739258 406.8269043 C80.48529053 407.51212158 80.48529053 407.51212158 81.92163086 408.21118164 C85.9809627 410.21305381 89.9826426 412.31738446 93.97973633 414.44018555 C95.55254617 415.27372048 97.1254651 416.1070496 98.69848633 416.94018555 C99.50157227 417.36557617 100.3046582 417.7909668 101.13208008 418.22924805 C103.81555005 419.64334162 106.50592282 421.04348825 109.19848633 422.44018555 C120.15695164 428.12600612 131.05376058 433.89765051 141.83837891 439.90844727 C143.14005005 440.62798584 143.14005005 440.62798584 144.46801758 441.36206055 C145.23283447 441.78841797 145.99765137 442.21477539 146.78564453 442.65405273 C148.61881553 443.71046104 148.61881553 443.71046104 150.66723633 443.56518555 C149.14282097 427.158916 147.205828 410.80421744 145.20825195 394.45019531 C144.75078826 390.70101792 144.30299869 386.9507453 143.85708618 383.2001791 C143.50896282 380.28708036 143.15375236 377.37487781 142.79656982 374.46287727 C142.62803319 373.07851564 142.46218723 371.69382357 142.2991333 370.30880547 C142.07260605 368.39002341 141.83502794 366.47255567 141.59692383 364.55517578 C141.46527832 363.4674437 141.33363281 362.37971161 141.19799805 361.25901794 C140.80490313 358.35634467 140.80490313 358.35634467 138.66723633 355.56518555 Z M-44.33276367 359.56518555 C-45.66105819 370.22123304 -46.98279719 380.87807093 -48.29609013 391.53597832 C-48.90606199 396.48443737 -49.51831896 401.43259164 -50.13574219 406.38012695 C-50.7311101 411.15160467 -51.32054861 415.9237803 -51.90582085 420.6965065 C-52.13056274 422.52049203 -52.35746779 424.34421232 -52.5865345 426.16765976 C-52.90613308 428.7147094 -53.21814135 431.26257964 -53.52832031 433.81079102 C-53.62542297 434.57036102 -53.72252563 435.32993103 -53.8225708 436.11251831 C-54.40270588 439.94849428 -54.40270588 439.94849428 -53.33276367 443.56518555 C-37.06928256 434.9563706 -20.81178124 426.3418167 -4.68041992 417.48706055 C-0.74251274 415.32763492 3.21063855 413.19850338 7.17114258 411.08081055 C8.26426758 410.49460937 9.35739258 409.9084082 10.48364258 409.30444336 C12.59213798 408.17471102 14.70270552 407.04883449 16.81567383 405.92749023 C21.42656309 403.45202296 25.74063048 401.07802002 29.66723633 397.56518555 C14.57374687 389.13475007 -0.74644744 381.18190113 -16.14599609 373.32958984 C-17.67835316 372.54754092 -19.21066203 371.76539752 -20.74291992 370.9831543 C-21.8474778 370.4200782 -21.8474778 370.4200782 -22.97434998 369.84562683 C-28.68283375 366.92509367 -34.31755312 363.88437525 -39.92431641 360.7734375 C-42.18161816 359.41571582 -42.18161816 359.41571582 -44.33276367 359.56518555 Z " fill="#F1811D" transform="translate(132.332763671875,21.434814453125)"/>
<path d="M0 0 C2.20969173 1.63748684 2.91738286 2.50722156 3.37632751 5.24464417 C3.23219866 14.98408504 1.94672627 24.51682134 0.62890625 34.15234375 C0.38404035 35.98400997 0.13982471 37.81576322 -0.10377502 39.64759827 C-0.6127288 43.46306328 -1.12666103 47.27780929 -1.64477539 51.09204102 C-2.30815056 55.97566797 -2.96325608 60.86035612 -3.6152029 65.74552059 C-4.2396529 70.42313286 -4.86749753 75.10028709 -5.49609375 79.77734375 C-5.67479917 81.10865987 -5.67479917 81.10865987 -5.85711479 82.46687126 C-6.19514769 84.97938683 -6.53551232 87.49157445 -6.87670898 90.00366211 C-6.97597183 90.74294449 -7.07523468 91.48222687 -7.17750549 92.24391174 C-7.67101451 95.85816291 -8.23357112 99.43310036 -9 103 C-8.1862793 103.24387451 -7.37255859 103.48774902 -6.53417969 103.73901367 C-2.32102639 105.24225606 1.5615714 107.15637667 5.546875 109.17578125 C6.76373993 109.78633614 6.76373993 109.78633614 8.00518799 110.40922546 C10.58870514 111.7065521 13.16938757 113.00940653 15.75 114.3125 C17.46856321 115.1768038 19.18731154 116.04073961 20.90625 116.90429688 C24.17713015 118.54766526 27.4456679 120.19556591 30.71289062 121.84619141 C34.91466845 123.96535991 39.14213879 126.02956213 43.39160156 128.05151367 C45 129 45 129 46 131 C46.64686903 136.11966429 46.51720372 138.87834035 43.32421875 143.0078125 C42.1307671 144.39657752 40.91734107 145.76835485 39.6875 147.125 C38.3892047 148.62507401 37.09234616 150.12639263 35.796875 151.62890625 C35.15041016 152.3677002 34.50394531 153.10649414 33.83789062 153.86767578 C31.26490389 156.85285992 28.84443515 159.94308321 26.4375 163.0625 C22.52098107 168.09399319 18.53198389 173.06059819 14.5 178 C10.45017933 182.96232244 6.44194806 187.9515402 2.5 193 C-1.9820011 198.74010668 -6.55956557 204.39693246 -11.1640625 210.0390625 C-14.65530083 214.32451618 -18.09818888 218.64329453 -21.5 223 C-25.97685486 228.73351587 -30.54819433 234.38466093 -35.14868164 240.01928711 C-38.79603143 244.4948133 -42.38438797 249.0118942 -45.9375 253.5625 C-56.09273133 266.54636566 -56.09273133 266.54636566 -59 268 C-62.54231061 268.38503376 -64.36257342 268.41935959 -67.375 266.4375 C-69.63857492 263.04213762 -69.29653065 261.07317107 -69 257 C-68.19308614 253.57532041 -67.10292538 250.26262557 -65.9921875 246.92578125 C-65.6746048 245.94392349 -65.35702209 244.96206573 -65.02981567 243.95045471 C-63.98750779 240.73469639 -62.93123469 237.5237079 -61.875 234.3125 C-61.15124725 232.08710761 -60.42860296 229.86135444 -59.70703125 227.63525391 C-58.21960959 223.04839851 -56.72781451 218.46299893 -55.23339844 213.87841797 C-52.08386849 204.19890363 -49.00397155 194.49733032 -45.92633057 184.79476929 C-44.72296119 181.00178104 -43.51699505 177.20962073 -42.31100464 173.41746521 C-41.20678663 169.94515143 -40.1033694 166.47258352 -39 163 C-41.68643547 161.20904302 -43.85478024 160.20237062 -46.85107422 159.09228516 C-48.32808304 158.54128647 -48.32808304 158.54128647 -49.83493042 157.97915649 C-51.42871017 157.39005997 -51.42871017 157.39005997 -53.0546875 156.7890625 C-55.30089866 155.94823026 -57.54698868 155.10707432 -59.79296875 154.265625 C-63.33566125 152.94307221 -66.8793511 151.62338786 -70.42529297 150.30957031 C-73.84655297 149.04010905 -77.26333147 147.75915232 -80.6796875 146.4765625 C-81.73815887 146.08787994 -82.79663025 145.69919739 -83.88717651 145.29873657 C-94.15176639 141.4285874 -94.15176639 141.4285874 -97 138 C-97.86711897 133.02553331 -96.85672315 129.98687252 -94.08105469 125.81573486 C-93.64825195 125.20107361 -93.21544922 124.58641235 -92.76953125 123.953125 C-92.0897522 122.94629669 -92.0897522 122.94629669 -91.39624023 121.91912842 C-89.88312734 119.68560961 -88.34780306 117.46831084 -86.8125 115.25 C-85.72649095 113.65474597 -84.64213685 112.05836421 -83.55932617 110.4609375 C-81.24817721 107.05623828 -78.92831805 103.65772409 -76.6015625 100.26367188 C-71.23227614 92.42637479 -65.92468675 84.54743329 -60.6138916 76.67044067 C-58.80658001 73.99122401 -56.99671634 71.31374516 -55.18652344 68.63647461 C-44.78048469 53.23172354 -34.54318833 37.71786452 -24.36450195 22.16210938 C-23.48879547 20.82680428 -23.48879547 20.82680428 -22.59539795 19.46452332 C-21.51495767 17.81685286 -20.43660086 16.16781319 -19.36090088 14.51704407 C-16.91853231 10.79501175 -14.42315983 7.11700255 -11.81811523 3.5065918 C-11.11500465 2.53063301 -11.11500465 2.53063301 -10.39768982 1.53495789 C-7.33138654 -1.83248912 -4.03313757 -1.00828439 0 0 Z M-17 39 C-17.33281982 39.50184814 -17.66563965 40.00369629 -18.00854492 40.52075195 C-28.399004 56.17451539 -38.89610675 71.75525442 -49.40863037 87.32720947 C-58.98847726 101.51890258 -68.53654006 115.73035778 -78 130 C-74.75168398 132.16554402 -71.45764286 133.46342834 -67.83203125 134.828125 C-67.11955734 135.09961365 -66.40708344 135.37110229 -65.67301941 135.65081787 C-63.38749136 136.52070985 -61.1000298 137.3853876 -58.8125 138.25 C-57.32344081 138.81607255 -55.83450726 139.38247574 -54.34570312 139.94921875 C-53.61084686 140.22842163 -52.8759906 140.50762451 -52.11886597 140.79528809 C-50.6358649 141.35888831 -49.15321869 141.92342318 -47.67092896 142.4888916 C-43.93579252 143.90872438 -40.19305 145.29357701 -36.42333984 146.61914062 C-35.69193283 146.88063904 -34.96052582 147.14213745 -34.20695496 147.41156006 C-32.82394659 147.90459896 -31.43728403 148.3875498 -30.04658508 148.85845947 C-27.36166998 149.82357048 -25.19008394 150.8410064 -22.99536133 152.67675781 C-19.98409805 159.70525458 -24.81927376 169.17772908 -27.0703125 175.92578125 C-27.68208916 177.79637912 -28.29385599 179.66698028 -28.90502739 181.53777599 C-30.18934952 185.46152474 -31.48603635 189.38120302 -32.78283691 193.30084229 C-33.85634755 196.54620273 -34.92661466 199.79253199 -35.98751831 203.04203796 C-36.78188425 205.47305625 -37.58402053 207.90155162 -38.39456177 210.32722473 C-38.75178314 211.42233871 -39.10900452 212.5174527 -39.47705078 213.64575195 C-39.79602325 214.60979446 -40.11499573 215.57383698 -40.44363403 216.5670929 C-41.24902934 219.11917626 -41.24902934 219.11917626 -40 222 C-39.35675781 221.175 -38.71351563 220.35 -38.05078125 219.5 C-32.92933907 212.94824513 -27.75819219 206.44263942 -22.5 200 C-18.45022347 195.03763969 -14.44194911 190.04846114 -10.5 185 C-6.55804999 179.95153771 -2.54971933 174.9624075 1.5 170 C6.56384319 163.79415584 11.54238881 157.52796112 16.4765625 151.21875 C19.94714487 146.78278725 23.4704841 142.38914012 27 138 C23.75125955 135.37315846 20.34824218 133.55919954 16.609375 131.70703125 C15.99158676 131.39962006 15.37379852 131.09220886 14.73728943 130.77548218 C13.42140069 130.12134739 12.1045974 129.46904966 10.78695679 128.81845093 C8.74180882 127.80845479 6.69933119 126.79323526 4.6574707 125.77661133 C-1.0543317 122.93488732 -6.7726995 120.10709924 -12.50390625 117.3046875 C-13.25317383 116.93625732 -14.00244141 116.56782715 -14.77441406 116.18823242 C-16.09529254 115.5396602 -17.41872668 114.89625694 -18.74511719 114.2590332 C-22.88824373 112.22351253 -22.88824373 112.22351253 -24 110 C-24.04109666 95.08191107 -20.91032966 79.90781487 -18.86035156 65.17675781 C-18.36657746 61.61608733 -17.88197719 58.05426003 -17.3984375 54.4921875 C-17.24329681 53.3974411 -17.08815613 52.3026947 -16.92831421 51.17477417 C-16.79132111 50.15916412 -16.654328 49.14355408 -16.51318359 48.09716797 C-16.32784561 46.76152298 -16.32784561 46.76152298 -16.13876343 45.39889526 C-16.00058763 43.01015874 -16.28223442 41.26823805 -17 39 Z " fill="#EC5123" transform="translate(458,12)"/>
</svg>
