<?xml version="1.0" encoding="UTF-8"?>
<svg version="1.1" xmlns="http://www.w3.org/2000/svg" width="512" height="512">
<path d="M0 0 C0.87398438 0.36222656 1.74796875 0.72445313 2.6484375 1.09765625 C18.44751235 8.2680056 29.24027557 21.35961009 36 37 C38.75675624 44.66175398 39.4304671 51.90084132 39 60 C39.98226562 60.12955078 39.98226562 60.12955078 40.984375 60.26171875 C57.94680801 62.87316677 73.4323788 71.78110488 83.6875 85.6875 C91.93803398 98.15923741 95.36550002 109.84099801 95.25 124.625 C95.25773437 125.62273437 95.26546875 126.62046875 95.2734375 127.6484375 C95.25885948 133.15892884 94.83689165 137.79547366 93 143 C90.36 142.67 87.72 142.34 85 142 C84.74605469 142.59167969 84.49210937 143.18335938 84.23046875 143.79296875 C83.71419922 144.97826172 83.71419922 144.97826172 83.1875 146.1875 C82.85105469 146.96480469 82.51460938 147.74210938 82.16796875 148.54296875 C80.93329684 151.14032203 79.51443291 153.55694634 78 156 C78.62865967 155.97905273 79.25731934 155.95810547 79.9050293 155.93652344 C99.01337762 155.38422873 114.03108273 156.61047 128.75 170.25 C140.28223548 182.69485844 143.92527586 196.56195487 143.40625 213.140625 C143.01944703 219.46336585 141.3990299 225.13094472 139 231 C139.57105469 231.2578125 140.14210938 231.515625 140.73046875 231.78125 C152.36549897 238.02932131 159.3697433 250.09362562 164 262 C164.48146484 263.17175781 164.48146484 263.17175781 164.97265625 264.3671875 C170.14680931 279.43239594 168.08514062 297.67126956 161.6796875 311.94140625 C152.78652345 329.41185693 138.35868602 340.63130609 120 346.9375 C101.7447778 351.26466378 83.95810012 347.72454484 67.83984375 338.78125 C65.04447191 337.02789435 62.52881789 335.11585497 60 333 C56.25993035 336.70809928 55.54244112 339.2648394 55.49694824 344.30744934 C55.51392761 345.51071114 55.51392761 345.51071114 55.53125 346.73828125 C55.52420044 347.57787888 55.51715088 348.4174765 55.5098877 349.28251648 C55.48050901 352.85802292 55.49697348 356.43297867 55.50927734 360.00854492 C55.51167245 362.62711518 55.49066064 365.24481903 55.46875 367.86328125 C55.48572937 369.05743401 55.48572937 369.05743401 55.50305176 370.27571106 C55.44443336 376.85462953 53.44859885 381.75846111 49.4921875 386.99609375 C43.51669002 392.32208063 31.29829557 401 23 401 C23.05800781 401.54785156 23.11601562 402.09570312 23.17578125 402.66015625 C23.90485454 415.47101555 18.44970777 427.62058203 10.44946289 437.39599609 C3.82360673 444.72829776 -3.97814488 449.681291 -12.53198242 454.43945312 C-14.4651583 455.51539368 -16.38825855 456.60787053 -18.31054688 457.703125 C-27.68741628 463 -27.68741628 463 -30 463 C-29.60619141 463.95777344 -29.21238281 464.91554688 -28.80664062 465.90234375 C-27.33892137 469.48247924 -25.88972614 473.06987761 -24.44580078 476.65966797 C-23.82023939 478.20758524 -23.18977849 479.75353236 -22.55419922 481.29736328 C-21.63751447 483.5264758 -20.73912272 485.76225569 -19.84375 488 C-19.55939087 488.68054443 -19.27503174 489.36108887 -18.98205566 490.06225586 C-17.07032155 494.91068106 -16.40487868 498.78249803 -17 504 C-18.5892334 506.20202637 -18.5892334 506.20202637 -21 508 C-24.1875 508.50793457 -24.1875 508.50793457 -28 508.51757812 C-28.69641602 508.5245874 -29.39283203 508.53159668 -30.11035156 508.53881836 C-32.40730932 508.55639196 -34.70303021 508.54477919 -37 508.53125 C-38.59896073 508.53394513 -40.19791987 508.53782773 -41.796875 508.54284668 C-45.14599226 508.54874082 -48.49468243 508.54018192 -51.84375 508.52148438 C-56.13478591 508.49869435 -60.42482111 508.51181796 -64.71582031 508.53577423 C-68.01700366 508.5502348 -71.31795011 508.54562515 -74.61914062 508.53526306 C-76.20117308 508.53259646 -77.78322711 508.53586322 -79.36523438 508.54518127 C-81.57740163 508.55535179 -83.787953 508.5398419 -86 508.51757812 C-87.8871875 508.51280457 -87.8871875 508.51280457 -89.8125 508.50793457 C-93.56936769 507.90927011 -94.765197 507.02960921 -97 504 C-97.45410156 500.97558594 -97.45410156 500.97558594 -97.390625 497.484375 C-97.37773437 496.23398437 -97.36484375 494.98359375 -97.3515625 493.6953125 C-97.30128906 491.74238281 -97.30128906 491.74238281 -97.25 489.75 C-97.23195312 488.43257813 -97.21390625 487.11515625 -97.1953125 485.7578125 C-97.14816271 482.50447692 -97.08236044 479.25260375 -97 476 C-94.36 476 -91.72 476 -89 476 C-89 470.72 -89 465.44 -89 460 C-91.64 460 -94.28 460 -97 460 C-97.33 456.7 -97.66 453.4 -98 450 C-98.69971924 449.70343506 -99.39943848 449.40687012 -100.12036133 449.10131836 C-103.35544134 447.72338922 -106.58390355 446.33054923 -109.8125 444.9375 C-110.91271484 444.47150391 -112.01292969 444.00550781 -113.14648438 443.52539062 C-122.60931568 439.422039 -132.18203986 434.97426304 -138.875 426.875 C-144.62686582 420.02962357 -149.18520621 416.08656252 -157.46484375 412.75 C-158.37577286 412.3694043 -159.28670197 411.98880859 -160.22523499 411.59667969 C-163.12460738 410.3860254 -166.03015633 409.19137232 -168.9375 408 C-171.84099564 406.80803102 -174.74260694 405.61232576 -177.63905334 404.40332031 C-179.43682074 403.65298236 -181.23862114 402.91221121 -183.04490662 402.18261719 C-189.81127585 399.359952 -195.28027343 396.17256436 -198.875 389.5 C-199.28492188 388.7678125 -199.69484375 388.035625 -200.1171875 387.28125 C-201.11335303 384.70708774 -201.16382289 382.73680599 -201 380 C-201.58265625 380.04640625 -202.1653125 380.0928125 -202.765625 380.140625 C-215.59146018 380.70528441 -225.64112957 375.5119061 -235.0703125 367.16796875 C-237.68876277 364.65359914 -239.69894122 362.6424463 -241.25390625 359.32421875 C-242.84705868 356.65337023 -242.84705868 356.65337023 -246.1875 356.43359375 C-247.445625 356.43488281 -248.70375 356.43617188 -250 356.4375 C-262.43376655 356.08122304 -271.39642001 351.9174135 -279.97265625 342.93359375 C-285.28932655 336.62357528 -288.70608993 329.48212854 -289.25 321.1875 C-290.25626417 316.91087728 -292.21662814 316.03671965 -295.7421875 313.6484375 C-304.78680622 307.04492695 -310.74756265 296.88678052 -313 286 C-314.92344689 273.33114311 -313.52947511 260.62540518 -306.5 249.66015625 C-302.16697545 243.79251884 -296.61402852 237.30701426 -290 234 C-289.45313234 231.52511891 -289.45313234 231.52511891 -289.125 228.5625 C-286.8887145 214.15467584 -279.64978648 203.70408191 -268 195 C-259.44264283 189.8367554 -251.26138053 187.60986287 -241.3125 187.625 C-240.43561523 187.62371094 -239.55873047 187.62242187 -238.65527344 187.62109375 C-231.47647286 187.73743527 -225.57804151 189.00511931 -219 192 C-218.505 191.278125 -218.01 190.55625 -217.5 189.8125 C-212.98461732 184.73269448 -207.89112013 181.51683401 -201 181 C-201 178.03 -201 175.06 -201 172 C-202.10794922 171.79697266 -202.10794922 171.79697266 -203.23828125 171.58984375 C-215.96402017 168.88946459 -226.08499631 162.18690283 -233.71875 151.62109375 C-241.33005616 139.70044514 -243.20642983 126.96625465 -240.71875 113.13671875 C-237.78344099 100.32664736 -230.45475958 90.83679196 -220 83 C-213.91926911 79.22707406 -208.0183197 77.24518575 -201 76 C-201.04640625 75.41734375 -201.0928125 74.8346875 -201.140625 74.234375 C-201.70741982 61.36003543 -196.45024169 51.65205558 -188.34375 42.03515625 C-181.51692341 34.67699646 -172.83268292 29.93310564 -163 28 C-159.10650553 27.87380795 -155.26088579 28.13984951 -151.375 28.375 C-143.90224657 28.76179397 -143.90224657 28.76179397 -137.08203125 26.25390625 C-135.14446404 23.97683479 -135.14446404 23.97683479 -133.59765625 21.44921875 C-127.7524556 12.48848327 -113.84389871 6.79765859 -103.73828125 4.50390625 C-92.58036354 2.99986092 -79.863697 2.34018523 -69.21875 6.44140625 C-62.5785232 8.11315349 -56.78996208 4.02715981 -51.18554688 0.97070312 C-36.26310918 -6.87332753 -15.30098968 -6.72449835 0 0 Z " fill="#010100" transform="translate(329,4)"/>
<path d="M0 0 C10.37463338 7.61033962 17.58358274 18.0825205 20.375 30.7421875 C20.70916572 35.27377882 20.74083673 39.81301791 20.765625 44.35546875 C20.78882813 45.26167969 20.81203125 46.16789062 20.8359375 47.1015625 C20.84415527 47.92108398 20.85237305 48.74060547 20.86083984 49.58496094 C21.20553298 51.89965351 21.20553298 51.89965351 23.21704102 53.49536133 C26.11474693 55.16959869 28.61618107 55.34941109 31.9375 55.6796875 C46.17830127 57.4967192 58.27125563 63.41801767 67.375 74.7421875 C75.05504939 86.41344366 77.58752017 97.85169913 76.375 111.7421875 C75.76943115 113.7615267 75.11814098 115.76932513 74.375 117.7421875 C76.685 118.0721875 78.995 118.4021875 81.375 118.7421875 C82.93107096 123.41040038 80.48415638 126.50278318 78.375 130.7421875 C77.88773437 131.76892578 77.88773437 131.76892578 77.390625 132.81640625 C75.97074977 135.59214595 74.73698162 137.50086642 72.125 139.2421875 C67.78295085 140.03165098 63.70419422 139.38489047 59.4921875 138.22265625 C43.74876673 133.93180235 27.23984684 136.58619567 13.125 144.4296875 C-2.48558533 153.63167133 -12.21582831 166.9163053 -17.375 184.1796875 C-18.85689566 189.97331347 -19.32343053 195.78359063 -19.625 201.7421875 C-22.22697202 202.74824343 -24.83129362 203.74721275 -27.4375 204.7421875 C-28.17548828 205.02835938 -28.91347656 205.31453125 -29.67382812 205.609375 C-30.38603516 205.88007813 -31.09824219 206.15078125 -31.83203125 206.4296875 C-32.81393433 206.80673828 -32.81393433 206.80673828 -33.81567383 207.19140625 C-35.625 207.7421875 -35.625 207.7421875 -38.625 207.7421875 C-39.7734375 206.30859375 -39.7734375 206.30859375 -41 204.3046875 C-48.62535119 193.68567992 -61.77187279 187.76132178 -74.1875 184.9296875 C-92.22459809 183.94584579 -107.95866988 186.81487056 -121.9375 198.9921875 C-123.92634788 200.8833513 -125.57797159 202.67599055 -127.16796875 204.9140625 C-128.625 206.7421875 -128.625 206.7421875 -131.625 207.7421875 C-133.01939664 207.80884126 -134.41669875 207.82756949 -135.8125 207.8046875 C-137.070625 207.7840625 -138.32875 207.7634375 -139.625 207.7421875 C-139.625 205.1021875 -139.625 202.4621875 -139.625 199.7421875 C-140.635625 199.7834375 -141.64625 199.8246875 -142.6875 199.8671875 C-146.80576052 199.73644907 -149.74330533 199.00967964 -153.625 197.7421875 C-153.955 200.0521875 -154.285 202.3621875 -154.625 204.7421875 C-159.59806516 204.24488098 -163.26299813 203.18916416 -167.625 200.7421875 C-167.10231534 197.97942573 -166.51630413 195.4160999 -165.625 192.7421875 C-166.27726562 192.1853125 -166.92953125 191.6284375 -167.6015625 191.0546875 C-177.8014815 182.14856354 -186.28417455 172.38104464 -187.41015625 158.3046875 C-187.52379165 156.11818576 -187.61611455 153.9304761 -187.6875 151.7421875 C-187.76521033 149.53317593 -187.85948634 147.32466651 -187.97265625 145.1171875 C-188.00367432 144.15554687 -188.03469238 143.19390625 -188.06665039 142.203125 C-188.41832519 139.61381245 -188.41832519 139.61381245 -190.4855957 137.94091797 C-193.25797687 136.38752398 -195.59433827 136.17895167 -198.75 135.8671875 C-208.7407665 134.46870395 -215.54321245 131.00453 -221.9296875 123.10546875 C-227.9435845 114.7220409 -229.22373107 105.87253555 -227.625 95.7421875 C-224.75176461 86.25508953 -218.91689345 79.24467485 -210.28125 74.4375 C-204.4657928 71.85075443 -198.61362057 70.99335169 -192.3125 70.33203125 C-189.29241858 69.99492446 -189.29241858 69.99492446 -187.625 66.7421875 C-187.58449362 63.84308776 -187.63491694 61.00945254 -187.75 58.1171875 C-187.87887709 51.11209403 -187.61808782 45.72559946 -183.625 39.7421875 C-183.20089844 39.04996094 -182.77679688 38.35773437 -182.33984375 37.64453125 C-178.11025377 31.34138183 -172.55452897 27.66329055 -165.8125 24.3671875 C-158.1251859 22.85987101 -151.06572102 23.40784365 -143.625 25.7421875 C-140.04038144 26.32588193 -140.04038144 26.32588193 -136.625 25.7421875 C-133.95836666 23.74552017 -133.95836666 23.74552017 -131.625 20.7421875 C-122.58977373 10.11379331 -113.1112341 1.39251797 -98.625 -0.2578125 C-89.43251158 -0.92118795 -79.89048109 -0.41950629 -71.51171875 3.80859375 C-68.20251071 5.44606937 -65.1456739 5.54621683 -61.625 4.7421875 C-59.05214731 3.20020845 -56.73549699 1.44822468 -54.3515625 -0.37109375 C-37.57570619 -11.97960177 -16.75221098 -10.79228976 0 0 Z " fill="#43843A" transform="translate(331.625,24.2578125)"/>
<path d="M0 0 C5.54206156 1.70893541 10.27286366 0.52160283 15.4609375 -1.7265625 C23.9424518 -5.13265771 33.12668476 -3.70746776 41.34765625 -0.29296875 C51.26115464 4.44257015 57.74579767 11.64454505 61.7109375 21.8359375 C64.04456007 31.21473706 63.34605262 41.26927794 58.62109375 49.8046875 C58.25886719 50.3925 57.89664062 50.9803125 57.5234375 51.5859375 C55.53184274 55.15707293 54.92764626 56.83244893 55.7109375 60.8359375 C58.35754745 64.25091808 61.50047207 66.39417522 65.0859375 68.7109375 C75.57106079 75.58528985 83.1251082 85.80745322 86.2734375 98.0859375 C88.57328272 112.54210748 85.80550299 125.3582508 77.5546875 137.40234375 C69.71158259 147.75457756 58.63403462 154.74030013 45.7109375 156.8359375 C31.57643782 157.77108336 20.38208797 155.38355892 8.7109375 146.8359375 C5.51152447 144.01264594 2.43494266 141.12579881 -0.2890625 137.8359375 C-0.2890625 137.1759375 -0.2890625 136.5159375 -0.2890625 135.8359375 C-1.70060349 135.55845508 -3.11886049 135.31500234 -4.5390625 135.0859375 C-5.32796875 134.94671875 -6.116875 134.8075 -6.9296875 134.6640625 C-9.42661558 134.62586065 -9.42661558 134.62586065 -11.4140625 136.49609375 C-13.35374825 138.91665993 -14.67433871 141.24180931 -16.0390625 144.0234375 C-24.09177003 159.14239589 -36.76063926 166.58043982 -52.578125 171.953125 C-57.68416954 173.16782612 -62.65061933 173.15991574 -67.88085938 173.13867188 C-72.78861774 173.23578717 -72.78861774 173.23578717 -76.66796875 176.109375 C-77.20292969 177.00914062 -77.73789062 177.90890625 -78.2890625 178.8359375 C-78.75828125 179.55394531 -79.2275 180.27195312 -79.7109375 181.01171875 C-80.14921875 181.71683594 -80.5875 182.42195312 -81.0390625 183.1484375 C-88.85344564 194.81198461 -99.5732122 201.62390153 -113.2890625 204.8359375 C-128.090533 206.08016592 -141.43475735 203.24438069 -152.9921875 193.57421875 C-157.99147192 188.80693705 -161.83083344 183.93361414 -165.1328125 177.8671875 C-166.24681414 175.70170787 -166.24681414 175.70170787 -168.2890625 173.8359375 C-174.29860177 172.94089974 -178.22780191 175.01248303 -183.6015625 177.58984375 C-194.99632223 182.87316985 -207.5784243 181.63828052 -219.2890625 177.8359375 C-231.0769389 173.0481003 -240.01214228 164.38054663 -245.2890625 152.8359375 C-245.74732422 151.89234375 -245.74732422 151.89234375 -246.21484375 150.9296875 C-251.06765914 140.44208646 -250.81380812 127.23074313 -247.2265625 116.3984375 C-244.78310665 110.34142018 -241.69862614 105.61935545 -237.2890625 100.8359375 C-236.77859375 100.22363281 -236.268125 99.61132812 -235.7421875 98.98046875 C-229.28920061 91.74481761 -219.70000033 86.84623207 -210.2890625 84.8359375 C-205.99095291 84.64630196 -201.70484536 84.83681749 -197.40820312 85.00195312 C-192.45745312 85.13834521 -192.45745312 85.13834521 -187.79296875 83.7109375 C-185.7716115 81.19080379 -185.19718264 78.90218892 -184.4140625 75.7734375 C-181.12816378 64.35525661 -175.41452798 55.80889998 -165.14453125 49.5234375 C-155.6064857 44.56292432 -145.78533703 43.1763849 -135.18359375 45.5234375 C-123.56859599 49.45517158 -114.62243599 56.48439466 -108.8515625 67.3359375 C-108.54347656 68.00625 -108.23539063 68.6765625 -107.91796875 69.3671875 C-105.61108434 71.44725594 -103.45749789 71.32790245 -100.44946289 71.19140625 C-96.79407239 70.58995427 -93.90822881 68.91259869 -90.7265625 67.0859375 C-84.00826773 63.44426738 -77.65743844 61.33121862 -70.203125 59.72265625 C-66.99576521 59.08340406 -66.99576521 59.08340406 -65.2890625 55.8359375 C-65.07854242 53.78932094 -65.07854242 53.78932094 -65.234375 51.5546875 C-65.27570557 50.29954346 -65.27570557 50.29954346 -65.31787109 49.01904297 C-65.36548584 47.69090576 -65.36548584 47.69090576 -65.4140625 46.3359375 C-65.54580567 38.38176663 -65.06919705 31.99581852 -61.2890625 24.8359375 C-60.65291016 23.5675 -60.65291016 23.5675 -60.00390625 22.2734375 C-53.44266183 10.28408836 -43.6981119 2.78784778 -30.984375 -2.0390625 C-20.53425757 -4.87833969 -9.96624152 -3.76739961 0 0 Z " fill="#5CB24E" transform="translate(393.2890625,179.1640625)"/>
<path d="M0 0 C5.54206156 1.70893541 10.27286366 0.52160283 15.4609375 -1.7265625 C23.9424518 -5.13265771 33.12668476 -3.70746776 41.34765625 -0.29296875 C51.26115464 4.44257015 57.74579767 11.64454505 61.7109375 21.8359375 C64.04456007 31.21473706 63.34605262 41.26927794 58.62109375 49.8046875 C58.25886719 50.3925 57.89664062 50.9803125 57.5234375 51.5859375 C55.53602434 55.14957489 55.01548469 56.83708386 55.7109375 60.8359375 C56.3915625 61.6609375 57.0721875 62.4859375 57.7734375 63.3359375 C59.7109375 65.8359375 59.7109375 65.8359375 59.8359375 68.5859375 C55.81572722 80.19987829 46.45116698 88.47394699 35.7109375 93.8359375 C24.95303097 98.6943469 9.85058705 98.45832714 -1.2890625 94.8359375 C-9.39828961 91.22533096 -16.53775306 86.57542279 -23.2890625 80.8359375 C-23.52753906 81.55007813 -23.76601563 82.26421875 -24.01171875 83 C-28.76289619 93.5484857 -39.502917 101.30050995 -50.05078125 105.3359375 C-56.76211349 107.69598439 -62.68279737 109.00967404 -69.8515625 109.0859375 C-74.56084773 109.20992925 -74.56084773 109.20992925 -78.3984375 111.640625 C-79.53895508 113.1944494 -80.62562953 114.78917408 -81.65625 116.41796875 C-85.95239919 122.77996958 -93.2906859 126.97296525 -100.2890625 129.8359375 C-100.9903125 130.135 -101.6915625 130.4340625 -102.4140625 130.7421875 C-114.49488676 135.15005581 -128.66535926 133.94975995 -140.2890625 128.8359375 C-148.59489438 124.66087267 -157.03331498 118.34743255 -161.2890625 109.8359375 C-161.81113281 110.02929688 -162.33320313 110.22265625 -162.87109375 110.421875 C-178.90447685 116.09392997 -194.36712024 116.93539087 -210.01171875 109.55078125 C-216.12286944 106.15989547 -222.33910657 101.67456131 -226.2890625 95.8359375 C-226.25390625 93.1953125 -226.25390625 93.1953125 -225.2890625 90.8359375 C-223.6875 89.54296875 -223.6875 89.54296875 -221.6640625 88.6484375 C-220.68566406 88.19404297 -220.68566406 88.19404297 -219.6875 87.73046875 C-211.95819741 84.84771583 -205.52657834 84.68993435 -197.40820312 85.00195312 C-192.45745312 85.13834521 -192.45745312 85.13834521 -187.79296875 83.7109375 C-185.7716115 81.19080379 -185.19718264 78.90218892 -184.4140625 75.7734375 C-181.12816378 64.35525661 -175.41452798 55.80889998 -165.14453125 49.5234375 C-155.6064857 44.56292432 -145.78533703 43.1763849 -135.18359375 45.5234375 C-123.56859599 49.45517158 -114.62243599 56.48439466 -108.8515625 67.3359375 C-108.54347656 68.00625 -108.23539062 68.6765625 -107.91796875 69.3671875 C-105.61108434 71.44725594 -103.45749789 71.32790245 -100.44946289 71.19140625 C-96.79407239 70.58995427 -93.90822881 68.91259869 -90.7265625 67.0859375 C-84.00826773 63.44426738 -77.65743844 61.33121862 -70.203125 59.72265625 C-66.99576521 59.08340406 -66.99576521 59.08340406 -65.2890625 55.8359375 C-65.07854242 53.78932094 -65.07854242 53.78932094 -65.234375 51.5546875 C-65.27570557 50.29954346 -65.27570557 50.29954346 -65.31787109 49.01904297 C-65.36548584 47.69090576 -65.36548584 47.69090576 -65.4140625 46.3359375 C-65.54580567 38.38176663 -65.06919705 31.99581852 -61.2890625 24.8359375 C-60.65291016 23.5675 -60.65291016 23.5675 -60.00390625 22.2734375 C-53.44266183 10.28408836 -43.6981119 2.78784778 -30.984375 -2.0390625 C-20.53425757 -4.87833969 -9.96624152 -3.76739961 0 0 Z " fill="#7AC14E" transform="translate(393.2890625,179.1640625)"/>
<path d="M0 0 C10.37463338 7.61033962 17.58358274 18.0825205 20.375 30.7421875 C20.70916572 35.27377882 20.74083673 39.81301791 20.765625 44.35546875 C20.78882813 45.26167969 20.81203125 46.16789062 20.8359375 47.1015625 C20.84415527 47.92108398 20.85237305 48.74060547 20.86083984 49.58496094 C21.20553298 51.89965351 21.20553298 51.89965351 23.21704102 53.49536133 C26.11474693 55.16959869 28.61618107 55.34941109 31.9375 55.6796875 C41.02651692 56.82409025 49.02018894 59.17638454 56.375 64.7421875 C53.4209634 66.34912871 50.63737095 67.26336836 47.375 68.0546875 C35.51163089 71.25291317 26.87313725 76.17637864 17.375 83.7421875 C16.385 84.4021875 15.395 85.0621875 14.375 85.7421875 C13.80394531 85.23429687 13.23289062 84.72640625 12.64453125 84.203125 C-2.20946679 71.59257659 -17.71677664 68.49660882 -36.625 69.7421875 C-50.16318583 71.56942731 -62.211061 79.17641078 -71.625 88.7421875 C-75.71756514 87.20362918 -79.50521679 85.27167381 -83.375 83.2421875 C-95.95672093 76.90016862 -109.88177761 75.48153854 -123.5625 79.3671875 C-135.95378514 83.79044476 -146.58538969 91.55595742 -153.625 102.7421875 C-154.66398437 102.18789062 -155.70296875 101.63359375 -156.7734375 101.0625 C-169.85304258 94.21486814 -181.01332695 90.80063413 -195.75 94.3046875 C-196.48138184 94.47814697 -197.21276367 94.65160645 -197.96630859 94.83032227 C-208.24840024 97.4593548 -217.15566319 102.3901849 -225.625 108.7421875 C-226.285 108.7421875 -226.945 108.7421875 -227.625 108.7421875 C-228.4754238 98.97806239 -227.26901701 91.87655428 -221.625 83.7421875 C-213.58315298 74.38300935 -204.26158151 71.58612117 -192.3125 70.33203125 C-189.29241858 69.99492446 -189.29241858 69.99492446 -187.625 66.7421875 C-187.58449362 63.84308776 -187.63491694 61.00945254 -187.75 58.1171875 C-187.87887709 51.11209403 -187.61808782 45.72559946 -183.625 39.7421875 C-183.20089844 39.04996094 -182.77679688 38.35773437 -182.33984375 37.64453125 C-178.11025377 31.34138183 -172.55452897 27.66329055 -165.8125 24.3671875 C-158.1251859 22.85987101 -151.06572102 23.40784365 -143.625 25.7421875 C-140.04038144 26.32588193 -140.04038144 26.32588193 -136.625 25.7421875 C-133.95836666 23.74552017 -133.95836666 23.74552017 -131.625 20.7421875 C-122.58977373 10.11379331 -113.1112341 1.39251797 -98.625 -0.2578125 C-89.43251158 -0.92118795 -79.89048109 -0.41950629 -71.51171875 3.80859375 C-68.20251071 5.44606937 -65.1456739 5.54621683 -61.625 4.7421875 C-59.05214731 3.20020845 -56.73549699 1.44822468 -54.3515625 -0.37109375 C-37.57570619 -11.97960177 -16.75221098 -10.79228976 0 0 Z " fill="#5CB24E" transform="translate(331.625,24.2578125)"/>
<path d="M0 0 C0.80244141 0.90685547 0.80244141 0.90685547 1.62109375 1.83203125 C2.40806641 2.63060547 2.40806641 2.63060547 3.2109375 3.4453125 C10.16273125 10.85702136 13.80235454 19.75797923 14.62109375 29.83203125 C14.5157553 31.95217128 14.36182653 34.07043993 14.16015625 36.18359375 C14.0617041 37.24658691 13.96325195 38.30958008 13.86181641 39.40478516 C13.78237793 40.20577637 13.70293945 41.00676758 13.62109375 41.83203125 C12.90155518 41.81108398 12.1820166 41.79013672 11.44067383 41.76855469 C-7.4266566 40.92776777 -7.4266566 40.92776777 -25.37890625 45.83203125 C-26.31863281 46.25226563 -27.25835937 46.6725 -28.2265625 47.10546875 C-31.54900958 48.68303355 -34.58929731 50.16413467 -37.40625 52.546875 C-39.37890625 53.83203125 -39.37890625 53.83203125 -41.19921875 53.7578125 C-43.68120259 52.70363657 -46.00925091 51.4389958 -48.34912109 50.1015625 C-66.01095709 40.06858927 -85.66535969 37.58580556 -105.56640625 42.39453125 C-128.9382838 49.93044667 -143.07964599 64.74213131 -154.37890625 85.83203125 C-154.70890625 85.83203125 -155.03890625 85.83203125 -155.37890625 85.83203125 C-155.50265625 85.25195312 -155.62640625 84.671875 -155.75390625 84.07421875 C-157.28678856 78.26842701 -159.25598425 75.34793628 -164.27734375 72.04296875 C-179.45795479 63.29577651 -200.94167347 63.40023882 -217.59008789 67.47827148 C-222.68070426 68.8833784 -227.60451382 70.51961566 -232.51171875 72.46875 C-237.73889804 74.4531778 -242.86065586 74.73546162 -248.37890625 73.83203125 C-251.00390625 71.39453125 -251.00390625 71.39453125 -252.37890625 68.83203125 C-255.02190485 67.51053195 -257.44232629 67.42832606 -260.37890625 67.08203125 C-270.40991518 65.54475425 -277.18279421 62.11548266 -283.68359375 54.24609375 C-286.77995134 49.83699469 -289.37890625 45.29686003 -289.37890625 39.83203125 C-286.99456711 37.66498 -284.1330295 36.11630964 -281.37890625 34.45703125 C-280.5703418 33.96605957 -279.76177734 33.47508789 -278.92871094 32.96923828 C-265.45197318 25.07932607 -249.80029157 20.63081099 -234.24609375 23.92578125 C-228.2997525 25.80527876 -222.85849508 28.89338079 -217.37890625 31.83203125 C-216.71890625 32.16203125 -216.05890625 32.49203125 -215.37890625 32.83203125 C-215.05019531 32.34734375 -214.72148437 31.86265625 -214.3828125 31.36328125 C-205.71292701 19.14555644 -193.32425261 10.43648156 -178.37890625 7.83203125 C-163.89548512 6.39916548 -151.71902044 8.99100778 -139.19140625 16.40625 C-136.30982461 18.13347254 -136.30982461 18.13347254 -132.37890625 17.83203125 C-130.48649007 16.34486618 -130.48649007 16.34486618 -128.62890625 14.33203125 C-124.53199978 10.520009 -120.34231593 7.94452635 -115.37890625 5.45703125 C-114.40099121 4.95719727 -114.40099121 4.95719727 -113.40332031 4.44726562 C-100.95648741 -1.58718696 -84.2227706 -2.6243928 -71.05859375 1.72265625 C-62.1771125 5.3995377 -53.75240114 9.58058993 -46.37890625 15.83203125 C-45.940625 15.40792969 -45.50234375 14.98382813 -45.05078125 14.546875 C-36.05803862 6.23041586 -26.10485809 1.16142201 -14.37890625 -2.16796875 C-13.13753906 -2.61076172 -13.13753906 -2.61076172 -11.87109375 -3.0625 C-6.40326094 -4.79552497 -4.01111557 -4.10375103 0 0 Z " fill="#51A046" transform="translate(393.37890625,93.16796875)"/>
<path d="M0 0 C3.92897808 6.30208085 2.66545858 15.44158974 1.34765625 22.48828125 C-2.60683394 36.65995211 -10.78567657 47.46438635 -23.5078125 54.71484375 C-34.15164268 60.20359004 -46.39364495 61.8732738 -58.140625 59.31640625 C-68.75354483 55.66252956 -77.82022869 49.67122139 -85 41 C-85 40.34 -85 39.68 -85 39 C-86.41154099 38.72251758 -87.82979799 38.47906484 -89.25 38.25 C-90.03890625 38.11078125 -90.8278125 37.9715625 -91.640625 37.828125 C-94.13755308 37.78992315 -94.13755308 37.78992315 -96.125 39.66015625 C-98.06468575 42.08072243 -99.38527621 44.40587181 -100.75 47.1875 C-108.80270753 62.30645839 -121.47157676 69.74450232 -137.2890625 75.1171875 C-142.39510704 76.33188862 -147.36155683 76.32397824 -152.59179688 76.30273438 C-157.49955524 76.39984967 -157.49955524 76.39984967 -161.37890625 79.2734375 C-161.91386719 80.17320312 -162.44882812 81.07296875 -163 82 C-163.46921875 82.71800781 -163.9384375 83.43601562 -164.421875 84.17578125 C-164.86015625 84.88089844 -165.2984375 85.58601563 -165.75 86.3125 C-173.56438314 97.97604711 -184.2841497 104.78796403 -198 108 C-212.8014705 109.24422842 -226.14569485 106.40844319 -237.703125 96.73828125 C-242.70240942 91.97099955 -246.54177094 87.09767664 -249.84375 81.03125 C-250.95775164 78.86577037 -250.95775164 78.86577037 -253 77 C-259.00953927 76.10496224 -262.93873941 78.17654553 -268.3125 80.75390625 C-279.70725973 86.03723235 -292.2893618 84.80234302 -304 81 C-315.7878764 76.2121628 -324.72307978 67.54460913 -330 56 C-330.30550781 55.3709375 -330.61101562 54.741875 -330.92578125 54.09375 C-333.89047836 47.68663207 -334.14378203 41.54022531 -334.0625 34.625 C-334.05798828 33.88894531 -334.05347656 33.15289062 -334.04882812 32.39453125 C-334.03715142 30.59631842 -334.01922011 28.79814803 -334 27 C-329.3648743 31.60370112 -329.3648743 31.60370112 -327.3671875 33.7734375 C-317.9987547 43.82856171 -305.00394897 50.46315238 -291.21484375 51.203125 C-279.54617751 51.41436575 -269.71678149 49.78834918 -259 45 C-258.01 45 -257.02 45 -256 45 C-254.421875 47.16015625 -254.421875 47.16015625 -252.75 50.0625 C-245.19969607 62.31216323 -233.72336429 70.59159887 -219.70703125 74.37109375 C-202.68434994 77.2590302 -186.92063788 74.89242431 -172.49609375 65.01171875 C-167.5172285 60.99901828 -162.52270742 56.29586015 -159.8125 50.4296875 C-158.46413035 47.51758361 -157.5644996 45.97470838 -155 44 C-150.99891735 42.99455425 -146.914326 42.83392788 -142.80932617 42.59033203 C-126.61131125 41.6209556 -113.21452699 34.14203646 -102.04296875 22.44140625 C-97.9308255 17.52727712 -94.03729896 12.11189689 -92 6 C-91.34 6 -90.68 6 -90 6 C-88.95244255 7.14576596 -87.96190283 8.3439356 -87 9.5625 C-78.92308877 18.96894394 -66.56065859 26.05405517 -54.02392578 27.17700195 C-34.14737212 27.76297975 -19.97451808 23.74089552 -5.03125 10.05078125 C-1.86873772 6.8578602 -0.70749742 4.36290075 0 0 Z " fill="#43843A" transform="translate(478,276)"/>
<path d="M0 0 C0.87398437 0.36222656 1.74796875 0.72445313 2.6484375 1.09765625 C18.44751235 8.2680056 29.24027557 21.35961009 36 37 C38.75675624 44.66175398 39.4304671 51.90084132 39 60 C39.98226562 60.12955078 39.98226562 60.12955078 40.984375 60.26171875 C57.94680801 62.87316677 73.4323788 71.78110488 83.6875 85.6875 C91.93803398 98.15923741 95.36550002 109.84099801 95.25 124.625 C95.25773437 125.62273437 95.26546875 126.62046875 95.2734375 127.6484375 C95.25885948 133.15892884 94.83689165 137.79547366 93 143 C92.14728516 142.70996094 92.14728516 142.70996094 91.27734375 142.4140625 C86.54635062 140.81863577 81.81205575 139.33099414 77 138 C77.15984375 137.13503906 77.3196875 136.27007812 77.484375 135.37890625 C79.66413911 121.09484601 77.28152063 106.96625007 69 95 C61.71654778 85.64840702 50.77993007 79.33984783 39.08984375 77.25 C36.11519721 76.89415443 33.1339661 76.66101343 30.140625 76.5390625 C26.77235992 75.69084976 25.3059619 74.63141607 23 72 C22.3275441 68.64930123 22.40335713 65.34495879 22.4375 61.9375 C22.28121648 53.91380854 21.77552768 47.23743326 18 40 C17.56558594 39.1440625 17.13117188 38.288125 16.68359375 37.40625 C9.78463514 24.92421045 -0.10109465 18.35935702 -13.453125 13.828125 C-26.693119 10.73684887 -38.91009195 13.28764121 -50.5 20.0625 C-52.79410055 21.50395985 -54.94724275 22.95755394 -57.05859375 24.65625 C-60.21550985 26.84131869 -63.3589588 26.56853467 -67 26 C-69.85662595 25.11180538 -72.61312773 24.09252874 -75.38671875 22.97265625 C-86.66925226 18.77332763 -99.00681347 20.53628584 -109.8125 25.21875 C-119.48881742 30.05690871 -125.95339055 37.20493171 -132 46 C-135.94138612 47.97069306 -140.10229835 47.28163189 -144.1875 46 C-152.01901352 43.94583252 -159.64114542 43.96876583 -166.90625 47.74609375 C-167.5971875 48.15988281 -168.288125 48.57367188 -169 49 C-170.06734375 49.63615234 -170.06734375 49.63615234 -171.15625 50.28515625 C-176.55536639 53.90135547 -179.36343536 58.1239354 -182 64 C-182.37511719 64.72960937 -182.75023437 65.45921875 -183.13671875 66.2109375 C-184.58598119 70.89317 -184.04064005 75.63968182 -183.83398438 80.49414062 C-183.75387636 83.8227667 -183.74239962 86.36304281 -185 89.47265625 C-188.04430903 91.79750943 -191.36770544 91.94571602 -195.0625 92.375 C-204.81270746 93.81124455 -212.6058894 97.05304234 -218.75 105.1171875 C-219.1625 105.73851563 -219.575 106.35984375 -220 107 C-220.4125 107.62132813 -220.825 108.24265625 -221.25 108.8828125 C-225.0840359 115.88525306 -225.23829811 124.24617069 -224 132 C-221.17862727 141.10253098 -216.01682487 147.78445097 -207.6171875 152.2734375 C-202.51134586 154.53025151 -197.89957014 155.45752635 -192.32421875 155.53125 C-188.71719013 156.25871796 -187.3877529 157.14130622 -185 160 C-184.2690244 163.89643489 -184.27097895 167.79420309 -184.1875 171.75 C-183.47051203 185.78723277 -180.24033834 196.01196732 -170.25 206.25 C-168.84519392 207.51331482 -167.42913861 208.76427864 -166 210 C-164.02 211.98 -164.02 211.98 -162 214 C-164.31 217.96 -166.62 221.92 -169 226 C-174.14683503 224.97063299 -176.24975035 223.50593534 -179.875 220.0625 C-180.4016626 219.56814453 -180.9283252 219.07378906 -181.47094727 218.56445312 C-192.40114036 208.03596942 -200.17999072 193.58535979 -201.1796875 178.2421875 C-201.18621283 176.16060666 -201.1039497 174.07899395 -201 172 C-202.10794922 171.79697266 -202.10794922 171.79697266 -203.23828125 171.58984375 C-215.96402017 168.88946459 -226.08499631 162.18690283 -233.71875 151.62109375 C-241.33005616 139.70044514 -243.20642983 126.96625465 -240.71875 113.13671875 C-237.78344099 100.32664736 -230.45475958 90.83679196 -220 83 C-213.91926911 79.22707406 -208.0183197 77.24518575 -201 76 C-201.04640625 75.41734375 -201.0928125 74.8346875 -201.140625 74.234375 C-201.70741982 61.36003543 -196.45024169 51.65205558 -188.34375 42.03515625 C-181.51692341 34.67699646 -172.83268292 29.93310564 -163 28 C-159.10650553 27.87380795 -155.26088579 28.13984951 -151.375 28.375 C-143.90224657 28.76179397 -143.90224657 28.76179397 -137.08203125 26.25390625 C-135.14446404 23.97683479 -135.14446404 23.97683479 -133.59765625 21.44921875 C-127.7524556 12.48848327 -113.84389871 6.79765859 -103.73828125 4.50390625 C-92.58036354 2.99986092 -79.863697 2.34018523 -69.21875 6.44140625 C-62.5785232 8.11315349 -56.78996208 4.02715981 -51.18554688 0.97070312 C-36.26310918 -6.87332753 -15.30098968 -6.72449835 0 0 Z " fill="#000100" transform="translate(329,4)"/>
<path d="M0 0 C2.80241637 1.40120818 2.86058572 2.89034653 3.8828125 5.8203125 C4.24173584 6.82425049 4.60065918 7.82818848 4.97045898 8.86254883 C5.35145752 9.93915771 5.73245605 11.0157666 6.125 12.125 C10.09508616 23.0559111 14.52696167 33.2904425 21 43 C20.43152344 43.40089844 19.86304687 43.80179688 19.27734375 44.21484375 C7.32670514 53.0132271 0.71717586 64.35375937 -2 79 C-2.28139813 81.86127232 -2.33398161 84.68870306 -2.3125 87.5625 C-2.30831055 88.34117432 -2.30412109 89.11984863 -2.29980469 89.92211914 C-2.09351446 100.70078366 0.09153828 110.83014533 4.42578125 120.73046875 C5 123 5 123 4.34765625 125.0859375 C2.81561386 127.26188176 1.18492738 128.75457819 -0.875 130.4375 C-3.46193722 132.58400884 -5.11184374 134.16776562 -7 137 C-9 139 -9 139 -10.875 139.046875 C-13 138.75 -13 138.75 -15 138.296875 C-17.31742794 137.95288179 -18.75156077 138.38717352 -21 139 C-28.14401108 139.67668428 -34.16287802 139.45808705 -40 135 C-48.06030309 127.45509817 -50.13442685 121.58485973 -50.55859375 110.70703125 C-51.06072083 107.62761474 -51.52686659 106.82142933 -54 105 C-55.41696796 104.21189592 -56.85679552 103.46402431 -58.3125 102.75 C-66.10110909 98.50166777 -70.14207058 92.29532333 -73 84 C-75.15709785 74.99771164 -74.75430247 67.02196547 -70 59 C-65.27379227 51.46803207 -59.55102533 47.44177961 -52 43 C-50.15164517 41.15164517 -50.78029776 37.98167714 -50.6875 35.5 C-50.03587187 25.76507067 -46.77738688 18.10653149 -40 11 C-31.16207678 3.84397958 -23.21856862 2.30551718 -12 3 C-8.90936102 3.49246445 -6.02625443 4.17932083 -3 5 C-2.01 3.35 -1.02 1.7 0 0 Z " fill="#2E5123" transform="translate(106,205)"/>
<path d="M0 0 C10.4567765 7.67059592 17.41411392 18.05267573 20.375 30.7421875 C20.60546875 34.09375 20.60546875 34.09375 20.5625 37.3671875 C20.55283203 38.99527344 20.55283203 38.99527344 20.54296875 40.65625 C20.39052221 43.4570121 20.0086582 46.0149226 19.375 48.7421875 C17.52396039 46.96234172 15.72872598 45.20169006 14.16015625 43.1640625 C6.40060871 33.17786218 -6.37362538 27.10444848 -18.625 24.7421875 C-34.1240346 22.96895449 -47.47990556 26.13355286 -60.2578125 35.2890625 C-62.87192241 36.89376363 -64.56784185 37.52781361 -67.625 37.7421875 C-70.4921875 37 -70.4921875 37 -73.5 35.8671875 C-87.69934506 30.84546791 -102.46251217 31.77818724 -116.19042969 38.10083008 C-126.40936315 43.13446824 -132.80461112 49.01949244 -138.625 58.7421875 C-139.470625 58.5978125 -140.31625 58.4534375 -141.1875 58.3046875 C-155.80205363 55.91321509 -168.04224395 55.9643966 -180.625 64.7421875 C-187.11420175 70.414721 -192.8754833 78.33434751 -193.90234375 87.11328125 C-193.93457031 87.81582031 -193.96679688 88.51835938 -194 89.2421875 C-194.20625 90.3971875 -194.4125 91.5521875 -194.625 92.7421875 C-197.10288654 94.22891942 -198.90831363 94.92064661 -201.625 95.7421875 C-209.56428099 98.67079836 -216.31842732 102.26337409 -223.2265625 107.16796875 C-225.625 108.7421875 -225.625 108.7421875 -227.625 108.7421875 C-228.4754238 98.97806239 -227.26901701 91.87655428 -221.625 83.7421875 C-213.58315298 74.38300935 -204.26158151 71.58612117 -192.3125 70.33203125 C-189.29241858 69.99492446 -189.29241858 69.99492446 -187.625 66.7421875 C-187.58449362 63.84308776 -187.63491694 61.00945254 -187.75 58.1171875 C-187.87887709 51.11209403 -187.61808782 45.72559946 -183.625 39.7421875 C-183.20089844 39.04996094 -182.77679688 38.35773437 -182.33984375 37.64453125 C-178.11025377 31.34138183 -172.55452897 27.66329055 -165.8125 24.3671875 C-158.1251859 22.85987101 -151.06572102 23.40784365 -143.625 25.7421875 C-140.04038144 26.32588193 -140.04038144 26.32588193 -136.625 25.7421875 C-133.95836666 23.74552017 -133.95836666 23.74552017 -131.625 20.7421875 C-122.58977373 10.11379331 -113.1112341 1.39251797 -98.625 -0.2578125 C-89.43251158 -0.92118795 -79.89048109 -0.41950629 -71.51171875 3.80859375 C-68.20251071 5.44606937 -65.1456739 5.54621683 -61.625 4.7421875 C-59.05214731 3.20020845 -56.73549699 1.44822468 -54.3515625 -0.37109375 C-37.57570619 -11.97960177 -16.75221098 -10.79228976 0 0 Z " fill="#79C04E" transform="translate(331.625,24.2578125)"/>
<path d="M0 0 C0.20753906 0.84820312 0.41507813 1.69640625 0.62890625 2.5703125 C5.08622789 19.54170453 12.51171235 34.6092961 28 44 C28.99 44.33 29.98 44.66 31 45 C31.28875 44.21625 31.5775 43.4325 31.875 42.625 C33 40 33 40 35 38 C35 38.66 35 39.32 35 40 C39.30322683 41.46939453 43.62297367 42.77443263 48 44 C48.33 41.69 48.66 39.38 49 37 C53.62 37.66 58.24 38.32 63 39 C63 41.64 63 44.28 63 47 C67.95 46.505 67.95 46.505 73 46 C71.56229049 49.83389204 69.80169455 53.41563869 67.90234375 57.03515625 C66.99429098 59.01243132 66.49899086 60.88842008 66 63 C65.42668945 63.06469482 64.85337891 63.12938965 64.26269531 63.19604492 C44.78977284 65.47101029 27.07818101 70.22843564 14 86 C3.07522414 100.77923748 -1.32736369 116.70726919 0 135 C2.23678478 149.01485462 8.22450483 160.08814833 17 171 C18.00566165 172.32906826 19.00810518 173.6606261 20 175 C14.06135497 180.73386416 6.17970391 183.17759506 -1.9375 183.625 C-10.73199782 183.3272696 -18.55033365 178.78541499 -25 173 C-26.73046875 170.5625 -26.73046875 170.5625 -28.1875 168 C-28.67605469 167.154375 -29.16460937 166.30875 -29.66796875 165.4375 C-30.82911472 163.31270503 -31.93745429 161.17544904 -33 159 C-31.23304141 157.03804598 -29.46168211 155.08040373 -27.6875 153.125 C-27.18798828 152.56941406 -26.68847656 152.01382813 -26.17382812 151.44140625 C-23.8912844 148.93211977 -21.83639832 146.89093222 -19 145 C-19.18175781 144.40574219 -19.36351563 143.81148437 -19.55078125 143.19921875 C-20.95094291 138.58227542 -22.31912271 133.95704877 -23.625 129.3125 C-23.86476563 128.46300781 -24.10453125 127.61351562 -24.3515625 126.73828125 C-28.18211088 110.56229081 -27.28441882 92.62608844 -18.55078125 78.16015625 C-14.1215837 71.99051836 -9.01397098 66.62694598 -3 62 C-3.3403125 61.55914062 -3.680625 61.11828125 -4.03125 60.6640625 C-11.97291577 49.63866481 -16.72654358 36.4042927 -21.08984375 23.625 C-21.91500382 21.06205291 -21.91500382 21.06205291 -23 19 C-19.55221559 10.17136378 -14.61797368 4.80898684 -6.25 0.625 C-4 0 -4 0 0 0 Z " fill="#223C1A" transform="translate(129,185)"/>
<path d="M0 0 C0.01401855 1.20160767 0.01401855 1.20160767 0.02832031 2.42749023 C0.08238939 6.09809119 0.1659674 9.76746762 0.25 13.4375 C0.26417969 14.69755859 0.27835938 15.95761719 0.29296875 17.25585938 C0.52491324 26.13933337 1.5907879 32.85366097 7.3125 39.8125 C12.95858365 44.40814948 19.41860542 47.16666717 26.07421875 49.96875 C27.81067818 50.71193286 29.54700236 51.4554318 31.28320312 52.19921875 C33.99389011 53.35499718 36.70577794 54.50772399 39.42016602 55.65478516 C42.05854784 56.77181991 44.69160914 57.90069168 47.32421875 59.03125 C48.13469162 59.36991089 48.94516449 59.70857178 49.78019714 60.05749512 C56.49427542 62.95550822 59.76170061 66.02936758 63.1015625 72.63671875 C63.66987793 73.76029785 64.23819336 74.88387695 64.82373047 76.04150391 C65.42509463 77.2563706 66.02549748 78.47171356 66.625 79.6875 C66.93036682 80.30083191 67.23573364 80.91416382 67.550354 81.54608154 C84 114.65917274 84 114.65917274 84 122 C69.48 122 54.96 122 40 122 C40 116.72 40 111.44 40 106 C37.36 106 34.72 106 32 106 C32 100.72 32 95.44 32 90 C34.64 90 37.28 90 40 90 C39.94802079 86.91530294 39.85292865 83.83338441 39.75 80.75 C39.73582031 79.87730469 39.72164062 79.00460937 39.70703125 78.10546875 C39.65869141 76.83896484 39.65869141 76.83896484 39.609375 75.546875 C39.58842773 74.77182617 39.56748047 73.99677734 39.54589844 73.19824219 C38.7793065 70.11130401 37.46503741 68.98422319 35 67 C32.08527012 65.47203558 32.08527012 65.47203558 28.80078125 64.1953125 C27.59099609 63.69386719 26.38121094 63.19242187 25.13476562 62.67578125 C23.86114063 62.15771311 22.58704846 61.64079205 21.3125 61.125 C5.51788184 54.73208597 -6.20511141 48.57771181 -13.8359375 32.8671875 C-15.66068737 28.37266936 -16.12463656 24.30994336 -16.09765625 19.48046875 C-16.09443359 18.45888672 -16.09121094 17.43730469 -16.08789062 16.38476562 C-16.07951172 15.32966797 -16.07113281 14.27457031 -16.0625 13.1875 C-16.05798828 12.11306641 -16.05347656 11.03863281 -16.04882812 9.93164062 C-16.03707729 7.28770317 -16.02064787 4.64388048 -16 2 C-13.70858188 1.66496236 -11.41685737 1.33201958 -9.125 1 C-7.21074219 0.7215625 -7.21074219 0.7215625 -5.2578125 0.4375 C-2 0 -2 0 0 0 Z " fill="#704125" transform="translate(208,374)"/>
<path d="M0 0 C0.07467117 5.79831185 0.12884674 11.59633806 0.16479492 17.39501953 C0.17979561 19.36381919 0.20020283 21.33258593 0.22631836 23.30126953 C0.26308815 26.14624198 0.27981387 28.99076913 0.29296875 31.8359375 C0.30845261 32.70302338 0.32393646 33.57010925 0.33988953 34.46347046 C0.34207851 42.57934575 -1.47768156 50.2149803 -5.75 57.1875 C-6.19859375 57.94417969 -6.6471875 58.70085937 -7.109375 59.48046875 C-13.40946783 67.87625362 -21.40347136 72.45535728 -30.4375 77.4375 C-31.7551544 78.17536701 -33.0722172 78.91429151 -34.38867188 79.65429688 C-37.58572189 81.44843673 -40.79053156 83.22814911 -44 85 C-46.30298944 82.13113079 -47.87083084 79.33644971 -49.34765625 75.97265625 C-49.78916016 75.01552734 -50.23066406 74.05839844 -50.68554688 73.07226562 C-51.59735654 71.07921784 -52.48836939 69.0765128 -53.35742188 67.06445312 C-56.84915961 59.63639303 -60.3905923 56.85516901 -68 54 C-69.11632812 53.47792969 -70.23265625 52.95585937 -71.3828125 52.41796875 C-72.28773438 52.01191406 -73.19265625 51.60585938 -74.125 51.1875 C-75.05570312 50.76855469 -75.98640625 50.34960938 -76.9453125 49.91796875 C-77.62335938 49.61503906 -78.30140625 49.31210937 -79 49 C-77.7934375 48.071875 -77.7934375 48.071875 -76.5625 47.125 C-73.68366173 44.73767071 -73.12639415 44.03924083 -72.68359375 40.3984375 C-72.60238281 39.40070313 -72.52117187 38.40296875 -72.4375 37.375 C-72.35371094 36.37210937 -72.26992188 35.36921875 -72.18359375 34.3359375 C-72.12300781 33.56507813 -72.06242187 32.79421875 -72 32 C-70.98421875 31.96261719 -69.9684375 31.92523438 -68.921875 31.88671875 C-57.19169635 31.36445537 -46.81815357 29.46027023 -35.9609375 24.76953125 C-34 24 -34 24 -32 24 C-31.86440325 26.56428515 -31.76566812 29.12135216 -31.6875 31.6875 C-31.64560547 32.40873047 -31.60371094 33.12996094 -31.56054688 33.87304688 C-31.46894397 37.88525415 -31.64781158 39.52868903 -34.125 42.84375 C-37.11790577 45.08842933 -39.826685 46.47180192 -43.3125 47.8125 C-44.38113281 48.23144531 -45.44976562 48.65039062 -46.55078125 49.08203125 C-47.35902344 49.38496094 -48.16726563 49.68789063 -49 50 C-49 53.90775329 -48.47934752 55.73654963 -47 59.25 C-46.62875 60.14203125 -46.2575 61.0340625 -45.875 61.953125 C-45.58625 62.62859375 -45.2975 63.3040625 -45 64 C-42.45449157 63.09304925 -39.91398944 62.17488582 -37.375 61.25 C-36.66214844 60.99734375 -35.94929688 60.7446875 -35.21484375 60.484375 C-26.98205949 57.46316977 -21.87790337 53.80312176 -17.90112305 45.78417969 C-16.7674375 42.28145684 -16.77715597 39.02678297 -16.83203125 35.390625 C-16.82635125 33.89843113 -16.81914091 32.40624244 -16.81054688 30.9140625 C-16.80638716 28.58560325 -16.81237339 26.25890931 -16.84545898 23.93066406 C-16.94785081 15.40224073 -16.91298708 8.35089996 -11.3815918 1.36230469 C-7.7247212 -0.72947778 -4.1178437 -0.27103697 0 0 Z " fill="#704126" transform="translate(336,368)"/>
<path d="M0 0 C0.33 0 0.66 0 1 0 C1.21914062 1.23234375 1.43828125 2.4646875 1.6640625 3.734375 C3.3757843 12.82829947 5.15909644 20.630925 9.92578125 28.65234375 C11 31 11 31 10.93359375 33.22265625 C10 35 10 35 8.109375 35.90625 C7.33078125 36.1021875 6.5521875 36.298125 5.75 36.5 C1.71248908 37.66182747 -0.81504487 39.20110004 -4 42 C-4.66 42 -5.32 42 -6 42 C-6.42925781 42.87011719 -6.42925781 42.87011719 -6.8671875 43.7578125 C-7.56805523 45.14504726 -8.29737563 46.51877938 -9.0703125 47.8671875 C-13.04296734 55.42994523 -13.37415281 63.71371828 -11.234375 71.9453125 C-8.37472963 79.54833789 -5.00498877 83.88638292 2.390625 87.30078125 C2.92171875 87.53152344 3.4528125 87.76226562 4 88 C3.84144531 88.56203125 3.68289062 89.1240625 3.51953125 89.703125 C0.82207094 99.41994337 -1.57641075 109.21215144 -4 119 C-10.60483848 112.61887379 -11.20962627 107.65635843 -11.55859375 98.70703125 C-12.06072083 95.62761474 -12.52686659 94.82142933 -15 93 C-16.41696796 92.21189592 -17.85679552 91.46402431 -19.3125 90.75 C-27.10110909 86.50166777 -31.14207058 80.29532333 -34 72 C-36.15709785 62.99771164 -35.75430247 55.02196547 -31 47 C-26.27379227 39.46803207 -20.55102533 35.44177961 -13 31 C-11.15164517 29.15164517 -11.78029776 25.98167714 -11.6875 23.5 C-11.16360938 15.57716192 -9.69588888 10.01682803 -4.375 4.0625 C-3.199375 3.0415625 -3.199375 3.0415625 -2 2 C-1.34 1.34 -0.68 0.68 0 0 Z " fill="#38612B" transform="translate(67,217)"/>
<path d="M0 0 C5.54206156 1.70893541 10.27286366 0.52160283 15.4609375 -1.7265625 C23.9424518 -5.13265771 33.12668476 -3.70746776 41.34765625 -0.29296875 C50.31573172 3.99095491 56.64058543 10.35472051 60.84375 19.32421875 C62.12082308 23.02312861 62.06991281 25.9590042 61.7109375 29.8359375 C60.256875 28.5365625 60.256875 28.5365625 58.7734375 27.2109375 C47.85930622 17.9218479 37.31207732 13.17813218 22.7734375 14.0859375 C22.09603516 14.11300781 21.41863281 14.14007813 20.72070312 14.16796875 C17.11194804 14.38248727 14.27125976 14.89199032 10.98046875 16.42578125 C7.68063371 17.84900759 6.66105132 18.14851963 3.3359375 17.1484375 C2.56894531 16.94089844 1.80195313 16.73335937 1.01171875 16.51953125 C0.25246094 16.29394531 -0.50679688 16.06835938 -1.2890625 15.8359375 C-17.42265987 11.26525607 -32.53608835 14.1047293 -47.08203125 21.9453125 C-54.10989481 26.08841355 -58.85613922 31.04802372 -63.2890625 37.8359375 C-65.1321764 32.16677335 -62.58251415 27.47243001 -60.06640625 22.34375 C-53.35876758 10.34847416 -43.80648366 2.82899231 -30.984375 -2.0390625 C-20.53425757 -4.87833969 -9.96624152 -3.76739961 0 0 Z " fill="#8CDD59" transform="translate(393.2890625,179.1640625)"/>
<path d="M0 0 C7.71682872 4.75481366 13.16321021 10.99059465 16.94140625 19.2109375 C19.24167704 21.28504257 21.38189727 21.182686 24.38354492 21.04833984 C28.16975912 20.41004762 31.20609794 18.62842092 34.5078125 16.7421875 C40.30619989 13.61624122 44.85496385 11.6796875 51.5703125 11.6796875 C51.5703125 16.9596875 51.5703125 22.2396875 51.5703125 27.6796875 C48.7859375 28.205625 48.7859375 28.205625 45.9453125 28.7421875 C39.08115504 30.28511763 33.57041145 32.9785092 27.46875 36.3515625 C24.5703125 37.6796875 24.5703125 37.6796875 21.5703125 36.6796875 C20.2109375 34.859375 20.2109375 34.859375 18.8203125 32.5546875 C11.3748601 21.13350809 0.89713239 14.81104496 -12.4296875 11.6796875 C-26.39425498 10.34232358 -39.10140393 13.27290864 -50.4296875 21.6796875 C-52.91348533 23.89109858 -55.19657752 26.21819127 -57.4296875 28.6796875 C-58.0896875 29.3396875 -58.7496875 29.9996875 -59.4296875 30.6796875 C-59.98268674 21.83169973 -55.90112155 14.45187369 -50.79296875 7.4296875 C-37.4275229 -7.06842325 -16.82152988 -9.14095997 0 0 Z " fill="#8CDD59" transform="translate(268.4296875,229.3203125)"/>
<path d="M0 0 C0.14695313 1.16015625 0.14695313 1.16015625 0.296875 2.34375 C1.48362817 10.61009969 2.59859328 17.68921522 9.53417969 22.95263672 C14.01616737 26.20274268 18.71626887 28.31284351 23.828125 30.3828125 C24.73955261 30.76436493 25.65098022 31.14591736 26.59002686 31.53903198 C29.47237075 32.74505933 32.36035078 33.93659313 35.25 35.125 C38.15369228 36.32106303 41.05569009 37.52051217 43.95281982 38.73239136 C45.74747245 39.48307399 47.54589575 40.22482291 49.34844971 40.95632935 C56.49170245 43.94344194 59.7391528 46.9699036 63.2421875 53.98828125 C64.12559814 55.75075195 64.12559814 55.75075195 65.02685547 57.54882812 C65.64365078 58.80301826 66.25968672 60.05758211 66.875 61.3125 C67.3427182 62.25766479 67.3427182 62.25766479 67.81988525 63.22192383 C80 87.84456436 80 87.84456436 80 95 C75.03605995 95.4052196 71.91532736 94.82860764 67.67578125 92.4609375 C63.02434127 88.40583598 61.23212104 83.35191934 59.9375 77.5 C59.46474924 75.50349035 58.99095774 73.50719605 58.50439453 71.51400757 C58 69 58 69 57.69482422 65.74893188 C57.02014242 60.47789012 56.49627482 56.40206428 52.51185608 52.66851807 C49.1550754 50.66673989 45.72736838 49.00696009 42.16015625 47.4296875 C40.87140531 46.81377162 39.58492509 46.19308415 38.30064392 45.56790161 C34.93374958 43.94314517 31.54205996 42.37929464 28.14056396 40.82855225 C24.01194735 38.93407175 19.91403177 36.97433909 15.81413174 35.01867867 C12.62454833 33.49775755 9.43117234 31.9888485 6.21925354 30.51559448 C5.06803513 29.98048248 3.91681671 29.44537048 2.73071289 28.89404297 C1.71828018 28.4299704 0.70584747 27.96589783 -0.33726501 27.48776245 C-4.28131296 25.28408598 -6.56105498 23.31683507 -8 19 C-8.17066284 16.87930439 -8.2662598 14.75204902 -8.3125 12.625 C-8.34988281 11.50351562 -8.38726562 10.38203125 -8.42578125 9.2265625 C-7.91371636 5.34614414 -6.70908823 3.76437575 -4 1 C-2 0 -2 0 0 0 Z " fill="#976746" transform="translate(208,393)"/>
<path d="M0 0 C0.13559675 2.56428515 0.23433188 5.12135216 0.3125 7.6875 C0.35439453 8.40873047 0.39628906 9.12996094 0.43945312 9.87304688 C0.53105603 13.88525415 0.35218842 15.52868903 -2.125 18.84375 C-5.11790577 21.08842933 -7.826685 22.47180192 -11.3125 23.8125 C-12.38113281 24.23144531 -13.44976562 24.65039062 -14.55078125 25.08203125 C-15.35902344 25.38496094 -16.16726563 25.68789063 -17 26 C-17 27.32 -17 28.64 -17 30 C-17 31.32 -17 32.64 -17 34 C-19.34999765 35.47962815 -20.55876095 36.05634396 -23.35546875 35.69921875 C-26.03528639 34.99067022 -28.17822988 34.04294207 -30.625 32.75 C-36.00034967 29.9732757 -41.47705913 27.46747358 -47 25 C-46.195625 24.38125 -45.39125 23.7625 -44.5625 23.125 C-41.68366173 20.73767071 -41.12639415 20.03924083 -40.68359375 16.3984375 C-40.60238281 15.40070313 -40.52117187 14.40296875 -40.4375 13.375 C-40.35371094 12.37210937 -40.26992188 11.36921875 -40.18359375 10.3359375 C-40.12300781 9.56507813 -40.06242187 8.79421875 -40 8 C-38.98421875 7.96261719 -37.9684375 7.92523438 -36.921875 7.88671875 C-25.19169635 7.36445537 -14.81815357 5.46027023 -3.9609375 0.76953125 C-2 0 -2 0 0 0 Z " fill="#FBFBFB" transform="translate(304,392)"/>
<path d="M0 0 C0.07493936 4.37415276 0.12896881 8.74795155 0.16479492 13.12255859 C0.17975184 14.60634889 0.20012495 16.09009599 0.22631836 17.57373047 C0.47994287 32.32373631 -1.83102085 44.15127761 -11.875 55.5625 C-16.6611294 60.09901267 -27.30949418 68 -34 68 C-34.47017835 62.63996686 -34.38965349 59.25392659 -30.88671875 54.84765625 C-27.53520543 51.56553244 -23.67619917 48.94536594 -19.88671875 46.1953125 C-13.933351 41.66785286 -10.36974811 37.48749219 -9 30 C-8.66253517 25.5568615 -8.63434738 21.1048391 -8.609375 16.65039062 C-8.42700464 9.60380245 -7.03390517 6.37100575 -2.3125 1.125 C-1 0 -1 0 0 0 Z " fill="#976746" transform="translate(336,378)"/>
<path d="M0 0 C1.396478 0.45636536 2.7921508 0.91519488 4.1875 1.375 C5.35345703 1.75785156 5.35345703 1.75785156 6.54296875 2.1484375 C9.05744968 3.01991102 11.52912126 4.0116485 14 5 C14 13.58 14 22.16 14 31 C7.28807486 28.76269162 1.04294217 26.42714036 -5.375 23.5625 C-6.26316406 23.18029297 -7.15132812 22.79808594 -8.06640625 22.40429688 C-8.91847656 22.02466797 -9.77054688 21.64503906 -10.6484375 21.25390625 C-11.41333496 20.91689697 -12.17823242 20.5798877 -12.96630859 20.23266602 C-15.35951559 18.78208953 -16.5643579 17.39264169 -18 15 C-18 14.01 -18 13.02 -18 12 C-17.11957031 11.55269531 -16.23914063 11.10539062 -15.33203125 10.64453125 C-14.17058594 10.03996094 -13.00914062 9.43539063 -11.8125 8.8125 C-10.08966797 7.92498047 -10.08966797 7.92498047 -8.33203125 7.01953125 C-4.89608408 4.93701697 -2.69054746 2.93376079 0 0 Z " fill="#FBFBFB" transform="translate(162,369)"/>
<path d="M0 0 C0.51804199 0.39034424 1.03608398 0.78068848 1.56982422 1.18286133 C12.25395449 9.44566055 12.25395449 9.44566055 24 16 C24 18.31 24 20.62 24 23 C11.29226879 28.69459233 11.29226879 28.69459233 6.9375 27.625 C3.42712695 25.68309151 2.0644758 24.46426963 0 21 C-0.48534301 17.38205608 -0.37718417 13.82936971 -0.25 10.1875 C-0.23195312 9.20845703 -0.21390625 8.22941406 -0.1953125 7.22070312 C-0.14832887 4.81279229 -0.08265694 2.40690665 0 0 Z " fill="#FBFBFB" transform="translate(224,379)"/>
<path d="M0 0 C0.0875127 3.22899426 0.14056146 6.45768116 0.1875 9.6875 C0.21263672 10.59951172 0.23777344 11.51152344 0.26367188 12.45117188 C0.36089856 21.36361795 0.36089856 21.36361795 -3 25 C-7.18981397 27.4053602 -11.54248886 29.10224773 -16 31 C-16 23.08 -16 15.16 -16 7 C-12.7 5.68 -9.4 4.36 -6 3 C-0.75 0 -0.75 0 0 0 Z " fill="#FBFAFA" transform="translate(368,356)"/>
<path d="M0 0 C4.62 0.66 9.24 1.32 14 2 C14 7.28 14 12.56 14 18 C11.958125 17.855625 9.91625 17.71125 7.8125 17.5625 C6.66394531 17.48128906 5.51539063 17.40007812 4.33203125 17.31640625 C1.48401829 17.04596188 -1.21210482 16.62478253 -4 16 C-3.39523897 10.31524634 -1.90812185 5.39251827 0 0 Z " fill="#000100" transform="translate(178,222)"/>
<path d="M0 0 C-0.19335938 0.556875 -0.38671875 1.11375 -0.5859375 1.6875 C-2.31374425 6.75117127 -3.7693067 11.79322065 -5 17 C-5.33 17 -5.66 17 -6 17 C-6 11.72 -6 6.44 -6 1 C-3 0 -3 0 0 0 Z " fill="#8CDD5A" transform="translate(206,264)"/>
</svg>
